<svg xmlns="http://www.w3.org/2000/svg" height="512" preserveAspectRatio="none" style="display: block;" version="1.1" viewBox="0 0 2048 2048" width="512">
<defs>
	<linearGradient gradientUnits="userSpaceOnUse" id="Gradient1" x1="1122.12" x2="1119.27" y1="1103.21" y2="1091.42">
		<stop class="stop0" offset="0" stop-color="rgb(255,234,248)" stop-opacity="1"></stop>
		<stop class="stop1" offset="1" stop-color="rgb(255,255,255)" stop-opacity="1"></stop>
	</linearGradient>
	<linearGradient gradientUnits="userSpaceOnUse" id="Gradient2" x1="1188.65" x2="1106.7" y1="1141.72" y2="1124.94">
		<stop class="stop0" offset="0" stop-color="rgb(235,35,141)" stop-opacity="1"></stop>
		<stop class="stop1" offset="1" stop-color="rgb(255,96,176)" stop-opacity="1"></stop>
	</linearGradient>
	<linearGradient gradientUnits="userSpaceOnUse" id="Gradient3" x1="1258.91" x2="1253.86" y1="1214.82" y2="1221.9">
		<stop class="stop0" offset="0" stop-color="rgb(218,147,89)" stop-opacity="1"></stop>
		<stop class="stop1" offset="1" stop-color="rgb(211,165,98)" stop-opacity="1"></stop>
	</linearGradient>
	<linearGradient gradientUnits="userSpaceOnUse" id="Gradient4" x1="1169.81" x2="1155.19" y1="987.196" y2="943.804">
		<stop class="stop0" offset="0" stop-color="rgb(226,154,100)" stop-opacity="1"></stop>
		<stop class="stop1" offset="1" stop-color="rgb(255,189,144)" stop-opacity="1"></stop>
	</linearGradient>
	<linearGradient gradientUnits="userSpaceOnUse" id="Gradient5" x1="1232.31" x2="1250.86" y1="931.986" y2="947.507">
		<stop class="stop0" offset="0" stop-color="rgb(255,229,225)" stop-opacity="1"></stop>
		<stop class="stop1" offset="1" stop-color="rgb(255,255,255)" stop-opacity="1"></stop>
	</linearGradient>
	<linearGradient gradientUnits="userSpaceOnUse" id="Gradient6" x1="1065.93" x2="1088.22" y1="652.55" y2="628.285">
		<stop class="stop0" offset="0" stop-color="rgb(79,43,1)" stop-opacity="1"></stop>
		<stop class="stop1" offset="1" stop-color="rgb(120,62,4)" stop-opacity="1"></stop>
	</linearGradient>
	<linearGradient gradientUnits="userSpaceOnUse" id="Gradient7" x1="1342.9" x2="1199.44" y1="578.156" y2="634.873">
		<stop class="stop0" offset="0" stop-color="rgb(41,23,4)" stop-opacity="1"></stop>
		<stop class="stop1" offset="1" stop-color="rgb(67,28,3)" stop-opacity="1"></stop>
	</linearGradient>
	<linearGradient gradientUnits="userSpaceOnUse" id="Gradient8" x1="702.443" x2="700.752" y1="1668.87" y2="1707.51">
		<stop class="stop0" offset="0" stop-color="rgb(142,1,8)" stop-opacity="1"></stop>
		<stop class="stop1" offset="1" stop-color="rgb(179,0,48)" stop-opacity="1"></stop>
	</linearGradient>
	<linearGradient gradientUnits="userSpaceOnUse" id="Gradient9" x1="1002.81" x2="964.536" y1="1194.78" y2="1173.85">
		<stop class="stop0" offset="0" stop-color="rgb(162,0,44)" stop-opacity="1"></stop>
		<stop class="stop1" offset="1" stop-color="rgb(199,0,74)" stop-opacity="1"></stop>
	</linearGradient>
	<linearGradient gradientUnits="userSpaceOnUse" id="Gradient10" x1="1006.43" x2="938.206" y1="1176.94" y2="1091.24">
		<stop class="stop0" offset="0" stop-color="rgb(159,4,45)" stop-opacity="1"></stop>
		<stop class="stop1" offset="1" stop-color="rgb(228,19,122)" stop-opacity="1"></stop>
	</linearGradient>
</defs>
<path d="M 937.067 1088.05 C 945.623 1093.6 953.738 1103.01 961.758 1109.72 C 995.723 1138.16 1057.8 1133.57 1090.78 1105.92 C 1093.32 1110.64 1092.41 1109.98 1090.78 1116.26 C 1092.28 1113.53 1092.27 1112.49 1093.01 1109.43 C 1089.62 1162.72 1104.26 1160.85 1134.32 1187.84 C 1135.45 1188.47 1138.39 1189.88 1138.99 1190.75 L 1137.69 1191.92 C 1138.06 1194.81 1137.77 1194.81 1138.99 1197.29 L 1138.99 1200.64 C 1138.96 1217.71 1137.73 1256.4 1138.99 1271.75 C 1187.38 1290.41 1223.74 1304.64 1264.57 1336.77 C 1266.72 1338.45 1277.32 1347.2 1278.48 1347.76 C 1284.47 1355.86 1290.65 1365.69 1300.46 1369.05 C 1388.38 1465.79 1436.45 1573.66 1456.1 1702.88 C 1421.28 1747.28 1366.64 1770.66 1310.19 1764.64 C 1296.67 1763.2 1283.74 1758.8 1270.13 1757.93 L 1268.48 1757.84 C 1260.01 1763.08 1250.71 1770.84 1242.95 1776.97 C 1162.86 1840.23 1104.64 1819.72 1024.42 1785.94 C 1017.19 1788.64 1007.17 1795.1 999.96 1798.76 C 940.203 1829.11 872.727 1823.11 818.048 1784.73 C 806.878 1776.88 797.042 1766.31 785.811 1758.63 L 784.634 1757.84 C 707.17 1763.15 665.194 1773.2 596.705 1709.89 C 597.849 1583.21 671.912 1467.33 744.253 1369.05 C 739.91 1362.28 737.787 1352.53 735.721 1344.65 C 715.919 1357.05 664.885 1378.72 684.722 1331.64 C 661.104 1335.98 647.586 1329.56 662.105 1305.42 C 623.571 1285.41 701.428 1262.67 735.721 1271.75 C 737.743 1271.8 742.509 1272.03 744.253 1271.75 C 755.972 1279.94 761.794 1285.35 770.38 1296.85 L 773.012 1301.79 C 776.156 1313.8 772.368 1332.14 770.38 1344.65 C 794.21 1323.8 872.949 1278.59 902.171 1271.75 C 900.709 1251.71 902.63 1226.43 902.171 1205.11 C 902.634 1202.48 902.326 1199.97 902.171 1197.29 C 902.87 1189.01 895.027 1191.6 888.84 1190.75 C 876.388 1190.41 867.357 1183.9 858.288 1176.41 C 862.674 1172.47 862.962 1174.01 863.576 1169.49 C 870.1 1169.39 873.681 1169.57 879.444 1166.65 L 874.818 1166.08 L 875.471 1164.77 C 889.743 1157.43 942.05 1114.37 932.823 1093.11 C 935.397 1090.9 935.275 1090.96 937.067 1088.05 z" fill="rgb(199,5,86)" transform="translate(0,0)"></path>
<path d="M 895.058 1281.3 C 903.506 1276.63 1008.96 1323.62 1024.42 1331.64 C 1043.27 1323.08 1123.31 1285.6 1138.99 1281.3 C 1148.21 1303.18 1174.49 1319.81 1191.11 1335.79 C 1218.23 1361.87 1288.56 1438.12 1297.4 1475.33 C 1209.83 1483.82 1068.13 1417.12 1024.42 1335.01 C 963.652 1434.06 844.397 1483.87 730.517 1477.09 C 755.053 1391.44 879.849 1342.69 895.058 1281.3 z" fill="rgb(207,90,143)" transform="translate(0,0)"></path>
<path d="M 937.067 1088.05 C 945.623 1093.6 953.738 1103.01 961.758 1109.72 C 995.723 1138.16 1057.8 1133.57 1090.78 1105.92 C 1093.32 1110.64 1092.41 1109.98 1090.78 1116.26 C 1092.28 1113.53 1092.27 1112.49 1093.01 1109.43 C 1089.62 1162.72 1104.26 1160.85 1134.32 1187.84 C 1135.45 1188.47 1138.39 1189.88 1138.99 1190.75 L 1137.69 1191.92 C 1138.06 1194.81 1137.77 1194.81 1138.99 1197.29 L 1138.99 1200.64 C 1138.96 1217.71 1137.73 1256.4 1138.99 1271.75 L 1134.32 1274.67 C 1115.77 1288.11 1047.88 1315.16 1024.42 1321.23 C 1000.45 1313.83 927.831 1285.42 906.952 1271.75 L 902.171 1271.75 C 900.709 1251.71 902.63 1226.43 902.171 1205.11 C 902.634 1202.48 902.326 1199.97 902.171 1197.29 C 902.87 1189.01 895.027 1191.6 888.84 1190.75 C 876.388 1190.41 867.357 1183.9 858.288 1176.41 C 862.674 1172.47 862.962 1174.01 863.576 1169.49 C 870.1 1169.39 873.681 1169.57 879.444 1166.65 L 874.818 1166.08 L 875.471 1164.77 C 889.743 1157.43 942.05 1114.37 932.823 1093.11 C 935.397 1090.9 935.275 1090.96 937.067 1088.05 z" fill="rgb(251,149,183)" transform="translate(0,0)"></path>
<path d="M 937.067 1088.05 C 945.623 1093.6 953.738 1103.01 961.758 1109.72 C 995.723 1138.16 1057.8 1133.57 1090.78 1105.92 C 1093.32 1110.64 1092.41 1109.98 1090.78 1116.26 C 1039.12 1136.82 998.808 1147.38 951.585 1109.43 C 956.228 1147.21 943.666 1176.47 906.952 1190.75 L 888.84 1190.75 C 876.388 1190.41 867.357 1183.9 858.288 1176.41 C 862.674 1172.47 862.962 1174.01 863.576 1169.49 C 870.1 1169.39 873.681 1169.57 879.444 1166.65 L 874.818 1166.08 L 875.471 1164.77 C 889.743 1157.43 942.05 1114.37 932.823 1093.11 C 935.397 1090.9 935.275 1090.96 937.067 1088.05 z" fill="url(#Gradient10)" transform="translate(0,0)"></path>
<path d="M 1134.32 1187.84 C 1135.45 1188.47 1138.39 1189.88 1138.99 1190.75 L 1137.69 1191.92 C 1138.06 1194.81 1137.77 1194.81 1138.99 1197.29 L 1138.99 1200.64 C 1138.96 1217.71 1137.73 1256.4 1138.99 1271.75 L 1134.32 1274.67 L 1134.32 1187.84 z" fill="rgb(187,91,94)" transform="translate(0,0)"></path>
<path d="M 888.84 1190.75 L 906.952 1190.75 C 906.912 1214.7 905.761 1248.43 906.952 1271.75 L 902.171 1271.75 C 900.709 1251.71 902.63 1226.43 902.171 1205.11 C 902.634 1202.48 902.326 1199.97 902.171 1197.29 C 902.87 1189.01 895.027 1191.6 888.84 1190.75 z" fill="rgb(194,116,89)" transform="translate(0,0)"></path>
<path d="M 1024.42 1164.53 C 1067.45 1145.04 1095.5 1173.51 1076.61 1211.6 C 1070.89 1223.14 1030.63 1266 1018.83 1263.45 C 1016.18 1262.83 1016.32 1262.93 1013.61 1263.45 C 996.338 1245.37 976.02 1234.26 963.115 1213.22 C 949.955 1185.63 967.622 1151.01 1001.02 1157.74 C 1009.39 1159.42 1015.53 1166.93 1024.42 1164.53 z" fill="rgb(235,20,132)" transform="translate(0,0)"></path>
<path d="M 963.115 1213.22 C 949.955 1185.63 967.622 1151.01 1001.02 1157.74 C 1009.39 1159.42 1015.53 1166.93 1024.42 1164.53 L 1027.65 1164.53 L 1018.83 1169.49 C 1014.76 1167.05 1013.42 1166.21 1009.05 1164.53 C 1005.87 1172.13 977.519 1208.43 966.977 1209.24 L 966.977 1209.24 L 963.115 1213.22 z" fill="rgb(251,149,183)" transform="translate(0,0)"></path>
<path d="M 963.115 1213.22 C 949.955 1185.63 967.622 1151.01 1001.02 1157.74 C 1009.39 1159.42 1015.53 1166.93 1024.42 1164.53 L 1027.65 1164.53 L 1018.83 1169.49 C 1014.76 1167.05 1013.42 1166.21 1009.05 1164.53 C 975.903 1155.39 956.07 1174.96 966.977 1209.24 L 966.977 1209.24 L 963.115 1213.22 z" fill="url(#Gradient9)" transform="translate(0,0)"></path>
<path d="M 1024.42 1164.53 C 1067.45 1145.04 1095.5 1173.51 1076.61 1211.6 C 1070.89 1223.14 1030.63 1266 1018.83 1263.45 C 1042.86 1249.89 1085.53 1210.94 1076.89 1181.11 C 1068.59 1152.46 1049.63 1157.47 1027.65 1164.53 L 1024.42 1164.53 z" fill="rgb(174,0,49)" transform="translate(0,0)"></path>
<path d="M 966.977 1209.24 C 974.424 1234.21 1013.18 1252.08 1013.61 1263.45 C 996.338 1245.37 976.02 1234.26 963.115 1213.22 L 966.977 1209.24 z" fill="rgb(174,0,49)" transform="translate(0,0)"></path>
<path d="M 1138.99 1281.3 C 1207.31 1289.49 1326.01 1389.39 1356.85 1454.96 C 1336.3 1470.51 1322.62 1473.56 1297.4 1475.33 C 1288.56 1438.12 1218.23 1361.87 1191.11 1335.79 C 1174.49 1319.81 1148.21 1303.18 1138.99 1281.3 z" fill="rgb(246,85,165)" transform="translate(0,0)"></path>
<path d="M 767.817 1354.82 C 789.704 1331.39 864.682 1295.76 895.058 1281.3 C 879.849 1342.69 755.053 1391.44 730.517 1477.09 C 713.081 1475.16 701.6 1473.18 684.722 1469.14 C 691.92 1456.4 743.302 1376.32 752.989 1374.74 C 764.642 1375.59 764.721 1364.19 767.817 1354.82 z" fill="rgb(246,85,165)" transform="translate(0,0)"></path>
<path d="M 662.105 1305.42 C 623.571 1285.41 701.428 1262.67 735.721 1271.75 C 737.743 1271.8 742.509 1272.03 744.253 1271.75 C 755.972 1279.94 761.794 1285.35 770.38 1296.85 L 773.012 1301.79 C 776.156 1313.8 772.368 1332.14 770.38 1344.65 C 768.249 1349.17 768.15 1349.82 767.817 1354.82 C 764.721 1364.19 764.642 1375.59 752.989 1374.74 C 752.637 1374.36 745.236 1369.68 744.253 1369.05 C 739.91 1362.28 737.787 1352.53 735.721 1344.65 C 715.919 1357.05 664.885 1378.72 684.722 1331.64 C 661.104 1335.98 647.586 1329.56 662.105 1305.42 z" fill="rgb(47,48,52)" transform="translate(0,0)"></path>
<path d="M 1024.42 1344.65 C 1075.71 1435.77 1198.59 1483.54 1300.46 1483.08 C 1326.23 1481.34 1341.54 1476.25 1363.92 1462.87 C 1392.58 1526.42 1415.68 1562.54 1434.27 1636.3 C 1435.63 1641.67 1437.38 1649.66 1440.02 1654.35 C 1441.42 1658.4 1442.15 1658.21 1441.09 1661.39 L 1440.02 1662.27 C 1445.02 1691 1427.99 1701.34 1402.11 1715.2 C 1350.01 1743.09 1317.6 1738.32 1264.72 1723.51 C 1254.44 1731.86 1245.47 1741.81 1234.62 1749.85 C 1170.66 1797.2 1088.66 1800.16 1027.65 1746.54 C 961.078 1791.92 892.125 1805.77 822.877 1752.4 C 811.425 1743.57 801.596 1730.9 789.359 1723.51 C 723.007 1736.15 658.557 1738.42 605.945 1684.78 C 606.436 1678.07 607.18 1667.91 610.817 1662.27 L 610.817 1662.27 C 601.44 1633.58 664.712 1502.1 681.161 1475.33 C 695.857 1480.22 706.632 1482.24 722.092 1483.08 C 819.037 1493.8 984.109 1440.22 1024.42 1344.65 z" fill="rgb(251,149,183)" transform="translate(0,0)"></path>
<path d="M 610.817 1662.27 C 626.076 1671.3 631.755 1679.01 652.094 1689.48 C 704.73 1709.85 741.153 1708.81 793.656 1689.48 L 793.656 1694.15 C 794.564 1694.93 794.514 1694.75 795.11 1695.74 C 817.324 1732.44 868.948 1755.09 910.015 1759.07 C 955.755 1763.51 994.044 1741.55 1027.65 1712.67 C 1095.86 1778.72 1197.75 1771.9 1257.19 1698.11 C 1301.12 1722.77 1374.17 1716.28 1414.19 1685.65 C 1420.11 1681.11 1436.08 1663.84 1440.02 1662.27 C 1445.02 1691 1427.99 1701.34 1402.11 1715.2 C 1350.01 1743.09 1317.6 1738.32 1264.72 1723.51 C 1254.44 1731.86 1245.47 1741.81 1234.62 1749.85 C 1170.66 1797.2 1088.66 1800.16 1027.65 1746.54 C 961.078 1791.92 892.125 1805.77 822.877 1752.4 C 811.425 1743.57 801.596 1730.9 789.359 1723.51 C 723.007 1736.15 658.557 1738.42 605.945 1684.78 C 606.436 1678.07 607.18 1667.91 610.817 1662.27 L 610.817 1662.27 z" fill="rgb(246,85,165)" transform="translate(0,0)"></path>
<path d="M 610.817 1662.27 C 626.076 1671.3 631.755 1679.01 652.094 1689.48 C 704.73 1709.85 741.153 1708.81 793.656 1689.48 L 793.656 1694.15 C 735.502 1720.58 652.384 1714.76 610.817 1662.27 L 610.817 1662.27 z" fill="url(#Gradient8)" transform="translate(0,0)"></path>
<path d="M 1363.92 1462.87 C 1392.58 1526.42 1415.68 1562.54 1434.27 1636.3 C 1435.63 1641.67 1437.38 1649.66 1440.02 1654.35 C 1415.99 1679.32 1388.48 1699.6 1353.09 1702.88 L 1352 1702.93 L 1350.93 1701.74 C 1361.65 1647.59 1336.34 1573.46 1316.88 1523.39 C 1312.14 1511.21 1302.27 1494.09 1300.46 1483.08 C 1326.23 1481.34 1341.54 1476.25 1363.92 1462.87 z" fill="rgb(253,175,210)" transform="translate(0,0)"></path>
<path d="M 681.161 1475.33 C 695.857 1480.22 706.632 1482.24 722.092 1483.08 C 693.172 1540.09 667.507 1603.92 656.458 1667.13 C 655.413 1673.12 654.117 1684.15 652.094 1689.48 C 631.755 1679.01 626.076 1671.3 610.817 1662.27 C 601.44 1633.58 664.712 1502.1 681.161 1475.33 z" fill="rgb(253,175,210)" transform="translate(0,0)"></path>
<path d="M 1244.85 1622.95 C 1253.96 1648.11 1254.21 1671.22 1261.87 1694.15 C 1282.61 1702.68 1332.2 1714.44 1353.09 1702.88 C 1388.48 1699.6 1415.99 1679.32 1440.02 1654.35 C 1441.42 1658.4 1442.15 1658.21 1441.09 1661.39 L 1440.02 1662.27 C 1436.08 1663.84 1420.11 1681.11 1414.19 1685.65 C 1374.17 1716.28 1301.12 1722.77 1257.19 1698.11 C 1197.75 1771.9 1095.86 1778.72 1027.65 1712.67 C 994.044 1741.55 955.755 1763.51 910.015 1759.07 C 868.948 1755.09 817.324 1732.44 795.11 1695.74 C 794.514 1694.75 794.564 1694.93 793.656 1694.15 L 793.656 1689.48 L 799.481 1694.15 C 805.581 1698.3 814.87 1711.53 822.117 1716.9 C 888.392 1766.08 960.592 1767.75 1021.99 1709.89 C 1020.76 1688.84 1023.22 1658.53 1024.42 1636.9 L 1027.65 1636.9 C 1026.22 1656.55 1029.94 1687.92 1029.8 1709.89 C 1095.44 1768.59 1204.04 1765.48 1253.03 1694.15 C 1253.31 1672.83 1246.91 1645.08 1244.85 1622.95 L 1244.85 1622.95 z" fill="rgb(174,0,49)" transform="translate(0,0)"></path>
<path d="M 793.656 1689.48 C 796.469 1686.22 805.654 1617.97 811.039 1610.22 C 810.967 1633.41 798.191 1671.83 799.481 1694.15 L 793.656 1689.48 z" fill="rgb(199,5,86)" transform="translate(0,0)"></path>
<path d="M 1024.42 1636.9 C 1024.73 1620.21 1027.53 1619.02 1027.65 1636.9 L 1024.42 1636.9 z" fill="rgb(207,90,143)" transform="translate(0,0)"></path>
<path d="M 1244.85 1622.95 C 1243.78 1619.06 1242.14 1613.79 1241.54 1609.94 L 1242.63 1611.43 L 1241.62 1608.14 L 1242.08 1611.6 L 1242.51 1610.07 C 1243.52 1614.7 1244.21 1618.26 1244.85 1622.95 L 1244.85 1622.95 z" fill="rgb(207,90,143)" transform="translate(0,0)"></path>
<path d="M 735.721 491.595 C 761.744 450.837 866.025 410.884 911.585 407.42 C 911.638 409.808 911.939 415.726 911.585 417.834 C 912.931 421.943 914.275 426.642 916.184 430.462 C 920.804 433.677 922.956 435.305 928.222 437.613 C 942.365 442.938 967.532 446.573 976.695 450.544 C 1000.57 454.426 1048.78 457.057 1071.73 450.544 C 1079.19 450.293 1085.53 450.336 1093.01 450.544 L 1093.01 450.544 C 1104.76 447.213 1111.55 445.572 1123.09 440.947 L 1123.09 437.613 L 1126.17 437.613 C 1131.08 435.167 1136.87 432.727 1141.95 430.462 C 1213.43 440.342 1244.55 487.43 1294.06 525.905 L 1295.13 527.284 C 1355.19 603.915 1390.96 645.572 1384.67 754.477 C 1384.31 760.668 1384.42 767.26 1384.96 773.571 C 1404.24 783.175 1408.88 797.13 1417.8 815.589 C 1416.46 825.743 1416.44 844.407 1413.11 852.977 C 1403.8 873.702 1392.72 891.303 1368.76 896.671 C 1363.49 898.328 1358.31 899.945 1353.09 901.784 C 1304.45 1009.28 1201.59 1057.5 1090.78 1073.37 C 1097.03 1076.71 1100.64 1078.97 1106.51 1082.96 C 1109.9 1082.81 1111.92 1082.73 1115.29 1082.96 C 1110.99 1086.17 1093.8 1101.87 1090.78 1105.92 C 1057.8 1133.57 995.723 1138.16 961.758 1109.72 C 953.738 1103.01 945.623 1093.6 937.067 1088.05 L 945.481 1085.56 C 948.369 1082.13 962.163 1075.74 966.977 1073.37 C 849.608 1048.59 763.549 1018.67 699.224 905.199 C 694.886 904.557 691.922 903.273 687.858 901.784 C 666.969 899.574 657.998 892.084 643.375 877.922 C 628.465 852.908 626.384 838.872 632.02 810.511 C 645.592 790.728 653.543 781.672 678.184 778.368 C 675.579 770.741 673.152 764.774 669.977 757.346 C 668.492 754.545 667.324 751.305 666.136 748.326 C 641.946 695.198 696.088 591.371 725.116 546.882 C 716.271 541.02 715.636 530.228 714.879 520.714 C 718.82 508.022 725.819 500.196 735.721 491.595 z" fill="rgb(253,215,170)" transform="translate(0,0)"></path>
<path d="M 735.721 491.595 C 761.744 450.837 866.025 410.884 911.585 407.42 C 911.638 409.808 911.939 415.726 911.585 417.834 C 912.931 421.943 914.275 426.642 916.184 430.462 C 920.804 433.677 922.956 435.305 928.222 437.613 C 942.365 442.938 967.532 446.573 976.695 450.544 C 1000.57 454.426 1048.78 457.057 1071.73 450.544 C 1079.19 450.293 1085.53 450.336 1093.01 450.544 L 1093.01 450.544 C 1104.76 447.213 1111.55 445.572 1123.09 440.947 L 1123.09 437.613 L 1126.17 437.613 C 1131.08 435.167 1136.87 432.727 1141.95 430.462 C 1213.43 440.342 1244.55 487.43 1294.06 525.905 L 1295.13 527.284 C 1355.19 603.915 1390.96 645.572 1384.67 754.477 C 1384.31 760.668 1384.42 767.26 1384.96 773.571 C 1381.68 773.419 1376.55 772.942 1373.49 773.571 C 1371.79 779.856 1368.14 792.955 1368.76 799.446 L 1363.92 802.929 C 1362.54 804.864 1362.66 804.816 1360.69 806.108 C 1357.62 814.387 1355.5 817.936 1356.85 826.665 L 1354.83 830.307 L 1353.62 830.403 C 1347.91 822.06 1350.72 781.775 1345.18 778.368 L 1345.18 778.368 C 1346.33 773.208 1345.64 769.917 1345.18 764.63 C 1333.33 760.879 1322.4 755.537 1310.72 751.156 L 1310.72 751.156 C 1301.11 745.95 1288.69 742.332 1278.48 737.649 L 1282.53 736.58 C 1282.58 733.938 1256.34 719.819 1252.77 718.016 C 1209.66 696.304 1168.06 670.019 1137.06 632.257 C 1130 623.66 1101.63 585.158 1104.42 576.079 C 1103.67 574.084 1098.15 554.804 1094.07 561.477 C 1084.57 577.02 1104.45 661.475 1115.29 684.813 L 1114.07 685.274 C 1100.42 680.386 1054.46 624.1 1053.38 609.469 C 1046.94 601.126 1045.53 598.098 1046.1 588.005 C 1044.37 586.319 1038.56 582.442 1035.95 580.353 C 1034.16 572.312 1032.36 563.111 1029.8 555.382 C 1028.9 551.964 1025.41 543.564 1022.36 541.789 L 1020.63 542.515 C 1018.31 546.407 1018.88 550.651 1018.83 555.382 C 1006.25 607.972 949.913 640.649 928.222 676.72 C 922.401 682.748 917.942 686.802 911.585 692.307 C 925.691 661.24 966.753 580.661 961.335 553.55 L 959.871 552.959 C 954.246 556.253 948.605 569.802 945.481 576.079 C 947.472 580.256 947.989 581.042 945.806 586.452 C 911.269 672.085 806.321 738.704 714.879 744.586 C 697.334 746.113 683.854 747.51 666.136 748.326 C 641.946 695.198 696.088 591.371 725.116 546.882 C 716.271 541.02 715.636 530.228 714.879 520.714 C 718.82 508.022 725.819 500.196 735.721 491.595 z" fill="rgb(69,33,4)" transform="translate(0,0)"></path>
<path d="M 828.719 542.358 C 849.815 519.845 922.952 478.901 951.477 481.138 C 985.78 483.828 1021.55 501.283 1058.95 484.706 C 1141.37 448.17 1245.79 574.49 1278.74 636.817 C 1297.73 672.752 1320.88 704.551 1336.38 744.586 C 1258.01 702.27 1175 668.72 1119.59 594.871 C 1115.16 588.972 1109.42 581.677 1104.42 576.079 C 1103.67 574.084 1098.15 554.804 1094.07 561.477 C 1084.57 577.02 1104.45 661.475 1115.29 684.813 L 1114.07 685.274 C 1100.42 680.386 1054.46 624.1 1053.38 609.469 C 1046.94 601.126 1045.53 598.098 1046.1 588.005 C 1044.37 586.319 1038.56 582.442 1035.95 580.353 C 1034.16 572.312 1032.36 563.111 1029.8 555.382 C 1028.9 551.964 1025.41 543.564 1022.36 541.789 L 1020.63 542.515 C 1018.31 546.407 1018.88 550.651 1018.83 555.382 C 1006.25 607.972 949.913 640.649 928.222 676.72 C 922.401 682.748 917.942 686.802 911.585 692.307 C 925.691 661.24 966.753 580.661 961.335 553.55 L 959.871 552.959 C 954.246 556.253 948.605 569.802 945.481 576.079 C 894.352 665.179 812.984 717.83 711.054 737.649 C 724.839 692.717 763.664 592.055 802.202 568.894 C 811.425 554.849 815.013 551.779 828.719 542.358 z" fill="rgb(136,80,14)" transform="translate(0,0)"></path>
<path d="M 1046.1 588.005 C 1064.08 551.14 1102.57 623.826 1053.38 609.469 C 1046.94 601.126 1045.53 598.098 1046.1 588.005 z" fill="rgb(217,154,94)" transform="translate(0,0)"></path>
<path d="M 828.719 542.358 C 853.779 566.31 817.383 589.981 802.202 568.894 C 811.425 554.849 815.013 551.779 828.719 542.358 z" fill="rgb(197,138,76)" transform="translate(0,0)"></path>
<path d="M 1144.36 563.193 C 1171.1 564.449 1178.4 592.999 1152.53 601.194 C 1127.35 600.287 1119.97 569.952 1144.36 563.193 z" fill="rgb(217,154,94)" transform="translate(0,0)"></path>
<path d="M 863.576 555.382 C 884.37 556.925 892.509 583.943 867.814 593.276 C 839.21 593.68 838.093 559.08 863.576 555.382 z" fill="rgb(197,138,76)" transform="translate(0,0)"></path>
<path d="M 1141.95 430.462 C 1213.43 440.342 1244.55 487.43 1294.06 525.905 L 1295.13 527.284 C 1355.19 603.915 1390.96 645.572 1384.67 754.477 C 1384.31 760.668 1384.42 767.26 1384.96 773.571 C 1381.68 773.419 1376.55 772.942 1373.49 773.571 C 1371.79 779.856 1368.14 792.955 1368.76 799.446 L 1363.92 802.929 C 1362.54 804.864 1362.66 804.816 1360.69 806.108 C 1358.6 798.9 1360.59 795.557 1360.27 788.507 C 1357 712.587 1302.8 655.359 1264.75 594.085 C 1225.5 530.886 1155.02 470.362 1081.14 454.125 L 1093.01 450.544 C 1104.76 447.213 1111.55 445.572 1123.09 440.947 L 1123.09 437.613 L 1126.17 437.613 C 1131.08 435.167 1136.87 432.727 1141.95 430.462 z" fill="rgb(136,80,14)" transform="translate(0,0)"></path>
<path d="M 1141.95 430.462 C 1213.43 440.342 1244.55 487.43 1294.06 525.905 L 1295.13 527.284 C 1355.19 603.915 1390.96 645.572 1384.67 754.477 C 1384.31 760.668 1384.42 767.26 1384.96 773.571 C 1381.68 773.419 1376.55 772.942 1373.49 773.571 C 1371.79 779.856 1368.14 792.955 1368.76 799.446 L 1363.92 802.929 C 1346.16 762.171 1382.36 677.198 1332.26 593.098 C 1287.7 518.274 1222.42 459.11 1137.35 435.263 L 1123.09 440.947 L 1123.09 437.613 L 1126.17 437.613 C 1131.08 435.167 1136.87 432.727 1141.95 430.462 z" fill="url(#Gradient7)" transform="translate(0,0)"></path>
<path d="M 1261.87 532.967 C 1283.61 526.872 1293.11 545.271 1274.94 559.446 C 1260.87 565.247 1243.83 541.918 1261.87 532.967 z" fill="rgb(217,154,94)" transform="translate(0,0)"></path>
<path d="M 928.222 437.613 C 942.365 442.938 967.532 446.573 976.695 450.544 C 970.007 460.559 921.847 470.694 906.338 475.503 C 860.655 489.666 828.124 520.673 793.656 551.127 C 788.337 555.398 781.117 563.63 775.942 568.894 C 756.884 564.089 755.735 549.745 757.136 532.967 C 761.065 527.929 763.326 525.29 767.817 520.714 C 798.413 482.18 853.364 458.561 899.444 444.13 C 908.729 441.222 919.499 440.989 928.222 437.613 z" fill="rgb(136,80,14)" transform="translate(0,0)"></path>
<path d="M 767.817 520.714 C 782.054 521.392 786.894 522.719 793.656 536.201 C 793.872 541.139 794.338 546.274 793.656 551.127 C 788.337 555.398 781.117 563.63 775.942 568.894 C 756.884 564.089 755.735 549.745 757.136 532.967 C 761.065 527.929 763.326 525.29 767.817 520.714 z" fill="rgb(217,154,94)" transform="translate(0,0)"></path>
<path d="M 691.51 744.586 C 653.532 693.182 721.243 567.007 757.136 532.967 C 755.735 549.745 756.884 564.089 775.942 568.894 C 772.158 576.382 750.836 602.63 744.037 613.038 C 714.842 657.735 703.687 693.785 691.51 744.586 z" fill="rgb(136,80,14)" transform="translate(0,0)"></path>
<path d="M 735.721 491.595 C 761.744 450.837 866.025 410.884 911.585 407.42 C 911.638 409.808 911.939 415.726 911.585 417.834 C 910.541 420.418 909.29 425.503 906.543 426.116 C 862.117 436.032 820.267 454.192 784.473 482.644 C 777.037 488.555 767.726 498.529 760.105 503.231 C 753.192 495.7 745.619 492.586 735.721 491.595 z" fill="rgb(136,80,14)" transform="translate(0,0)"></path>
<path d="M 735.721 491.595 C 745.619 492.586 753.192 495.7 760.105 503.231 C 746.204 518.465 737.391 530.259 725.116 546.882 C 716.271 541.02 715.636 530.228 714.879 520.714 C 718.82 508.022 725.819 500.196 735.721 491.595 z" fill="rgb(217,154,94)" transform="translate(0,0)"></path>
<path d="M 744.253 860.716 C 731.791 730.745 927.828 692.818 966.977 819.528 C 969.695 848.366 980.988 866.783 965.796 900.726 C 963.157 906.761 952.743 922.364 951.585 926.059 C 943.228 935.389 929.194 952.129 918.163 957.342 L 916.184 956.646 C 885.743 975.589 865.083 982.319 828.719 973.365 C 788.862 957.756 768.661 927.857 757.136 888.184 C 748.986 883.976 747.594 869.6 744.711 861.917 L 744.253 860.716 z" fill="rgb(47,48,52)" transform="translate(0,0)"></path>
<path d="M 744.253 860.716 C 731.791 730.745 927.828 692.818 966.977 819.528 C 969.695 848.366 980.988 866.783 965.796 900.726 C 963.157 906.761 952.743 922.364 951.585 926.059 C 943.228 935.389 929.194 952.129 918.163 957.342 L 916.184 956.646 C 966.93 914.83 972.875 819.634 921.304 783.031 C 899.952 749.978 837.1 746.442 806.882 768.447 C 781.591 786.864 771.772 805.453 760.105 833.554 C 756.666 856.309 755.509 864.915 757.136 888.184 C 748.986 883.976 747.594 869.6 744.711 861.917 L 744.253 860.716 z" fill="rgb(253,252,251)" transform="translate(0,0)"></path>
<path d="M 760.105 833.554 C 771.772 805.453 781.591 786.864 806.882 768.447 C 837.1 746.442 899.952 749.978 921.304 783.031 L 920.79 784.3 C 899.163 765.856 900.577 775.771 917.675 785.532 L 918.393 787.175 C 908.158 783.587 896.954 771.885 882.921 768.429 C 790.483 745.662 775.613 833.875 760.105 833.554 z" fill="rgb(0,0,0)" transform="translate(0,0)"></path>
<path d="M 855.395 832.819 C 850.397 814.407 860.992 795.368 879.273 789.911 C 897.554 784.453 916.852 794.568 922.766 812.706 C 928.679 830.844 919.052 850.39 901.067 856.757 C 946.461 909.082 889.202 966.933 834.715 941.977 C 821.758 936.042 817.927 923.685 809.138 917.607 C 800.236 921.811 779.318 928.654 775.942 914.988 C 768.006 907.126 768.327 901.804 775.942 893.868 C 784.65 883.976 787.023 886.181 799.481 888.184 C 796.642 855.687 822.586 826.616 855.395 832.819 z" fill="rgb(0,0,0)" transform="translate(0,0)"></path>
<path d="M 855.395 832.819 C 850.397 814.407 860.992 795.368 879.273 789.911 C 897.554 784.453 916.852 794.568 922.766 812.706 C 928.679 830.844 919.052 850.39 901.067 856.757 C 891.843 860.022 881.675 859.296 873.007 854.754 C 864.34 850.211 857.958 842.262 855.395 832.819 z" fill="rgb(253,252,251)" transform="translate(0,0)"></path>
<path d="M 799.481 888.184 C 815.769 890.696 818.389 906.527 809.138 917.607 L 809.138 917.607 C 800.236 921.811 779.318 928.654 775.942 914.988 C 768.006 907.126 768.327 901.804 775.942 893.868 C 784.65 883.976 787.023 886.181 799.481 888.184 z" fill="rgb(128,114,113)" transform="translate(0,0)"></path>
<path d="M 775.942 893.868 C 789.731 894.47 797.287 901.782 789.359 914.988 C 783.308 915.659 781.972 915.705 775.942 914.988 C 768.006 907.126 768.327 901.804 775.942 893.868 z" fill="rgb(253,252,251)" transform="translate(0,0)"></path>
<path d="M 775.942 914.988 C 781.972 915.705 783.308 915.659 789.359 914.988 L 790.238 915.049 C 799.044 915.592 800.981 912.854 809.138 917.607 L 809.138 917.607 C 800.236 921.811 779.318 928.654 775.942 914.988 z" fill="rgb(87,85,86)" transform="translate(0,0)"></path>
<path d="M 853.741 854.444 C 859.077 854.039 863.75 857.995 864.23 863.325 C 864.711 868.655 860.821 873.383 855.499 873.939 C 851.988 874.306 848.551 872.754 846.505 869.877 C 844.459 867 844.121 863.245 845.619 860.049 C 847.118 856.852 850.221 854.711 853.741 854.444 z" fill="rgb(253,252,251)" transform="translate(0,0)"></path>
<path d="M 1077.34 822.732 C 1113.45 714.867 1266.49 708.919 1297.4 837.261 C 1292.27 859.37 1293.48 879.554 1284.38 901.784 C 1275.58 906.379 1272.59 918.209 1264.72 917.607 C 1244.65 948.722 1228.53 964.169 1191.52 973.365 C 1162.2 974.646 1141.43 970.355 1117.31 951.92 C 1083.73 917.298 1071.73 885.712 1084.43 837.261 C 1074.16 834.065 1077.07 832.385 1077.34 822.732 z" fill="rgb(47,48,52)" transform="translate(0,0)"></path>
<path d="M 1077.34 822.732 C 1113.45 714.867 1266.49 708.919 1297.4 837.261 C 1292.27 859.37 1293.48 879.554 1284.38 901.784 C 1275.58 906.379 1272.59 918.209 1264.72 917.607 C 1283.73 866.953 1278.96 810.934 1235.69 773.571 C 1194.74 742.039 1145.39 750.13 1110.45 786.478 C 1096.84 804.92 1089.28 814.429 1084.43 837.261 C 1074.16 834.065 1077.07 832.385 1077.34 822.732 z" fill="rgb(253,252,251)" transform="translate(0,0)"></path>
<path d="M 1110.45 786.478 C 1145.39 750.13 1194.74 742.039 1235.69 773.571 L 1233.77 774.517 C 1230.75 772.73 1226 768.698 1223.96 768.995 L 1222.51 770.773 C 1223.79 773.153 1225.59 773.957 1227.89 775.452 C 1215.25 776.551 1190.71 750.778 1144.44 773.659 C 1136.12 777.773 1119.41 791.803 1110.45 786.478 z" fill="rgb(0,0,0)" transform="translate(0,0)"></path>
<path d="M 1126.17 896.671 C 1101.99 871.114 1138.75 830.54 1183.91 838.112 C 1188.9 845.521 1196.97 850.279 1205.87 851.058 C 1217.12 864.412 1223.09 873.546 1221.68 892.078 C 1216.08 965.664 1122.6 951.159 1126.17 910.036 C 1127.27 904.522 1127 902.181 1126.17 896.671 z" fill="rgb(0,0,0)" transform="translate(0,0)"></path>
<path d="M 1162.35 856.182 C 1167.95 855.529 1173.07 859.435 1173.91 865.016 C 1174.76 870.596 1171.03 875.844 1165.49 876.883 C 1161.72 877.587 1157.87 876.182 1155.45 873.219 C 1153.03 870.256 1152.41 866.206 1153.85 862.657 C 1155.28 859.108 1158.54 856.625 1162.35 856.182 z" fill="rgb(253,252,251)" transform="translate(0,0)"></path>
<path d="M 1183.91 838.112 C 1176.19 826.65 1177.44 811.372 1186.91 801.314 C 1196.39 791.255 1211.56 789.096 1223.47 796.115 C 1235.37 803.133 1240.83 817.457 1236.61 830.616 C 1232.4 843.775 1219.63 852.262 1205.87 851.058 C 1196.97 850.279 1188.9 845.521 1183.91 838.112 z" fill="rgb(253,252,251)" transform="translate(0,0)"></path>
<path d="M 1098.85 893.868 C 1111.13 892.399 1113.89 890.594 1126.17 896.671 C 1127 902.181 1127.27 904.522 1126.17 910.036 C 1117.58 912.403 1114.53 916.725 1106.51 917.607 C 1094.9 918.328 1077.57 906.001 1098.85 893.868 z" fill="rgb(253,252,251)" transform="translate(0,0)"></path>
<path d="M 1098.85 893.868 C 1111.13 892.399 1113.89 890.594 1126.17 896.671 C 1127 902.181 1127.27 904.522 1126.17 910.036 C 1117.58 912.403 1114.53 916.725 1106.51 917.607 C 1115.03 906.275 1113.07 897.888 1098.85 893.868 z" fill="rgb(87,85,86)" transform="translate(0,0)"></path>
<path d="M 1373.49 773.571 C 1376.55 772.942 1381.68 773.419 1384.96 773.571 C 1404.24 783.175 1408.88 797.13 1417.8 815.589 C 1416.46 825.743 1416.44 844.407 1413.11 852.977 C 1403.8 873.702 1392.72 891.303 1368.76 896.671 C 1363.49 898.328 1358.31 899.945 1353.09 901.784 C 1304.45 1009.28 1201.59 1057.5 1090.78 1073.37 C 1097.03 1076.71 1100.64 1078.97 1106.51 1082.96 C 1109.9 1082.81 1111.92 1082.73 1115.29 1082.96 C 1110.99 1086.17 1093.8 1101.87 1090.78 1105.92 C 1057.8 1133.57 995.723 1138.16 961.758 1109.72 C 953.738 1103.01 945.623 1093.6 937.067 1088.05 L 945.481 1085.56 C 948.369 1082.13 962.163 1075.74 966.977 1073.37 C 849.608 1048.59 763.549 1018.67 699.224 905.199 C 694.886 904.557 691.922 903.273 687.858 901.784 C 666.969 899.574 657.998 892.084 643.375 877.922 C 628.465 852.908 626.384 838.872 632.02 810.511 C 645.592 790.728 653.543 781.672 678.184 778.368 C 680.655 779.878 682.724 780.925 684.722 783.031 C 688.487 787.958 689.536 791.438 696.158 791.333 L 699.233 792.549 L 698.825 793.173 C 696.616 792.773 694.273 791.367 693.137 791.333 C 692.955 800.345 693.615 814.65 693.137 822.732 C 700.208 877.755 701.347 893.451 733.984 939.796 C 865.951 1127.19 1266.74 1114.78 1347.81 888.184 C 1405.89 893.552 1423.76 823.975 1388.44 789.522 C 1378.15 779.488 1372.52 795.73 1368.76 802.929 L 1368.76 799.446 C 1368.14 792.955 1371.79 779.856 1373.49 773.571 z" fill="rgb(217,154,94)" transform="translate(0,0)"></path>
<path d="M 945.481 1085.56 L 945.491 1086.09 C 943.792 1088.11 944.296 1087.57 943.283 1090.17 L 943.789 1090.55 C 945.338 1088.68 944.63 1089.29 945.894 1088.45 L 945.381 1087.89 L 946.643 1088.02 C 987.223 1067.62 1028.3 1081.14 1074.34 1076.15 C 1084.79 1075.02 1096.38 1083.43 1106.51 1082.96 C 1109.9 1082.81 1111.92 1082.73 1115.29 1082.96 C 1110.99 1086.17 1093.8 1101.87 1090.78 1105.92 C 1057.8 1133.57 995.723 1138.16 961.758 1109.72 C 953.738 1103.01 945.623 1093.6 937.067 1088.05 L 945.481 1085.56 z" fill="rgb(253,215,170)" transform="translate(0,0)"></path>
<path d="M 696.158 896.671 C 655.338 886.978 612.836 846.727 643.368 807.034 C 649.742 798.748 669.761 777.092 681.161 786.478 C 681.193 794.49 681.246 802.5 681.161 810.511 C 675.035 836.724 685.745 872.47 696.158 896.671 z" fill="rgb(253,215,170)" transform="translate(0,0)"></path>
<path d="M 684.722 783.031 C 688.487 787.958 689.536 791.438 696.158 791.333 L 699.233 792.549 L 698.825 793.173 C 696.616 792.773 694.273 791.367 693.137 791.333 C 692.955 800.345 693.615 814.65 693.137 822.732 L 692.598 830.776 L 692.676 830.687 L 691.788 830.253 C 691.036 815.518 697.028 799.116 686.481 801.833 L 684.921 799.676 L 683.825 800.211 C 681.832 807.506 682.744 812.488 681.612 819.669 L 681.161 810.511 C 681.246 802.5 681.193 794.49 681.161 786.478 L 684.722 783.031 z" fill="rgb(197,138,76)" transform="translate(0,0)"></path>
<path d="M 1018.83 555.382 C 1018.88 550.651 1018.31 546.407 1020.63 542.515 L 1022.36 541.789 C 1025.41 543.564 1028.9 551.964 1029.8 555.382 C 1032.36 563.111 1034.16 572.312 1035.95 580.353 C 1038.56 582.442 1044.37 586.319 1046.1 588.005 C 1045.53 598.098 1046.94 601.126 1053.38 609.469 C 1054.46 624.1 1100.42 680.386 1114.07 685.274 L 1115.29 684.813 C 1104.45 661.475 1084.57 577.02 1094.07 561.477 C 1098.15 554.804 1103.67 574.084 1104.42 576.079 C 1101.63 585.158 1130 623.66 1137.06 632.257 C 1168.06 670.019 1209.66 696.304 1252.77 718.016 C 1256.34 719.819 1282.58 733.938 1282.53 736.58 L 1278.48 737.649 C 1180.64 687.25 1159 682.703 1098.85 588.005 C 1106.26 619.588 1111.27 652.437 1121.9 683.335 C 1126.38 696.373 1131.07 706.196 1134.32 719.791 C 1081.49 685.457 1042.65 642.746 1024.42 580.353 C 995.485 633.351 949.761 683.834 895.058 710.768 C 903.187 683.793 923.253 661.973 932.823 628.058 C 888.147 695.06 801.2 740.746 722.092 751.156 C 738.956 785.923 756.804 760.113 777.476 749.138 C 839.212 716.362 913.205 712.12 953.163 779.275 C 960.024 790.807 967.086 806.06 966.977 819.528 C 927.828 692.818 731.791 730.745 744.253 860.716 C 739.698 848.537 740.218 828.851 740.33 815.589 C 727.992 812.791 700.339 806.787 693.137 796.024 C 693.452 794.081 693.251 793.33 693.137 791.333 C 694.273 791.367 696.616 792.773 698.825 793.173 L 699.233 792.549 L 696.158 791.333 C 689.536 791.438 688.487 787.958 684.722 783.031 C 682.724 780.925 680.655 779.878 678.184 778.368 C 675.579 770.741 673.152 764.774 669.977 757.346 C 668.492 754.545 667.324 751.305 666.136 748.326 C 683.854 747.51 697.334 746.113 714.879 744.586 C 806.321 738.704 911.269 672.085 945.806 586.452 C 947.989 581.042 947.472 580.256 945.481 576.079 C 948.605 569.802 954.246 556.253 959.871 552.959 L 961.335 553.55 C 966.753 580.661 925.691 661.24 911.585 692.307 C 917.942 686.802 922.401 682.748 928.222 676.72 C 949.913 640.649 1006.25 607.972 1018.83 555.382 z" fill="rgb(0,0,0)" transform="translate(0,0)"></path>
<path d="M 1018.83 555.382 C 1028.77 592.06 953.68 671.484 928.222 676.72 C 949.913 640.649 1006.25 607.972 1018.83 555.382 z" fill="rgb(69,33,4)" transform="translate(0,0)"></path>
<path d="M 1035.95 580.353 C 1038.56 582.442 1044.37 586.319 1046.1 588.005 C 1045.53 598.098 1046.94 601.126 1053.38 609.469 C 1054.46 624.1 1100.42 680.386 1114.07 685.274 L 1115.29 684.813 C 1116.98 689.669 1120.77 697.158 1123.09 702.068 C 1086.26 679.426 1046.69 632.965 1038.68 590.254 C 1037.71 586.927 1036.83 583.703 1035.95 580.353 z" fill="url(#Gradient6)" transform="translate(0,0)"></path>
<path d="M 693.137 764.63 C 714.511 784.114 720.902 782.827 740.33 796.024 C 721.001 803.334 710.468 797.133 693.137 796.024 C 693.452 794.081 693.251 793.33 693.137 791.333 C 694.273 791.367 696.616 792.773 698.825 793.173 L 699.233 792.549 L 696.158 791.333 C 694.393 784.886 693.389 771.488 693.137 764.63 z" fill="rgb(253,215,170)" transform="translate(0,0)"></path>
<path d="M 669.977 757.346 C 679.281 756.649 684.054 756.106 693.137 757.346 L 693.137 762.104 L 693.137 764.63 C 693.389 771.488 694.393 784.886 696.158 791.333 C 689.536 791.438 688.487 787.958 684.722 783.031 C 682.724 780.925 680.655 779.878 678.184 778.368 C 675.579 770.741 673.152 764.774 669.977 757.346 z" fill="rgb(69,33,4)" transform="translate(0,0)"></path>
<path d="M 693.137 757.346 C 732.65 757.408 702.849 762.629 740.33 778.368 C 717.718 776.191 712.697 773.847 693.137 762.104 L 693.137 757.346 z" fill="rgb(253,215,170)" transform="translate(0,0)"></path>
<path d="M 1029.8 555.382 C 1032.36 563.111 1034.16 572.312 1035.95 580.353 C 1036.83 583.703 1037.71 586.927 1038.68 590.254 C 1026.61 581.171 1028.63 568.483 1029.8 555.382 z" fill="rgb(29,14,1)" transform="translate(0,0)"></path>
<path d="M 760.105 783.031 C 760.074 784.731 745.87 815.852 744.253 819.528 C 742.921 810.707 754.435 789.885 760.105 783.031 z" fill="rgb(189,189,187)" transform="translate(0,0)"></path>
<path d="M 1077.34 822.732 C 1076.71 812.171 1086.3 791.242 1091.16 782.212 C 1123.07 722.905 1195.12 710.137 1251.63 742.395 C 1262.96 748.857 1272.9 755.956 1284.38 762.104 C 1292.1 760.521 1303.55 754.677 1310.72 751.156 L 1310.72 751.156 C 1322.4 755.537 1333.33 760.879 1345.18 764.63 C 1345.64 769.917 1346.33 773.208 1345.18 778.368 L 1345.18 778.368 C 1330.15 791.455 1307.58 787.782 1288.48 786.478 C 1309.89 801.663 1319.13 804.202 1345.18 799.446 C 1330.22 808.564 1314.92 816.256 1297.4 810.511 C 1297.97 817.374 1300.12 831.886 1297.4 837.261 C 1266.49 708.919 1113.45 714.867 1077.34 822.732 z" fill="rgb(0,0,0)" transform="translate(0,0)"></path>
<path d="M 1310.72 751.156 C 1322.4 755.537 1333.33 760.879 1345.18 764.63 C 1345.64 769.917 1346.33 773.208 1345.18 778.368 C 1327.21 776.541 1314.72 772.726 1297.4 767.944 C 1301.96 762.551 1306.36 756.745 1310.72 751.156 z" fill="rgb(253,215,170)" transform="translate(0,0)"></path>
<path d="M 951.585 926.059 C 960.698 958.102 854.629 1005.81 828.719 973.365 C 865.083 982.319 885.743 975.589 916.184 956.646 L 918.163 957.342 C 929.194 952.129 943.228 935.389 951.585 926.059 z" fill="rgb(217,154,94)" transform="translate(0,0)"></path>
<path d="M 1264.72 917.607 C 1272.59 918.209 1275.58 906.379 1284.38 901.784 C 1264.77 953.004 1233.76 950.175 1216.51 973.365 C 1210.76 973.823 1195.49 976.075 1191.52 973.365 C 1228.53 964.169 1244.65 948.722 1264.72 917.607 z" fill="url(#Gradient5)" transform="translate(0,0)"></path>
<path d="M 1117.31 951.92 C 1141.43 970.355 1162.2 974.646 1191.52 973.365 C 1195.49 976.075 1210.76 973.823 1216.51 973.365 C 1195.08 986.921 1118.3 981.64 1117.31 951.92 z" fill="url(#Gradient4)" transform="translate(0,0)"></path>
<path d="M 1368.76 799.446 L 1368.76 802.929 C 1364.41 813.007 1362.32 817.339 1356.85 826.665 C 1355.5 817.936 1357.62 814.387 1360.69 806.108 C 1362.66 804.816 1362.54 804.864 1363.92 802.929 L 1368.76 799.446 z" fill="rgb(197,138,76)" transform="translate(0,0)"></path>
<path d="M 973.441 982.624 C 978.576 986.747 983.944 996.967 990.01 1001.8 C 1023.82 1028.72 1054.04 1016.99 1079.27 989.176 L 1081.14 988.937 C 1053.01 1031.81 997.456 1028.41 973.441 982.624 z" fill="rgb(0,0,0)" transform="translate(0,0)"></path>
<path d="M 1161.84 325.633 L 1161.84 325.633 C 1160.36 345.14 1157.78 363.612 1154.61 382.911 C 1262.28 407.887 1331.56 472.804 1383.3 567.387 C 1411.84 615.549 1419.23 669.758 1427.92 723.983 C 1447.24 844.563 1420.2 911.027 1375.7 1020.72 C 1354.46 1073.09 1359.9 1128.74 1396.04 1171.96 C 1364.15 1164.42 1345.63 1146.36 1333.85 1116.26 C 1301.35 1159.61 1288.52 1175.35 1244.85 1209.24 C 1266.35 1229.06 1302.2 1248.18 1322.76 1266.92 L 1314.59 1266.92 C 1293.56 1272.92 1282.58 1280 1268.48 1296.85 C 1268.76 1299.67 1268.84 1299.03 1268.48 1301.79 C 1223.5 1277.25 1171.11 1240.89 1138.99 1200.64 L 1138.99 1197.29 C 1137.77 1194.81 1138.06 1194.81 1137.69 1191.92 L 1138.99 1190.75 C 1138.39 1189.88 1135.45 1188.47 1134.32 1187.84 C 1104.26 1160.85 1089.62 1162.72 1093.01 1109.43 C 1092.27 1112.49 1092.28 1113.53 1090.78 1116.26 C 1092.41 1109.98 1093.32 1110.64 1090.78 1105.92 C 1093.8 1101.87 1110.99 1086.17 1115.29 1082.96 C 1111.92 1082.73 1109.9 1082.81 1106.51 1082.96 C 1100.64 1078.97 1097.03 1076.71 1090.78 1073.37 C 1201.59 1057.5 1304.45 1009.28 1353.09 901.784 C 1358.31 899.945 1363.49 898.328 1368.76 896.671 C 1392.72 891.303 1403.8 873.702 1413.11 852.977 C 1416.44 844.407 1416.46 825.743 1417.8 815.589 C 1408.88 797.13 1404.24 783.175 1384.96 773.571 C 1384.42 767.26 1384.31 760.668 1384.67 754.477 C 1390.96 645.572 1355.19 603.915 1295.13 527.284 L 1294.06 525.905 C 1244.55 487.43 1213.43 440.342 1141.95 430.462 L 1144.36 425.747 L 1144.36 422.702 C 1153.28 391.522 1153.31 353.386 1161.84 325.633 z" fill="rgb(69,33,4)" transform="translate(0,0)"></path>
<path d="M 1198.52 1169.49 C 1213.27 1183.67 1227.88 1197.66 1244.85 1209.24 C 1266.35 1229.06 1302.2 1248.18 1322.76 1266.92 L 1314.59 1266.92 C 1293.56 1272.92 1282.58 1280 1268.48 1296.85 C 1268.76 1299.67 1268.84 1299.03 1268.48 1301.79 C 1223.5 1277.25 1171.11 1240.89 1138.99 1200.64 L 1138.99 1197.29 C 1137.77 1194.81 1138.06 1194.81 1137.69 1191.92 L 1138.99 1190.75 C 1167 1193.34 1176.65 1189.04 1198.52 1171.96 C 1198.31 1171.31 1198.47 1170.27 1198.52 1169.49 z" fill="rgb(253,215,170)" transform="translate(0,0)"></path>
<path d="M 1198.52 1169.49 C 1213.27 1183.67 1227.88 1197.66 1244.85 1209.24 C 1266.35 1229.06 1302.2 1248.18 1322.76 1266.92 L 1314.59 1266.92 C 1284.53 1238.56 1215.3 1207.69 1198.52 1171.96 C 1198.31 1171.31 1198.47 1170.27 1198.52 1169.49 z" fill="url(#Gradient3)" transform="translate(0,0)"></path>
<path d="M 1138.99 1197.29 C 1145.04 1201.93 1151.59 1209.69 1157.17 1215.35 C 1191.09 1249.82 1228.1 1271.68 1268.48 1296.85 C 1268.76 1299.67 1268.84 1299.03 1268.48 1301.79 C 1223.5 1277.25 1171.11 1240.89 1138.99 1200.64 L 1138.99 1197.29 z" fill="rgb(217,154,94)" transform="translate(0,0)"></path>
<path d="M 1115.29 1082.96 C 1136.27 1082.62 1156.35 1080.45 1174.33 1093.11 C 1198.29 1111.16 1208.19 1140.64 1198.52 1169.49 C 1198.47 1170.27 1198.31 1171.31 1198.52 1171.96 C 1176.65 1189.04 1167 1193.34 1138.99 1190.75 C 1138.39 1189.88 1135.45 1188.47 1134.32 1187.84 C 1104.26 1160.85 1089.62 1162.72 1093.01 1109.43 C 1092.27 1112.49 1092.28 1113.53 1090.78 1116.26 C 1092.41 1109.98 1093.32 1110.64 1090.78 1105.92 C 1093.8 1101.87 1110.99 1086.17 1115.29 1082.96 z" fill="rgb(199,5,86)" transform="translate(0,0)"></path>
<path d="M 1126.17 1088.05 L 1138.99 1088.05 C 1150.47 1088.66 1156.12 1089.62 1167.06 1093.11 C 1190.21 1109.69 1200.91 1134.58 1182.22 1159.67 C 1151.42 1200.99 1091 1166.7 1098.85 1118.4 C 1099.95 1113.11 1101.76 1110.6 1104.42 1105.92 L 1106.51 1102.43 C 1107.88 1100.9 1109.18 1099.1 1110.45 1097.46 C 1116.26 1091.54 1118.26 1090.58 1126.17 1088.05 z" fill="url(#Gradient2)" transform="translate(0,0)"></path>
<path d="M 1126.17 1088.05 L 1138.99 1088.05 C 1141.43 1095.43 1151.74 1097.68 1154.32 1104.91 C 1165.42 1136.07 1132.22 1177.08 1098.85 1118.4 C 1099.95 1113.11 1101.76 1110.6 1104.42 1105.92 L 1106.51 1102.43 C 1107.88 1100.9 1109.18 1099.1 1110.45 1097.46 C 1116.26 1091.54 1118.26 1090.58 1126.17 1088.05 z" fill="rgb(251,149,183)" transform="translate(0,0)"></path>
<path d="M 1110.45 1097.46 C 1116.26 1091.54 1118.26 1090.58 1126.17 1088.05 C 1133.05 1092.1 1136.4 1094.62 1138.99 1102.43 C 1146.27 1118.57 1120.9 1161.5 1106.51 1102.43 C 1107.88 1100.9 1109.18 1099.1 1110.45 1097.46 z" fill="rgb(253,175,210)" transform="translate(0,0)"></path>
<path d="M 1110.45 1097.46 C 1116.26 1091.54 1118.26 1090.58 1126.17 1088.05 C 1133.05 1092.1 1136.4 1094.62 1138.99 1102.43 C 1128.31 1098.8 1130.27 1104.53 1111.58 1097.85 L 1110.45 1097.46 z" fill="url(#Gradient1)" transform="translate(0,0)"></path>
<path d="M 1322.76 506.997 C 1380.67 569.815 1432.46 740.874 1417.8 815.589 C 1408.88 797.13 1404.24 783.175 1384.96 773.571 C 1384.42 767.26 1384.31 760.668 1384.67 754.477 C 1390.96 645.572 1355.19 603.915 1295.13 527.284 L 1294.06 525.905 C 1293.26 523.483 1293.08 522.08 1291.11 520.345 L 1292.64 521.286 L 1294.06 520.714 C 1310.51 528.634 1318.78 525.305 1322.76 506.997 z" fill="rgb(136,80,14)" transform="translate(0,0)"></path>
<path d="M 1413.11 852.977 C 1433.15 892.842 1316.22 1042.18 1368.76 1148.69 C 1284.25 1075.82 1375.12 911.426 1368.76 896.671 C 1392.72 891.303 1403.8 873.702 1413.11 852.977 z" fill="rgb(136,80,14)" transform="translate(0,0)"></path>
<path d="M 1152.53 397.083 C 1204.76 412.879 1265.65 444.164 1302.57 485.216 C 1310.93 491.688 1317.34 497.723 1322.76 506.997 C 1318.78 525.305 1310.51 528.634 1294.06 520.714 L 1292.64 521.286 L 1291.11 520.345 C 1293.08 522.08 1293.26 523.483 1294.06 525.905 C 1244.55 487.43 1213.43 440.342 1141.95 430.462 L 1144.36 425.747 C 1150.5 423.329 1151.48 403.362 1152.53 397.083 z" fill="rgb(136,80,14)" transform="translate(0,0)"></path>
<path d="M 1302.57 485.216 C 1310.93 491.688 1317.34 497.723 1322.76 506.997 C 1318.78 525.305 1310.51 528.634 1294.06 520.714 C 1283.1 505.994 1280.29 488.927 1302.57 485.216 z" fill="rgb(197,138,76)" transform="translate(0,0)"></path>
<path d="M 888.84 321.202 L 888.84 321.202 C 898.525 341.059 902.092 383.151 911.585 407.42 C 866.025 410.884 761.744 450.837 735.721 491.595 C 725.819 500.196 718.82 508.022 714.879 520.714 C 715.636 530.228 716.271 541.02 725.116 546.882 C 696.088 591.371 641.946 695.198 666.136 748.326 C 667.324 751.305 668.492 754.545 669.977 757.346 C 673.152 764.774 675.579 770.741 678.184 778.368 C 653.543 781.672 645.592 790.728 632.02 810.511 C 626.384 838.872 628.465 852.908 643.375 877.922 C 657.998 892.084 666.969 899.574 687.858 901.784 C 691.922 903.273 694.886 904.557 699.224 905.199 C 763.549 1018.67 849.608 1048.59 966.977 1073.37 C 962.163 1075.74 948.369 1082.13 945.481 1085.56 L 937.067 1088.05 C 935.275 1090.96 935.397 1090.9 932.823 1093.11 C 942.05 1114.37 889.743 1157.43 875.471 1164.77 L 874.818 1166.08 L 879.444 1166.65 C 873.681 1169.57 870.1 1169.39 863.576 1169.49 C 862.962 1174.01 862.674 1172.47 858.288 1176.41 L 851.133 1169.49 C 851.499 1167.85 851.231 1166.28 851.133 1164.53 C 837.455 1176.12 825.89 1189.63 812.886 1200.64 C 764.229 1176.67 747.375 1155.08 722.092 1109.43 C 715.819 1123.64 682.036 1178.19 663.238 1161.66 C 664.369 1157.18 670.603 1152.71 673.052 1149.1 C 726.531 1070.22 623.961 919.835 618.281 821.146 C 607.404 632.123 693.604 417.761 902.171 391.471 C 900.269 371.286 892.662 342.998 888.84 321.202 z" fill="rgb(69,33,4)" transform="translate(0,0)"></path>
<path d="M 632.02 810.511 C 630.293 801.139 632.836 766.29 633.934 755.71 C 640.308 694.305 663.243 563.151 714.879 520.714 C 715.636 530.228 716.271 541.02 725.116 546.882 C 696.088 591.371 641.946 695.198 666.136 748.326 C 667.324 751.305 668.492 754.545 669.977 757.346 C 673.152 764.774 675.579 770.741 678.184 778.368 C 653.543 781.672 645.592 790.728 632.02 810.511 z" fill="rgb(136,80,14)" transform="translate(0,0)"></path>
<path d="M 643.375 877.922 C 657.998 892.084 666.969 899.574 687.858 901.784 C 705.223 963.833 743.468 1079.81 691.51 1135.62 C 714.544 1047.74 684.058 997.877 655.263 914.206 C 652.166 905.206 642.854 885.85 643.375 877.922 z" fill="rgb(136,80,14)" transform="translate(0,0)"></path>
<path d="M 906.952 1088.05 C 916.278 1087.25 926.606 1089.86 932.823 1088.05 L 932.823 1093.11 C 942.05 1114.37 889.743 1157.43 875.471 1164.77 L 874.818 1166.08 L 879.444 1166.65 C 873.681 1169.57 870.1 1169.39 863.576 1169.49 C 859.595 1166.11 857.34 1161.87 855.117 1157.28 C 874.198 1145.8 914.039 1114.49 906.952 1088.05 z" fill="rgb(235,20,132)" transform="translate(0,0)"></path>
<path d="M 906.952 1088.05 C 914.039 1114.49 874.198 1145.8 855.117 1157.28 C 847.925 1126.36 875.742 1090.99 906.952 1088.05 z" fill="rgb(253,175,210)" transform="translate(0,0)"></path>
<path d="M 851.133 1164.53 C 824.081 1113.95 900.732 1060.92 932.823 1088.05 C 926.606 1089.86 916.278 1087.25 906.952 1088.05 C 875.742 1090.99 847.925 1126.36 855.117 1157.28 C 857.34 1161.87 859.595 1166.11 863.576 1169.49 C 862.962 1174.01 862.674 1172.47 858.288 1176.41 L 851.133 1169.49 C 851.499 1167.85 851.231 1166.28 851.133 1164.53 z" fill="rgb(207,90,143)" transform="translate(0,0)"></path>
<path d="M 1009.05 268.087 C 956.225 221.661 1048.53 185.305 1053.38 241.165 C 1051.82 255.524 1051.02 259.262 1038.68 268.087 C 1057.95 280.691 1087.65 327.112 1092.3 349.524 L 1093.01 353.115 C 1107.19 342.115 1112.1 335.072 1123.09 325.633 L 1126.18 323.957 C 1132.31 320.655 1133.72 319.416 1138.99 315.069 L 1152.53 321.202 C 1155.76 322.275 1159.86 323.136 1161.84 325.633 C 1153.31 353.386 1153.28 391.522 1144.36 422.702 L 1144.36 425.747 L 1141.95 430.462 C 1136.87 432.727 1131.08 435.167 1126.17 437.613 L 1123.09 437.613 L 1123.09 440.947 C 1111.55 445.572 1104.76 447.213 1093.01 450.544 L 1093.01 450.544 C 1085.53 450.336 1079.19 450.293 1071.73 450.544 C 1048.78 457.057 1000.57 454.426 976.695 450.544 C 967.532 446.573 942.365 442.938 928.222 437.613 C 922.956 435.305 920.804 433.677 916.184 430.462 C 914.275 426.642 912.931 421.943 911.585 417.834 C 911.939 415.726 911.638 409.808 911.585 407.42 C 902.092 383.151 898.525 341.059 888.84 321.202 L 888.84 321.202 L 885.752 321.202 C 866.867 316.627 855.056 308.619 858.288 287.379 C 870.961 254.77 928.834 262.031 906.952 315.069 C 921.526 323.769 943.301 341.515 956.941 353.115 C 967.217 319.047 985.764 294.422 1009.05 268.087 z" fill="rgb(243,202,17)" transform="translate(0,0)"></path>
<path d="M 1009.05 268.087 C 956.225 221.661 1048.53 185.305 1053.38 241.165 C 1051.82 255.524 1051.02 259.262 1038.68 268.087 C 1057.95 280.691 1087.65 327.112 1092.3 349.524 L 1093.01 353.115 C 1107.19 342.115 1112.1 335.072 1123.09 325.633 C 1117.51 336.352 1102.03 348.826 1093.01 357.166 C 1083.3 328.926 1062.49 290.118 1038.68 271.587 C 1028.67 272.575 1022.35 273.015 1013.61 268.087 C 988.856 292.213 969.371 325.092 956.941 357.166 C 940.906 342.889 921.071 328.759 906.952 315.069 C 903.381 316.007 898.674 317.686 895.058 318.849 C 892.205 320.995 892.415 320.845 888.84 321.202 L 888.84 321.202 L 885.752 321.202 C 866.867 316.627 855.056 308.619 858.288 287.379 C 870.961 254.77 928.834 262.031 906.952 315.069 C 921.526 323.769 943.301 341.515 956.941 353.115 C 967.217 319.047 985.764 294.422 1009.05 268.087 z" fill="rgb(0,0,0)" transform="translate(0,0)"></path>
<path d="M 858.288 296.381 C 859.788 280.599 870.409 272.158 885.752 271.587 C 897.299 287.039 896.072 303.631 879.047 315.069 C 882.183 316.519 883.493 318.564 885.752 321.202 C 866.867 316.627 855.056 308.619 858.288 287.379 L 857.067 295.016 L 858.288 296.381 z" fill="rgb(243,202,17)" transform="translate(0,0)"></path>
<path d="M 885.752 321.202 C 866.867 316.627 855.056 308.619 858.288 287.379 L 857.067 295.016 L 858.288 296.381 C 866.532 303.561 866.218 310.143 879.047 315.069 C 882.183 316.519 883.493 318.564 885.752 321.202 z" fill="rgb(136,80,14)" transform="translate(0,0)"></path>
<path d="M 885.752 271.587 C 907.117 270.37 920.771 294.431 905.083 310.457 C 902.383 313.215 896.955 316.462 895.058 318.849 C 892.205 320.995 892.415 320.845 888.84 321.202 L 888.84 321.202 L 885.752 321.202 C 883.493 318.564 882.183 316.519 879.047 315.069 C 896.072 303.631 897.299 287.039 885.752 271.587 z" fill="rgb(196,147,25)" transform="translate(0,0)"></path>
<path d="M 1013.61 217.417 C 1034.56 213.781 1047.44 219.397 1053.38 241.165 C 1049.18 259.946 1032.39 279.464 1013.61 264.37 C 989.821 253.473 990.307 227.345 1013.61 217.417 z" fill="rgb(243,202,17)" transform="translate(0,0)"></path>
<path d="M 1013.61 217.417 C 1034.56 213.781 1047.44 219.397 1053.38 241.165 C 1049.18 259.946 1032.39 279.464 1013.61 264.37 C 1029.57 255.071 1031.35 254.585 1032.69 235.211 C 1029.37 227.246 1023.14 217.623 1013.61 217.417 z" fill="rgb(196,147,25)" transform="translate(0,0)"></path>
<path d="M 1152.53 321.202 C 1155.76 322.275 1159.86 323.136 1161.84 325.633 C 1153.31 353.386 1153.28 391.522 1144.36 422.702 L 1144.36 425.747 L 1141.95 430.462 C 1136.87 432.727 1131.08 435.167 1126.17 437.613 L 1123.09 437.613 L 1123.09 440.947 C 1111.55 445.572 1104.76 447.213 1093.01 450.544 L 1093.01 450.544 C 1085.53 450.336 1079.19 450.293 1071.73 450.544 C 1080.97 439.978 1098.11 434.899 1104.22 426.729 C 1121.11 404.122 1136.27 351.436 1152.53 321.202 z" fill="rgb(196,147,25)" transform="translate(0,0)"></path>
<path d="M 1126.17 437.613 C 1127.13 426.934 1133.54 422.198 1144.36 422.702 L 1144.36 425.747 L 1141.95 430.462 C 1136.87 432.727 1131.08 435.167 1126.17 437.613 z" fill="rgb(154,118,3)" transform="translate(0,0)"></path>
<path d="M 1093.01 450.544 L 1123.09 437.613 L 1123.09 440.947 C 1111.55 445.572 1104.76 447.213 1093.01 450.544 L 1093.01 450.544 z" fill="rgb(0,0,0)" transform="translate(0,0)"></path>
<path d="M 1012.27 354.619 C 1025.2 351.028 1039.06 354.703 1048.51 364.229 C 1057.97 373.755 1061.54 387.646 1057.85 400.55 C 1054.16 413.454 1043.79 423.358 1030.73 426.448 C 1011.06 431.098 991.298 419.156 986.269 399.587 C 981.239 380.019 992.798 360.025 1012.27 354.619 z" fill="rgb(199,5,86)" transform="translate(0,0)"></path>
<path d="M 1018.83 391.471 C 1003.46 423.549 970.298 367.589 1018.83 370.039 C 1022.8 377.589 1024.36 384.059 1018.83 391.471 z" fill="rgb(246,85,165)" transform="translate(0,0)"></path>
<path d="M 1018.83 370.039 C 1022.8 377.589 1024.36 384.059 1018.83 391.471 C 1016.44 382.045 1014.66 378.826 1018.83 370.039 z" fill="rgb(235,20,132)" transform="translate(0,0)"></path>
<path d="M 851.133 1164.53 C 851.231 1166.28 851.499 1167.85 851.133 1169.49 L 858.288 1176.41 C 867.357 1183.9 876.388 1190.41 888.84 1190.75 C 895.027 1191.6 902.87 1189.01 902.171 1197.29 C 902.326 1199.97 902.634 1202.48 902.171 1205.11 C 876.678 1240.79 814.899 1288.15 773.012 1301.79 L 770.38 1296.85 C 761.794 1285.35 755.972 1279.94 744.253 1271.75 C 742.509 1272.03 737.743 1271.8 735.721 1271.75 C 759.514 1251.3 790.374 1223.18 812.886 1200.64 C 825.89 1189.63 837.455 1176.12 851.133 1164.53 z" fill="rgb(253,215,170)" transform="translate(0,0)"></path>
<path d="M 851.133 1164.53 C 851.231 1166.28 851.499 1167.85 851.133 1169.49 C 818.296 1205.63 773.59 1237.97 744.253 1271.75 C 742.509 1272.03 737.743 1271.8 735.721 1271.75 C 759.514 1251.3 790.374 1223.18 812.886 1200.64 C 825.89 1189.63 837.455 1176.12 851.133 1164.53 z" fill="rgb(217,154,94)" transform="translate(0,0)"></path>
<path d="M 902.171 1197.29 C 902.326 1199.97 902.634 1202.48 902.171 1205.11 C 876.678 1240.79 814.899 1288.15 773.012 1301.79 L 770.38 1296.85 C 834.57 1268.39 858.201 1247.47 902.171 1197.29 z" fill="rgb(196,147,25)" transform="translate(0,0)"></path>
<path d="M 1322.76 1266.92 C 1347.78 1262.62 1382.34 1268.46 1396.04 1292.24 C 1393.11 1297.21 1390.99 1300.73 1387.61 1305.42 C 1409.75 1330.43 1380.99 1335.4 1360.69 1335.01 C 1367.2 1376.3 1332.94 1355.15 1314.59 1344.65 C 1312.19 1356.07 1311.64 1363.26 1300.46 1369.05 C 1290.65 1365.69 1284.47 1355.86 1278.48 1347.76 C 1271.36 1334.33 1266.16 1317.05 1268.48 1301.79 C 1268.84 1299.03 1268.76 1299.67 1268.48 1296.85 C 1282.58 1280 1293.56 1272.92 1314.59 1266.92 L 1322.76 1266.92 z" fill="rgb(47,48,52)" transform="translate(0,0)"></path>
<path d="M 1138.99 315.069 C 1119.19 286.144 1150.17 256.972 1179.99 273.745 C 1185.54 278.045 1190.4 283.455 1191.52 290.678 C 1195.98 308.753 1181.64 322.154 1164.88 325.067 L 1161.84 325.633 L 1161.84 325.633 C 1159.86 323.136 1155.76 322.275 1152.53 321.202 L 1138.99 315.069 z" fill="rgb(196,147,25)" transform="translate(0,0)"></path>
<path d="M 1161.84 271.587 C 1164.77 271.522 1167.23 271.41 1170.17 271.587 C 1182.78 301.353 1171.34 300.156 1152.53 318.849 L 1150.79 317.892 C 1143.24 313.781 1141.88 312.2 1137.35 304.73 C 1133.53 283.851 1142.06 274.538 1161.84 271.587 z" fill="rgb(243,202,17)" transform="translate(0,0)"></path>
<path d="M 1137.35 304.73 C 1133.53 283.851 1142.06 274.538 1161.84 271.587 C 1167.29 287.051 1160.57 296.588 1147.77 304.73 C 1144.59 304.676 1140.44 304.463 1137.35 304.73 z" fill="rgb(255,254,20)" transform="translate(0,0)"></path>
<path d="M 1138.99 315.069 C 1119.19 286.144 1150.17 256.972 1179.99 273.745 C 1177.42 273.509 1172.87 272.245 1170.17 271.587 C 1167.23 271.41 1164.77 271.522 1161.84 271.587 C 1142.06 274.538 1133.53 283.851 1137.35 304.73 C 1141.88 312.2 1143.24 313.781 1150.79 317.892 L 1152.53 318.849 C 1174.29 329.885 1190.22 312.13 1191.52 290.678 C 1195.98 308.753 1181.64 322.154 1164.88 325.067 L 1161.84 325.633 L 1161.84 325.633 C 1159.86 323.136 1155.76 322.275 1152.53 321.202 L 1138.99 315.069 z" fill="rgb(0,0,0)" transform="translate(0,0)"></path>
<metadata><recraft-signature>{"signed_by": "recraft", "signature_b64": "ePuKj8A5eDicW/UVC2WaA3jY3Kz9X/quHi9HcoFxkLSBCpCMwQXnETAS07drM7/TYO1/LniujEIDD8KIsrDNAA==", "signing_algo": "Ed25519", "generation_timestamp": 1776334932, "identifier": "6cb86bee-46d7-47b2-80e5-b9ec8b8d8fa6"}</recraft-signature></metadata></svg>