<svg xmlns="http://www.w3.org/2000/svg" height="1024" preserveAspectRatio="none" style="display: block;" version="1.1" viewBox="0 0 2048 2048" width="1024">
<path d="M 0 0 L 2048 0 L 2048 2048 L 0 2048 L 0 0 z" fill="rgb(255,255,255)" transform="translate(0,0)"></path>
<path d="M 1022.3 35.112 C 1026.45 34.8783 1030.71 34.7858 1034.76 35.8768 C 1042.42 37.9786 1048.9 43.1081 1052.7 50.0853 C 1056.4 56.974 1057.09 65.0808 1054.61 72.4945 C 1051.67 81.4702 1045.37 87.0549 1037.1 91.0317 C 1051.09 126.551 1064.12 165.274 1077.14 201.445 C 1103 171.599 1128.35 141.318 1153.18 110.616 C 1136.57 93.3385 1134.92 69.7458 1158.32 60.0145 C 1194.32 45.0406 1214.97 101.447 1173.93 114.779 L 1174.59 225.387 C 1203.28 206.5 1238.8 177.642 1267.45 156.698 C 1249.51 136.77 1262.12 109.145 1286.41 108.646 C 1293.46 108.477 1300.28 111.174 1305.3 116.122 C 1317.15 127.563 1317.8 145.476 1305.91 157.634 C 1299.38 164.321 1291.08 164.964 1282.24 165.126 C 1270.99 195.854 1259.54 226.505 1247.87 257.077 C 1240.24 277.082 1231.46 298.865 1224.89 318.981 C 1332.23 386.282 1398.64 488.698 1408.07 616.311 C 1410.09 643.507 1409.34 671.348 1409.35 698.649 L 1409.2 822.622 L 1409.09 1125.93 C 1368.19 1125.38 1325.85 1125.83 1284.92 1125.96 L 1284.53 826.294 C 1227.61 897.771 1152.5 929.307 1063.96 940.291 L 1064.05 965.604 C 1078.45 972.564 1092.81 979.612 1107.13 986.746 C 1117.3 943.863 1154.01 912.277 1198.34 921.182 C 1268.39 935.251 1296.96 1029.61 1234.36 1072.75 C 1247.06 1096.98 1261.92 1121.68 1275.35 1145.6 L 1374.5 1322.69 C 1387.73 1318.71 1401.97 1319.71 1414.52 1325.5 C 1435.66 1335.37 1456.38 1366.63 1427.21 1378.71 C 1412.49 1384.8 1401.56 1341.62 1381.05 1359.25 C 1370.44 1368.37 1372.71 1375.45 1358.01 1379.97 C 1367.94 1397.35 1380.75 1414.12 1391.61 1433.61 C 1450.46 1539.24 1471.17 1637.79 1487.01 1756.09 C 1464.19 1735.45 1437.94 1708.24 1414.96 1686.35 C 1397.15 1706.32 1373.23 1731.93 1357.56 1752.81 C 1335.02 1730.13 1308.81 1708.31 1287.24 1686.13 C 1268.08 1708.29 1247.98 1729.37 1228.78 1751.87 L 1162.43 1687.11 C 1148.01 1700.09 1126.35 1724.52 1111.09 1739.53 L 1110.96 1856.6 L 1120.86 1856.28 C 1148.5 1855.51 1170.17 1859.75 1191.04 1879.31 C 1223.95 1910.16 1223.06 1965.57 1192.09 1997.25 C 1175.88 2013.93 1153.6 2023.34 1130.33 2023.31 C 1088.29 2023.54 1049.08 1996.18 1039.7 1953.82 C 1035.23 1933.59 1038.64 1909.21 1037.99 1888.4 C 1037.77 1881 1041.64 1869.9 1041 1862.03 C 1041.11 1808.03 1041.17 1753.98 1041.01 1700 C 1037.01 1696.45 1032.58 1692.01 1028.66 1688.26 L 1026.32 1686.47 C 1021.02 1686.59 1014.07 1695.18 1009.98 1699.33 C 1008.56 1763.29 1009 1827.28 1011.3 1891.22 C 1012.58 1929.33 1014.71 1965.92 986.907 1995.27 C 970.131 2012.95 946.913 2023.08 922.544 2023.36 C 898.348 2023.94 874.923 2014.83 857.48 1998.05 C 807.967 1949.88 836.843 1863.81 905.607 1856.67 C 916.919 1855.5 928.837 1855.9 940.216 1855.94 L 940.154 1741.69 C 923.57 1723.72 904.009 1704.11 886.491 1687.03 C 865.387 1708.41 842.647 1730.28 821.144 1751.45 C 802.118 1730.12 780.504 1708.03 760.77 1687.12 C 737.978 1708.5 715.874 1730.27 693.324 1751.88 C 682.954 1737.87 647.347 1700.48 634.24 1686.65 C 630.151 1690.16 626.311 1693.96 622.5 1697.77 C 602.805 1717.46 582.151 1736.07 562.739 1756.04 C 575.413 1642.18 598.052 1544.66 653.06 1443 C 665.5 1420.01 679.305 1401.35 691.718 1379.71 C 676.722 1372.39 675.536 1358.72 661.731 1355.68 C 645.881 1352.19 639.49 1381.73 624.58 1378.38 C 595.723 1371.9 609.93 1340.94 627.575 1330.06 C 646.385 1318.28 657.261 1318.42 677.145 1322.04 L 767.313 1160.55 C 783.493 1131.83 801.337 1102.41 816.828 1073.49 C 779.539 1044.93 770.924 998.48 797.02 958.802 C 809.497 939.831 827.673 926.228 850.24 921.839 C 871.218 917.631 893.005 922.126 910.605 934.294 C 930.072 947.738 938.55 964.988 942.647 987.51 C 957.074 980.679 970.992 972.612 985.815 965.697 C 985.131 957.425 985.165 948.612 985.041 940.273 C 892.428 924.86 830.37 904.817 767 829.137 L 766.298 1125.28 C 723.013 1126.18 680.043 1125.42 636.774 1125.88 C 636.207 1094.97 636.742 1062.29 636.714 1031.19 L 636.677 834.308 L 636.825 705.849 C 636.954 651.524 634.624 607.639 648.529 554.587 C 674.915 453.92 735.701 371.368 825.856 318.732 C 821.964 309.74 818.168 300.411 814.921 291.178 C 800.244 249.43 781.278 208.188 767.3 166.314 C 753.512 164.165 744.221 160.528 739.044 146.612 C 733.153 130.774 740.564 115.409 756.652 110.316 C 764.248 107.886 772.512 108.714 779.474 112.605 C 797.777 122.893 794.932 141.621 786.288 157.368 C 814.933 181.025 847.107 204.875 876.64 227.842 C 876.364 191.297 877.943 151.208 878.664 114.334 C 866.247 110.901 856.134 102.864 855.58 89.1177 C 855.19 80.9502 858.14 72.9754 863.751 67.0277 C 889.696 39.5207 933.542 78.6174 900.09 110.211 C 924.215 140.12 947.516 170.682 971.863 200.739 C 985.902 166.223 1002.09 124.308 1017.67 90.8947 C 1010.78 86.4154 1006.51 83.3528 1002.68 75.5219 C 999.231 68.5523 998.889 60.4493 1001.74 53.2138 C 1005.75 42.9877 1012.9 38.9483 1022.3 35.112 z" fill="rgb(21,17,17)" transform="translate(0,0)"></path>
<path d="M 1005.46 309.419 C 1009.56 308.946 1019.07 308.935 1023.55 308.902 C 1111.06 308.254 1198.05 340.61 1260.49 402.705 C 1303.78 445.764 1334.54 504.044 1346.59 564.012 C 1351 585.988 1351.98 608.859 1351.95 631.253 L 1247.15 631.18 L 1247.14 521.542 C 1247.13 505.66 1247.95 479.687 1246.71 464.803 L 1245.2 463.786 C 1241.29 464.048 1243.02 463.413 1239.85 465.862 C 1236.54 472.898 1238.17 509.555 1238.16 519.671 L 1238.1 631.661 C 1211.72 631.447 1185.34 631.467 1158.96 631.723 L 1159.22 464.497 L 1149.28 464.618 L 1149.37 631.327 C 1123.94 630.999 1098.04 631.211 1072.58 631.172 C 1071.3 578.118 1072.46 524.59 1072.02 471.515 C 1071.99 467.208 1069.84 463.51 1065.22 463.497 C 1061.25 467.733 1062.95 512.92 1062.95 521.197 L 1062.99 631.335 L 1045.25 631.216 L 985.03 631.374 L 985.169 520.525 C 985.174 509.021 985.884 474.578 984.667 465.002 L 982.109 463.03 C 980.845 463.019 979.721 462.636 978.814 463.596 C 975.673 466.818 975.24 473.286 975.237 477.676 C 975.227 492.737 975.399 507.841 975.393 522.908 L 975.25 631.878 L 898.988 631.903 L 899.09 517.436 C 899.116 510.531 900.778 466.679 898.246 463.883 C 895.04 463.672 893.207 463.251 890.233 464.476 C 888.059 468.372 889.046 490.39 889.049 496.447 L 889.081 631.635 C 864.102 631.105 838.038 631.438 812.975 631.439 L 812.752 520.149 C 812.694 503.883 812.796 487.528 812.713 471.264 C 812.698 468.369 811.558 465.885 809.611 463.784 C 806.318 462.829 807.833 462.698 804.898 463.796 C 801.578 468.179 802.83 513.664 802.815 522.547 L 802.702 631.532 C 768.955 631.003 732.926 631.885 698.986 631.973 C 697.448 449.524 827.072 322.263 1005.46 309.419 z" fill="rgb(163,107,85)" transform="translate(0,0)"></path>
<path d="M 1205.02 640.845 L 1284.34 640.053 C 1284.7 697.399 1284.54 754.748 1283.85 812.091 C 1279.93 818.391 1274.92 823.484 1270.2 829.124 C 1243.85 860.618 1212.46 882.151 1175.79 900.196 C 1049.48 962.352 846.988 936.214 766.954 812.094 L 766.894 640.786 L 858.359 640.992 C 867.711 640.475 877.082 640.416 886.439 640.813 L 917.205 640.663 C 920.915 643.838 926.698 649.611 930.959 650.609 C 934.791 649.681 933.551 650.743 935.299 647.961 C 935.086 645.145 934.996 643.873 934.439 641.049 C 969.526 639.146 1011.12 641.243 1046.88 640.407 C 1060.64 640.086 1104.68 639.59 1115.61 641.037 C 1116.75 645.22 1114.91 646.075 1117.41 649.912 C 1124.76 653.566 1127.68 644.836 1133.54 640.686 C 1139.84 639.55 1198.12 640.069 1205.02 640.845 z" fill="rgb(255,255,255)" transform="translate(0,0)"></path>
<path d="M 1186.15 642.926 C 1219.95 646.438 1247.45 671.676 1253.85 705.047 C 1260.25 738.417 1244.03 772.038 1213.93 787.8 C 1193.11 798.701 1168.45 799.504 1146.97 789.982 C 1114.95 775.787 1096.53 741.772 1102.15 707.195 C 1107.77 672.618 1136.01 646.185 1170.88 642.861 C 1175.96 642.377 1181.08 642.399 1186.15 642.926 z" fill="rgb(21,17,17)" transform="translate(0,0)"></path>
<path d="M 1179.92 668.708 C 1198.1 665.017 1215.81 676.805 1219.42 694.996 C 1223.03 713.187 1211.17 730.848 1192.96 734.382 C 1174.87 737.894 1157.34 726.118 1153.75 708.038 C 1150.16 689.957 1161.86 672.376 1179.92 668.708 z" fill="rgb(255,255,255)" transform="translate(0,0)"></path>
<path d="M 1150.45 738.846 C 1156.95 736.341 1164.26 739.484 1166.91 745.924 C 1169.56 752.364 1166.57 759.74 1160.2 762.531 C 1155.94 764.393 1151.01 763.806 1147.31 760.997 C 1143.62 758.189 1141.73 753.598 1142.38 749.001 C 1143.03 744.403 1146.12 740.517 1150.45 738.846 z" fill="rgb(255,255,255)" transform="translate(0,0)"></path>
<path d="M 858.359 640.992 C 867.711 640.475 877.082 640.416 886.439 640.813 L 886.802 644.059 C 919.066 650.115 943.922 675.995 948.671 708.477 C 953.42 740.959 937.013 772.871 907.834 787.91 C 885.672 799.333 859.347 799.295 837.218 787.809 C 808.32 772.81 792.009 741.23 796.504 708.984 C 801 676.737 825.326 650.822 857.224 644.298 L 858.359 640.992 z" fill="rgb(21,17,17)" transform="translate(0,0)"></path>
<path d="M 858.359 640.992 C 867.711 640.475 877.082 640.416 886.439 640.813 L 886.802 644.059 C 877.02 642.223 866.975 642.304 857.224 644.298 L 858.359 640.992 z" fill="rgb(189,188,188)" transform="translate(0,0)"></path>
<path d="M 875.504 668.566 C 893.608 664.766 911.382 676.304 915.28 694.388 C 919.178 712.472 907.736 730.308 889.673 734.303 C 871.472 738.329 853.47 726.78 849.542 708.557 C 845.614 690.335 857.261 672.395 875.504 668.566 z" fill="rgb(255,255,255)" transform="translate(0,0)"></path>
<path d="M 848.037 738.45 C 854.762 736.793 861.573 740.836 863.34 747.533 C 865.107 754.23 861.177 761.106 854.51 762.983 C 850.099 764.225 845.361 762.992 842.115 759.757 C 838.869 756.521 837.62 751.787 838.847 747.372 C 840.074 742.956 843.587 739.546 848.037 738.45 z" fill="rgb(255,255,255)" transform="translate(0,0)"></path>
<path d="M 837.218 787.809 C 859.347 799.295 885.672 799.333 907.834 787.91 C 920.862 806.306 926.884 829.835 913.807 849.985 C 907.093 860.281 896.536 867.459 884.493 869.917 C 834.48 879.708 805.62 831.829 834.922 791.002 C 835.687 789.937 836.467 788.885 837.218 787.809 z" fill="rgb(233,161,167)" transform="translate(0,0)"></path>
<path d="M 1146.97 789.982 C 1168.45 799.504 1193.11 798.701 1213.93 787.8 C 1217.13 791.91 1220.49 795.645 1223.49 799.944 C 1237.55 820.052 1230.4 845.886 1212.45 860.948 C 1192.78 877.449 1158.94 873.498 1143.3 853.385 C 1135.46 843.1 1132.08 830.101 1133.91 817.301 C 1135.51 805.942 1139.14 798.194 1146.97 789.982 z" fill="rgb(233,161,167)" transform="translate(0,0)"></path>
<path d="M 1133.54 640.686 C 1139.84 639.55 1198.12 640.069 1205.02 640.845 C 1201.48 641.183 1187.7 641.03 1186.46 641.903 C 1186.25 642.338 1186.36 642.036 1186.15 642.926 C 1181.08 642.399 1175.96 642.377 1170.88 642.861 C 1171.09 642.451 1171.31 642.042 1171.53 641.632 C 1160.67 639.741 1145.37 642.173 1133.54 640.686 z" fill="rgb(189,188,188)" transform="translate(0,0)"></path>
<path d="M 992.659 817.293 C 1001.21 818.863 1000.59 821.162 1005.78 828.177 C 1015.82 841.767 1036.84 839.223 1045.96 825.994 C 1047.5 823.758 1050.91 816.023 1055.16 817.521 C 1060.04 819.235 1059.1 824.048 1058.06 827.865 C 1048.46 841.767 1034.36 850.857 1016.51 846.887 C 1003.61 844.019 987.182 832.658 992.659 817.293 z" fill="rgb(233,81,130)" transform="translate(0,0)"></path>
<path d="M 1027.15 92.5462 C 1029.89 94.9641 1068.49 204.234 1068.72 211.122 C 1065.72 214.596 1064.31 215.323 1065.96 219.786 C 1067.4 220.961 1068.48 222.082 1070.38 222.415 C 1074.84 223.198 1151.18 124.413 1162.57 114.85 L 1163.82 115.803 C 1165.31 121.264 1164.88 145.768 1164.92 153.003 L 1165.16 233.757 L 1156.33 240.474 C 1158.27 242.684 1160.92 244.852 1163.16 246.82 C 1196.51 220.696 1240.25 186.665 1274.17 162.645 C 1261.29 191.796 1251.54 221.654 1239.91 251.186 C 1227.47 282.772 1215.89 315.115 1203.07 346.477 C 1144.78 314.235 1089.93 299.464 1022.99 299.125 C 958.778 299.741 902.175 315.814 846.079 346.435 C 831.688 305.723 814.207 265.339 799.301 224.734 C 791.494 203.468 783.134 181.384 774.279 160.556 C 811.331 189.744 850.507 217.961 886.841 248.37 C 889.138 245.461 889.415 245.091 891.111 241.821 C 890.224 237.49 889.687 238.172 885.999 234.352 C 885.779 194.692 887.435 152 888.155 112.073 C 912.078 136.051 950.81 194.913 977.009 221.259 C 978.058 222.315 978.627 221.736 980.23 221.238 C 983.73 215.646 979.393 205.614 982.126 199.846 C 985.443 192.848 988.145 186.362 991.047 179.175 C 1002.54 150.078 1014.58 121.196 1027.15 92.5462 z" fill="rgb(248,166,43)" transform="translate(0,0)"></path>
<path d="M 975.027 1183.39 L 975.407 1183.56 C 973.553 1186.39 963.085 1191.98 959.434 1194.47 C 837.028 1278.19 760.283 1424.58 722.056 1562.92 C 706.256 1619.11 696.449 1676.81 692.8 1735.06 C 673.229 1715.82 652.763 1692.73 634.209 1672.33 C 626.02 1680.93 617.703 1689.4 609.259 1697.75 C 598.178 1708.48 587.161 1719.61 576.198 1730.49 C 581.781 1665.16 599.77 1591.3 623.11 1530.03 C 681.633 1376.41 808.784 1222.66 975.027 1183.39 z" fill="rgb(233,81,130)" transform="translate(0,0)"></path>
<path d="M 1079.12 1187.39 C 1077.11 1186.34 1076.81 1186.02 1074.97 1184.66 C 1078.16 1183.71 1079.36 1184.45 1082.94 1185.12 C 1184.56 1213.85 1263.84 1278.16 1329.67 1359.2 C 1402.05 1448.29 1444.2 1557.36 1463.91 1669.75 C 1467.3 1689.09 1471.37 1708.87 1473.61 1728.38 C 1455.63 1711.61 1431.93 1690.56 1415.91 1672.59 C 1395.35 1692.31 1378.82 1714.93 1358.55 1733.96 C 1353.22 1685.67 1345.93 1631.7 1333.77 1584.61 C 1295.2 1435.36 1213.17 1271.75 1079.12 1187.39 z" fill="rgb(233,81,130)" transform="translate(0,0)"></path>
<path d="M 1024.44 1185.45 C 1030.52 1189.47 1038.39 1220.77 1040.38 1229.51 C 1066.55 1344.9 1076.57 1463.75 1083.89 1581.65 C 1087.05 1632.5 1091.91 1685.63 1093.03 1736.56 C 1074.73 1721.58 1043.23 1689.69 1025.65 1672.29 L 956.071 1737.04 C 960.352 1692.36 961.531 1637.55 964.37 1591.82 C 968.854 1508.4 976.911 1425.21 988.521 1342.48 C 994.37 1300.04 1007.45 1224.41 1024.44 1185.45 z" fill="rgb(233,81,130)" transform="translate(0,0)"></path>
<path d="M 989.707 1189.02 L 990.415 1189.6 C 990.252 1190.51 970.415 1215.27 967.749 1219.12 C 865.943 1366.04 831.282 1559.97 819.517 1734.68 C 800.32 1716.95 780.291 1693.31 760.387 1673.97 C 752.175 1681.26 742.15 1691.61 734.125 1699.44 C 723.927 1709.6 713.419 1719.46 702.614 1728.98 C 703.032 1713.97 705.907 1691.59 707.97 1676.6 C 717.954 1604.11 737.023 1533.17 764.726 1465.44 C 802.836 1373.52 894.301 1228.55 989.707 1189.02 z" fill="rgb(233,81,130)" transform="translate(0,0)"></path>
<path d="M 1034.77 1180.88 C 1055.89 1193.13 1083.66 1234.66 1096.47 1256.37 C 1156.33 1357.8 1187.35 1476.1 1205.9 1591.62 C 1213.26 1637.46 1217.19 1684.54 1221.35 1730.8 L 1190.64 1700.95 C 1180.91 1691.61 1172.35 1683.24 1163.18 1673.37 C 1142.33 1693.62 1123.97 1714.83 1102.3 1734.21 C 1094.36 1602.42 1088.59 1468.16 1069.67 1337.49 C 1062.02 1284.64 1053.46 1231.12 1034.77 1180.88 z" fill="rgb(233,81,130)" transform="translate(0,0)"></path>
<path d="M 1063.42 1188.97 C 1081.81 1197.4 1103.17 1213.19 1118.64 1226.81 C 1243.38 1336.66 1315.48 1502.71 1339.95 1664.81 C 1343.27 1686.79 1345.31 1709.83 1349.11 1731.25 C 1331.65 1714.93 1302.26 1688.97 1287.37 1671.86 C 1268.98 1691.7 1249.25 1715.84 1231.24 1734.41 L 1231.02 1733.09 C 1229.15 1721.48 1228.41 1706.6 1227.39 1694.5 C 1225.59 1671.33 1223.2 1648.21 1220.22 1625.17 C 1202.33 1493.32 1167.19 1351.99 1095.96 1237.8 C 1085.73 1221.39 1073.57 1207.34 1061.75 1192.28 L 1063.42 1188.97 z" fill="rgb(233,81,130)" transform="translate(0,0)"></path>
<path d="M 1013.69 1181.81 C 1015.56 1184.18 1012.98 1188.51 1011.99 1191.6 C 983.647 1280.79 973.334 1374.35 964.397 1467.34 C 955.9 1555.75 951.97 1645.8 948.032 1734.78 C 926.935 1715.53 908.257 1693.26 887.112 1674.56 L 859.974 1699.82 C 849.489 1709.85 838.989 1720.43 828.618 1730.63 C 831.072 1705.38 832.711 1679.24 835.768 1653.89 C 852.567 1514.58 884.626 1368.66 958.907 1248 C 974.003 1223.48 991.38 1199.71 1013.69 1181.81 z" fill="rgb(233,81,130)" transform="translate(0,0)"></path>
<path d="M 828.911 328.083 C 831.554 331.023 837.233 346.989 839.003 351.603 C 746.037 412.156 689.942 508.163 689.667 619.667 C 689.654 624.609 688.748 635.567 690.831 639.656 L 694.529 640.785 C 694.866 641.236 695.203 641.686 695.54 642.137 C 695.295 657.491 695.338 696.765 695.353 709.317 C 696.04 845.001 696.035 980.688 695.339 1116.37 L 661.506 1116.49 L 646.598 1116.22 C 645.707 1086.57 646.478 1052.27 646.527 1022.35 L 646.679 851.552 L 646.758 710.527 C 646.836 654.01 643.886 613.651 657.439 558.246 C 677.174 478.05 723.001 406.687 787.714 355.375 C 801.544 344.582 813.997 337.117 828.911 328.083 z" fill="rgb(163,107,85)" transform="translate(0,0)"></path>
<path d="M 1221.37 327.445 C 1247.64 344.441 1267.67 358.503 1290.09 380.754 C 1336.03 425.985 1369.26 482.51 1386.45 544.65 C 1400.96 599.027 1399.23 644.501 1399.35 699.915 L 1399.13 825.944 L 1399.4 1116.45 L 1384.95 1116.72 C 1375.5 1116.75 1366.04 1116.66 1356.59 1116.47 L 1356.78 767.66 L 1356.24 678.737 C 1356.2 673.36 1355.63 645.018 1356.45 641.191 C 1358.93 640.561 1358.24 640.88 1360.46 639.64 C 1362.8 619.097 1359.31 580.278 1355.22 560.959 C 1335.81 469.336 1287.67 403.247 1211.17 351.751 L 1221.37 327.445 z" fill="rgb(163,107,85)" transform="translate(0,0)"></path>
<path d="M 1097.4 992.745 L 1106.81 997.025 C 1108.22 1016.58 1112.69 1035.62 1124.65 1051.44 C 1113.1 1084.03 1102.14 1119 1090.95 1152 L 1083.11 1175.53 C 1072.15 1174.24 1059.84 1171.33 1048.46 1169.97 C 1016.66 1166.17 993.168 1169.23 962.867 1177.03 C 958.218 1159.89 950.621 1139.57 944.981 1122.45 C 937.753 1100.5 930.565 1077.51 922.742 1055.85 C 937.731 1038.71 941.707 1019.97 943.267 997.959 L 953.027 992.959 C 966.386 1005.05 990.72 1015.26 1008.59 1017.48 C 1044.5 1021.92 1069.26 1014.03 1097.4 992.745 z" fill="rgb(233,81,130)" transform="translate(0,0)"></path>
<path d="M 705.051 640.713 L 757.809 640.71 L 757.011 1115.87 C 751.76 1117.36 713.203 1116.56 705.146 1116.47 L 705.051 640.713 z" fill="rgb(163,107,85)" transform="translate(0,0)"></path>
<path d="M 1294.14 640.098 L 1346.58 640.332 L 1346.16 1116.31 C 1329.01 1116.63 1311.85 1116.64 1294.7 1116.35 C 1293.59 1064.85 1294.76 1010.3 1294.72 958.542 L 1294.14 640.098 z" fill="rgb(163,107,85)" transform="translate(0,0)"></path>
<path d="M 1131.97 1060.54 C 1148.76 1076.09 1158.73 1082.35 1181.29 1086.33 C 1235.95 1172.03 1287.71 1261.09 1341.11 1347.6 C 1342.26 1349.47 1340.26 1352.56 1339.44 1354.26 C 1337.56 1353.69 1325.45 1338.59 1322.88 1335.54 C 1265.95 1271.15 1177.85 1199.01 1092.43 1178.18 C 1106.13 1139.3 1118.64 1099.66 1131.97 1060.54 z" fill="rgb(255,255,255)" transform="translate(0,0)"></path>
<path d="M 915.865 1064.27 C 918.046 1067.52 929.216 1104.09 931.481 1111.23 C 938.509 1133.37 947.433 1157.26 953.907 1179.43 C 870.242 1199.22 784.567 1269.59 729.073 1332.68 C 725.418 1337.17 714.902 1351.22 710.281 1352.5 C 708.802 1347.27 724.181 1325.02 727.481 1319.67 L 755.931 1273.02 C 781.735 1229.47 807.841 1186.11 834.246 1142.93 C 845.969 1123.67 858.888 1104.57 870.21 1085.3 C 888.757 1083.1 901.945 1076.47 915.865 1064.27 z" fill="rgb(255,255,255)" transform="translate(0,0)"></path>
<path d="M 1177.64 929.262 C 1265.06 923.167 1296.89 1057.39 1199.58 1076.81 C 1104.81 1081.91 1083.17 945.705 1177.64 929.262 z" fill="rgb(233,81,130)" transform="translate(0,0)"></path>
<path d="M 858.548 930.644 C 898.556 928.15 933 958.582 935.455 998.592 C 937.909 1038.6 907.441 1073.02 867.429 1075.43 C 827.473 1077.84 793.119 1047.43 790.668 1007.47 C 788.218 967.52 818.597 933.135 858.548 930.644 z" fill="rgb(233,81,130)" transform="translate(0,0)"></path>
<path d="M 925.012 1865.49 C 943.913 1865.42 962.845 1865.14 981.73 1865.66 C 996.319 1866.06 1001.2 1873.16 1002.15 1887.07 C 1005.7 1938.94 972.831 1979.66 920.2 1982.48 C 880.939 1981.69 856.184 1964.41 843.011 1927.36 C 848.437 1897.3 866.148 1876.7 895.846 1868.17 C 905.79 1865.31 914.729 1865.55 925.012 1865.49 z" fill="rgb(255,255,255)" transform="translate(0,0)"></path>
<path d="M 1060.87 1866.11 C 1076.37 1865.1 1135.16 1864.99 1147.63 1867.26 C 1155.81 1868.7 1163.68 1871.55 1170.89 1875.69 C 1191.24 1887.44 1199.83 1903.68 1205.73 1925.48 C 1200.14 1944.27 1193.32 1954.19 1178.4 1966.77 C 1176.33 1968.28 1174.28 1969.58 1172.1 1970.9 C 1153.38 1982.09 1130.98 1985.38 1109.83 1980.02 C 1088.29 1974.46 1069.83 1960.56 1058.54 1941.39 C 1047.85 1923.13 1045.47 1900.65 1048.96 1879.45 C 1050.05 1872.81 1055.39 1869.18 1060.87 1866.11 z" fill="rgb(255,255,255)" transform="translate(0,0)"></path>
<path d="M 1225.62 1078.03 C 1230.03 1082.71 1250.25 1120.55 1255.39 1129.58 L 1365.7 1326.35 C 1357.64 1330.99 1354.5 1333.43 1347.17 1339.37 L 1341.87 1330.56 L 1232.28 1150.88 C 1220.3 1131.01 1204.07 1106.39 1193.16 1086.73 C 1206.57 1085.33 1213.68 1083.76 1225.62 1078.03 z" fill="rgb(255,255,255)" transform="translate(0,0)"></path>
<path d="M 824.914 1077.3 C 838.493 1083.37 842.835 1084.51 857.589 1086.25 C 853.338 1094.04 848.214 1102.2 843.513 1109.77 C 798.404 1182.35 755.887 1256.59 710.371 1328.9 L 703.158 1339.97 C 696.702 1332.93 693.533 1331.01 685.658 1325.99 C 697.299 1306.32 707.222 1287.28 718.263 1267.42 L 771.271 1172.57 C 789.074 1140.43 807.916 1110.02 824.914 1077.3 z" fill="rgb(255,255,255)" transform="translate(0,0)"></path>
<path d="M 994.824 940.981 C 1014.57 941.908 1034.34 942.042 1054.1 941.382 C 1054.16 951.473 1054.2 960.381 1053.62 970.497 C 1065.2 976.65 1076.82 981.488 1088.69 988.113 C 1077.82 996.027 1066.75 1001.24 1054.03 1005.32 C 1018.72 1014.76 991.197 1008.31 961.574 988.415 C 973.296 982.995 984.163 977.337 994.984 970.277 C 994.587 961.004 994.83 950.358 994.824 940.981 z" fill="rgb(255,255,255)" transform="translate(0,0)"></path>
<path d="M 1050.58 1710.35 C 1066 1723.23 1079.83 1738.48 1095.63 1750.86 C 1097.57 1752.38 1100.41 1749.51 1101.53 1750.52 C 1102.83 1755.23 1101.82 1801.58 1101.85 1809.55 C 1084.75 1809.74 1067.64 1809.81 1050.53 1809.76 C 1050.08 1777.06 1051.75 1742.7 1050.58 1710.35 z" fill="rgb(255,255,255)" transform="translate(0,0)"></path>
<path d="M 999.842 1708.97 C 1000.88 1710.12 999.953 1798.4 999.924 1809.43 L 950.419 1809.62 C 949.542 1805.55 949.885 1751.89 950.333 1751.47 C 951.212 1751.29 953.194 1752.59 953.523 1752.29 C 968.983 1738.27 984.916 1723.71 999.842 1708.97 z" fill="rgb(255,255,255)" transform="translate(0,0)"></path>
<path d="M 1050.55 1818.81 C 1067.67 1818.64 1084.8 1818.6 1101.92 1818.7 C 1101.9 1824.21 1102.92 1853.75 1100.78 1856.15 C 1086.52 1856.11 1063.71 1854.36 1050.67 1858.45 C 1050.55 1845.24 1050.51 1832.03 1050.55 1818.81 z" fill="rgb(245,212,210)" transform="translate(0,0)"></path>
<path d="M 950.044 1818.95 C 966.67 1818.82 983.296 1818.8 999.923 1818.9 L 999.898 1859.89 C 986.787 1853.14 965.855 1855.6 950.374 1855.56 L 950.044 1818.95 z" fill="rgb(245,212,210)" transform="translate(0,0)"></path>
<path d="M 879.536 67.6971 C 889.821 65.2909 900.118 71.641 902.586 81.911 C 905.053 92.181 898.765 102.516 888.51 105.045 C 878.168 107.595 867.726 101.242 865.237 90.8847 C 862.749 80.5276 869.164 70.1237 879.536 67.6971 z" fill="rgb(255,255,255)" transform="translate(0,0)"></path>
<path d="M 1165.26 67.854 C 1175.49 65.8312 1185.45 72.3789 1187.65 82.5698 C 1189.85 92.7607 1183.47 102.834 1173.32 105.208 C 1166.6 106.782 1159.55 104.604 1154.88 99.5131 C 1150.21 94.4221 1148.66 87.2095 1150.81 80.6472 C 1152.96 74.0849 1158.48 69.1939 1165.26 67.854 z" fill="rgb(255,255,255)" transform="translate(0,0)"></path>
<path d="M 761.143 118.05 C 771.06 117.682 778.087 118.934 782.488 129.09 C 784.611 134.053 784.644 139.661 782.582 144.649 C 780.688 149.144 776.579 153.467 772.03 155.331 L 768.781 156.631 C 748.222 157.565 734.061 128.792 761.143 118.05 z" fill="rgb(255,255,255)" transform="translate(0,0)"></path>
<path d="M 1026.26 44.6762 C 1036.54 43.7089 1045.69 51.1576 1046.83 61.4134 C 1047.96 71.6693 1040.67 80.9438 1030.43 82.2534 C 1023.66 83.1202 1016.94 80.2658 1012.87 74.7864 C 1008.79 69.3071 1007.98 62.0547 1010.76 55.8145 C 1013.54 49.5742 1019.46 45.3164 1026.26 44.6762 z" fill="rgb(255,255,255)" transform="translate(0,0)"></path>
<path d="M 1282.43 118.748 C 1289.05 117.206 1295.99 119.349 1300.58 124.357 C 1305.18 129.364 1306.72 136.459 1304.62 142.921 C 1302.51 149.384 1297.09 154.212 1290.43 155.555 C 1280.34 157.588 1270.49 151.147 1268.3 141.09 C 1266.12 131.032 1272.41 121.084 1282.43 118.748 z" fill="rgb(255,255,255)" transform="translate(0,0)"></path>
<path d="M 1061.75 1192.28 C 1060.66 1191.15 1057.26 1188.03 1056.97 1186.72 C 1058.15 1186.15 1062.32 1188.47 1063.42 1188.97 L 1061.75 1192.28 z" fill="rgb(204,75,117)" transform="translate(0,0)"></path>
<metadata><recraft-signature>{"signed_by": "recraft", "signature_b64": "YXGy+hRcy+mxiq3AvHIv7DuKVdQFFyXo5KJZERs+rxdL1qY6vuXNu0WEUVTrIl2H1a0gYwvZylzNY1WuSzYaCA==", "signing_algo": "Ed25519", "generation_timestamp": 1776334904, "identifier": "e37a0eda-78c6-4679-9b66-d676793dded8"}</recraft-signature></metadata></svg>