<svg xmlns="http://www.w3.org/2000/svg" height="1024" preserveAspectRatio="none" style="display: block;" version="1.1" viewBox="0 0 2048 2048" width="1024">
<path d="M 0 0 L 2048 0 L 2048 2048 L 0 2048 L 0 0 z" fill="rgb(255,255,255)" transform="translate(0,0)"></path>
<path d="M 1012.1 135.902 C 985.138 123.674 979.564 88.7019 1004.09 72.9325 C 1012.37 67.6981 1022.37 65.9012 1031.95 67.9241 C 1040.86 69.7883 1048.62 75.1983 1053.45 82.9082 C 1066.59 103.697 1056.76 123.152 1037.6 134.93 C 1054.75 167.684 1071.18 204.541 1088.92 236.435 C 1111.32 206.839 1134.08 177.524 1157.21 148.497 C 1150.91 142.797 1146.75 138.716 1143.47 130.532 C 1139.88 121.668 1140 111.731 1143.81 102.958 C 1147.75 94.0907 1155.13 87.2051 1164.24 83.8826 C 1172.77 80.7199 1182.21 81.1319 1190.43 85.0254 C 1214.73 96.6638 1219.4 130.647 1196.02 146.282 C 1192.05 148.934 1187.32 150.242 1182.76 151.674 C 1191.8 185.488 1203.28 218.815 1212.15 252.586 C 1242.17 223.274 1274.26 193.439 1303.42 163.601 C 1298.35 157.633 1295.18 152.786 1293.53 145.082 C 1289.31 125.312 1303.02 106.011 1322.71 102.632 C 1343.04 99.1443 1361.42 114.91 1363.31 134.637 C 1364.19 144.001 1361.26 153.323 1355.18 160.501 C 1347.52 169.475 1338.67 172.035 1327.57 173.176 C 1318.86 199.079 1310.66 231.147 1303.23 258.009 L 1268.66 382.991 C 1274.79 388.003 1284.62 399.298 1289.52 405.553 C 1316.5 439.606 1331.78 481.449 1333.11 524.875 C 1334.16 557.678 1325.54 576.077 1342.54 609.398 C 1366.52 656.418 1412.48 664.235 1428.9 718.583 C 1438.2 749.384 1436.55 785.105 1421.36 813.635 C 1400.5 852.821 1371.13 869.665 1330.92 882.551 C 1332.2 883.621 1333.43 884.745 1334.61 885.921 C 1348.73 899.831 1349.53 914.947 1349.85 933.147 C 1357.23 930.362 1364.9 928.443 1372.72 927.427 C 1449.66 917.804 1516.46 1001.51 1481.35 1073.23 C 1477.66 1080.77 1473.69 1085.93 1468.54 1092.59 C 1494.5 1093.41 1511.85 1116.42 1496.71 1139.33 C 1497.76 1139.62 1498.8 1139.9 1499.84 1140.22 C 1509.91 1143.31 1519.99 1147.1 1528.33 1153.69 C 1541.56 1164.17 1643.59 1271.14 1646.47 1278.51 C 1649.2 1285.47 1642.25 1301.27 1639.31 1307.64 C 1636.54 1313.67 1633.94 1317.64 1627.41 1319.81 C 1620.3 1322.17 1613.47 1320.21 1607.07 1316.83 C 1596.36 1323.74 1588.63 1327.39 1576.76 1321.27 C 1558.54 1311.86 1498.69 1247.36 1482.05 1249.84 C 1474.33 1263.16 1504.33 1300.68 1481.95 1318.37 C 1465.03 1331.74 1450.18 1319.15 1443.92 1301.85 C 1434.84 1276.76 1423.92 1251.97 1414.45 1227.13 C 1412.58 1222.23 1413.5 1209.83 1413.98 1204.47 C 1389.95 1215.99 1370.58 1198.53 1369.91 1173.39 C 1356.35 1178.2 1343.84 1182.32 1329.24 1181.88 L 1327.96 1186.22 C 1387.29 1224.99 1407.71 1271.95 1407.82 1340.97 C 1449.3 1352.76 1484.38 1380.6 1505.27 1418.33 C 1525.92 1455.51 1530.66 1499.46 1518.4 1540.18 C 1487.62 1641.08 1369.89 1685.3 1280.27 1628.63 C 1275.77 1625.78 1268.7 1619.72 1264.24 1617.95 C 1264.57 1633.08 1266.21 1679.69 1263.3 1691.7 C 1264.05 1692.35 1264.8 1693.02 1265.53 1693.7 C 1278.7 1705.92 1279.71 1718.77 1280.37 1735.38 C 1366.67 1711.89 1445.26 1782.19 1440.76 1867.38 C 1441.29 1899.3 1433.63 1926.77 1410.45 1950.15 C 1376.71 1984.19 1340.58 1981.12 1296.23 1981.06 L 1224.2 1980.93 C 1218.44 1955.03 1199.41 1939.49 1172.03 1954.06 C 1162.46 1959.16 1159.12 1970.73 1157.33 1980.94 C 1132.28 1981.13 1103.65 1984.38 1080.79 1972.79 C 1005.19 1934.46 1030.62 1847.22 1050.17 1782.81 C 1053.28 1772.54 1056.51 1758.36 1061.08 1748.89 C 1065.41 1746.33 1061.95 1750.07 1068.09 1749.61 C 1068.95 1744.89 1068.46 1720.32 1068.46 1714.11 L 1068.89 1637.67 C 1051.19 1627.69 1038.22 1613.56 1024.8 1598.66 C 1011.63 1613.54 997.815 1626.3 981.02 1636.94 C 980.97 1652.71 979.281 1742.42 982.107 1749.21 C 984.489 1748.69 983.726 1748.75 986.231 1748.85 C 990.377 1753.1 994.286 1767.1 996.075 1773.53 C 1011.79 1830.06 1041.29 1907.41 991.686 1955.23 C 960.585 1985.21 930.954 1981.06 891.755 1980.88 C 890.542 1975.76 889.426 1970.67 887.096 1966.04 C 875.126 1942.26 841.062 1942.6 828.993 1966.12 C 826.496 1970.99 825.515 1975.65 824.206 1980.82 L 749.68 1981.06 C 730.35 1981.12 704.049 1982.59 685.78 1978.17 C 658.599 1971.58 637.009 1953.71 622.144 1930.5 C 605.163 1903.98 603.984 1854.81 611.705 1825.34 C 620.434 1792.76 641.805 1765 671.076 1748.24 C 701.841 1730.41 733.907 1726.65 768.007 1735.78 C 767.999 1732.24 768.096 1728.69 768.298 1725.15 C 769.361 1708.82 775.335 1700.96 787.012 1690.84 C 780.642 1666.67 782.501 1642.87 783.049 1617.79 C 768.757 1629.03 757.551 1636.03 740.402 1642.69 C 700.499 1658 656.145 1656.83 617.111 1639.42 C 535.523 1603.38 499.972 1508.31 537.885 1427.62 C 560.626 1379.23 592.279 1358.09 640.645 1340 C 635.456 1271.14 668.597 1217.38 726.874 1183.16 C 707.641 1183.01 696.129 1179.95 678.698 1172.6 C 678.236 1178.98 678.225 1184.28 675.364 1190.16 C 667.004 1207.32 651.643 1212.95 634.603 1204.74 C 636.26 1231.96 629.41 1238.05 619.048 1262.8 C 611.485 1281.89 606.703 1306.13 591.341 1320.76 C 578.893 1327.4 571.257 1322.19 563.835 1314.67 C 549.215 1299.84 573.375 1260.18 566.627 1251.87 C 544.874 1246.95 487.833 1318.15 463.696 1324.04 C 455.099 1326.14 448.124 1321.21 441.124 1316.96 C 405.904 1337.25 400.146 1278.73 402.339 1276.19 C 424.549 1250.87 448.641 1226.81 471.743 1202.21 C 498.572 1173.64 511.188 1152.49 549.734 1139.49 C 540.305 1112.99 550.932 1093.95 579.907 1092.7 C 575.725 1087.68 572.043 1082.26 568.912 1076.52 C 556.389 1053.68 554.541 1028.32 562 1003.47 C 570.487 975.804 589.625 952.643 615.198 939.091 C 643.812 923.763 668.128 923.711 698.338 933.006 C 697.618 911.584 701.732 897.03 718.095 882.223 C 690.688 874.414 671.531 865.76 651.041 845.992 C 601.208 797.916 600.177 715.275 651.73 668.137 C 661.922 658.818 673.303 650.062 683.104 640.406 C 701.312 623.119 718.384 591.836 716.649 565.789 C 714.391 531.904 713.881 508.639 723.457 474.687 C 733.928 437.56 751.798 409.01 779.52 381.828 C 772.356 358.243 765.952 333.347 759.276 309.531 C 746.256 264.525 733.794 219.36 721.89 174.047 C 669.337 167.95 677.226 106.482 715.595 102.491 C 725.356 101.529 735.095 104.529 742.623 110.817 C 750.145 116.96 754.782 125.948 755.427 135.638 C 756.173 147.725 751.8 155.238 744.342 163.796 L 797.696 215.297 C 809.917 227.287 823.421 241.381 836.168 252.521 C 846.531 220.077 856.135 184.889 865.836 152.098 C 857.135 149.311 850.386 146.707 844.386 139.303 C 832.064 124.097 835.393 100.313 851.083 88.9966 C 859.062 83.2973 868.996 81.0409 878.655 82.7337 C 888.231 84.4356 896.695 89.9779 902.084 98.0748 C 913.09 114.863 907.207 137.588 890.326 148.174 C 913.222 175.36 937.393 208 959.212 236.395 C 966.685 222.019 974.918 207.79 982.287 193.328 C 992.149 173.973 1001.47 154.882 1012.1 135.902 z" fill="rgb(21,17,17)" transform="translate(0,0)"></path>
<path d="M 783.049 1617.79 C 816.192 1647.81 859.974 1663.32 904.624 1660.84 C 928.515 1659.74 951.85 1653.27 972.902 1641.92 L 972.809 1753.95 L 893.194 1790.57 C 883.754 1752.2 838.767 1664.31 787.012 1690.84 C 780.642 1666.67 782.501 1642.87 783.049 1617.79 z" fill="rgb(251,230,226)" transform="translate(0,0)"></path>
<path d="M 1077.01 1642.54 C 1139.76 1673.44 1212.48 1667.02 1264.24 1617.95 C 1264.57 1633.08 1266.21 1679.69 1263.3 1691.7 C 1211.26 1662.36 1165.78 1751.33 1155.34 1789.94 C 1128.95 1778.61 1102.84 1766.64 1077.03 1754.06 C 1076.78 1716.88 1076.77 1679.71 1077.01 1642.54 z" fill="rgb(251,230,226)" transform="translate(0,0)"></path>
<path d="M 1327.96 1186.22 C 1324.74 1184.16 1321.99 1182.65 1327.64 1182.13 L 1329.24 1181.88 L 1327.96 1186.22 z" fill="rgb(236,232,234)" transform="translate(0,0)"></path>
<path d="M 889.705 1110.41 C 892.566 1109.78 903.831 1109.48 907.023 1109.59 C 954.748 1111.11 992.2 1132.66 1024.37 1166 C 1055.41 1133.8 1082.31 1117.69 1127.71 1111.4 C 1170.51 1105.48 1213.13 1117.88 1246.52 1144.78 C 1251.84 1149.06 1267.05 1160.51 1266.73 1167.05 C 1266.58 1167.78 1267.55 1172.79 1267.93 1172.91 C 1302.75 1183.64 1325.36 1188.57 1352.4 1215.36 C 1388.86 1251.47 1399.46 1288.84 1400.11 1339.12 C 1392.55 1337.28 1356.71 1329.05 1353.37 1337.97 C 1356.08 1342.92 1367.1 1341.97 1372.9 1342.33 C 1444.24 1346.77 1505.67 1403.53 1515.56 1473.99 C 1520.88 1513.99 1510.16 1554.47 1485.73 1586.58 C 1460.79 1618.77 1423.95 1639.58 1383.51 1644.34 C 1340.08 1649.76 1304.52 1637.94 1270.63 1611.34 C 1311.75 1564.01 1326.93 1509.86 1307.2 1449.07 C 1293.68 1407.5 1264.04 1373.1 1224.92 1353.58 C 1213.99 1348.05 1177.24 1334.39 1166.63 1337.9 C 1161.59 1348.08 1187.34 1347.16 1194.59 1349.59 C 1262.05 1372.18 1307.72 1429.03 1307.27 1501.29 C 1306.86 1542.65 1289.75 1582.08 1259.84 1610.63 C 1227.88 1641.74 1190.07 1654.01 1146.22 1653.23 C 1094.56 1650.52 1053.46 1625.56 1024.18 1583.37 C 1001.52 1616.58 971.768 1639.44 932.28 1649.01 C 893.665 1658.38 847.67 1651.49 813.857 1630.71 C 778.805 1609.19 753.862 1574.5 744.628 1534.42 C 735.325 1494.06 742.453 1451.65 764.44 1416.54 C 784.59 1384.08 816.751 1361.36 853.03 1350.33 C 861.787 1347.66 873.029 1346.89 882.1 1344.7 C 883.877 1344.28 884.832 1342.12 885.548 1340.56 L 884.83 1338.92 C 879.313 1335.44 867.157 1339.11 861.053 1340.44 C 833.925 1346.35 808.771 1359.13 787.761 1377.27 C 755.477 1405.41 735.611 1445.16 732.487 1487.87 C 728.932 1536.33 746.274 1575.74 777.249 1611.85 C 761.574 1625.69 740.506 1634.92 720.318 1640.44 C 640.208 1661.83 555.253 1612.45 535.493 1531.48 C 512.204 1436.06 582.537 1347.84 678.815 1341.74 C 684.233 1341.39 688.341 1342.14 693.913 1340.86 C 695.748 1338.25 695.096 1339.73 694.916 1335.91 C 689.039 1330.98 656.407 1336.5 648.297 1338.18 C 648.368 1322.38 648.837 1308.43 652.259 1292.95 C 663.475 1241.49 700.386 1199.42 749.953 1181.61 C 757.202 1179.06 774.452 1175.64 781.279 1172.38 C 781.93 1169.19 782.638 1162.67 785.012 1160.34 C 814.929 1130.97 848.379 1114.54 889.705 1110.41 z" fill="rgb(246,77,136)" transform="translate(0,0)"></path>
<path d="M 898.375 499.33 C 898.995 494.271 898.596 494.394 900.474 490.067 C 901.603 491.606 900.781 513.825 900.49 516.612 C 912.111 516.524 923.732 516.5 935.353 516.541 C 937.123 509.225 938.644 501.336 940.206 493.933 C 941.26 485.234 941.985 499.744 941.932 501.439 L 942.55 516.381 C 996.029 516.355 1051.5 515.665 1104.8 516.898 L 1105.64 507.505 C 1106.82 504.494 1107.01 504.173 1108.79 501.496 C 1109.85 506.725 1110.83 511.354 1111.48 516.68 L 1148.68 516.274 C 1147.83 510.623 1147.97 505.552 1148.06 499.842 L 1149.98 500.008 C 1150.11 501.088 1150.2 502.104 1150.45 503.165 L 1153.57 516.447 C 1187.33 516.789 1221.53 516.464 1255.32 516.39 C 1260.99 546.327 1262.89 574.183 1257.41 604.356 C 1246.62 664.11 1212.52 717.126 1162.64 751.744 C 1109.7 788.219 1039.46 800.421 976.706 788.837 C 916.687 778.355 863.331 744.361 828.468 694.394 C 790.5 639.339 782.157 581.505 794.056 516.386 C 826.882 516.232 861.565 515.608 894.246 516.977 L 898.375 499.33 z" fill="rgb(251,230,226)" transform="translate(0,0)"></path>
<path d="M 898.375 499.33 C 898.995 494.271 898.596 494.394 900.474 490.067 C 901.603 491.606 900.781 513.825 900.49 516.612 C 899.928 513.026 901.202 499.729 898.375 499.33 z" fill="rgb(130,120,126)" transform="translate(0,0)"></path>
<path d="M 1148.06 499.842 L 1149.98 500.008 C 1150.11 501.088 1150.2 502.104 1150.45 503.165 C 1147.73 507.874 1149.99 509.773 1148.68 516.274 C 1147.83 510.623 1147.97 505.552 1148.06 499.842 z" fill="rgb(236,232,234)" transform="translate(0,0)"></path>
<path d="M 940.206 493.933 C 941.26 485.234 941.985 499.744 941.932 501.439 C 941.11 498.555 940.716 496.921 940.206 493.933 z" fill="rgb(130,120,126)" transform="translate(0,0)"></path>
<path d="M 903.061 521.423 C 952.319 515.01 997.463 549.707 1003.94 598.957 C 1010.42 648.207 975.779 693.396 926.537 699.936 C 877.206 706.489 831.916 671.773 825.427 622.433 C 818.938 573.093 853.712 527.848 903.061 521.423 z" fill="rgb(21,17,17)" transform="translate(0,0)"></path>
<path d="M 918.588 551.336 C 938.342 549.119 956.199 563.215 958.631 582.943 C 961.063 602.672 947.163 620.682 927.462 623.329 C 914.526 625.068 901.653 619.721 893.755 609.329 C 885.856 598.937 884.151 585.102 889.289 573.103 C 894.427 561.104 905.616 552.791 918.588 551.336 z" fill="rgb(255,255,255)" transform="translate(0,0)"></path>
<path d="M 1123.4 521.512 C 1172.53 515.375 1217.37 550.104 1223.71 599.199 C 1230.06 648.294 1195.52 693.281 1146.45 699.834 C 1097.09 706.426 1051.77 671.635 1045.39 622.245 C 1039.01 572.855 1073.99 527.686 1123.4 521.512 z" fill="rgb(21,17,17)" transform="translate(0,0)"></path>
<path d="M 1137.32 551.394 C 1157 548.735 1175.15 562.459 1177.94 582.126 C 1180.74 601.794 1167.15 620.033 1147.5 622.969 C 1127.66 625.935 1109.19 612.173 1106.37 592.309 C 1103.54 572.445 1117.43 554.08 1137.32 551.394 z" fill="rgb(255,255,255)" transform="translate(0,0)"></path>
<path d="M 1020.66 137.017 C 1023.3 136.979 1025.45 137.106 1028.07 137.266 C 1034.2 141.626 1077.65 235.535 1087.86 251.111 C 1091.7 246.945 1095.02 242.31 1098.4 237.773 C 1120.17 208.603 1143.35 180.442 1164.36 150.716 L 1174.89 152.14 C 1178.53 165.401 1205.41 261.848 1209.29 264.902 C 1214.51 263.281 1300 178.59 1309.59 168.753 L 1319.28 172.505 C 1308.69 208.012 1298.51 243.639 1288.73 279.377 C 1275.63 324.849 1263.01 370.455 1250.86 416.189 C 1176.69 370.149 1116.83 350.25 1028.42 347.946 C 949.636 347.127 862.775 370.725 797.583 415.806 C 776.746 336.588 748.906 252.076 730.468 173.06 C 732.134 170.603 734.37 170.079 737.358 168.592 C 749.865 180.398 835.193 264.077 838.599 264.947 C 844.401 259.789 868.886 167.646 874.499 153.595 C 876.62 151.484 878.798 151.564 881.899 151.027 L 883.331 150.788 C 895.583 167.816 910.353 185.95 923.016 202.963 C 932.753 216.043 950.01 239.56 960.737 250.546 C 966.643 241.455 972.285 229.506 977.605 219.81 C 992.581 192.515 1005.44 164.156 1020.66 137.017 z" fill="rgb(250,180,27)" transform="translate(0,0)"></path>
<path d="M 1003.46 306.425 C 1007.13 306.231 1010.81 306.097 1014.48 306.024 C 1083.99 304.063 1152.87 319.656 1214.75 351.36 C 1221.36 354.812 1245.51 366.106 1244.8 373.487 C 1239.7 376.671 1233.42 371.655 1228.91 368.93 C 1174.16 335.774 1111.64 317.204 1047.15 314.832 C 969.927 306.121 880.088 332.916 814.35 370.652 C 811.134 372.498 806.276 373.559 802.796 372.118 C 804.015 365.633 823.781 356.47 830.038 353.115 C 883.555 324.418 943.069 309.772 1003.46 306.425 z" fill="rgb(21,17,17)" transform="translate(0,0)"></path>
<path d="M 785.407 508.835 C 787.225 475.107 798.282 442.395 819.289 415.012 C 825.848 406.463 840.127 400.172 850.087 395.421 C 894.797 374.107 943.042 361.188 992.42 357.306 C 1058.46 352.207 1124.75 363.258 1185.57 389.506 C 1195.11 393.624 1218.65 404.877 1225.44 411.566 C 1249.85 435.629 1262.37 476.032 1264.64 508.995 L 1159.88 509.012 C 1155.67 484.379 1148.66 457.18 1142.77 432.697 L 1139.96 436.776 C 1139.47 460.554 1139.24 484.337 1139.29 508.121 C 1132.65 508.614 1125.03 508.661 1118.3 508.852 C 1117.62 498.687 1113.74 482.536 1111.5 472.186 L 1100.62 421.109 C 1098.22 443.955 1097.95 484.754 1097.67 508.831 L 949.763 508.807 C 949.002 480.227 949.953 451.524 948.762 422.907 C 942.2 450.896 934.847 480.605 930.032 508.796 L 909.923 508.256 C 909.122 483.763 908.516 459.264 908.105 434.761 L 905.253 434.085 C 898.497 458.823 892.549 483.774 887.42 508.899 C 853.416 509.065 819.411 509.044 785.407 508.835 z" fill="rgb(149,87,57)" transform="translate(0,0)"></path>
<path d="M 1139.96 436.776 C 1139.96 435.099 1139.48 426.837 1140.69 425.828 C 1142.31 426.165 1142.55 431.377 1142.77 432.697 L 1139.96 436.776 z" fill="rgb(44,27,22)" transform="translate(0,0)"></path>
<path d="M 905.253 434.085 C 905.441 432.654 905.891 427.611 907.343 426.878 C 908.474 427.487 908.109 433.471 908.105 434.761 L 905.253 434.085 z" fill="rgb(44,27,22)" transform="translate(0,0)"></path>
<path d="M 1327.47 890.43 C 1345.85 905.042 1338.6 927.485 1342.11 944.114 C 1344.17 944.451 1364.49 937.929 1368.65 936.996 C 1382.52 933.88 1392.25 934.156 1406.12 937.502 C 1431.82 943.931 1453.97 960.214 1467.76 982.834 C 1483.32 1008.53 1488.61 1041.88 1473.67 1069.21 C 1470.1 1075.74 1459.64 1088.14 1457.51 1094.12 C 1456.43 1097.16 1453.53 1111.71 1452.44 1116.1 C 1436.35 1115.65 1420.27 1114.95 1404.21 1113.99 L 1391.9 1157.4 C 1387.55 1157.15 1382.78 1157.09 1378.4 1156.94 C 1366.31 1166.78 1353.41 1171.33 1338.23 1173.78 C 1318.04 1175.61 1294.16 1171.9 1277.24 1160.32 C 1239.7 1134.63 1209.35 1094.66 1224.74 1047.23 C 1227.19 1039.67 1237.46 1020.88 1236.37 1015.91 L 1234.15 1014.74 C 1216.66 1016.03 1200.46 1004.98 1186.55 995.813 C 1249.8 998.693 1321.77 959.084 1327.47 890.43 z" fill="rgb(246,77,136)" transform="translate(0,0)"></path>
<path d="M 719.755 890.708 C 721.357 892.457 725.533 914.225 727.653 919.34 C 749.564 972.189 802.826 993.727 857.558 997.082 C 842.363 1012.24 832.192 1012.8 813.049 1014.06 C 812.463 1014.66 811.876 1015.26 811.289 1015.85 C 812.953 1022.26 817.024 1030.36 819.763 1036.23 C 840.576 1080.78 819.35 1121.48 783.912 1150.13 C 760.757 1168.85 744.21 1175.83 713.8 1173.39 C 696.034 1172.3 684.365 1167.57 669.879 1157.37 C 666.322 1157.47 661.778 1157.93 658.141 1158.2 C 652.504 1144.02 648.461 1129.61 644.179 1115 L 597.699 1115.26 C 596.322 1111.66 591.365 1094.51 590.083 1092.94 C 564.695 1061.82 556.28 1025.82 577.711 987.089 C 590.771 963.243 612.996 945.758 639.246 938.68 C 657.14 933.758 681.42 933.268 698.381 942.203 C 701.554 943.875 700.813 943.884 704.493 944.985 C 708.858 943.111 707.233 937.413 706.916 933.254 C 705.617 916.193 709.172 904.166 719.755 890.708 z" fill="rgb(246,77,136)" transform="translate(0,0)"></path>
<path d="M 952.167 851.43 C 970.636 859.042 968.947 863.211 993.921 869.09 C 1028.75 877.243 1065.39 871.243 1095.8 852.406 C 1079.79 920.025 1108.05 977.304 1177.19 994.748 C 1180.38 999.151 1183.52 1002.11 1187.32 1005.92 C 1179.09 1027.78 1168.06 1055.14 1161.77 1076.92 C 1146.68 1076.78 1131.59 1076.74 1116.5 1076.79 L 886.789 1077.14 C 880.535 1057.49 865.978 1022.91 862.217 1005.69 C 864.923 1001.78 868.008 998.138 871.008 994.446 C 872.641 994.057 874.271 993.661 875.899 993.255 C 933.265 978.945 964.887 926.149 956.01 868.535 C 955.132 862.836 953.57 857.029 952.167 851.43 z" fill="rgb(246,77,136)" transform="translate(0,0)"></path>
<path d="M 721.868 1740.37 C 748.431 1737.58 774.365 1743.14 796.56 1758.33 C 819.429 1773.99 830.997 1798.29 842.09 1822.75 C 852.963 1818.8 869.138 1810.58 880.129 1805.59 C 914.616 1789.91 947.648 1773.78 982.536 1758.89 C 995.48 1796.93 1006.65 1834.17 1010.37 1874.24 C 996.521 1874.31 982.379 1874.07 968.5 1873.98 L 615.912 1873.78 C 615.324 1840.66 618.186 1815.08 638.983 1787.53 C 659.799 1759.96 688.016 1745.03 721.868 1740.37 z" fill="rgb(246,77,136)" transform="translate(0,0)"></path>
<path d="M 1302.34 1739.36 C 1360.82 1733.16 1416.7 1775.09 1429.28 1832.04 C 1432.51 1846.67 1432.26 1859.34 1432 1874.13 C 1400.59 1875.36 1358.73 1873.9 1326.26 1873.83 L 1106.48 1873.76 L 1038.77 1873.91 C 1043.07 1834.31 1054.06 1796.48 1066.32 1758.67 C 1110.23 1777.7 1162.9 1801.91 1205.77 1822.81 C 1226.18 1777.73 1251.51 1746.17 1302.34 1739.36 z" fill="rgb(246,77,136)" transform="translate(0,0)"></path>
<path d="M 830.721 777.408 C 860.234 774.103 895.528 788.221 916.829 808.395 C 937.754 828.212 948.915 856.356 949.603 884.99 C 950.252 912.261 940.163 938.696 921.511 958.601 C 901.081 980.003 878.8 987.512 849.914 988.095 C 823.617 987.726 787.622 974.717 766.825 958.705 C 746.265 942.993 732.84 919.711 729.541 894.045 C 722.165 832.663 771.67 783.679 830.721 777.408 z" fill="rgb(246,77,136)" transform="translate(0,0)"></path>
<path d="M 1207.55 777.421 C 1230.38 776.709 1252.88 782.991 1272.05 795.425 C 1295.63 810.805 1312.04 835.028 1317.57 862.639 C 1331.7 931.885 1275.74 974.494 1213.98 986.722 C 1187.98 991.838 1154.44 983.076 1134.15 965.875 C 1090.4 928.783 1088.08 860.026 1124.74 817.18 C 1147.28 790.839 1173.71 780.224 1207.55 777.421 z" fill="rgb(246,77,136)" transform="translate(0,0)"></path>
<path d="M 717.802 603.141 C 717.937 601.408 717.906 601.228 718.663 599.654 C 718.87 599.598 719.077 599.542 719.283 599.486 C 720.465 600.591 720.114 604.429 720.134 605.781 L 720.159 607.089 C 720.113 608.3 720.115 609.511 720.165 610.722 C 721.743 644.647 752.98 673.777 785.941 677.283 C 793.504 678.087 800.163 677.81 807.763 677.435 C 839.614 728.872 864.515 751.904 917.204 779.285 C 914.257 783.092 910.489 786.939 907.188 790.502 C 844.292 750.56 768.339 767.015 732.679 834.867 C 725.852 847.858 723.44 860.631 720.832 874.899 C 712.065 872.656 703.517 869.636 695.286 865.876 C 664.527 851.837 640.95 829.462 629.174 797.469 C 622.947 780.451 620.627 762.25 622.386 744.215 C 625.082 715.23 638.082 691.765 659.258 672.019 C 668.202 663.679 678.143 656.448 686.885 647.675 C 699.862 634.875 710.345 619.773 717.802 603.141 z" fill="rgb(149,87,57)" transform="translate(0,0)"></path>
<path d="M 717.802 603.141 C 717.937 601.408 717.906 601.228 718.663 599.654 C 718.87 599.598 719.077 599.542 719.283 599.486 C 720.465 600.591 720.114 604.429 720.134 605.781 L 720.159 607.089 L 717.802 603.141 z" fill="rgb(117,71,46)" transform="translate(0,0)"></path>
<path d="M 1329.05 600.586 C 1336.86 617.062 1345.18 631.946 1358.15 644.814 C 1384.16 670.609 1409.27 682.978 1421.26 720.752 C 1430.04 748.401 1428.12 783.386 1414.37 809.184 C 1394.19 847.056 1366.26 862.484 1327.4 874.974 C 1324.31 842.373 1309.63 815.095 1284.53 794.348 C 1270.64 783.681 1254.63 776.092 1237.58 772.083 C 1203.27 764.103 1171.48 772.157 1142.07 790.588 C 1138.33 786.654 1134.09 782.864 1130.1 779.155 C 1182.79 754.031 1210.41 726.711 1240.71 677.501 C 1293.93 681.058 1324.81 653.45 1329.05 600.586 z" fill="rgb(149,87,57)" transform="translate(0,0)"></path>
<path d="M 615.686 1881.74 C 666.129 1880.54 721.568 1881.77 772.28 1881.82 L 1011.82 1882.03 C 1011.77 1916.15 998.941 1943.52 969.673 1962.16 C 945.141 1975.81 925.938 1973.27 898.626 1973.1 C 894.608 1958.57 886.681 1947.49 871.835 1942.65 C 860.85 1939.2 848.948 1940.18 838.679 1945.39 C 826.153 1951.89 821.537 1960.63 817.594 1973.22 C 794.303 1973.06 771.011 1973.08 747.72 1973.27 C 730.774 1973.34 706.556 1974.39 690.695 1970.89 C 675.813 1967.58 661.923 1960.81 650.156 1951.12 C 628.192 1932.95 618.376 1909.51 615.686 1881.74 z" fill="rgb(250,180,27)" transform="translate(0,0)"></path>
<path d="M 1037.99 1881.86 C 1168.01 1880.33 1302.18 1881.44 1432.33 1881.97 C 1427.95 1918.17 1416.38 1938.09 1386.11 1958.91 C 1357.04 1975.91 1338.08 1973.14 1305.68 1973.13 L 1230.56 1972.86 C 1217.31 1928.92 1163.34 1930.31 1150.11 1972.96 C 1143.07 1973.09 1136.02 1973.16 1128.98 1973.17 C 1071.17 1973.03 1037.62 1939.86 1037.99 1881.86 z" fill="rgb(250,180,27)" transform="translate(0,0)"></path>
<path d="M 559.636 1147.36 C 571.492 1145.56 609.613 1177.96 620.561 1186.45 C 630.798 1220.04 625.604 1230.62 610.661 1261.62 C 605.119 1272.42 597.186 1311.55 584.327 1314.36 C 550.502 1321.77 581.795 1258.23 574.19 1245.82 C 566 1232.44 537.726 1254.38 530.848 1259.81 C 508.439 1277.47 489.67 1299.58 465.266 1314.21 C 458.519 1318.37 446.912 1313.12 447.687 1308.33 C 451.606 1284.14 498.622 1257.49 512.604 1239.8 C 511.455 1236.63 512.36 1237.97 509.616 1235.76 C 503.434 1235.68 496.346 1243.79 491.383 1248.34 C 478.471 1259.76 448.038 1285.7 439.129 1297.95 L 439.117 1299.01 C 439.065 1302.7 439.699 1307.61 436.694 1310 C 426.881 1317.81 410.718 1308.73 418.721 1295.25 C 426.345 1282.41 491.832 1227.61 493.747 1218.68 L 492.234 1216.44 C 490.201 1216.06 488.175 1215.9 486.211 1217.55 C 465.537 1234.9 446.25 1255.99 426.64 1274.64 C 421.403 1279.62 416.76 1285.92 411.411 1289.01 C 407.909 1284.93 409.238 1281.27 412.626 1277.46 C 438.837 1247.93 467.047 1220.11 493.501 1190.77 C 513.349 1168.76 529.011 1151.19 559.636 1147.36 z" fill="rgb(251,230,226)" transform="translate(0,0)"></path>
<path d="M 1482.08 1147.07 C 1497.35 1147.19 1513.62 1151.97 1525.33 1161.94 C 1542.53 1177.03 1561.26 1198.17 1576.58 1214.84 C 1585.86 1224.93 1638.09 1276.7 1638.97 1284.41 C 1637.89 1287.68 1638.86 1286.95 1636.76 1288.15 C 1632.52 1285.89 1625.54 1278.02 1621.54 1274.13 L 1582.2 1236.02 C 1577.01 1230.95 1564.11 1217.73 1559.2 1214.51 C 1556.52 1215.32 1555.89 1216.97 1554.23 1219.38 L 1553.52 1220.42 C 1564.94 1230.44 1631.37 1291.23 1632.33 1301.21 C 1632.57 1303.71 1631.39 1306.73 1629.82 1308.61 C 1627.53 1311.36 1624.38 1312.02 1621 1312.23 C 1618.62 1312.39 1612.52 1312.14 1610.85 1310.02 C 1608.37 1306.87 1607.72 1297.48 1605.52 1293.41 C 1601.16 1285.35 1570.23 1260.07 1561.65 1252.37 C 1555.34 1247 1546.42 1236.99 1539.02 1234.25 C 1536.27 1235.13 1537.32 1234.32 1535.77 1236.74 C 1536.82 1245.65 1587.58 1284.06 1596.51 1295.75 C 1599 1299.01 1601.94 1303.86 1600.82 1308.15 C 1600.19 1310.57 1598.26 1312.39 1596.24 1313.7 C 1574.9 1327.63 1516.66 1246.11 1484.53 1241.17 C 1481.16 1240.65 1477.39 1241.11 1474.81 1243.53 C 1465.23 1252.52 1483.64 1286.85 1481.23 1302.93 C 1480.56 1307.37 1478.89 1311.05 1474.99 1313.52 C 1472.04 1315.38 1467.1 1315.67 1463.83 1314.63 C 1458.88 1313.04 1456.7 1308.55 1454.48 1304.28 C 1447.96 1291.75 1444.89 1278.08 1439.65 1265.06 C 1425.17 1229.15 1416.08 1226.2 1428.6 1186.31 C 1434.74 1180.63 1475.71 1150.33 1482.08 1147.07 z" fill="rgb(251,230,226)" transform="translate(0,0)"></path>
<path d="M 878.596 1084.34 C 898.263 1086.1 934.715 1084.96 955.908 1084.94 L 1104.54 1084.69 C 1124.99 1084.66 1148.89 1083.79 1169.3 1086.07 C 1176.82 1086.92 1177.8 1096.52 1175.79 1102.9 C 1172.37 1103.68 1158.08 1102.45 1153.43 1102.38 C 1141.38 1102.22 1131.92 1102.43 1119.94 1104.28 C 1080.43 1109.54 1053.08 1128.24 1024.39 1153.78 C 988.9 1120.9 954.401 1103.3 904.984 1101.34 C 894.674 1100.94 884.312 1103.6 874.433 1103.25 C 869.327 1097.66 873.561 1088.73 878.596 1084.34 z" fill="rgb(246,77,136)" transform="translate(0,0)"></path>
<path d="M 781.783 391.828 C 784.668 395.219 789.951 420.354 792.585 427.858 L 803.931 421.704 C 791.71 445.334 781.241 466.718 778.138 493.592 C 777.549 498.693 775.982 510.328 777.831 514.958 C 780.983 516.09 781.398 516.012 783.956 518.275 C 785.384 521.63 784.2 525.595 783.564 529.36 C 764.787 531.956 752.13 538.207 739.114 551.57 C 732.822 558.936 729.704 564.844 725.175 573.337 C 725.166 559.296 723.1 544.505 723.211 530.52 C 723.421 478.32 744.513 428.376 781.783 391.828 z" fill="rgb(149,87,57)" transform="translate(0,0)"></path>
<path d="M 1242.24 420.262 C 1246.97 423.444 1249.13 426.208 1254.89 424.58 C 1259.98 419.849 1262.77 401.204 1265.56 392.065 C 1301.82 426.959 1322.08 472.03 1324.75 522.506 C 1325.47 536.094 1323.93 551.682 1323.16 565.398 L 1319.92 564.501 C 1306.7 542.378 1290.57 533.978 1266.14 528.367 C 1265.52 524.472 1265.23 523.066 1265.33 519.178 C 1267.69 516.044 1266.99 517.031 1271.78 515.794 C 1273.7 511.905 1272.57 502.327 1272.04 497.843 C 1268.55 468.206 1258.46 444.894 1242.24 420.262 z" fill="rgb(149,87,57)" transform="translate(0,0)"></path>
<path d="M 1242.13 1693.27 C 1268.57 1692.05 1272.15 1718.9 1272 1738.85 C 1239.82 1751.96 1226.96 1768.97 1208.91 1798.33 C 1206.7 1801.93 1203.55 1808.93 1200.47 1810.78 L 1197.45 1810.02 C 1185.94 1804.53 1174.37 1799.17 1162.75 1793.92 C 1169.06 1770.3 1179.66 1748.04 1194.04 1728.25 C 1206.74 1710.57 1219.96 1696.89 1242.13 1693.27 z" fill="rgb(246,77,136)" transform="translate(0,0)"></path>
<path d="M 802.665 1693.08 C 843.495 1692.54 877.837 1760.23 885.693 1793.94 C 875.696 1798.9 864.84 1803.48 854.59 1808.01 L 846.886 1811.72 C 828.578 1776.51 813.423 1753.47 775.894 1738.6 C 776.39 1716.77 778.832 1699.98 802.665 1693.08 z" fill="rgb(246,77,136)" transform="translate(0,0)"></path>
<path d="M 780.629 538.343 C 781.402 539.351 780.539 577.678 781.005 584.047 C 783.192 613.905 790.995 643.083 804.005 670.048 C 786.651 670.701 777.273 669.2 761.919 661.319 C 759.241 659.676 756.204 657.819 753.727 655.912 C 739.893 645.207 730.821 629.491 728.47 612.157 C 724.111 577.711 744.495 542.971 780.629 538.343 z" fill="rgb(251,230,226)" transform="translate(0,0)"></path>
<path d="M 1083.67 796.163 L 1084.32 796.636 C 1085.57 800.309 1085.09 822.961 1085.08 828.163 C 1091.77 829.73 1099.22 830.926 1106.05 832.158 C 1074.68 868.585 1020.09 869.459 977.717 855.036 C 964.576 849.559 956.575 845.379 946.413 835.473 C 958.699 831.039 980.907 826.214 994.567 822.461 C 1024.43 814.265 1054.14 805.497 1083.67 796.163 z" fill="rgb(251,230,226)" transform="translate(0,0)"></path>
<path d="M 1266.8 537.392 C 1325.85 545.084 1340.01 624.139 1288.88 660.142 C 1272.56 668.908 1263.25 669.726 1244.91 669.507 C 1265.48 628.729 1271.85 582.469 1266.8 537.392 z" fill="rgb(251,230,226)" transform="translate(0,0)"></path>
<path d="M 573.218 1101.06 C 576.903 1100.79 577.733 1100.62 581.47 1101.35 C 587.764 1105.77 588.44 1116.31 590.332 1124.44 C 606.213 1123.55 622.113 1123.04 638.018 1122.91 C 641.567 1138.14 646.821 1152.88 652.568 1167.4 C 657.889 1167.02 660.708 1165.99 666.182 1166.61 C 667.691 1167.64 669.657 1168.47 670.01 1170.04 C 673.169 1184.01 662.981 1194.96 652.723 1199.35 C 636.665 1200.76 632.521 1193.73 627.425 1180.04 C 615.017 1172.36 578.316 1141.26 568.581 1139.54 C 566.852 1139.24 565.102 1138.99 563.405 1138.52 C 559.87 1137.55 557.598 1134.71 555.923 1131.59 C 553.516 1127.1 553.28 1122.13 555.069 1117.38 C 558.218 1109.01 565.397 1104.43 573.218 1101.06 z" fill="rgb(246,77,136)" transform="translate(0,0)"></path>
<path d="M 1464.66 1100.91 C 1476.67 1102.02 1493.18 1104.95 1494.04 1121.64 C 1494.4 1128.61 1490.4 1133.44 1485.69 1138.29 C 1464.89 1143.69 1441.3 1167.39 1421.86 1179.2 C 1416.86 1190.46 1415.6 1193.75 1404.3 1199.47 C 1394.48 1201.09 1387.93 1197.15 1382.5 1188.95 C 1378.56 1182.41 1374.72 1170.78 1383.12 1165.95 C 1388.9 1162.62 1394.53 1167.26 1398.47 1165.69 C 1402.1 1156.88 1407.67 1133.19 1410.43 1122.8 C 1426.74 1123.02 1443.05 1123.44 1459.35 1124.03 C 1460.94 1115.78 1462.52 1109.04 1464.66 1100.91 z" fill="rgb(246,77,136)" transform="translate(0,0)"></path>
<path d="M 853.269 1012.24 C 856.87 1016.65 874.229 1065.81 877.297 1074.65 C 866.034 1081.84 862.259 1092.27 865.892 1105.02 C 852.02 1108.5 845.416 1110.8 832.519 1117 L 821.686 1122.1 C 839.119 1085.96 842.06 1058.99 822.534 1022.43 C 835.99 1020.3 841.107 1018.24 853.269 1012.24 z" fill="rgb(255,255,255)" transform="translate(0,0)"></path>
<path d="M 1194.81 1011.57 C 1207.11 1018.44 1212.43 1019.84 1226.3 1023.1 C 1221.22 1031.39 1217.39 1040.38 1214.94 1049.79 C 1208.61 1075.01 1213.55 1099.16 1226.81 1121.12 L 1216.25 1116.46 C 1203.61 1110.95 1195.67 1108.9 1182.45 1105.59 C 1185.36 1090.93 1185.19 1082.68 1170.71 1075.72 C 1178.37 1053.42 1186.11 1033.42 1194.81 1011.57 z" fill="rgb(255,255,255)" transform="translate(0,0)"></path>
<path d="M 715.36 110.737 C 730.171 108.051 744.384 117.786 747.232 132.566 C 750.079 147.346 740.501 161.665 725.753 164.675 C 716.068 166.651 706.068 163.271 699.568 155.824 C 693.068 148.377 691.071 138.012 694.338 128.683 C 697.606 119.354 705.634 112.501 715.36 110.737 z" fill="rgb(250,180,27)" transform="translate(0,0)"></path>
<path d="M 1018.16 75.5477 C 1027.84 73.5129 1037.86 76.8576 1044.38 84.2971 C 1050.9 91.7366 1052.9 102.114 1049.61 111.443 C 1046.33 120.772 1038.26 127.602 1028.52 129.309 C 1013.8 131.888 999.734 122.192 996.908 107.521 C 994.081 92.8494 1003.54 78.6212 1018.16 75.5477 z" fill="rgb(250,180,27)" transform="translate(0,0)"></path>
<path d="M 867.364 90.6359 C 882.205 87.7778 896.553 97.4966 899.404 112.34 C 902.255 127.183 892.529 141.526 877.685 144.37 C 862.85 147.212 848.519 137.494 845.67 122.661 C 842.821 107.828 852.532 93.492 867.364 90.6359 z" fill="rgb(250,180,27)" transform="translate(0,0)"></path>
<path d="M 1320.96 111.509 C 1335.64 107.666 1350.64 116.504 1354.39 131.203 C 1358.14 145.901 1349.2 160.843 1334.48 164.498 C 1319.89 168.121 1305.11 159.286 1301.4 144.719 C 1297.68 130.152 1306.42 115.318 1320.96 111.509 z" fill="rgb(250,180,27)" transform="translate(0,0)"></path>
<path d="M 1173.78 90.2941 C 1188.71 89.113 1201.79 100.196 1203.08 115.116 C 1204.38 130.035 1193.39 143.203 1178.48 144.605 C 1163.41 146.023 1150.08 134.896 1148.77 119.819 C 1147.47 104.742 1158.69 91.4876 1173.78 90.2941 z" fill="rgb(250,180,27)" transform="translate(0,0)"></path>
<path d="M 1120.73 783.035 C 1125.3 783.175 1132.52 791.931 1136.3 795.769 C 1118.73 811.033 1123.69 806.235 1109.71 823.277 C 1103.72 823.162 1098.76 822.996 1092.8 822.486 C 1092.85 812.491 1093 802.651 1092.9 792.642 C 1102.13 790.098 1111.68 786.199 1120.73 783.035 z" fill="rgb(149,87,57)" transform="translate(0,0)"></path>
<path d="M 925.922 782.657 C 930.251 784.198 934.636 785.714 938.914 787.376 C 938.938 790.799 939.417 818.176 937.499 818.717 C 936.518 818.46 933.37 814.131 932.758 813.35 C 925.508 805.108 921.439 801.897 913.225 795.124 L 925.922 782.657 z" fill="rgb(149,87,57)" transform="translate(0,0)"></path>
<path d="M 1105.64 507.505 C 1105.85 500.498 1106.11 495.484 1106.84 488.521 C 1107.32 491.691 1107.86 494.853 1108.45 498.005 C 1108.85 500.076 1108.87 499.559 1108.79 501.496 C 1107.01 504.173 1106.82 504.494 1105.64 507.505 z" fill="rgb(190,186,189)" transform="translate(0,0)"></path>
<path d="M 1148.06 499.842 C 1147.65 497.5 1147.07 494.544 1147.12 492.18 L 1147.13 492.391 L 1147.34 491.061 C 1147.45 490.959 1147.57 490.857 1147.69 490.754 C 1149.31 491.115 1149.8 498.609 1149.98 500.008 L 1148.06 499.842 z" fill="rgb(130,120,126)" transform="translate(0,0)"></path>
<path d="M 1323.16 565.398 L 1323.18 567.224 C 1323.2 567.909 1323.23 568.717 1322.8 569.291 C 1321.8 569.652 1320.1 564.94 1319.92 564.501 L 1323.16 565.398 z" fill="rgb(117,71,46)" transform="translate(0,0)"></path>
<metadata><recraft-signature>{"signed_by": "recraft", "signature_b64": "NTXrXqIe3qYIQTIqHYXLAl5LQNmEXQbwWHNVBtftXH85D53bfex//KawWsSKj7SY0E/WKM1ildYjtUIwYhbBBw==", "signing_algo": "Ed25519", "generation_timestamp": 1776334888, "identifier": "c70153f4-4637-43ac-b722-5960dc70386b"}</recraft-signature></metadata></svg>