<svg xmlns="http://www.w3.org/2000/svg" height="512" preserveAspectRatio="none" style="display: block;" version="1.1" viewBox="0 0 2048 2048" width="512">
<defs>
	<linearGradient gradientUnits="userSpaceOnUse" id="Gradient1" x1="875.061" x2="782.415" y1="1374.5" y2="1350.15">
		<stop class="stop0" offset="0" stop-color="rgb(191,142,95)" stop-opacity="1"></stop>
		<stop class="stop1" offset="1" stop-color="rgb(201,155,131)" stop-opacity="1"></stop>
	</linearGradient>
	<linearGradient gradientUnits="userSpaceOnUse" id="Gradient2" x1="1427.52" x2="1179.42" y1="650.003" y2="724.062">
		<stop class="stop0" offset="0" stop-color="rgb(70,36,15)" stop-opacity="1"></stop>
		<stop class="stop1" offset="1" stop-color="rgb(102,57,27)" stop-opacity="1"></stop>
	</linearGradient>
	<linearGradient gradientUnits="userSpaceOnUse" id="Gradient3" x1="947.181" x2="891.254" y1="1307.13" y2="1165.43">
		<stop class="stop0" offset="0" stop-color="rgb(184,0,48)" stop-opacity="1"></stop>
		<stop class="stop1" offset="1" stop-color="rgb(235,23,114)" stop-opacity="1"></stop>
	</linearGradient>
</defs>
<path d="M 1076.94 386.595 C 1083.56 397.71 1106.74 396.618 1119.15 400.796 C 1197.76 427.262 1276.52 462.178 1329.03 530.303 C 1301.08 593.147 1272.47 592.668 1232.55 627.81 C 1242.58 634.643 1246.11 640.602 1253.23 650.189 C 1262.32 671.384 1282.03 693.776 1292.5 715.982 C 1306.76 746.215 1385.29 943.059 1368.09 967.072 C 1367.97 978.917 1370.59 991.528 1368.09 1002.77 C 1366.72 1012.78 1358.77 1040.04 1360.34 1045.83 C 1356.38 1051.44 1338.71 1073.88 1338.42 1077.64 C 1390.29 1089.85 1416.69 1130.39 1403.8 1182.75 C 1430.26 1176.21 1435.53 1169.59 1450.83 1148.05 C 1452.44 1229.17 1364.24 1270.36 1327.2 1221.68 C 1321.23 1213.83 1314.58 1201.21 1309.5 1192.45 C 1309.62 1232.86 1335.82 1271.77 1378.47 1274.63 L 1379.23 1275.84 C 1374.37 1282.23 1349.92 1288.76 1341.08 1289.88 C 1289.53 1296.45 1253.6 1274.12 1216.71 1241.41 C 1209.65 1251.21 1204.74 1258.38 1194.78 1265.53 L 1188.29 1269.63 C 1179.56 1271.42 1164.15 1274.63 1155.64 1274.22 L 1153.38 1273.71 C 1155.53 1288.3 1156.8 1303.51 1155.64 1318.23 C 1154.2 1320.44 1153.05 1323.15 1149.87 1323.08 L 1149.87 1325.93 C 1155.6 1353.17 1165.88 1390.46 1166.82 1418.17 C 1166.84 1421.17 1166.92 1424.49 1166.82 1427.46 C 1095.48 1466.34 1011.59 1471.89 933.239 1450.5 C 920.959 1447.15 893.226 1433.53 883.99 1433.71 C 882.991 1431.1 883.917 1421.81 883.99 1418.17 C 882.275 1398.4 893.119 1344.78 900.726 1325.93 C 898.354 1318.71 892.912 1315.29 890.811 1306.79 C 891.518 1303.88 891.059 1301.3 890.811 1298.29 C 892.207 1290.91 893.145 1281.79 894.122 1274.22 C 881.302 1272.99 870.646 1269.22 858.386 1265.53 C 856.962 1263.37 855.42 1262.17 853.534 1260.35 C 847.91 1255.47 842.861 1250.78 837.456 1245.64 C 798.574 1290.02 719.678 1290.25 667.098 1277.56 C 707.326 1265.64 726.361 1254.11 741.712 1214.27 C 680.656 1272.91 576.085 1227.94 603.32 1144.74 C 614.304 1169.47 624.999 1179.55 648.116 1192.45 C 616.545 1149.14 655.707 1083.15 708.216 1080.77 C 702.994 1066.47 693.754 1062.38 688.148 1039.04 C 609.363 945.698 585.292 867.155 593.234 742.93 C 601.609 611.918 677.539 498.197 792.031 436.158 C 794.827 443.094 797.817 451.012 800.961 457.698 C 831.833 507.582 1042.7 457.997 1079.21 410.779 C 1079.02 401.465 1078.27 395.943 1076.94 386.595 z" fill="rgb(252,222,208)" transform="translate(0,0)"></path>
<path d="M 1076.94 386.595 C 1083.56 397.71 1106.74 396.618 1119.15 400.796 C 1197.76 427.262 1276.52 462.178 1329.03 530.303 C 1301.08 593.147 1272.47 592.668 1232.55 627.81 C 1242.58 634.643 1246.11 640.602 1253.23 650.189 C 1262.32 671.384 1282.03 693.776 1292.5 715.982 C 1306.76 746.215 1385.29 943.059 1368.09 967.072 C 1348.29 910.747 1339.19 874.596 1309.5 817.953 C 1202.35 789.326 1119.31 728.243 1053.68 641.082 L 1053.32 641.879 C 1017.15 721.6 929.433 789.863 849.875 819.628 C 831.624 826.456 812.983 832.458 794.766 839.363 C 788.394 839.798 780.351 839.576 775.634 843.78 L 770.461 843.78 C 759.848 843.6 745.764 850.903 737.453 857.532 C 678.387 910.865 683.345 969.988 688.148 1039.04 C 609.363 945.698 585.292 867.155 593.234 742.93 C 601.609 611.918 677.539 498.197 792.031 436.158 C 794.827 443.094 797.817 451.012 800.961 457.698 C 831.833 507.582 1042.7 457.997 1079.21 410.779 C 1079.02 401.465 1078.27 395.943 1076.94 386.595 z" fill="rgb(100,56,26)" transform="translate(0,0)"></path>
<path d="M 792.031 436.158 C 794.827 443.094 797.817 451.012 800.961 457.698 C 784.202 467.101 748.875 489.688 737.453 504.184 C 736.613 509.349 730.979 521.15 728.814 526.328 C 697.195 601.94 773.948 642.812 836.324 655.097 C 844.782 656.763 864.899 658.526 872.272 661.041 C 876.68 649.876 888.086 630.948 894.122 618.552 C 891.064 633.106 888.813 646.957 883.99 661.041 C 882.875 669.553 881.866 673.941 878.237 682.066 C 874.259 687.169 863.108 716.126 858.614 724.113 C 839.293 758.453 818.065 784.397 792.031 813.656 L 813.688 806.841 C 934.917 767.762 998.076 704.641 1053.68 596.313 C 1091.56 682.303 1204.68 759.025 1292.44 786.677 C 1288.53 757.655 1252.92 679.88 1236.33 655.012 C 1230.15 644.829 1225.88 638.74 1220.36 627.81 C 1216.37 613.654 1206.63 604.32 1200.71 591.7 C 1204.75 592.711 1228.24 622.562 1232.55 627.81 C 1242.58 634.643 1246.11 640.602 1253.23 650.189 C 1262.32 671.384 1282.03 693.776 1292.5 715.982 C 1306.76 746.215 1385.29 943.059 1368.09 967.072 C 1348.29 910.747 1339.19 874.596 1309.5 817.953 C 1202.35 789.326 1119.31 728.243 1053.68 641.082 L 1053.32 641.879 C 1017.15 721.6 929.433 789.863 849.875 819.628 C 831.624 826.456 812.983 832.458 794.766 839.363 C 788.394 839.798 780.351 839.576 775.634 843.78 L 770.461 843.78 C 759.848 843.6 745.764 850.903 737.453 857.532 C 678.387 910.865 683.345 969.988 688.148 1039.04 C 609.363 945.698 585.292 867.155 593.234 742.93 C 601.609 611.918 677.539 498.197 792.031 436.158 z" fill="rgb(58,26,6)" transform="translate(0,0)"></path>
<path d="M 620.604 723.787 L 621.766 724.226 C 631.072 713.551 632.265 706.983 644.993 695.091 C 709.427 634.883 783.416 680.33 858.386 682.066 C 839.081 722.82 798.05 777.902 764.48 807.61 C 717.739 848.973 673.105 865.238 664.387 936.563 C 660.754 966.284 660.614 964.144 657.436 933.751 C 646.151 825.822 673.719 756.391 729.519 668.364 C 650.409 703.247 634.354 850.343 638.463 923.363 C 627.334 885.322 608.899 747.777 620.604 723.787 z" fill="rgb(100,56,26)" transform="translate(0,0)"></path>
<path d="M 737.453 504.184 C 736.613 509.349 730.979 521.15 728.814 526.328 C 697.195 601.94 773.948 642.812 836.324 655.097 C 844.782 656.763 864.899 658.526 872.272 661.041 C 865.726 669.562 863.316 672.533 858.386 682.066 C 783.416 680.33 709.427 634.883 644.993 695.091 C 632.265 706.983 631.072 713.551 621.766 724.226 L 620.604 723.787 C 630.493 641.333 677.881 560.782 737.453 504.184 z" fill="rgb(174,134,103)" transform="translate(0,0)"></path>
<path d="M 883.99 661.041 C 920.939 661.094 965.687 662.566 1001.89 655.012 C 970.325 680.767 917.676 684.776 878.237 682.066 C 881.866 673.941 882.875 669.553 883.99 661.041 z" fill="rgb(174,134,103)" transform="translate(0,0)"></path>
<path d="M 1220.36 627.81 C 1225.88 638.74 1230.15 644.829 1236.33 655.012 C 1207.14 665.842 1161.99 662.302 1132.7 650.189 C 1162.81 640.594 1186.93 641.171 1220.36 627.81 z" fill="rgb(174,134,103)" transform="translate(0,0)"></path>
<path d="M 1007.04 1283.86 C 1019.3 1278.62 1033.29 1279.31 1044.97 1285.73 C 1060.16 1294.07 1068.93 1310.65 1067.28 1327.9 C 1066.92 1331.61 1066.09 1335.27 1064.79 1338.78 C 1092.58 1352.65 1119.94 1350.81 1144.82 1331.61 L 1149.87 1325.93 C 1155.6 1353.17 1165.88 1390.46 1166.82 1418.17 C 1166.84 1421.17 1166.92 1424.49 1166.82 1427.46 C 1095.48 1466.34 1011.59 1471.89 933.239 1450.5 C 920.959 1447.15 893.226 1433.53 883.99 1433.71 C 882.991 1431.1 883.917 1421.81 883.99 1418.17 C 882.275 1398.4 893.119 1344.78 900.726 1325.93 L 902.659 1328.63 L 906.496 1328.63 C 906.09 1326.5 906.177 1326.77 904.859 1325.2 L 905.449 1323.5 L 907.026 1322.75 L 910.285 1325.56 L 912.162 1325.93 C 944.668 1338.84 949.669 1330.85 980.826 1327.02 C 979.428 1308.51 989.968 1291.15 1007.04 1283.86 z" fill="rgb(246,126,175)" transform="translate(0,0)"></path>
<path d="M 883.99 1418.17 C 882.275 1398.4 893.119 1344.78 900.726 1325.93 L 902.659 1328.63 C 899.357 1347.28 896.688 1363.35 894.122 1382.1 C 986.732 1420.84 1061.1 1420.59 1155.64 1379.14 C 1151.98 1363.53 1147.93 1347.28 1144.82 1331.61 L 1149.87 1325.93 C 1155.6 1353.17 1165.88 1390.46 1166.82 1418.17 C 1166.84 1421.17 1166.92 1424.49 1166.82 1427.46 C 1095.48 1466.34 1011.59 1471.89 933.239 1450.5 C 920.959 1447.15 893.226 1433.53 883.99 1433.71 C 882.991 1431.1 883.917 1421.81 883.99 1418.17 z" fill="rgb(173,29,93)" transform="translate(0,0)"></path>
<path d="M 1155.64 1391.91 L 1156.07 1391.96 C 1157.82 1393.58 1159.91 1414 1160.48 1418.17 C 1087.03 1463.96 969.986 1458.41 894.122 1424.04 C 883.035 1420 889.479 1400.79 890.811 1391.91 C 970.6 1432.46 1075.49 1430.05 1155.64 1391.91 z" fill="rgb(246,126,175)" transform="translate(0,0)"></path>
<path d="M 1007.04 1283.86 C 1019.3 1278.62 1033.29 1279.31 1044.97 1285.73 C 1060.16 1294.07 1068.93 1310.65 1067.28 1327.9 C 1066.92 1331.61 1066.09 1335.27 1064.79 1338.78 C 1058.31 1356.35 1041.28 1367.77 1022.57 1367.11 C 1003.85 1366.46 987.669 1353.86 982.433 1335.88 C 981.591 1332.99 981.053 1330.02 980.826 1327.02 C 979.428 1308.51 989.968 1291.15 1007.04 1283.86 z" fill="rgb(126,0,3)" transform="translate(0,0)"></path>
<path d="M 996.176 1306.79 C 1007.61 1285.84 1027.66 1284.73 1045.65 1298.29 C 1051.21 1300.94 1053.36 1301.62 1056.83 1306.79 C 1058.54 1314.32 1059.78 1324.29 1056.83 1331.61 L 1056.83 1333.32 C 1054.5 1342.3 1052.62 1343.29 1045.65 1349.14 C 1037.11 1356.29 1035.41 1357.05 1024.76 1359.42 C 1000.32 1353.22 997.269 1345.38 988.221 1323.08 C 990.397 1317.68 992.773 1311.44 996.176 1306.79 z" fill="rgb(196,0,56)" transform="translate(0,0)"></path>
<path d="M 996.176 1306.79 C 1003.99 1307.52 1015.8 1296.19 1012.78 1309.89 L 1006.66 1318.23 C 1010.21 1320.93 1010.78 1321.59 1014.87 1323.08 L 1014.87 1323.08 L 1014.94 1326.46 L 1012.78 1328.63 C 1010.79 1329.54 1008.51 1330.49 1006.66 1331.61 L 1008.36 1335.96 C 1007.62 1341.68 1010.27 1342.33 1014.87 1345.66 C 1020.98 1353.03 1026.33 1351.44 1034.95 1349.14 C 1038.27 1349.33 1042.52 1349.8 1045.65 1349.14 C 1037.11 1356.29 1035.41 1357.05 1024.76 1359.42 C 1000.32 1353.22 997.269 1345.38 988.221 1323.08 C 990.397 1317.68 992.773 1311.44 996.176 1306.79 z" fill="rgb(169,43,35)" transform="translate(0,0)"></path>
<path d="M 1006.66 1318.23 C 1010.21 1320.93 1010.78 1321.59 1014.87 1323.08 L 1014.87 1323.08 L 1014.94 1326.46 L 1012.78 1328.63 C 1010.79 1329.54 1008.51 1330.49 1006.66 1331.61 L 1005.6 1331.61 C 999.979 1327.86 1003.47 1322.67 1006.66 1318.23 z" fill="rgb(126,0,3)" transform="translate(0,0)"></path>
<path d="M 996.176 1306.79 C 1007.61 1285.84 1027.66 1284.73 1045.65 1298.29 C 1043.14 1300.31 1015.32 1313.08 1020.53 1315.3 L 1019.8 1317.95 L 1020.02 1317.39 L 1020.12 1318.14 L 1020.78 1318.23 C 1018.72 1319.75 1016.55 1321.17 1014.87 1323.08 L 1014.87 1323.08 C 1010.78 1321.59 1010.21 1320.93 1006.66 1318.23 L 1012.78 1309.89 C 1015.8 1296.19 1003.99 1307.52 996.176 1306.79 z" fill="rgb(221,17,90)" transform="translate(0,0)"></path>
<path d="M 1012.78 1309.89 C 1014.05 1315.33 1014.48 1317.54 1014.87 1323.08 C 1010.78 1321.59 1010.21 1320.93 1006.66 1318.23 L 1012.78 1309.89 z" fill="rgb(169,43,35)" transform="translate(0,0)"></path>
<path d="M 1045.65 1298.29 C 1051.21 1300.94 1053.36 1301.62 1056.83 1306.79 C 1052.52 1309.89 1038.05 1319.97 1034.95 1323.08 C 1029.3 1319.57 1027.29 1318.85 1020.78 1318.23 L 1020.12 1318.14 L 1020.02 1317.39 L 1019.8 1317.95 L 1020.53 1315.3 C 1015.32 1313.08 1043.14 1300.31 1045.65 1298.29 z" fill="rgb(196,0,56)" transform="translate(0,0)"></path>
<path d="M 1056.83 1306.79 C 1058.54 1314.32 1059.78 1324.29 1056.83 1331.61 L 1056.83 1333.32 C 1051.27 1334.11 1045.69 1332.94 1040.34 1331.61 L 1040.34 1325.93 C 1038.92 1325.32 1036.41 1323.87 1034.95 1323.08 C 1038.05 1319.97 1052.52 1309.89 1056.83 1306.79 z" fill="rgb(169,43,35)" transform="translate(0,0)"></path>
<path d="M 1040.34 1325.93 C 1046.57 1325.78 1050.3 1326 1055.83 1328.88 L 1056.83 1331.61 L 1056.83 1333.32 C 1051.27 1334.11 1045.69 1332.94 1040.34 1331.61 L 1040.34 1325.93 z" fill="rgb(221,17,90)" transform="translate(0,0)"></path>
<path d="M 1040.34 1331.61 C 1045.69 1332.94 1051.27 1334.11 1056.83 1333.32 C 1054.5 1342.3 1052.62 1343.29 1045.65 1349.14 C 1042.52 1349.8 1038.27 1349.33 1034.95 1349.14 C 1039.09 1342.71 1039.72 1339.21 1040.34 1331.61 L 1040.34 1331.61 z" fill="rgb(196,0,56)" transform="translate(0,0)"></path>
<path d="M 1020.78 1318.23 C 1027.29 1318.85 1029.3 1319.57 1034.95 1323.08 C 1036.41 1323.87 1038.92 1325.32 1040.34 1325.93 L 1040.34 1331.61 L 1040.34 1331.61 L 1037.73 1331.61 C 1032.71 1329.02 1030.33 1329.17 1024.76 1328.63 C 1020.51 1331.11 1018.56 1332.94 1013.83 1331.09 L 1012.78 1328.63 L 1014.94 1326.46 L 1014.87 1323.08 C 1016.55 1321.17 1018.72 1319.75 1020.78 1318.23 z" fill="rgb(225,81,142)" transform="translate(0,0)"></path>
<path d="M 1037.73 1331.61 L 1040.34 1331.61 C 1039.72 1339.21 1039.09 1342.71 1034.95 1349.14 C 1026.33 1351.44 1020.98 1353.03 1014.87 1345.66 L 1020.78 1339.93 C 1029.49 1348.83 1033.26 1339.16 1037.73 1331.61 z" fill="rgb(221,17,90)" transform="translate(0,0)"></path>
<path d="M 1008.36 1335.96 C 1014.04 1332.52 1018.57 1332.34 1020.78 1339.93 L 1014.87 1345.66 C 1010.27 1342.33 1007.62 1341.68 1008.36 1335.96 z" fill="rgb(126,0,3)" transform="translate(0,0)"></path>
<path d="M 906.496 1328.63 C 906.09 1326.5 906.177 1326.77 904.859 1325.2 L 905.449 1323.5 L 907.026 1322.75 L 910.285 1325.56 L 912.162 1325.93 C 944.668 1338.84 949.669 1330.85 980.826 1327.02 C 981.053 1330.02 981.591 1332.99 982.433 1335.88 C 960.095 1345.17 923.33 1351.36 906.496 1328.63 z" fill="rgb(169,43,35)" transform="translate(0,0)"></path>
<path d="M 708.216 1080.77 C 714.814 1083.31 731.684 1104.57 740.949 1111.42 C 779.888 1140.22 845.096 1160.21 894.122 1168.1 C 891.059 1169.52 883.051 1169.99 879.215 1170.41 C 844.822 1174.18 817.255 1213.9 837.456 1245.64 C 798.574 1290.02 719.678 1290.25 667.098 1277.56 C 707.326 1265.64 726.361 1254.11 741.712 1214.27 C 680.656 1272.91 576.085 1227.94 603.32 1144.74 C 614.304 1169.47 624.999 1179.55 648.116 1192.45 C 616.545 1149.14 655.707 1083.15 708.216 1080.77 z" fill="rgb(58,26,6)" transform="translate(0,0)"></path>
<path d="M 1338.42 1077.64 C 1390.29 1089.85 1416.69 1130.39 1403.8 1182.75 C 1430.26 1176.21 1435.53 1169.59 1450.83 1148.05 C 1452.44 1229.17 1364.24 1270.36 1327.2 1221.68 C 1321.23 1213.83 1314.58 1201.21 1309.5 1192.45 C 1309.62 1232.86 1335.82 1271.77 1378.47 1274.63 L 1379.23 1275.84 C 1374.37 1282.23 1349.92 1288.76 1341.08 1289.88 C 1289.53 1296.45 1253.6 1274.12 1216.71 1241.41 C 1249.06 1195.83 1185.09 1177.38 1155.64 1168.1 C 1234.1 1141.71 1273.64 1153.11 1338.42 1077.64 L 1338.42 1077.64 z" fill="rgb(58,26,6)" transform="translate(0,0)"></path>
<path d="M 1098.95 962.917 C 1112.43 817.791 1304.69 836.385 1286.44 989.857 C 1284.56 1005.65 1279.11 1016.44 1275.76 1030.25 C 1262.47 1051.04 1256.49 1056.22 1236.33 1071.26 C 1229.94 1068.41 1225.57 1070.86 1218.5 1072.88 L 1216.71 1071.26 C 1207.54 1070.81 1198.51 1072.12 1189.37 1072.06 C 1133.7 1071.72 1107.66 1020.38 1106.81 971.946 C 1105.95 972.99 1106.49 972.402 1105.12 973.635 C 1106.02 944.846 1116.93 937.904 1122.38 917.225 L 1119.68 916.647 L 1118.97 914.918 C 1124.29 900.301 1134.68 891.983 1145.77 882.424 L 1144.68 881.785 C 1131.6 885.879 1110.79 920.968 1106.23 934.001 L 1107.67 936.881 C 1112.2 945.998 1101.6 958.159 1098.95 971.946 C 1099.26 967.982 1099.35 966.828 1098.95 962.917 z" fill="rgb(0,0,0)" transform="translate(0,0)"></path>
<path d="M 1098.95 962.917 C 1112.43 817.791 1304.69 836.385 1286.44 989.857 C 1284.56 1005.65 1279.11 1016.44 1275.76 1030.25 C 1262.47 1051.04 1256.49 1056.22 1236.33 1071.26 C 1229.94 1068.41 1225.57 1070.86 1218.5 1072.88 L 1216.71 1071.26 C 1251.91 1049.75 1271.44 1030.07 1276.13 985.298 C 1289.49 857.867 1119.75 834.493 1106.81 971.946 C 1105.95 972.99 1106.49 972.402 1105.12 973.635 C 1106.02 944.846 1116.93 937.904 1122.38 917.225 L 1119.68 916.647 L 1118.97 914.918 C 1124.29 900.301 1134.68 891.983 1145.77 882.424 L 1144.68 881.785 C 1131.6 885.879 1110.79 920.968 1106.23 934.001 L 1107.67 936.881 C 1112.2 945.998 1101.6 958.159 1098.95 971.946 C 1099.26 967.982 1099.35 966.828 1098.95 962.917 z" fill="rgb(224,224,223)" transform="translate(0,0)"></path>
<path d="M 1209.56 905.092 C 1253.78 902.93 1265.4 951.876 1227.78 962.917 C 1179.78 965.024 1167.22 919.83 1209.56 905.092 z" fill="rgb(224,224,223)" transform="translate(0,0)"></path>
<path d="M 805.67 1053.62 C 762.564 1017.19 759.816 944.535 797.993 903.797 C 856.518 841.345 941.21 899.67 940.824 981.946 L 940.481 983.262 C 938.395 991.515 938.127 999.778 935.339 1008.55 C 916.807 1066.89 855.897 1091.35 805.67 1053.62 z" fill="rgb(0,0,0)" transform="translate(0,0)"></path>
<path d="M 878.237 909.175 C 920.947 907.175 930.594 959.459 888.27 967.072 C 848.732 967.757 834.58 921.247 878.237 909.175 z" fill="rgb(224,224,223)" transform="translate(0,0)"></path>
<path d="M 1102.2 1174.83 C 1115.85 1170.63 1141.68 1166.39 1155.64 1168.1 C 1185.09 1177.38 1249.06 1195.83 1216.71 1241.41 C 1209.65 1251.21 1204.74 1258.38 1194.78 1265.53 L 1188.29 1269.63 C 1179.56 1271.42 1164.15 1274.63 1155.64 1274.22 L 1153.38 1273.71 C 1155.53 1288.3 1156.8 1303.51 1155.64 1318.23 C 1154.2 1320.44 1153.05 1323.15 1149.87 1323.08 L 1149.87 1325.93 L 1144.82 1331.61 C 1119.94 1350.81 1092.58 1352.65 1064.79 1338.78 C 1066.09 1335.27 1066.92 1331.61 1067.28 1327.9 C 1068.93 1310.65 1060.16 1294.07 1044.97 1285.73 C 1033.29 1279.31 1019.3 1278.62 1007.04 1283.86 C 1005.63 1281.08 1004.05 1279.76 1001.89 1277.56 C 1013.64 1279.02 1007.82 1279.76 1020.74 1278.79 L 1021.62 1278.73 C 1021.11 1277.59 1010.97 1272.85 1008.36 1271.41 L 1008.36 1269.63 C 1008.83 1269.77 1022.79 1276.65 1024.76 1277.56 C 1061.9 1264.42 1074.55 1246.25 1098.95 1217.83 C 1100.51 1211.72 1101.98 1198.85 1102.2 1192.45 C 1102.95 1187.01 1102.42 1180.42 1102.2 1174.83 z" fill="rgb(221,17,90)" transform="translate(0,0)"></path>
<path d="M 1102.2 1174.83 C 1115.85 1170.63 1141.68 1166.39 1155.64 1168.1 C 1185.09 1177.38 1249.06 1195.83 1216.71 1241.41 C 1209.65 1251.21 1204.74 1258.38 1194.78 1265.53 L 1188.29 1269.63 C 1179.56 1271.42 1164.15 1274.63 1155.64 1274.22 C 1167.39 1271.82 1156.16 1276.22 1151.58 1263.44 L 1152.35 1262.45 L 1161.48 1261.63 C 1158.5 1260.97 1153.59 1261.02 1149.87 1260.35 C 1135.23 1238.7 1135.05 1226.02 1106.81 1214.27 C 1103.97 1215.46 1101.71 1216.39 1098.95 1217.83 C 1100.51 1211.72 1101.98 1198.85 1102.2 1192.45 C 1102.95 1187.01 1102.42 1180.42 1102.2 1174.83 z" fill="rgb(246,126,175)" transform="translate(0,0)"></path>
<path d="M 1102.2 1174.83 C 1115.85 1170.63 1141.68 1166.39 1155.64 1168.1 C 1185.09 1177.38 1249.06 1195.83 1216.71 1241.41 C 1209.65 1251.21 1204.74 1258.38 1194.78 1265.53 L 1188.29 1269.63 C 1179.56 1271.42 1164.15 1274.63 1155.64 1274.22 C 1167.39 1271.82 1156.16 1276.22 1151.58 1263.44 L 1152.35 1262.45 L 1161.48 1261.63 C 1158.5 1260.97 1153.59 1261.02 1149.87 1260.35 C 1169.96 1258 1186.27 1261.26 1199.74 1239.48 C 1228.29 1193.32 1144.26 1150.14 1106.81 1214.27 C 1103.97 1215.46 1101.71 1216.39 1098.95 1217.83 C 1100.51 1211.72 1101.98 1198.85 1102.2 1192.45 C 1102.95 1187.01 1102.42 1180.42 1102.2 1174.83 z" fill="rgb(221,17,90)" transform="translate(0,0)"></path>
<path d="M 1106.81 1214.27 C 1135.05 1226.02 1135.23 1238.7 1149.87 1260.35 C 1153.59 1261.02 1158.5 1260.97 1161.48 1261.63 L 1152.35 1262.45 L 1151.58 1263.44 C 1156.16 1276.22 1167.39 1271.82 1155.64 1274.22 L 1153.38 1273.71 C 1155.53 1288.3 1156.8 1303.51 1155.64 1318.23 C 1154.2 1320.44 1153.05 1323.15 1149.87 1323.08 L 1149.87 1325.93 L 1144.82 1331.61 C 1119.94 1350.81 1092.58 1352.65 1064.79 1338.78 C 1066.09 1335.27 1066.92 1331.61 1067.28 1327.9 C 1160.92 1356.63 1158.79 1274.09 1106.81 1227.65 C 1081.7 1251.29 1079.14 1261.27 1044.97 1285.73 C 1033.29 1279.31 1019.3 1278.62 1007.04 1283.86 C 1005.63 1281.08 1004.05 1279.76 1001.89 1277.56 C 1013.64 1279.02 1007.82 1279.76 1020.74 1278.79 L 1021.62 1278.73 C 1021.11 1277.59 1010.97 1272.85 1008.36 1271.41 L 1008.36 1269.63 C 1008.83 1269.77 1022.79 1276.65 1024.76 1277.56 C 1061.9 1264.42 1074.55 1246.25 1098.95 1217.83 C 1101.71 1216.39 1103.97 1215.46 1106.81 1214.27 z" fill="rgb(196,0,56)" transform="translate(0,0)"></path>
<path d="M 894.122 1168.1 C 899.872 1168.53 942.724 1173.08 946.139 1174.83 C 946.119 1186.08 945.847 1198.48 946.139 1209.63 C 967.332 1237.28 977.67 1251.23 1008.36 1269.63 L 1008.36 1271.41 C 1010.97 1272.85 1021.11 1277.59 1021.62 1278.73 L 1020.74 1278.79 C 1007.82 1279.76 1013.64 1279.02 1001.89 1277.56 C 1004.05 1279.76 1005.63 1281.08 1007.04 1283.86 C 989.968 1291.15 979.428 1308.51 980.826 1327.02 C 949.669 1330.85 944.668 1338.84 912.162 1325.93 L 910.285 1325.56 L 907.026 1322.75 L 905.449 1323.5 L 904.859 1325.2 C 906.177 1326.77 906.09 1326.5 906.496 1328.63 L 902.659 1328.63 L 900.726 1325.93 C 898.354 1318.71 892.912 1315.29 890.811 1306.79 C 891.518 1303.88 891.059 1301.3 890.811 1298.29 C 892.207 1290.91 893.145 1281.79 894.122 1274.22 C 881.302 1272.99 870.646 1269.22 858.386 1265.53 C 856.962 1263.37 855.42 1262.17 853.534 1260.35 C 847.91 1255.47 842.861 1250.78 837.456 1245.64 C 817.255 1213.9 844.822 1174.18 879.215 1170.41 C 883.051 1169.99 891.059 1169.52 894.122 1168.1 z" fill="url(#Gradient3)" transform="translate(0,0)"></path>
<path d="M 906.496 1318.23 C 899.442 1283.76 916.493 1244.8 944.03 1223.65 C 950.699 1238.08 985.801 1278.79 1001.89 1277.56 C 1004.05 1279.76 1005.63 1281.08 1007.04 1283.86 C 989.968 1291.15 979.428 1308.51 980.826 1327.02 C 949.669 1330.85 944.668 1338.84 912.162 1325.93 C 910.574 1323.08 908.541 1320.77 906.496 1318.23 z" fill="rgb(221,17,90)" transform="translate(0,0)"></path>
<path d="M 883.99 1182.75 C 907.167 1176.49 929.172 1194.64 944.03 1209.63 C 919.952 1223.95 912.685 1231.51 900.726 1256.63 C 888.855 1289.87 788.995 1192.56 883.99 1182.75 z" fill="rgb(246,126,175)" transform="translate(0,0)"></path>
<path d="M 1053.68 641.082 C 1119.31 728.243 1202.35 789.326 1309.5 817.953 C 1339.19 874.596 1348.29 910.747 1368.09 967.072 C 1367.97 978.917 1370.59 991.528 1368.09 1002.77 C 1361.68 993.954 1354.05 947.702 1338.42 923.363 L 1338.4 923.012 C 1335.24 923.188 1332.2 923.283 1329.03 923.363 C 1332.58 923.014 1335.58 922.602 1339.1 922.033 L 1339.89 920.437 C 1339.5 913.55 1335.56 900.293 1331.1 895.126 L 1329.03 895.1 L 1329.03 895.1 C 1334.15 888.422 1310.07 849.121 1303.01 845.353 C 1264.22 824.657 1215.96 815.925 1177.27 794.119 C 1133.88 769.668 1077.6 728.585 1049.5 687.465 C 1040.77 696.572 1029.98 712.829 1021.77 723.349 C 988.098 766.478 946.906 793.489 900.61 820.647 C 888.162 827.949 866.016 837.788 858.386 849.378 C 845.671 846.483 841.335 847.41 828.564 849.378 C 826.408 848.287 826.572 848.311 824.631 846.845 L 825.787 846.721 C 815.417 842.719 805.408 845.94 794.766 839.363 C 812.983 832.458 831.624 826.456 849.875 819.628 C 929.433 789.863 1017.15 721.6 1053.32 641.879 L 1053.68 641.082 z" fill="rgb(238,196,170)" transform="translate(0,0)"></path>
<path d="M 1247 857.532 C 1257.85 852.693 1269.6 845.406 1279.98 839.363 C 1277.65 854.21 1275.64 859.774 1268.62 872.931 C 1279.7 871.283 1300.36 864.632 1314 861.819 C 1299.21 883.381 1256.62 902.979 1329.03 895.1 L 1329.03 895.1 L 1331.1 895.126 C 1335.56 900.293 1339.5 913.55 1339.89 920.437 L 1339.1 922.033 C 1335.58 922.602 1332.58 923.014 1329.03 923.363 C 1332.2 923.283 1335.24 923.188 1338.4 923.012 L 1338.42 923.363 C 1354.05 947.702 1361.68 993.954 1368.09 1002.77 C 1366.72 1012.78 1358.77 1040.04 1360.34 1045.83 C 1356.38 1051.44 1338.71 1073.88 1338.42 1077.64 L 1338.42 1077.64 C 1334.18 1079.55 1333.73 1078.65 1329.03 1077.64 C 1351.64 1029.9 1281.03 1035.37 1275.32 1032.5 L 1275.76 1030.25 L 1275.76 1030.25 C 1279.11 1016.44 1284.56 1005.65 1286.44 989.857 C 1304.69 836.385 1112.43 817.791 1098.95 962.917 C 1090.6 922.176 1118.15 873.3 1155.42 856.14 C 1189.12 840.631 1213.79 845.72 1247 857.532 z" fill="rgb(0,0,0)" transform="translate(0,0)"></path>
<path d="M 1338.42 923.363 C 1354.05 947.702 1361.68 993.954 1368.09 1002.77 C 1366.72 1012.78 1358.77 1040.04 1360.34 1045.83 C 1356.38 1051.44 1338.71 1073.88 1338.42 1077.64 L 1338.42 1077.64 C 1334.18 1079.55 1333.73 1078.65 1329.03 1077.64 C 1351.64 1029.9 1281.03 1035.37 1275.32 1032.5 L 1275.76 1030.25 C 1293.91 1003.68 1297.89 974.909 1298.17 943.695 C 1313.44 939.748 1327.16 934.514 1338.42 923.363 z" fill="rgb(252,222,208)" transform="translate(0,0)"></path>
<path d="M 1329.03 895.1 L 1331.1 895.126 C 1335.56 900.293 1339.5 913.55 1339.89 920.437 L 1339.1 922.033 C 1335.58 922.602 1332.58 923.014 1329.03 923.363 C 1317.79 920.379 1312.66 918.823 1300.84 916.873 C 1312.94 911.366 1321.37 906.261 1329.03 895.1 z" fill="rgb(252,222,208)" transform="translate(0,0)"></path>
<path d="M 775.634 843.78 C 780.351 839.576 788.394 839.798 794.766 839.363 C 805.408 845.94 815.417 842.719 825.787 846.721 L 824.631 846.845 C 826.572 848.311 826.408 848.287 828.564 849.378 C 841.335 847.41 845.671 846.483 858.386 849.378 C 919.277 852.085 959.002 913.835 948.648 972.208 L 947.648 972.933 L 946.139 971.946 L 946.558 978.83 C 946.633 977.226 946.694 975.633 946.806 974.031 L 945.71 972.797 L 946.23 971.79 C 942.328 975.545 942.726 977.008 940.824 981.946 C 941.21 899.67 856.518 841.345 797.993 903.797 C 759.816 944.535 762.564 1017.19 805.67 1053.62 L 805.67 1056.25 C 797.066 1050.2 788.629 1045.79 779.634 1039.04 L 775.634 1039.04 C 758.638 1008.28 747.232 978.849 750.716 943.695 C 735.914 941.373 727.32 938.891 715.043 930.484 C 727.854 927.382 739.859 924.292 752.544 920.719 C 746.226 911.581 725.748 902.659 725.321 895.1 L 725.321 887.065 C 729.686 878.226 740.537 867.541 737.453 857.532 C 745.764 850.903 759.848 843.6 770.461 843.78 L 775.634 843.78 z" fill="rgb(0,0,0)" transform="translate(0,0)"></path>
<path d="M 779.634 1039.04 C 748.088 991.209 751.53 924.944 795.028 885.484 C 858.93 827.512 952.106 890.321 946.139 971.946 L 946.558 978.83 C 946.633 977.226 946.694 975.633 946.806 974.031 L 945.71 972.797 L 946.23 971.79 C 942.328 975.545 942.726 977.008 940.824 981.946 C 941.21 899.67 856.518 841.345 797.993 903.797 C 759.816 944.535 762.564 1017.19 805.67 1053.62 L 805.67 1056.25 C 797.066 1050.2 788.629 1045.79 779.634 1039.04 z" fill="rgb(224,224,223)" transform="translate(0,0)"></path>
<path d="M 737.453 857.532 C 745.764 850.903 759.848 843.6 770.461 843.78 C 773.438 853.579 776.35 863.221 779.634 872.931 C 773.517 871.001 751 862.61 746.823 864.252 C 746.288 876.963 765.036 885.68 762.701 892.808 C 754.998 898.116 734.656 896.264 725.321 895.1 L 725.321 887.065 C 729.686 878.226 740.537 867.541 737.453 857.532 z" fill="rgb(252,222,208)" transform="translate(0,0)"></path>
<path d="M 775.634 843.78 C 780.351 839.576 788.394 839.798 794.766 839.363 C 805.408 845.94 815.417 842.719 825.787 846.721 L 824.631 846.845 C 826.572 848.311 826.408 848.287 828.564 849.378 C 817.639 851.228 811.44 853.676 800.961 857.532 C 794.454 853.335 782.971 845.362 775.634 843.78 z" fill="rgb(252,222,208)" transform="translate(0,0)"></path>
<path d="M 946.139 1174.83 C 997.771 1180.54 1050.55 1180.2 1102.2 1174.83 C 1102.16 1179.92 1101.9 1187.58 1102.2 1192.45 C 1101.98 1198.85 1100.51 1211.72 1098.95 1217.83 C 1074.55 1246.25 1061.9 1264.42 1024.76 1277.56 C 1022.79 1276.65 1008.83 1269.77 1008.36 1269.63 C 977.67 1251.23 967.332 1237.28 946.139 1209.63 C 945.847 1198.48 946.119 1186.08 946.139 1174.83 z" fill="rgb(238,196,170)" transform="translate(0,0)"></path>
<path d="M 737.453 857.532 C 740.537 867.541 729.686 878.226 725.321 887.065 C 694.774 928.002 687.848 975.825 698.045 1025.47 C 740.491 1232.13 1272.6 1179.92 1314 1090.68 C 1320.03 1085.37 1323.1 1084.18 1329.03 1077.64 C 1333.73 1078.65 1334.18 1079.55 1338.42 1077.64 C 1273.64 1153.11 1234.1 1141.71 1155.64 1168.1 C 1141.68 1166.39 1115.85 1170.63 1102.2 1174.83 C 1102.42 1180.42 1102.95 1187.01 1102.2 1192.45 C 1101.9 1187.58 1102.16 1179.92 1102.2 1174.83 C 1050.55 1180.2 997.771 1180.54 946.139 1174.83 C 942.724 1173.08 899.872 1168.53 894.122 1168.1 C 845.096 1160.21 779.888 1140.22 740.949 1111.42 C 731.684 1104.57 714.814 1083.31 708.216 1080.77 C 702.994 1066.47 693.754 1062.38 688.148 1039.04 C 683.345 969.988 678.387 910.865 737.453 857.532 z" fill="rgb(232,168,116)" transform="translate(0,0)"></path>
<path d="M 1236.33 1071.26 C 1256.49 1056.22 1262.47 1051.04 1275.76 1030.25 L 1275.76 1030.25 L 1275.32 1032.5 C 1281.03 1035.37 1351.64 1029.9 1329.03 1077.64 C 1323.1 1084.18 1320.03 1085.37 1314 1090.68 C 1292.68 1098.54 1215.09 1097.7 1236.33 1071.26 z" fill="rgb(246,126,175)" transform="translate(0,0)"></path>
<path d="M 775.634 1039.04 L 779.634 1039.04 C 788.629 1045.79 797.066 1050.2 805.67 1056.25 C 867.399 1101.95 723.615 1115.56 719.542 1064.62 C 717.055 1033.52 763.123 1042.75 775.634 1039.04 z" fill="rgb(246,126,175)" transform="translate(0,0)"></path>
<path d="M 1069.67 1060.21 L 1076.94 1050.35 C 1072.85 1075.53 1070.81 1093.94 1053.68 1113.78 C 1030.66 1140.1 1005.23 1127.33 988.221 1103.51 C 980.299 1087.11 974.611 1071.83 972.147 1053.62 C 992.045 1072.38 1045.85 1070.11 1069.67 1060.21 z" fill="rgb(169,43,35)" transform="translate(0,0)"></path>
<path d="M 988.221 1103.51 C 1008.02 1088.82 1031.43 1089.15 1053.68 1099.88 C 1052.82 1103.83 1051.55 1107.87 1052.14 1111.8 L 1053.68 1113.78 C 1030.66 1140.1 1005.23 1127.33 988.221 1103.51 z" fill="rgb(221,17,90)" transform="translate(0,0)"></path>
<path d="M 1166.82 1418.17 C 1171.01 1423.86 1178.37 1429.16 1184.04 1433.71 C 1186.05 1437.37 1188.02 1440.46 1188.29 1444.72 C 1193.82 1457.34 1221.02 1479 1236.33 1474.28 C 1256.81 1488.95 1330.86 1564.09 1338.42 1588.74 C 1345.14 1599.29 1356.64 1625.12 1360.34 1630.21 C 1361.26 1636.56 1362.17 1643.31 1363.72 1649.53 C 1341.2 1704.03 1269.9 1742.88 1216.71 1762.53 C 1225.59 1769.76 1398.96 1780.14 1367.06 1817.2 C 1336.49 1852.71 1158.24 1861.42 1106.48 1863.3 C 1004.72 1866.98 820.628 1865.68 723.259 1834.89 C 594.42 1794.14 840.983 1771.51 845.884 1766.7 C 790.305 1748.6 683.323 1706.31 688.148 1634.24 C 690.963 1625.52 694.919 1617.41 698.976 1609.22 C 716.545 1567.25 774.287 1504.88 810.196 1477.84 C 814.319 1474.03 820.477 1469.58 825.065 1466.08 L 828.564 1466.08 C 839.783 1456.23 845.017 1454.55 858.386 1441.12 C 870.391 1434.53 881.23 1432.85 883.99 1418.17 C 883.917 1421.81 882.991 1431.1 883.99 1433.71 C 893.226 1433.53 920.959 1447.15 933.239 1450.5 C 1011.59 1471.89 1095.48 1466.34 1166.82 1427.46 C 1166.92 1424.49 1166.84 1421.17 1166.82 1418.17 z" fill="rgb(246,126,175)" transform="translate(0,0)"></path>
<path d="M 845.884 1766.7 C 968.064 1802.54 1095.42 1803.59 1216.71 1762.53 C 1225.59 1769.76 1398.96 1780.14 1367.06 1817.2 C 1336.49 1852.71 1158.24 1861.42 1106.48 1863.3 C 1004.72 1866.98 820.628 1865.68 723.259 1834.89 C 594.42 1794.14 840.983 1771.51 845.884 1766.7 z" fill="rgb(224,224,223)" transform="translate(0,0)"></path>
<path d="M 1240.68 1669.42 C 1269.66 1669.87 1310.63 1655.65 1336.55 1642.74 C 1343.56 1639.25 1353.07 1632.01 1360.34 1630.21 C 1361.26 1636.56 1362.17 1643.31 1363.72 1649.53 C 1341.2 1704.03 1269.9 1742.88 1216.71 1762.53 C 1095.42 1803.59 968.064 1802.54 845.884 1766.7 C 790.305 1748.6 683.323 1706.31 688.148 1634.24 C 730.486 1660.3 743.323 1663.17 792.031 1669.42 C 830.719 1722.68 882.453 1737.93 940.824 1702.18 C 963.989 1751.32 1068.67 1750.07 1106.81 1702.18 C 1147.58 1735.12 1223.46 1723.4 1240.68 1669.42 z" fill="rgb(0,0,0)" transform="translate(0,0)"></path>
<path d="M 698.976 1609.22 C 706.846 1614.39 705.133 1615.93 717.321 1621.51 C 835.978 1667.66 826.744 1554.52 856.191 1541.59 C 855.769 1545.41 849.194 1555.25 847.369 1559.81 C 828.071 1610.12 789.153 1683.87 874.048 1691.7 C 947.791 1698.49 940.786 1628.4 958.431 1585.74 L 959.061 1585.97 C 957.428 1612.6 946.929 1643.68 955.441 1669.53 C 972.465 1721.21 1072.43 1724.7 1092.34 1672.74 C 1100.78 1646.04 1086.73 1585.03 1089.7 1579.14 C 1107.74 1600.69 1087.01 1715.88 1188.13 1688.31 C 1249.92 1671.46 1209.88 1596.29 1195.09 1561.12 C 1192.77 1555.6 1187.35 1545.63 1186.99 1541.53 L 1186.36 1540.82 C 1200.87 1552.37 1213.48 1608.66 1247.16 1626.32 C 1270.8 1638.71 1324.28 1627.71 1335.94 1600.91 C 1337.61 1597.09 1335.36 1594.09 1338.42 1588.74 C 1345.14 1599.29 1356.64 1625.12 1360.34 1630.21 C 1353.07 1632.01 1343.56 1639.25 1336.55 1642.74 C 1310.63 1655.65 1269.66 1669.87 1240.68 1669.42 C 1223.46 1723.4 1147.58 1735.12 1106.81 1702.18 C 1068.67 1750.07 963.989 1751.32 940.824 1702.18 C 882.453 1737.93 830.719 1722.68 792.031 1669.42 C 743.323 1663.17 730.486 1660.3 688.148 1634.24 C 690.963 1625.52 694.919 1617.41 698.976 1609.22 z" fill="rgb(225,81,142)" transform="translate(0,0)"></path>
<path d="M 883.99 1418.17 C 883.917 1421.81 882.991 1431.1 883.99 1433.71 C 867.541 1445.5 848.43 1454.65 831.536 1466.08 L 828.564 1466.08 C 839.783 1456.23 845.017 1454.55 858.386 1441.12 C 870.391 1434.53 881.23 1432.85 883.99 1418.17 z" fill="rgb(225,81,142)" transform="translate(0,0)"></path>
<path d="M 1166.82 1418.17 C 1171.01 1423.86 1178.37 1429.16 1184.04 1433.71 C 1186.05 1437.37 1188.02 1440.46 1188.29 1444.72 C 1181.15 1439.05 1173.78 1433.33 1166.82 1427.46 C 1166.92 1424.49 1166.84 1421.17 1166.82 1418.17 z" fill="rgb(225,81,142)" transform="translate(0,0)"></path>
<path d="M 825.065 1466.08 L 828.564 1466.08 L 831.536 1466.08 C 826.969 1470.74 816.458 1484.53 810.196 1477.84 C 814.319 1474.03 820.477 1469.58 825.065 1466.08 z" fill="rgb(246,126,175)" transform="translate(0,0)"></path>
<path d="M 959.868 163.728 C 998.196 182.96 1037.89 249.646 1045.65 289.978 C 1050.31 284.38 1067.83 268.904 1069.67 265.813 L 1074.15 265.813 C 1073.52 304.416 1078.38 347.083 1076.94 382.965 L 1076.94 386.595 C 1078.27 395.943 1079.02 401.465 1079.21 410.779 C 1042.7 457.997 831.833 507.582 800.961 457.698 C 797.817 451.012 794.827 443.094 792.031 436.158 C 779.701 409.397 766.981 373.949 755.696 345.757 C 731.898 340.846 713.449 325.289 725.321 299.571 C 743.144 260.415 804.174 301.825 775.634 329.729 L 775.536 332.501 C 777.859 335.304 785.085 336.272 788.86 337.134 C 792.159 293.754 798.608 227.904 828.564 194.14 C 853.54 204.057 888.423 242.851 902.659 265.813 C 914.461 234.943 931 181.196 959.868 163.728 z M 944.03 363.444 C 899.434 350.856 888.439 417.312 930.028 425.207 C 949.985 428.995 964.697 413.155 972.147 396.842 C 970.98 381.964 960.97 363.501 944.03 363.444 z" fill="rgb(250,188,23)" transform="translate(0,0)"></path>
<path d="M 725.321 299.571 C 743.144 260.415 804.174 301.825 775.634 329.729 C 772.778 329.693 767.548 334.62 763.522 337.134 C 723.828 337.037 733.52 308.928 725.321 299.571 z" fill="rgb(251,206,19)" transform="translate(0,0)"></path>
<path d="M 750.716 289.978 C 770.977 287.599 783.703 310.208 758.998 317.098 C 736.618 317.258 721.586 294.442 750.716 289.978 z" fill="rgb(254,236,166)" transform="translate(0,0)"></path>
<path d="M 959.868 182.791 C 992.653 210.732 1013.63 245.981 1031.91 284.175 C 1033.26 286.99 1036.58 295.283 1039.34 296.19 L 1041.34 294.884 C 1038.31 300.288 999.786 338.45 991.028 348.887 C 972.281 316.287 928.766 294.238 912.162 270.201 L 912.162 265.813 C 923.839 251.671 937.839 209.746 959.868 182.791 z" fill="rgb(107,142,23)" transform="translate(0,0)"></path>
<path d="M 794.766 340.436 C 800.382 306.087 810.596 237.673 837.456 215.415 C 866.819 239.586 877.985 251.489 902.659 281.028 C 905.503 274.341 907.141 271.05 912.162 265.813 L 912.162 270.201 C 902.786 299.723 883.659 333.795 872.272 366.809 C 861.452 360.778 808.934 344.37 794.766 340.436 z" fill="rgb(74,76,10)" transform="translate(0,0)"></path>
<path d="M 972.147 396.842 C 964.697 413.155 949.985 428.995 930.028 425.207 C 888.439 417.312 899.434 350.856 944.03 363.444 C 960.97 363.501 970.98 381.964 972.147 396.842 z M 944.03 376.68 C 945.364 387.899 944.485 400.547 959.868 396.842 C 972.992 380.507 948.337 364.365 930.604 363.444 L 928.947 365.558 C 930.678 370.612 938.842 373.007 944.03 376.68 z" fill="rgb(173,29,93)" transform="translate(0,0)"></path>
<path d="M 944.03 363.444 C 960.97 363.501 970.98 381.964 972.147 396.842 C 967.924 396.93 964.089 396.987 959.868 396.842 C 972.992 380.507 948.337 364.365 930.604 363.444 C 933.002 363.038 940.349 363.594 944.03 363.444 z" fill="rgb(225,81,142)" transform="translate(0,0)"></path>
<path d="M 1076.94 382.965 C 1386.41 377.675 1578.41 808.005 1364.66 1041.54 C 1363.33 1042.99 1361.77 1044.45 1360.34 1045.83 C 1358.77 1040.04 1366.72 1012.78 1368.09 1002.77 C 1370.59 991.528 1367.97 978.917 1368.09 967.072 C 1385.29 943.059 1306.76 746.215 1292.5 715.982 C 1282.03 693.776 1262.32 671.384 1253.23 650.189 C 1246.11 640.602 1242.58 634.643 1232.55 627.81 C 1272.47 592.668 1301.08 593.147 1329.03 530.303 C 1276.52 462.178 1197.76 427.262 1119.15 400.796 C 1106.74 396.618 1083.56 397.71 1076.94 386.595 L 1076.94 382.965 z" fill="url(#Gradient2)" transform="translate(0,0)"></path>
<path d="M 1329.03 530.303 C 1362.21 573.85 1411.3 648.554 1415.48 704.797 C 1385.42 625.185 1324.67 621.863 1253.23 650.189 C 1246.11 640.602 1242.58 634.643 1232.55 627.81 C 1272.47 592.668 1301.08 593.147 1329.03 530.303 z" fill="rgb(174,134,103)" transform="translate(0,0)"></path>
<path d="M 1194.78 1265.53 C 1201.38 1273.98 1236.34 1356.66 1240.68 1369.82 C 1302.26 1384.26 1309.42 1454.97 1236.33 1474.28 C 1221.02 1479 1193.82 1457.34 1188.29 1444.72 C 1188.02 1440.46 1186.05 1437.37 1184.04 1433.71 C 1181.4 1417.43 1184.6 1407.69 1188.29 1391.91 C 1176.91 1377.28 1156.44 1329.54 1149.87 1323.08 C 1153.05 1323.15 1154.2 1320.44 1155.64 1318.23 C 1156.8 1303.51 1155.53 1288.3 1153.38 1273.71 L 1155.64 1274.22 C 1164.15 1274.63 1179.56 1271.42 1188.29 1269.63 L 1194.78 1265.53 z" fill="rgb(174,134,103)" transform="translate(0,0)"></path>
<path d="M 1188.29 1269.63 C 1193.65 1274.2 1225.32 1352.74 1236.33 1369.82 C 1216.79 1372.93 1208.97 1374.27 1194.78 1388.82 C 1188.37 1378.42 1156.55 1327.19 1155.64 1318.23 C 1156.8 1303.51 1155.53 1288.3 1153.38 1273.71 L 1155.64 1274.22 C 1164.15 1274.63 1179.56 1271.42 1188.29 1269.63 z" fill="rgb(252,222,208)" transform="translate(0,0)"></path>
<path d="M 1226.36 1375.71 C 1251.32 1370.79 1275.51 1387.13 1280.27 1412.12 C 1285.04 1437.11 1268.55 1461.2 1243.54 1465.81 C 1218.74 1470.38 1194.89 1454.07 1190.17 1429.3 C 1185.45 1404.52 1201.62 1380.58 1226.36 1375.71 z" fill="rgb(238,196,170)" transform="translate(0,0)"></path>
<path d="M 853.534 1260.35 C 855.42 1262.17 856.962 1263.37 858.386 1265.53 C 870.646 1269.22 881.302 1272.99 894.122 1274.22 C 893.145 1281.79 892.207 1290.91 890.811 1298.29 C 891.059 1301.3 891.518 1303.88 890.811 1306.79 C 884.193 1327.69 868.333 1369.2 858.386 1388.82 C 866.351 1408.32 868.13 1421.69 858.386 1441.12 C 845.017 1454.55 839.783 1456.23 828.564 1466.08 L 825.065 1466.08 C 769.972 1473.87 728.909 1396.56 810.196 1364.54 C 817.466 1351.43 823.818 1333.87 829.508 1319.66 L 853.534 1260.35 z" fill="url(#Gradient1)" transform="translate(0,0)"></path>
<path d="M 858.386 1265.53 C 870.646 1269.22 881.302 1272.99 894.122 1274.22 C 893.145 1281.79 892.207 1290.91 890.811 1298.29 C 877.619 1317.21 864.629 1361.58 853.534 1385.42 C 842.916 1375.65 834.305 1370.43 821.354 1364.54 C 826.53 1341.02 848.093 1290.01 858.386 1265.53 z" fill="rgb(252,222,208)" transform="translate(0,0)"></path>
<path d="M 808.088 1373.62 C 823.415 1371.1 838.908 1377.05 848.601 1389.19 C 858.295 1401.32 860.678 1417.75 854.833 1432.14 C 848.989 1446.53 835.827 1456.64 820.416 1458.58 C 797.202 1461.51 775.92 1445.3 772.561 1422.15 C 769.201 1398.99 785 1377.41 808.088 1373.62 z" fill="rgb(238,196,170)" transform="translate(0,0)"></path>
<path d="M 1045.65 243.21 C 1029.42 210.955 1085.13 188.79 1097.68 221.516 C 1102.86 235.025 1101.39 252.428 1087.33 259.817 C 1083 262.06 1078.82 264.525 1074.15 265.813 L 1069.67 265.813 C 1056.27 263.311 1048.35 256.411 1045.65 243.21 z" fill="rgb(250,188,23)" transform="translate(0,0)"></path>
<path d="M 1045.65 243.21 C 1080.48 270.575 1067.07 249.847 1087.33 259.817 C 1083 262.06 1078.82 264.525 1074.15 265.813 L 1069.67 265.813 C 1056.27 263.311 1048.35 256.411 1045.65 243.21 z" fill="rgb(251,206,19)" transform="translate(0,0)"></path>
<path d="M 1069.67 210.025 C 1087.53 210.067 1102.62 222.859 1079.21 234.455 C 1062.66 239.425 1050.11 216.955 1069.67 210.025 z" fill="rgb(254,236,166)" transform="translate(0,0)"></path>
<metadata><recraft-signature>{"signed_by": "recraft", "signature_b64": "wt8JCmiPN6IZZJVQMTyvF28/ijecVwnmIsB/jEmjVPtMbZXMjdOAeZH0ME2N3aRYgT1g3ntDVwWsqw4fkC5VCA==", "signing_algo": "Ed25519", "generation_timestamp": 1776334924, "identifier": "ac809c90-cdf4-4ab3-915f-d161a41f78bb"}</recraft-signature></metadata></svg>