<svg xmlns="http://www.w3.org/2000/svg" height="1024" preserveAspectRatio="none" style="display: block;" version="1.1" viewBox="0 0 2048 2048" width="1024">
<path d="M 0 0 L 234.673 0 L 241.507 0 L 307.471 0 L 315.307 0 L 531.87 0 L 539.795 0 L 620.024 0 L 638.504 0 L 732.509 0 L 738.261 0 L 907.625 0 L 915.598 0 L 1136.01 0 L 1143.96 0 L 1313.07 0 L 1318.98 0 L 1405.85 0 L 1424.64 0 L 1510.47 0 L 1517.98 0 L 1734.51 0 L 1743.12 0 L 1807.67 0 L 1814.28 0 L 2048 0 L 2048 3.48407 L 2048 12.391 L 2048 401.399 L 2048 408.188 L 2048 1275.57 L 2048 1281.04 L 2048 1627.3 L 2048 1642.75 L 2048 1903.54 L 2048 1904.75 L 2048 2048 L 1946.17 2048 L 1934.06 2048 L 1700.21 2048 L 1670.52 2048 L 1348.31 2048 L 1341.52 2048 L 881.76 2048 L 863.734 2048 L 708.223 2048 L 700.959 2048 L 484.737 2048 L 459.825 2048 L 113.707 2048 L 101.661 2048 L 0 2048 L 0 1903.69 L 0 1901.36 L 0 1655.36 L 0 1640.43 L 0 1281.21 L 0 1275.93 L 0 409.823 L 0 402.257 L 0 12.3243 L 0 3.89456 L 0 0 z" fill="rgb(7,6,6)" transform="translate(0,0)"></path>
<path d="M 12.2566 400.159 C 31.8765 424.839 52.9442 449.501 73.2173 473.739 C 90.2349 494.084 107.702 516.351 125.009 536.226 L 100.564 614.52 C 97.4525 624.531 89.0087 649.781 87.8483 659.197 C 86.3587 671.285 87.0418 696.055 87.0902 709.357 L 88.0495 822.605 C 63.7755 804.765 35.9282 789.669 10.8557 772.852 C 9.0051 771.611 6.77099 771.003 4.55639 771.261 C 3.60069 773.549 3.79652 772.316 4.72623 775.122 C 26.3044 791.464 63.6199 812.349 88.0012 829.08 L 90.0025 1056.93 L 66.9925 1056.84 L 66.9658 1020.67 C 60.4162 1014.42 53.2934 1007.86 46.9849 1001.44 L 46.8363 1172.09 C 52.7073 1177.9 58.927 1183.87 64.645 1189.79 L 64.7377 1152.83 C 72.8072 1144.86 82.7134 1131.29 90.0061 1122.05 C 90.9222 1173.31 91.2804 1224.57 91.0806 1275.83 L 0 1275.93 L 0 409.823 C 4.10307 406.624 8.18867 403.403 12.2566 400.159 z" fill="rgb(226,220,213)" transform="translate(0,0)"></path>
<path d="M 2037.47 400.314 L 2048 408.188 L 2048 1275.57 C 2018.79 1274.54 1984.55 1275.35 1955 1275.24 C 1954.86 1225.98 1955.39 1169.49 1956.83 1120.32 C 1966.38 1131.04 1975.38 1142.24 1983.79 1153.87 C 1984.29 1164.93 1984.15 1177.71 1984.29 1188.89 C 1990.46 1184.4 1996.95 1177.73 2002.52 1172.33 C 2002.6 1165.38 2002.63 1158.19 2002.47 1151.25 C 2001.35 1101.53 2003.86 1050.98 2002.28 1001.37 C 1995.92 1007.67 1988.62 1013.95 1981.99 1020.36 C 1981.74 1048.92 1991.19 1056.62 1958.48 1056.29 C 1956.94 982.55 1959.69 902.509 1960.55 828.313 C 1976.14 820.078 1992.51 808.281 2007.59 798.886 C 2017.13 792.944 2043.19 778.619 2047.62 769.367 C 2040.89 769.054 1971.27 814.989 1960.74 821.912 C 1960.88 786.539 1961.23 751.167 1961.79 715.798 C 1961.93 701.934 1962.7 674.303 1961.23 661.743 C 1959.96 650.846 1950.74 623.633 1947.02 611.717 C 1939.11 586.542 1931.4 561.306 1923.88 536.011 C 1961.53 493.503 2000.73 444.373 2037.47 400.314 z" fill="rgb(226,220,213)" transform="translate(0,0)"></path>
<path d="M 380.794 1891.6 C 420.51 1892.77 465.405 1891.86 505.604 1891.94 L 791.463 1892.17 C 776.278 1919.21 760.775 1946.07 744.958 1972.75 C 737.357 1973.68 722.405 1978.06 714.48 1980.16 L 651.02 1997.27 L 530.459 2029.15 C 508.011 2035.07 481.73 2041.36 459.825 2048 L 113.707 2048 C 169.065 2014.93 224.676 1982.28 280.535 1950.06 C 312.624 1931.32 348.505 1909.07 380.794 1891.6 z" fill="rgb(226,220,213)" transform="translate(0,0)"></path>
<path d="M 1262.97 1891.84 L 1529.76 1891.91 L 1615.89 1892.04 C 1631.86 1892.06 1650.31 1892.52 1666.09 1891.68 C 1755.32 1942.75 1844.7 1998.12 1934.06 2048 L 1700.21 2048 C 1687.76 2044.06 1667.09 2040.4 1653.69 2037.88 C 1629.59 2033.45 1605.52 2028.88 1581.47 2024.18 L 1306.27 1970.68 C 1291.44 1945.34 1276.88 1917.8 1262.97 1891.84 z" fill="rgb(226,220,213)" transform="translate(0,0)"></path>
<path d="M 241.507 0 L 307.471 0 C 343.559 34.2737 385.687 68.1747 420.61 102.095 C 405.98 125.472 393.521 148.971 380.123 173.034 L 325.857 270.424 C 315.852 288.561 305.375 308.567 294.637 326.139 C 244.354 270.359 194.523 212.811 143.487 157.827 C 176.411 106.089 209.05 52.233 241.507 0 z" fill="rgb(226,220,213)" transform="translate(0,0)"></path>
<path d="M 1743.12 0 L 1807.67 0 C 1816.84 16.3941 1829.47 35.8515 1839.49 52.0411 L 1904.98 158.02 L 1753.91 325.67 C 1726.66 277.84 1699.75 229.813 1673.19 181.593 C 1660.7 159.109 1642.15 122.995 1628.59 102.516 C 1665.6 68.2143 1705.43 34.029 1743.12 0 z" fill="rgb(226,220,213)" transform="translate(0,0)"></path>
<path d="M 798.301 1891.74 L 1092.52 1891.87 C 1135.7 1892.05 1183.83 1890.7 1226.43 1892.11 C 1233 1893.59 1234.1 1892.19 1240.37 1894.22 L 1005.87 1990.21 C 959.853 2009.23 910.036 2030.99 863.734 2048 L 708.223 2048 C 738.594 1996.11 768.62 1944.03 798.301 1891.74 z" fill="rgb(183,179,177)" transform="translate(0,0)"></path>
<path d="M 1954.7 1281.03 L 2048 1281.04 L 2048 1627.3 C 2042.77 1636.52 2031.39 1666.29 2026.8 1677.45 L 1975.79 1800.13 C 1969.52 1815.03 1956.23 1848.78 1948.86 1861.31 C 1947.5 1845.21 1948.5 1820.58 1948.63 1803.71 L 1949.97 1687.03 L 1954.7 1281.03 z" fill="rgb(183,179,177)" transform="translate(0,0)"></path>
<path d="M 0 1281.21 L 91.3174 1281.09 L 92.3355 1632.49 C 92.5169 1705.6 91.5689 1784.66 93.6026 1857.51 C 83.7151 1837.03 74.2498 1813.13 65.1439 1791.89 C 52.6664 1763.45 40.3569 1734.93 28.2159 1706.35 C 23.3116 1694.58 5.40996 1648.76 0 1640.43 L 0 1281.21 z" fill="rgb(183,179,177)" transform="translate(0,0)"></path>
<path d="M 1673.95 1889.56 L 1871.3 1875.75 C 1893.13 1874.24 1933.92 1870.6 1954.91 1871.36 C 1961.22 1871.59 2018.59 1898.22 2028.14 1901.76 C 2031.73 1903.09 2041.41 1908.1 2045.21 1908.43 L 2048 1904.75 L 2048 2048 L 1946.17 2048 C 1854.87 1996.15 1764.13 1943.34 1673.95 1889.56 z" fill="rgb(183,179,177)" transform="translate(0,0)"></path>
<path d="M 0 1903.69 C 2.27902 1905.35 2.26416 1906.15 5.00786 1905.32 C 12.685 1902.99 21.1785 1899.27 28.6057 1896.19 C 43.6442 1889.9 58.7192 1883.69 73.8298 1877.57 C 76.6753 1876.43 90.689 1870.81 92.6102 1870.79 C 115.143 1870.63 142.656 1873.63 164.923 1875.32 L 293.713 1884.36 C 317.617 1886.01 350.215 1889.07 373.711 1889.21 C 331.113 1912.53 286.541 1940.71 243.907 1965.17 L 149.383 2020.03 C 135.685 2028.02 114.434 2039.52 101.661 2048 L 0 2048 L 0 1903.69 z" fill="rgb(183,179,177)" transform="translate(0,0)"></path>
<path d="M 638.504 0 L 732.509 0 C 741.187 15.9674 752.803 33.995 762.383 49.6881 C 771.645 64.8597 782.408 83.276 792.398 97.6518 C 780.5 104.336 749.566 118.32 741.066 124.136 C 728.764 132.554 700.463 159.726 687.444 171.49 C 597.182 155.457 507.277 137.472 417.793 117.548 C 431.334 94.0873 492.441 58.9786 515.838 41.159 C 518.445 39.1737 550.21 29.4301 556.856 27.2229 C 584.026 18.1983 611.504 9.8256 638.504 0 z" fill="rgb(226,220,213)" transform="translate(0,0)"></path>
<path d="M 1318.98 0 L 1405.85 0 C 1432.99 9.78062 1461.79 17.8469 1489.3 26.5765 C 1496.18 28.7596 1529.18 38.1031 1534.3 41.4136 C 1549.83 51.4479 1569.51 66.1456 1585.46 76.9332 C 1596.51 84.4135 1610.73 94.2114 1621.2 102.702 C 1622.61 103.847 1629.44 114.176 1630.92 116.389 L 1359.62 170.343 C 1346.96 159.012 1321.37 133.825 1309.09 125.146 C 1300.9 119.354 1269.95 104.662 1258.44 98.0426 C 1268.08 83.4596 1278.2 65.7664 1287.73 50.64 C 1296.91 36.0556 1311.61 14.4476 1318.98 0 z" fill="rgb(226,220,213)" transform="translate(0,0)"></path>
<path d="M 0 12.3243 C 9.10693 23.4253 21.6577 35.9805 31.6655 46.548 C 48.8189 64.5268 65.8213 82.6491 82.671 100.913 L 150.92 174.509 C 165.814 190.808 182.851 210.619 198.172 226.027 L 66.1187 344.272 C 48.7181 359.861 17.5317 389.506 0 402.257 L 0 12.3243 z" fill="rgb(183,179,177)" transform="translate(0,0)"></path>
<path d="M 1849.59 226.521 L 1969.13 96.8526 C 1994.11 69.8166 2022.41 38.4914 2048 12.391 L 2048 401.399 C 2024.05 379.677 1997.07 357.172 1972.49 335.515 L 1849.59 226.521 z" fill="rgb(183,179,177)" transform="translate(0,0)"></path>
<path d="M 881.76 2048 C 892.262 2042.67 909.173 2036.27 920.388 2031.65 L 987.378 2004.01 C 1076.36 1967.17 1168.71 1931.27 1256.67 1893.01 C 1277.83 1928.89 1297.21 1967.59 1317.61 2004 C 1325.08 2017.33 1333.72 2035.53 1341.52 2048 L 881.76 2048 z" fill="rgb(226,220,213)" transform="translate(0,0)"></path>
<path d="M 0 0 L 234.673 0 C 203.155 50.8165 171.476 103.059 139.27 153.354 C 92.8664 104.766 45.4125 53.3756 0 3.89456 L 0 0 z" fill="rgb(183,179,177)" transform="translate(0,0)"></path>
<path d="M 1814.28 0 L 2048 0 L 2048 3.48407 C 2035.4 16.3962 2022.22 31.8727 2009.62 45.3261 C 1975.92 81.262 1942.44 117.398 1909.17 153.733 C 1899.43 139.91 1885.22 115.236 1875.97 100.272 C 1855.22 66.9596 1834.66 33.5352 1814.28 0 z" fill="rgb(183,179,177)" transform="translate(0,0)"></path>
<path d="M 915.598 0 L 1136.01 0 C 1163.93 25.9799 1191.47 52.367 1218.62 79.1528 C 1196.76 73.2836 1170.73 63.8583 1148.91 56.8227 L 1027.33 18.1976 C 959.267 37.0159 897.031 58.1854 830.033 79.8948 C 858.268 52.9576 886.791 26.3245 915.598 -4.54747e-13 z" fill="rgb(183,179,177)" transform="translate(0,0)"></path>
<path d="M 1955.16 1864.11 C 1963.68 1846.47 1972.47 1822.24 1980.59 1803.71 C 2003.66 1751.07 2024.59 1695.06 2048 1642.75 L 2048 1903.54 C 2042.08 1901.95 2021.99 1893.04 2015.3 1890.13 C 1995.61 1881.56 1974.45 1873.25 1955.16 1864.11 z" fill="rgb(226,220,213)" transform="translate(0,0)"></path>
<path d="M 1517.98 0 L 1734.51 0 C 1698.47 32.9108 1660.69 65.0569 1625.13 98.2059 C 1606.46 84.3073 1584.25 69.185 1565.01 56.0279 C 1535.95 36.1534 1532.73 31.3206 1517.98 0 z" fill="rgb(183,179,177)" transform="translate(0,0)"></path>
<path d="M 315.307 0 L 531.87 0 C 528.241 6.79365 514.62 31.8243 509.906 35.8334 C 484.318 57.5973 451.235 78.4878 424.635 98.7722 C 420.095 94.0114 415.347 89.5258 410.379 85.2176 C 378.222 57.3326 347.35 28.0117 315.307 0 z" fill="rgb(183,179,177)" transform="translate(0,0)"></path>
<path d="M 1309.71 1977.16 L 1569.7 2027.9 C 1600.13 2034.03 1642.4 2039.86 1670.52 2048 L 1348.31 2048 C 1335.45 2024.48 1322.29 2000.81 1309.71 1977.16 z" fill="rgb(183,179,177)" transform="translate(0,0)"></path>
<path d="M 0 1655.36 C 3.7576 1662.54 7.19616 1670.55 10.2361 1678.07 C 35.5802 1740.84 64.13 1802.34 90.1066 1864.8 C 60.1673 1877.23 30.1308 1889.41 0 1901.36 L 0 1655.36 z" fill="rgb(226,220,213)" transform="translate(0,0)"></path>
<path d="M 1143.96 0 L 1313.07 0 C 1292.73 31.6561 1272.83 63.5959 1253.39 95.8099 C 1226.57 81.4289 1218.7 71.9298 1197.05 50.8235 C 1179.59 33.6389 1161.89 16.6961 1143.96 0 z" fill="rgb(226,220,213)" transform="translate(0,0)"></path>
<path d="M 738.261 0 L 907.625 0 C 888.608 17.1984 869.86 34.6921 851.389 52.4747 C 830.623 72.1817 822.587 81.7662 796.966 95.1436 C 777.39 64.4641 758.489 29.804 738.261 0 z" fill="rgb(226,220,213)" transform="translate(0,0)"></path>
<path d="M 484.737 2048 C 503.887 2040.7 543.137 2031.88 564.483 2026.09 C 623.315 2010.04 682.275 1994.47 741.358 1979.37 C 729.325 2001.04 714.159 2027.11 700.959 2048 L 484.737 2048 z" fill="rgb(183,179,177)" transform="translate(0,0)"></path>
<path d="M 1424.64 0 L 1510.47 0 C 1516.71 10.3214 1523.2 22.4606 1529.19 33.077 C 1495 21.7395 1458.28 12.2963 1424.64 0 z" fill="rgb(183,179,177)" transform="translate(0,0)"></path>
<path d="M 539.795 0 L 620.024 0 C 607.184 5.78382 586.809 11.5222 572.936 15.9252 C 554.814 21.6768 536.613 28.0473 518.556 33.7146 C 525.282 22.2577 532.365 11.0139 539.795 -5.68434e-14 z" fill="rgb(183,179,177)" transform="translate(0,0)"></path>
<path d="M 1226.43 1892.11 C 1229.37 1892 1240.6 1891.64 1242.95 1892.28 L 1243.16 1892.49 C 1242.22 1893.11 1241.33 1893.66 1240.37 1894.22 C 1234.1 1892.19 1233 1893.59 1226.43 1892.11 z" fill="rgb(194,189,190)" transform="translate(0,0)"></path>
<path d="M 1025 194.721 C 1039.4 202.951 1058.34 211.189 1073.59 218.475 L 1143.49 252.474 C 1149.87 255.586 1178.62 269.116 1182.45 273.063 C 1204.18 295.495 1225.85 321.35 1246.09 345.448 C 1260.37 362.456 1280.85 383.529 1292.1 401.982 C 1297.29 410.489 1303.3 427.993 1308.11 437.819 C 1322.53 467.269 1335.4 503.951 1350.37 532.745 L 1350.84 533.637 C 1349.07 549.453 1346.53 567.191 1346.18 582.963 C 1345.47 615.383 1345.35 647.974 1345.27 680.4 L 1345.02 826.831 L 1343.09 1295.95 L 1252.85 1295.9 C 1252.29 1269.44 1252.87 1240.64 1252.89 1214 L 1253.04 1048.93 C 1253.16 956.104 1251.8 858.878 1253.64 766.483 L 1255.14 765.21 C 1257.66 765.192 1259.38 765.477 1261.5 764.178 C 1263.4 759.388 1262.86 750.656 1262.97 744.943 C 1248.66 724.644 1234.21 706.633 1220.78 685.296 L 1235.18 685.284 C 1231.57 675.067 1223.98 662.452 1218.46 652.81 C 1213.08 661.179 1205.41 676.753 1201.58 685.878 L 1215.73 685.336 C 1209.27 698.983 1184.85 731.356 1174.92 744.393 C 1174.92 751.189 1173.55 760.994 1178.73 765.773 C 1182.14 765.16 1180.99 764.95 1184.09 765.695 C 1187.27 772.404 1186.06 798.448 1186.33 807.883 L 1183.11 811.114 C 1180.7 805.7 1178.77 800.172 1176.73 794.609 C 1163.53 804.19 1150.4 813.85 1137.32 823.589 C 1136.13 805.401 1134.35 786.515 1132.88 768.28 C 1120.17 777.382 1103.97 792.361 1091.17 802.902 L 1090.95 777.031 C 1069.96 748.741 1045.87 717.67 1026.39 688.593 C 1006.46 717.622 981.217 749.347 960.256 778.716 C 961.352 785.278 961.05 795.207 961.057 802.141 C 947.462 792.253 933.007 779.016 919.339 768.241 C 917.912 786.768 916.577 804.548 914.258 823.012 L 876.899 794.264 C 873.951 801.724 870.19 809.801 866.934 817.203 C 867.255 803.364 866.531 789.42 866.918 775.563 C 867.324 761.051 868.9 769.003 874.137 764.761 C 876.74 758.507 876.146 752.891 876.412 745.931 C 863.077 727.404 846.08 704.723 834.6 685.654 C 839.248 685.769 843.865 685.419 848.511 685.162 C 845.178 675.235 837.867 661.773 832.284 652.917 C 826.15 661.708 819.366 675.872 815.935 686.007 C 819.998 685.671 824.838 684.612 828.361 686.016 L 828.703 687.486 C 821.046 701.438 798.116 731.491 788.106 744.706 C 788.012 749.772 787.353 758.668 788.925 762.98 C 792.548 764.29 794.809 766.198 794.845 770.259 C 794.989 786.767 794.894 803.294 794.888 819.807 L 794.309 937.957 L 792.716 1295.38 L 702.987 1295.53 L 702.387 583.422 C 702.416 568.7 695.793 541.343 700.698 530.576 C 710.184 509.751 721.509 482.723 731.231 462.497 C 736.75 451.016 757.63 401.467 762.467 395.496 C 796.283 353.972 830.727 312.29 866.454 272.436 C 869.193 269.38 908.211 250.731 913.698 248.142 C 950.807 230.633 987.558 211.378 1025 194.721 z" fill="rgb(226,220,213)" transform="translate(0,0)"></path>
<path d="M 158.756 474.515 L 177.839 461.338 C 201.707 500.526 225.459 541.657 247.747 581.785 C 252.48 590.307 257.628 618.731 260.133 629.861 L 278.356 711.694 L 294.39 782.225 C 297.154 794.394 300.767 808.864 302.772 821.025 C 304.526 831.667 304.034 848.655 304.051 859.885 L 304.171 912.866 L 304.582 1103.07 L 305.714 1782.08 C 266.329 1798.51 226.021 1813.75 185.965 1828.5 C 158.066 1838.78 127.411 1852.1 99.2977 1860.58 C 97.0804 1611.86 96.1317 1363.13 96.4516 1114.39 C 118.992 1084.56 141.763 1055.33 163.545 1024.94 L 179.849 1024.92 C 179.908 1021.07 180.423 1009.33 179.419 1006.26 C 177.419 1005.7 175.408 1005.19 173.387 1004.71 C 172.278 998.66 181.713 963.317 183.885 955.446 L 195.609 954.956 C 186.163 904.113 179.745 845.291 172.228 793.36 C 157.936 793.192 143.643 793.156 129.35 793.252 C 121.108 846.149 112.071 902.638 105.83 955.738 L 118.038 955.87 C 121.965 968.204 130.004 994.651 131.724 1006.74 L 97.124 1006.94 C 98.369 1012.46 97.9571 1018.65 97.8947 1024.41 L 95.939 1024.46 C 95.2989 1005.98 94.3404 973.115 95.2604 954.837 L 93.3732 744.982 C 93.2271 726.322 90.308 670.852 94.2945 655.707 C 104.606 616.532 119.16 574.44 131.464 535.542 C 138.563 515.456 151.824 495.049 158.756 474.515 z" fill="rgb(226,220,213)" transform="translate(0,0)"></path>
<path d="M 95.2604 954.837 C 97.8585 963.095 94.6213 1002.9 97.124 1006.94 C 98.369 1012.46 97.9571 1018.65 97.8947 1024.41 L 95.939 1024.46 C 95.2989 1005.98 94.3404 973.115 95.2604 954.837 z" fill="rgb(183,179,177)" transform="translate(0,0)"></path>
<path d="M 1870.11 460.766 L 1889.04 473.018 C 1892.39 479.715 1895.12 487.147 1898.45 493.751 C 1924.35 545.092 1936.51 601.123 1954.42 655.463 C 1957.17 663.81 1956.25 684.82 1956.18 694.534 L 1955.67 747.215 L 1952.83 948.481 C 1953.35 959.728 1953.42 1017.27 1952.2 1026.47 L 1949.97 1025.07 C 1950.37 1018.29 1949.43 1013.42 1950.9 1006.85 L 1917.5 1006.88 C 1920.84 987.782 1924.87 973.388 1931.14 955.28 L 1944.2 954.937 C 1936.75 901.627 1927.16 847.691 1919.39 793.988 C 1905.66 792.938 1890.96 793.193 1877.1 793.179 C 1870.27 846.345 1861.43 901.429 1853.88 954.779 C 1857.72 955.267 1861.96 955.453 1865.85 955.708 C 1867.82 963.761 1879.24 1000.9 1876.64 1006.34 C 1872.99 1006.56 1874.07 1006.07 1871.06 1007.57 C 1869.6 1012.84 1869.86 1019.24 1869.76 1024.83 L 1884.59 1024.57 C 1906.38 1053.72 1928.4 1082.7 1950.66 1111.49 C 1949.4 1133.98 1950.13 1164.82 1949.87 1188 L 1947.92 1350.55 L 1942.78 1859.41 C 1875.63 1834.69 1806.47 1807.64 1739.67 1781.69 C 1739.6 1665.65 1740.29 1549.62 1741.76 1433.6 L 1743.51 1102.59 L 1744.84 911.867 L 1744.91 857.823 C 1744.9 824.284 1746.93 813.558 1754.09 780.911 L 1773.61 695.087 C 1778.97 669.645 1784.5 644.242 1790.22 618.878 C 1792.04 610.93 1796.54 587.98 1800 581.904 C 1822.91 541.576 1846.28 500.556 1870.11 460.766 z" fill="rgb(226,220,213)" transform="translate(0,0)"></path>
<path d="M 1950.9 1006.85 C 1952.97 1003.94 1951.68 956.974 1952.83 948.481 C 1953.35 959.728 1953.42 1017.27 1952.2 1026.47 L 1949.97 1025.07 C 1950.37 1018.29 1949.43 1013.42 1950.9 1006.85 z" fill="rgb(146,143,142)" transform="translate(0,0)"></path>
<path d="M 1017.74 870.446 C 1019.48 870.353 1021.21 870.297 1022.95 870.275 C 1116.36 869.2 1188.95 951.451 1188.19 1042.49 C 1188.02 1063.44 1188.66 1084.95 1188.82 1105.96 L 1189.33 1295.86 C 1149.88 1305.95 1145.52 1351.6 1182.14 1370.72 C 1174.71 1394.04 1167.74 1417.51 1161.25 1441.11 L 1034.09 1441.36 L 888.717 1441.15 C 880.164 1417.69 873.573 1394.32 866.142 1370.56 C 876.946 1365.11 884.734 1357.99 888.854 1346.2 C 892.273 1336.35 891.521 1325.53 886.773 1316.24 C 880.468 1303.96 871.198 1299.43 858.94 1295.51 L 861.461 1093.06 L 862.117 1042.12 C 862.267 1028.32 861.743 1008.92 864.811 996.017 C 871.045 969.788 885.548 943.708 903.757 923.917 C 935.293 889.642 971.601 872.724 1017.74 870.446 z" fill="rgb(248,170,42)" transform="translate(0,0)"></path>
<path d="M 833.749 1547.47 C 836.46 1549.99 856.232 1579.91 859.471 1585.19 C 873.015 1607.28 895.961 1635.87 907.617 1658.16 C 922.192 1632.77 935.633 1605.71 950.701 1580.94 C 975.386 1628.63 1002.06 1676.57 1025.9 1724.45 C 1051.17 1676.96 1076.69 1627.26 1102.88 1580.5 C 1116.81 1607.08 1131.06 1633.48 1145.64 1659.71 C 1155.87 1645.46 1167.12 1627.4 1176.93 1612.57 C 1190.16 1593.25 1202.71 1572.74 1216.14 1553.79 C 1215.78 1601.7 1214.88 1649.59 1213.44 1697.48 C 1212.97 1719.93 1214.11 1756.43 1210.67 1777.08 L 842.174 1777.52 C 838.208 1753.4 837.964 1709.66 837.271 1683.53 L 833.749 1547.47 z" fill="rgb(226,220,213)" transform="translate(0,0)"></path>
<path d="M 414.624 122.782 C 503.45 142.414 592.655 160.292 682.186 176.407 L 612.9 240.222 C 606.809 245.83 579.876 271.569 573.843 274.309 C 563.973 278.793 533.813 284.205 521.259 286.77 L 381.404 315.661 C 363.342 319.456 314.022 330.601 298.111 331.595 C 308.36 315.447 319.615 292.581 329.353 275.309 L 414.624 122.782 z" fill="rgb(226,220,213)" transform="translate(0,0)"></path>
<path d="M 1630.09 122.265 L 1632.54 121.866 C 1633.16 122.241 1633.79 122.615 1634.41 122.99 C 1642.65 138.58 1653.09 157.222 1661.48 172.262 L 1748.59 327.804 C 1722.04 324.145 1690.07 316.971 1663.51 311.784 L 1526.25 285.315 C 1515.09 283.423 1485 278.895 1476.06 275.288 C 1471.9 273.609 1444.05 247.225 1438.79 242.428 L 1364.71 175.184 C 1395.75 168.229 1431.59 163.157 1463.3 156.991 C 1518.96 145.723 1574.56 134.148 1630.09 122.265 z" fill="rgb(226,220,213)" transform="translate(0,0)"></path>
<path d="M 1518.39 948.564 C 1528.59 947.861 1540.24 947.908 1550.56 947.716 L 1535.74 1042.64 L 1548.22 1042.72 C 1550.87 1049.37 1558.22 1070.5 1559 1076.81 C 1556.42 1079.4 1555.36 1075.14 1551.37 1078.08 L 1549 1300.92 C 1497.73 1303.44 1444.69 1304.94 1393.26 1306.9 C 1384.29 1298.68 1380.13 1297.63 1368.59 1295.47 C 1386.78 1279.03 1408.01 1260.75 1426.6 1244.68 C 1459.14 1215.27 1495.92 1186.41 1527.34 1156.44 L 1436.12 1063.45 C 1407.86 1034.57 1379.16 1004.53 1350.15 976.514 L 1350.16 955.102 C 1365.63 955.026 1382.89 953.724 1398.5 953.119 L 1518.39 948.564 z" fill="rgb(226,220,213)" transform="translate(0,0)"></path>
<path d="M 500.426 947.702 C 564.891 948.443 632.921 954.712 697.066 955.165 L 697.067 975.436 C 693.384 978.436 682.962 989.719 679.315 993.501 L 642.081 1032.07 C 601.861 1073.45 560.529 1115.14 520.868 1156.94 C 545.505 1180.28 577.56 1206.47 603.697 1228.87 L 680.54 1295.2 C 668.53 1297.26 664.791 1299.46 655.656 1306.78 C 605.072 1305.96 551.902 1303.28 501.223 1301.03 C 500.426 1248.17 501.241 1194.72 500.519 1141.81 C 500.406 1133.53 501.214 1083.15 499.458 1078.02 C 496.514 1076.51 493.27 1077.43 489.796 1077.85 C 493.055 1067.73 497.069 1053.48 502.036 1044.09 C 503.214 1041.86 508.255 1042.33 511.912 1041.72 C 513.123 1038.72 501.525 958.508 500.426 947.702 z" fill="rgb(226,220,213)" transform="translate(0,0)"></path>
<path d="M 501.168 1307.06 C 548.832 1307.12 602.665 1311.44 651.745 1312.46 C 647.044 1320.24 644.206 1326.13 644.267 1335.71 C 644.367 1345.33 648.302 1354.51 655.197 1361.21 C 667.683 1373.55 681.291 1373.13 697.267 1373.05 C 699.397 1385.48 705.5 1399.46 707.363 1411.11 C 708.87 1420.54 708.352 1438.84 708.345 1449.05 L 708.525 1506.75 C 708.127 1507.86 708.465 1507.16 707.069 1508.58 L 499.089 1508.85 C 498.733 1442.28 500.931 1374.11 501.168 1307.06 z" fill="rgb(226,220,213)" transform="translate(0,0)"></path>
<path d="M 1538.07 1307.45 L 1548.13 1307.41 L 1550.07 1508.9 C 1482.63 1508.42 1415.19 1508.39 1347.75 1508.81 C 1345.01 1508.95 1344.76 1509.3 1342.57 1507.84 C 1341.49 1499.38 1342.12 1473.88 1342.25 1464.24 C 1342.47 1447.1 1341.88 1423.71 1343.6 1407.3 C 1344.2 1401.62 1350.04 1380.87 1351.62 1373.27 C 1373.49 1373.43 1393.98 1370.2 1402.09 1345.72 C 1406.11 1333.57 1402.91 1323 1397.27 1312.07 C 1442.17 1311.67 1492.89 1308.99 1538.07 1307.45 z" fill="rgb(226,220,213)" transform="translate(0,0)"></path>
<path d="M 1026.22 698.804 C 1045.56 725.595 1065.29 752.109 1085.4 778.335 C 1085.29 790.705 1085.3 803.075 1085.42 815.445 C 1099.62 802.931 1114.58 792.054 1128.8 779.2 C 1129.25 794.804 1131.61 819.519 1133.51 834.764 C 1146.7 824.011 1160.13 813.559 1173.79 803.416 C 1187.44 836.774 1186.91 831.051 1187.05 868.248 L 1187.17 936.593 C 1187.65 942.007 1188.55 989.829 1187.56 992.943 C 1186.56 992.565 1185.76 988.772 1185.54 987.981 C 1184.24 984.227 1182.86 980.498 1181.41 976.798 C 1132.35 852.106 978.008 823.499 891.484 929.074 C 878.642 944.744 871.743 960.769 863.86 979.176 C 863.503 941.126 865.211 902.818 865.362 864.817 C 865.486 833.489 864.93 831.462 879.469 803.795 C 892.842 813.7 905.978 823.919 918.868 834.444 C 921.203 818.764 922.895 795.96 924.334 779.988 C 937.771 791.741 953.141 803.961 966.983 815.449 L 967.106 779.694 C 970.33 774.701 974.375 769.315 978.014 764.554 C 994.415 743.092 1009.42 719.886 1026.22 698.804 z" fill="rgb(248,170,42)" transform="translate(0,0)"></path>
<path d="M 1187.17 936.593 C 1187.65 942.007 1188.55 989.829 1187.56 992.943 C 1186.56 992.565 1185.76 988.772 1185.54 987.981 C 1188.11 983.107 1186.22 946.67 1187.17 936.593 z" fill="rgb(203,139,44)" transform="translate(0,0)"></path>
<path d="M 1476.82 282.641 C 1496.34 284.372 1535.6 292.843 1556.32 296.837 L 1666.33 318.137 C 1692.36 323.269 1720.97 329.365 1747.1 333.341 C 1719.13 366.204 1681.11 405.22 1651.5 436.932 C 1621.64 468.593 1589.93 501.928 1560.97 534.256 C 1549.74 495.194 1537.52 456.427 1524.3 417.995 C 1509.21 374.877 1490.44 325.899 1476.82 282.641 z" fill="rgb(183,179,177)" transform="translate(0,0)"></path>
<path d="M 569.619 282.193 L 571.343 282.244 C 572.433 285.684 536.549 382.148 532.116 394.093 C 514.523 441.496 503.357 486.992 490.263 535.477 C 461.526 506.313 430.113 471.837 401.968 441.703 L 303.41 336.809 C 334.296 332.495 378.04 322.063 409.444 315.463 C 462.92 304.783 516.313 293.692 569.619 282.193 z" fill="rgb(183,179,177)" transform="translate(0,0)"></path>
<path d="M 801.057 765.524 C 821.078 765.347 841.099 765.302 861.121 765.39 C 861.087 802.773 859.647 838.162 859.129 875.23 C 856.216 1013.89 854.114 1152.57 852.826 1291.25 C 852.71 1293.64 853.047 1292.53 851.806 1294.58 C 845.232 1296.18 808.111 1295.37 798.686 1295.31 L 799.85 946.491 L 800.237 826.606 C 800.338 808.766 799.788 782.592 801.057 765.524 z" fill="rgb(248,170,42)" transform="translate(0,0)"></path>
<path d="M 1050.72 1783.15 C 1053.11 1783.04 1072.23 1782.02 1072.3 1784.2 L 1071.61 1783.91 L 1071.9 1784.06 C 1069.83 1785.7 1068.53 1785.25 1065.73 1785.66 L 930.115 1813.23 C 916.55 1815.86 884.593 1822.82 872.087 1824.03 L 871.949 1826.19 L 1200.52 1826.7 L 1201.76 1827.95 C 1201.34 1830.7 1200.95 1831.52 1201.72 1834.18 C 1205.6 1835.8 1220.1 1834.99 1225.22 1834.87 C 1235.18 1851.5 1244.51 1869.39 1253.74 1886.5 L 801.349 1886.33 C 811.229 1869.07 821.613 1852.07 831.236 1834.68 C 839.676 1834.33 846.854 1834.51 855.318 1834.78 L 849.31 1809.21 C 856.897 1800.3 861.559 1793.37 867.246 1783.17 L 1050.72 1783.15 z" fill="rgb(226,220,213)" transform="translate(0,0)"></path>
<path d="M 1050.72 1783.15 C 1053.11 1783.04 1072.23 1782.02 1072.3 1784.2 L 1071.61 1783.91 L 1071.9 1784.06 C 1069.83 1785.7 1068.53 1785.25 1065.73 1785.66 C 1065.25 1782.98 1053.9 1783.61 1050.72 1783.15 z" fill="rgb(146,143,142)" transform="translate(0,0)"></path>
<path d="M 871.949 1826.19 C 871.39 1826.15 867.156 1826.06 866.736 1825.45 C 867.791 1824.6 870.815 1824.24 872.087 1824.03 L 871.949 1826.19 z" fill="rgb(85,84,81)" transform="translate(0,0)"></path>
<path d="M 1023.81 25.2726 L 1024.42 25.828 C 1025.46 31.0672 1024.85 54.4856 1024.81 61.0815 C 1024.63 84.9534 1024.63 108.826 1024.82 132.698 C 1010.97 137.795 983.045 152.323 968.639 159.172 C 928.918 177.839 889.365 196.863 849.986 216.241 C 830.643 201.304 810.976 184.422 792.094 168.716 C 776.035 155.309 759.851 142.054 743.542 128.952 C 768.288 116.616 796.361 101.196 820.678 89.7801 C 836.299 82.4462 874.659 71.1426 892.167 65.3068 C 934.907 51.0608 980.219 36.4361 1023.81 25.2726 z" fill="rgb(226,220,213)" transform="translate(0,0)"></path>
<path d="M 1308.92 132.809 C 1314.6 134.843 1452.48 262.886 1469.31 277.804 C 1432.6 297.316 1386.7 316.993 1348.26 335.581 C 1338.95 339.899 1329.71 344.344 1320.53 348.916 C 1282.04 306.135 1241.24 263.932 1202.35 221.034 C 1213.2 210.7 1228.88 198.346 1240.71 188.538 C 1263.25 169.723 1285.99 151.145 1308.92 132.809 z" fill="rgb(226,220,213)" transform="translate(0,0)"></path>
<path d="M 738.871 132.769 C 750.189 140.307 764.636 153.176 775.404 162.038 C 798.957 181.42 821.807 201.576 845.909 220.346 C 827.796 237.921 801.679 269.372 784.423 288.729 C 768.815 306.237 745.367 331.389 731.428 349.181 C 723.021 346.034 711.053 340.089 702.621 336.219 C 676.952 323.893 651.162 311.819 625.255 300 C 611.142 293.46 593.742 285.801 580.539 278.179 C 603.865 253.913 636.107 226.958 661.322 203.828 C 686.762 180.491 712.915 155.233 738.871 132.769 z" fill="rgb(226,220,213)" transform="translate(0,0)"></path>
<path d="M 1030.64 25.6712 C 1092.54 42.784 1155.12 65.4803 1216.47 84.893 C 1241.68 92.8684 1279.99 115.95 1304.64 128.94 C 1289.86 141.896 1272.01 155.173 1256.45 168.197 L 1197.46 216.954 C 1180.29 207.773 1158.81 198.068 1141 189.38 C 1104.22 171.351 1067.35 153.521 1030.38 135.89 C 1029.69 101.461 1029.62 60.0812 1030.64 25.6712 z" fill="rgb(226,220,213)" transform="translate(0,0)"></path>
<path d="M 1476.13 298.54 C 1485.2 318.6 1557.71 529.648 1556.3 540.764 C 1555.92 543.766 1555.7 546.795 1555.4 549.809 C 1514.2 552.851 1469.42 558.365 1427.76 562.375 C 1403.33 564.751 1377.04 566.956 1352.82 570.16 C 1354.08 536.831 1357.2 532.992 1373.11 504.559 C 1380.65 490.934 1388.07 477.246 1395.38 463.497 C 1423.19 411.037 1453.33 353.209 1476.13 298.54 z" fill="rgb(226,220,213)" transform="translate(0,0)"></path>
<path d="M 1191.08 765.305 C 1209.67 764.837 1229.14 765.08 1247.79 765.042 L 1246.49 1295.75 C 1234.66 1296.79 1208.33 1295.97 1195.42 1295.96 C 1195.42 1119.07 1193.97 942.175 1191.08 765.305 z" fill="rgb(248,170,42)" transform="translate(0,0)"></path>
<path d="M 573.146 298.63 C 576.18 303.458 589.713 334.584 592.755 341.228 C 604.704 366.949 617.008 392.504 629.664 417.885 C 641.951 442.147 654.589 466.23 667.574 490.126 C 675.204 504.085 684.252 519.784 690.829 534.099 C 693.876 540.729 694.752 562.145 695.37 570.433 C 672.295 567.308 647.436 565.022 624.227 562.726 C 583.47 557.401 538.721 553.305 497.328 548.532 C 497.804 543.643 496.178 539.407 497.159 534.462 C 507.218 484.219 523.959 435.471 540.433 387.03 C 550.533 357.334 562.778 328.29 573.146 298.63 z" fill="rgb(226,220,213)" transform="translate(0,0)"></path>
<path d="M 1351.33 583.111 C 1358.41 588.397 1397.03 630.351 1405.6 639.731 C 1437.18 674.335 1472.52 709.182 1503.17 744.135 C 1475.36 781.496 1446.2 818.282 1418.15 855.788 C 1395.63 885.449 1372.21 914.099 1350.94 944.728 L 1351.33 583.111 z" fill="rgb(183,179,177)" transform="translate(0,0)"></path>
<path d="M 694.841 584.692 C 696.445 586.412 696.445 588.254 696.431 590.972 C 696.264 624.156 696.305 657.509 696.469 690.669 L 696.972 943.378 C 675.016 915.226 653.242 886.933 631.651 858.5 L 544.522 744.864 C 594.392 692.32 644.425 636.202 694.841 584.692 z" fill="rgb(183,179,177)" transform="translate(0,0)"></path>
<path d="M 1474.26 1774.21 C 1484.4 1773.36 1501.03 1773.82 1511.61 1773.84 L 1575.84 1774.01 L 1642.47 1774.25 C 1652.99 1774.3 1673.75 1773.86 1683.34 1775.34 C 1729.04 1782.4 1764.8 1797.79 1807.37 1813.94 L 1943.08 1865.35 L 1924.4 1866.83 C 1904.74 1867.12 1876.78 1869.97 1856.31 1871.4 L 1739.17 1879.5 C 1715.22 1881.17 1689.2 1883.46 1665.37 1884.27 C 1655.66 1879.31 1643.21 1871.5 1633.41 1865.78 L 1562.33 1824.13 C 1544.24 1813.72 1526.09 1803.42 1507.9 1793.21 C 1497.7 1787.56 1483.46 1780.43 1474.26 1774.21 z" fill="rgb(226,220,213)" transform="translate(0,0)"></path>
<path d="M 1350.06 984.562 C 1360.8 993.765 1377.23 1011.52 1387.88 1022.24 L 1470.3 1106.65 C 1485.68 1122.53 1503.26 1141.55 1519.38 1156.17 C 1494.33 1178.55 1469.08 1200.7 1443.62 1222.62 C 1418.73 1243.92 1385.29 1274.66 1358.17 1295.23 C 1357.5 1295.74 1351.72 1295.7 1350.36 1295.7 C 1346.72 1289.16 1349.97 1022.87 1350.06 984.562 z" fill="rgb(183,179,177)" transform="translate(0,0)"></path>
<path d="M 209.588 239.59 C 220.069 248.917 310.535 350.711 314.207 358.123 C 321.75 373.35 326.715 398.923 331.32 415.899 C 340.392 449.483 349.812 482.971 359.577 516.359 C 346.867 527.882 321.127 547.923 306.993 558.218 L 290.979 520.949 C 275.245 483.392 258.123 445.679 241.976 408.147 C 215.919 424.111 186.883 449.032 160.373 466.272 C 164.529 449.264 167.694 430.912 171.635 413.671 C 184.778 356.17 195.635 296.744 209.588 239.59 z" fill="rgb(226,220,213)" transform="translate(0,0)"></path>
<path d="M 1838.82 237.939 C 1841.09 241.264 1883 445.75 1886.71 464.308 C 1861.11 445.547 1832.38 426.347 1806.24 407.873 C 1789.1 446.31 1772.36 484.926 1756.02 523.713 C 1751.28 535.303 1746.31 546.799 1741.11 558.192 C 1726.62 545.478 1704.21 528.836 1688.79 516.942 L 1717.98 412.555 C 1721.93 398.238 1728.92 369.041 1734.6 356.757 C 1736.29 353.094 1761.15 326.256 1765.83 320.969 L 1838.82 237.939 z" fill="rgb(226,220,213)" transform="translate(0,0)"></path>
<path d="M 696.659 983.781 C 697.671 989.112 697.091 1017.98 697.038 1025.34 L 696.934 1101.98 L 696.993 1231.44 C 696.999 1240.3 698.599 1292.95 694.737 1295.96 C 683.932 1292.9 615.239 1231.48 603.758 1221.52 C 580.169 1202.73 550.912 1176.46 528.951 1156.02 C 584.055 1102.23 643.178 1039.47 696.659 983.781 z" fill="rgb(183,179,177)" transform="translate(0,0)"></path>
<path d="M 363.216 991.54 C 363.321 990.611 363.441 986.275 364.44 985.833 C 365.415 986.152 366.331 988.358 366.744 989.152 C 386.509 1028.4 405.909 1067.84 424.941 1107.45 L 412.857 1107.56 L 412.674 1089.54 C 407.974 1084.01 400.006 1074.09 394.972 1069.46 L 394.837 1207.39 L 404.417 1217.97 C 406.305 1216.06 409.345 1213.17 411.04 1211.25 L 410.995 1186.15 C 427.314 1161.13 460.045 1120.33 479.553 1097.09 C 484.504 1097.27 489.778 1097.34 494.681 1097.85 C 495.016 1164.47 496.518 1234.59 495.571 1300.93 L 363.882 1297.9 L 363.741 1087.25 L 363.725 1023.5 C 363.715 1016.77 363.997 997.36 363.216 991.54 z" fill="rgb(226,220,213)" transform="translate(0,0)"></path>
<path d="M 363.216 991.54 C 363.321 990.611 363.441 986.275 364.44 985.833 C 365.415 986.152 366.331 988.358 366.744 989.152 C 365.573 989.955 364.397 990.751 363.216 991.54 z" fill="rgb(194,189,190)" transform="translate(0,0)"></path>
<path d="M 1553.7 744.797 C 1553.69 738.354 1553.28 731.611 1554.74 725.421 C 1554.82 767.477 1554.61 809.534 1554.12 851.587 C 1554.08 876.612 1555.83 917.941 1551.7 941.098 C 1496.08 945.529 1438.35 944.409 1382.51 947.95 C 1373.29 948.534 1363.04 948.841 1353.83 948.689 L 1461.18 808.096 C 1472.84 792.877 1501.46 758.142 1510.84 743.165 C 1524.33 745.754 1539.86 744.976 1553.7 744.797 z" fill="rgb(183,179,177)" transform="translate(0,0)"></path>
<path d="M 1682 985.596 C 1682.35 984.716 1682.51 983.974 1683.33 983.537 C 1684.35 983.816 1684.1 990.572 1684.12 991.613 C 1683.56 1000.42 1684.02 1014.58 1684.02 1023.68 L 1683.99 1086.33 L 1683.82 1297.78 L 1554.95 1300.91 C 1554.56 1233.64 1556.76 1164.44 1557.23 1096.86 L 1570.05 1097.14 C 1592.83 1126.37 1615.39 1155.77 1637.73 1185.33 L 1637.88 1211.26 C 1640.05 1213.79 1642.62 1216.04 1645.07 1218.31 L 1654.26 1208.04 C 1654.49 1162.1 1654.44 1116.15 1654.11 1070.2 C 1648.13 1075.92 1641.35 1083.81 1635.69 1090.05 C 1636.81 1097.29 1636.76 1101.57 1636.8 1108.89 C 1631.63 1108.7 1626.45 1108.61 1621.27 1108.63 C 1641.71 1067.09 1662.27 1027.7 1682 985.596 z" fill="rgb(226,220,213)" transform="translate(0,0)"></path>
<path d="M 1682 985.596 C 1682.35 984.716 1682.51 983.974 1683.33 983.537 C 1684.35 983.816 1684.1 990.572 1684.12 991.613 C 1683.39 989.616 1682.68 987.611 1682 985.596 z" fill="rgb(194,189,190)" transform="translate(0,0)"></path>
<path d="M 1845.03 230.418 C 1850.39 233.965 1861.83 244.584 1866.96 249.158 L 1906.95 284.897 L 2033.09 396.575 C 2014.42 416.833 1991.77 446.534 1973.19 468.662 C 1956.52 488.739 1938.59 511.129 1921.3 530.347 C 1912.99 512.354 1899.88 485.699 1894.21 467.593 C 1890.39 455.397 1885.62 429.872 1882.74 416.342 L 1862.81 321.947 C 1860.29 309.885 1844.6 238.012 1845.03 230.418 z" fill="rgb(226,220,213)" transform="translate(0,0)"></path>
<path d="M 201.872 230.707 C 203.127 231.397 203.233 231.818 204.252 232.984 C 204.966 236.749 169.127 397.871 165.906 411.991 C 164.391 418.63 155.939 462.763 153.493 471.004 C 149.739 483.644 133.76 516.599 127.486 530.115 C 111.144 511.954 93.478 489.657 77.9136 470.671 C 58.1976 447.061 36.3952 419.4 16.2964 396.626 L 138.477 287.512 C 158.955 269.178 180.962 248.116 201.872 230.707 z" fill="rgb(226,220,213)" transform="translate(0,0)"></path>
<path d="M 662.855 1514.2 C 677.307 1514.24 694.121 1513.91 708.367 1514.71 C 709.178 1569.5 709.442 1624.29 709.16 1679.09 C 709.17 1706.72 709.623 1735.69 708.758 1763.34 C 708.629 1767.43 706.765 1773.14 705.307 1777.05 L 623.739 1777.15 C 615.597 1777.13 591.038 1776.5 583.952 1777.37 L 584.187 1775.75 C 584.02 1757.51 584.051 1739.28 584.281 1721.05 L 597.054 1720.91 L 597.226 1666.42 C 605.088 1664.32 611.046 1663.12 619.08 1661.7 L 619.055 1617.87 C 625.537 1617.83 633.719 1617.99 640.044 1617.57 L 639.969 1564.36 L 662.862 1564.47 L 662.855 1514.2 z" fill="rgb(226,220,213)" transform="translate(0,0)"></path>
<path d="M 1359.8 1514.49 L 1387.57 1514.58 C 1387.65 1531.03 1387.55 1547.49 1387.28 1563.95 L 1409.63 1563.88 L 1409.29 1618.18 L 1430.17 1618.13 C 1430.2 1632 1430.03 1646.18 1430.86 1660 C 1438.04 1661.89 1447.38 1664.05 1454.11 1666.72 C 1454.11 1676.88 1453.35 1711.42 1454.65 1719.81 C 1457.23 1721.55 1461.48 1721.23 1464.82 1721.33 C 1464.92 1740.18 1464.91 1759.03 1464.8 1777.88 L 1448.8 1777.73 C 1414.06 1776.99 1378.74 1777.49 1343.85 1777.09 C 1339.11 1758.28 1340.62 1735.65 1340.72 1715.84 L 1341.22 1653.17 C 1341.86 1607.07 1342.12 1560.97 1341.97 1514.87 L 1359.8 1514.49 z" fill="rgb(226,220,213)" transform="translate(0,0)"></path>
<path d="M 497.155 738.451 L 498.451 745.094 C 503.058 747.179 530.692 745.477 537.189 744.742 C 539.1 747.964 549.304 760.57 552.305 764.456 L 584.573 806.292 L 694.309 949.142 C 670.035 949.087 643.089 947.457 618.672 946.388 C 578.795 944.538 538.906 942.943 499.008 941.602 C 496.679 928.762 497.803 885.105 497.778 869.041 L 497.155 738.451 z" fill="rgb(183,179,177)" transform="translate(0,0)"></path>
<path d="M 1352.89 575.945 C 1381.41 571.409 1423.09 568.534 1452.41 565.653 C 1484.11 562.54 1523.79 557.316 1554.94 555.852 L 1554.74 725.421 C 1553.28 731.611 1553.69 738.354 1553.7 744.797 C 1539.86 744.976 1524.33 745.754 1510.84 743.165 C 1496.49 729.807 1475.33 705.945 1461.22 690.879 C 1425.49 652.218 1389.37 613.905 1352.89 575.945 z" fill="rgb(226,220,213)" transform="translate(0,0)"></path>
<path d="M 497.154 554.739 C 521.169 556.633 547.762 559.94 571.914 562.683 C 611.916 567.226 654.318 570.622 694.029 576.197 C 643.523 631.896 588.962 690.306 537.189 744.742 C 530.692 745.477 503.058 747.179 498.451 745.094 L 497.155 738.451 L 497.154 554.739 z" fill="rgb(226,220,213)" transform="translate(0,0)"></path>
<path d="M 494.739 1316.72 C 495.814 1322.38 495.049 1363.69 494.97 1371.55 L 493.405 1508.83 L 456.739 1508.87 L 456.966 1559.32 C 448.94 1561.12 440.937 1563.03 432.96 1565.04 L 433.16 1612.99 C 426.255 1615.05 418.081 1616.65 410.95 1618.22 L 410.891 1663.24 C 403.192 1665.04 398.31 1666.65 390.808 1669.29 L 390.316 1715.11 C 382.803 1718.09 374.981 1720.44 367.265 1722.89 C 366.033 1707.62 366.994 1678.98 366.8 1662.58 C 365.983 1622.1 365.645 1581.6 365.788 1541.11 C 380.372 1519.36 396.226 1488.38 409.562 1465.26 C 438.025 1415.93 465.41 1365.57 494.739 1316.72 z" fill="rgb(226,220,213)" transform="translate(0,0)"></path>
<path d="M 368.639 1774.36 L 573.295 1774.05 C 569.092 1775.99 564.908 1778.39 560.91 1780.73 C 507.095 1812.19 452.657 1843.01 399.093 1874.84 C 392.145 1879 387.765 1881.24 380.381 1884.63 C 357.652 1878.39 331.196 1868.82 308.626 1861.35 C 274.097 1850.24 239.625 1838.95 205.211 1827.49 C 249.894 1810.61 322.111 1778.19 368.639 1774.36 z" fill="rgb(226,220,213)" transform="translate(0,0)"></path>
<path d="M 1554.29 1317.64 C 1558.05 1320.82 1584.25 1370.32 1589.18 1379.27 L 1645.14 1478.78 C 1655.79 1497.71 1669.34 1523.46 1680.89 1541.02 C 1681.58 1554.01 1681.83 1566.99 1681.73 1579.99 C 1681.37 1626.44 1681.84 1673.34 1679.89 1719.74 L 1679.07 1720.59 C 1674.36 1721.38 1665.3 1717.09 1660.75 1715.08 L 1660.43 1667.27 C 1652.39 1665.8 1646.6 1664.73 1638.8 1662.44 C 1638.29 1647.63 1638.3 1632.16 1638.09 1617.29 C 1631.49 1615.85 1624.93 1614.23 1618.42 1612.43 C 1618.12 1596.5 1618.07 1580.57 1618.26 1564.65 C 1609.99 1563.06 1602.21 1560.58 1594.16 1558.16 L 1593.92 1508.85 L 1556.28 1508.9 C 1554.97 1445.15 1554.3 1381.4 1554.29 1317.64 z" fill="rgb(226,220,213)" transform="translate(0,0)"></path>
<path d="M 953.138 1504.35 L 1099.7 1504.73 C 1099.82 1524.02 1102.01 1550.95 1099.01 1569.41 C 1096.53 1584.67 1061.52 1644.9 1052.04 1662.54 C 1043.09 1678.95 1034.28 1695.44 1025.61 1712.01 C 1004.11 1668.2 976.56 1616.65 953.128 1573.51 L 953.138 1504.35 z" fill="rgb(248,170,42)" transform="translate(0,0)"></path>
<path d="M 1204.63 1446.49 C 1207.49 1446.42 1208.77 1446.14 1211.35 1447.4 C 1212.57 1452.81 1212.1 1490.51 1212.09 1498.87 L 840.75 1498.95 C 837.126 1498.88 835.947 1499.46 833.225 1497.9 C 831.942 1486.82 832.701 1459.17 832.716 1446.87 C 871.344 1446.2 912.031 1446.79 950.851 1446.77 L 1204.63 1446.49 z" fill="rgb(248,170,42)" transform="translate(0,0)"></path>
<path d="M 490.77 558.838 C 492.635 560.855 491.752 597.081 491.732 601.853 L 491.457 679.511 L 491.949 903.22 C 483.708 903.211 465.594 902.375 458.274 903.072 L 456.533 906.322 L 455.545 906.34 C 451.658 893.427 448.238 878.722 444.904 865.525 L 417.318 754.641 C 412.729 736.013 406.206 705.771 400.323 688.673 C 424.808 647.301 463.557 600.065 490.77 558.838 z" fill="rgb(226,220,213)" transform="translate(0,0)"></path>
<path d="M 324.951 367.954 C 331.385 375.281 338.632 383.049 345.486 389.991 C 395.422 440.565 442.507 495.94 492.282 546.361 C 479.743 567.499 451.115 605.241 435.977 626.5 C 422.578 645.546 409.373 664.728 396.364 684.043 C 393.339 672.249 391.147 657.27 388.882 644.968 L 374.761 567.37 C 372.03 551.994 369.324 534.752 366.016 519.627 C 363.598 508.573 358.837 494.304 355.671 482.97 L 335.45 409.719 C 332.797 400.071 325.758 376.743 324.951 367.954 z" fill="rgb(226,220,213)" transform="translate(0,0)"></path>
<path d="M 1723.41 367.78 C 1725.49 377.671 1679.7 518.333 1677.26 545.385 C 1675.73 562.406 1655.56 660.496 1650.29 679.735 C 1637.86 663.506 1625.5 644.989 1613.78 628.093 C 1601.98 611.505 1590.29 594.841 1578.7 578.102 C 1573.33 570.368 1566.99 561.995 1562.44 553.834 C 1561.3 551.785 1561.07 548.466 1561.1 546.386 C 1561.14 543.156 1567.93 535.17 1570.23 532.573 C 1588.01 512.48 1606.68 492.824 1625.03 473.265 C 1658.08 438.337 1690.87 403.175 1723.41 367.78 z" fill="rgb(226,220,213)" transform="translate(0,0)"></path>
<path d="M 1560.78 562.504 C 1564.17 565.577 1581.98 592.286 1585.43 597.151 C 1606.17 626.419 1626.09 657.47 1647.79 686.004 C 1643.8 705.922 1637.44 729.076 1632.48 748.977 L 1604.51 859.894 C 1600.34 874.267 1596.47 889.515 1592.54 904.019 L 1560.14 903.6 L 1560.78 562.504 z" fill="rgb(226,220,213)" transform="translate(0,0)"></path>
<path d="M 570.2 1781.97 C 574.736 1783.99 690.769 1782.95 704.105 1782.97 C 700.229 1799.66 695.338 1817.72 692.398 1834.36 C 705.454 1835.1 724.312 1834.54 737.688 1834.58 L 824.478 1834.91 C 814.794 1851.97 805.002 1869.76 794.731 1886.41 L 765.854 1886.52 C 755.125 1886.49 720.344 1887.35 712.517 1886.05 C 698.867 1883.77 668.168 1873.86 653.044 1869.24 L 556.262 1839.9 C 538.168 1834.36 517.568 1827.22 499.517 1822.81 C 521.538 1812.16 547.61 1793.78 570.2 1781.97 z" fill="rgb(226,220,213)" transform="translate(0,0)"></path>
<path d="M 1357.3 1825.79 C 1398.67 1824.46 1440.45 1825.82 1481.86 1825.75 C 1497.54 1825.72 1540.56 1823.61 1552.42 1826.53 C 1561.67 1828.81 1646.69 1879.14 1655.54 1886.12 C 1625.34 1886.5 1594.73 1886.27 1564.5 1886.28 C 1465.31 1885.86 1366.12 1886.03 1266.94 1886.81 C 1291.05 1869.55 1317.92 1851.89 1342.55 1835.08 C 1347.28 1834.94 1352.91 1835.94 1356.87 1833.95 C 1358.74 1830.46 1357.93 1830.68 1357.3 1825.79 z" fill="rgb(226,220,213)" transform="translate(0,0)"></path>
<path d="M 577.753 283.238 C 624.962 308.161 679.399 330.507 727.859 354.521 C 713.63 398.032 705.553 451.845 698.666 497.545 L 694.356 528.027 C 683.258 506.015 669.638 482.762 657.926 460.528 C 634.147 415.943 611.942 370.535 591.352 324.39 C 586.778 314.173 580.255 300.419 576.925 289.559 C 576.587 288.459 577.442 284.569 577.753 283.238 z" fill="rgb(226,220,213)" transform="translate(0,0)"></path>
<path d="M 363.88 1303.8 C 403.507 1303.86 454.37 1304.7 493.547 1306.59 C 469.04 1352.47 437.673 1404.26 411.5 1449.97 C 396.07 1477.36 379.49 1505.43 365.08 1533.25 C 363.605 1509.17 364.285 1477.43 364.181 1452.72 L 363.88 1303.8 z" fill="rgb(226,220,213)" transform="translate(0,0)"></path>
<path d="M 1470.15 284.027 C 1474.28 287.711 1473.2 290.958 1471.36 295.383 C 1450.01 346.358 1424.74 396.048 1398.67 444.761 C 1384.11 471.97 1369.91 499.86 1354.39 526.49 C 1353.6 518.339 1352.61 510.866 1351.45 502.754 C 1345.09 456.468 1336.99 397.522 1323.16 353.701 C 1372.04 331.023 1421.19 306.07 1470.15 284.027 z" fill="rgb(226,220,213)" transform="translate(0,0)"></path>
<path d="M 1647.31 1304.55 C 1659.16 1303.94 1671.9 1303.84 1683.83 1303.54 C 1683.55 1379.94 1682.86 1456.35 1681.75 1532.74 C 1673.72 1515.83 1658.98 1491.38 1649.45 1474.58 C 1617.44 1420.32 1586.12 1362.19 1555.64 1307.01 C 1582.69 1304.73 1619.4 1305.07 1647.31 1304.55 z" fill="rgb(226,220,213)" transform="translate(0,0)"></path>
<path d="M 1196.25 1301.46 C 1234.41 1300.92 1272.81 1301.28 1311.02 1301.13 C 1331.48 1301.48 1352.23 1300.3 1372.63 1301.83 C 1386.36 1302.86 1396.02 1317.85 1397.68 1330.28 C 1398.87 1339.54 1396.13 1348.87 1390.11 1356.01 C 1382.66 1364.94 1374.22 1366.69 1363.52 1367.7 C 1309.94 1368.72 1244.83 1367.05 1190.92 1367.03 C 1160.28 1367.02 1146.19 1306.07 1196.25 1301.46 z" fill="rgb(248,170,42)" transform="translate(0,0)"></path>
<path d="M 696.607 1301.48 L 803.699 1301.1 C 821.342 1301.07 840.104 1300.41 857.585 1301.88 C 871.307 1302.6 885.527 1318.62 885.047 1332.45 C 884.004 1362.51 863.075 1367.39 840.115 1367.33 L 732.717 1367.41 C 714.679 1367.37 693.783 1368.13 676.953 1366.11 C 650.105 1362.88 641.082 1327.15 661.421 1309.96 C 673.619 1299.66 682.628 1301.55 696.607 1301.48 z" fill="rgb(248,170,42)" transform="translate(0,0)"></path>
<path d="M 364.134 870.713 C 372.331 875.686 388.986 888.573 397.364 894.617 C 415.103 907.373 433.014 919.887 451.092 932.158 C 447.964 945.599 428.302 1032.68 428.667 1041.6 C 432.23 1044.67 435.398 1041.86 436.809 1043.58 C 441.813 1049.69 445.335 1071.16 446.952 1078.89 L 433.077 1078.83 L 433.047 1092.25 C 433.024 1094.79 432.803 1093.92 434.044 1096.2 C 439.365 1097.88 447.458 1097.07 453.405 1096.94 C 449.825 1101.2 449.139 1102.32 446.57 1107.27 L 430.943 1107.84 C 422.958 1089.47 414.436 1071.34 405.389 1053.47 C 393.368 1029.55 374.198 994.582 364.77 969.59 C 363.459 966.112 363.867 939.433 363.882 934.22 L 364.134 870.713 z" fill="rgb(226,220,213)" transform="translate(0,0)"></path>
<path d="M 1687.31 523.261 C 1694.61 527.096 1730.62 556.764 1740.26 564.174 C 1736.46 583.325 1729.57 607.843 1724.81 627.16 L 1691.38 761.367 L 1686.01 781.128 C 1675.4 751.61 1663.19 717.441 1654.67 687.555 C 1666.91 636.472 1677.07 575.38 1687.31 523.261 z" fill="rgb(226,220,213)" transform="translate(0,0)"></path>
<path d="M 763.418 1439.09 L 778.424 1439 L 810.437 1555.61 C 815.856 1575.11 822.044 1594.64 826.731 1614.3 L 782.25 1614.66 L 717.2 1614.67 C 732.063 1556.17 748.737 1497.61 763.418 1439.09 z" fill="rgb(248,170,42)" transform="translate(0,0)"></path>
<path d="M 359.849 523.934 C 360.43 524.671 360.75 524.988 361.111 525.967 C 364.321 534.659 391.599 689.691 390.878 695.009 C 389.397 705.919 384.178 717.27 380.652 727.668 C 374.62 745.948 368.472 764.189 362.209 782.391 L 357.57 765.156 C 342.773 698.386 323.724 632.171 308.975 564.49 C 323.432 551.553 344.282 536.117 359.849 523.934 z" fill="rgb(226,220,213)" transform="translate(0,0)"></path>
<path d="M 1105.38 1504.31 C 1141.98 1503.56 1180.31 1504.07 1217.05 1504 L 1216.95 1541.86 C 1203.15 1561.26 1188.46 1584.45 1175.13 1604.46 C 1165.27 1618.93 1155.6 1633.52 1146.11 1648.23 C 1133.78 1626.36 1117.45 1597.16 1107.08 1574.84 C 1103.71 1567.57 1105.32 1515.83 1105.38 1504.31 z" fill="rgb(248,170,42)" transform="translate(0,0)"></path>
<path d="M 1272.14 1439.99 L 1286.38 1440.1 C 1298.43 1496.99 1318.13 1557.42 1331.7 1615.31 L 1283.5 1615.11 L 1223.6 1614.89 C 1238.31 1555.14 1256.3 1498.89 1272.14 1439.99 z" fill="rgb(248,170,42)" transform="translate(0,0)"></path>
<path d="M 833.027 1504.38 C 870.601 1503.62 909.612 1504.13 947.289 1504.23 C 947.371 1523.91 948.502 1553.64 946.286 1572.56 C 945.512 1579.16 926.454 1612.24 922.153 1620.47 C 917.494 1629.34 912.645 1638.1 907.608 1646.75 L 863.112 1580.19 C 855.357 1568.34 841.727 1545.89 833.01 1535.61 L 833.027 1504.38 z" fill="rgb(248,170,42)" transform="translate(0,0)"></path>
<path d="M 1682.74 871.992 L 1683.62 873.409 C 1684.53 893.519 1683.98 913.858 1683.96 933.998 C 1683.94 945.425 1685.23 958.834 1683.15 970.015 C 1681.54 978.706 1627.91 1083.64 1620.63 1095.72 C 1617.98 1096.28 1619.23 1096.39 1616.85 1095.06 C 1614.51 1090.42 1615.7 1084.22 1616.11 1078.8 C 1611.82 1078.33 1606.38 1078.28 1601.99 1078.12 C 1603.45 1070.89 1609.03 1047.27 1613.3 1042.43 C 1615.51 1042.52 1617.34 1042.55 1619.54 1042.51 L 1620.79 1040.68 C 1621.2 1030.04 1602.69 946.661 1599.41 932.483 C 1626.05 914.444 1656.5 891.169 1682.74 871.992 z" fill="rgb(226,220,213)" transform="translate(0,0)"></path>
<path d="M 1650.93 697.52 C 1654.73 703.347 1680.09 781.326 1683.26 792.57 C 1684.63 797.408 1683.97 854.061 1683.91 864.103 C 1662.12 880.379 1640.11 896.363 1617.89 912.051 C 1611.1 916.744 1604.34 921.493 1597.63 926.298 C 1596.1 912.638 1597.67 907.432 1601.13 894.207 C 1606.67 873.055 1612.23 851.835 1617.75 830.681 C 1629.14 786.375 1640.2 741.987 1650.93 697.52 z" fill="rgb(226,220,213)" transform="translate(0,0)"></path>
<path d="M 396.005 699.541 C 398.009 702.317 398.996 705.682 399.856 709.026 C 413.647 762.664 427.058 816.467 440.261 870.251 C 442.428 879.076 455.621 920.653 451.886 925.049 C 446.721 923.179 439.592 917.577 434.863 914.195 C 411.017 897.691 387.365 880.908 363.912 863.851 C 363.879 841.818 363.112 815.321 365.042 793.596 C 365.664 786.601 374.394 763.493 377.337 754.954 L 396.005 699.541 z" fill="rgb(226,220,213)" transform="translate(0,0)"></path>
<path d="M 1470.67 1720.89 L 1576.03 1720.83 C 1602.09 1720.82 1630.04 1720.25 1655.97 1721.53 C 1660.02 1721.73 1673.66 1725.28 1678.18 1726.43 L 1677.92 1768.46 C 1609.85 1769.62 1539.38 1767.8 1470.89 1768.19 C 1470.62 1752.56 1470.73 1736.55 1470.67 1720.89 z" fill="rgb(226,220,213)" transform="translate(0,0)"></path>
<path d="M 394.013 1721.24 C 414.296 1720.17 440.01 1720.84 460.613 1720.87 L 578.143 1721.04 L 577.994 1768.12 L 556.25 1768.12 L 369.744 1768.11 C 368.835 1755.98 368.984 1740.97 368.839 1728.59 C 377.715 1725.64 384.814 1723.19 394.013 1721.24 z" fill="rgb(226,220,213)" transform="translate(0,0)"></path>
<path d="M 1415.75 1564.08 L 1529.26 1563.95 C 1556.66 1563.83 1586.89 1560.9 1612.85 1569.66 L 1612.96 1611.91 C 1547.9 1612.8 1480.79 1612.46 1415.7 1612.25 L 1415.75 1564.08 z" fill="rgb(226,220,213)" transform="translate(0,0)"></path>
<path d="M 1459.77 1667.02 L 1562.9 1667.03 C 1593.88 1667.04 1625.18 1664.69 1654.82 1672.01 C 1654.98 1686.27 1654.96 1700.54 1654.75 1714.81 C 1636.09 1715.74 1610.34 1715 1591.25 1715.03 L 1459.82 1715.03 L 1459.77 1667.02 z" fill="rgb(226,220,213)" transform="translate(0,0)"></path>
<path d="M 462.118 1564.49 C 482.1 1563.69 505.401 1564.13 525.568 1564.13 L 634.386 1564.22 C 634.827 1579.53 634.423 1596.74 634.407 1612.2 L 611.25 1612.12 L 438.758 1612.02 C 438.497 1598.1 438.556 1583.89 438.466 1569.94 C 446.218 1567.83 454.165 1565.4 462.118 1564.49 z" fill="rgb(226,220,213)" transform="translate(0,0)"></path>
<path d="M 416.934 1667.47 C 472.81 1665.78 535.02 1667.11 591.267 1667.36 L 591.225 1715 L 570.5 1715.01 L 395.864 1714.86 C 395.841 1701.22 395.637 1686.53 397.215 1673.05 C 404.649 1670.53 409.282 1669.22 416.934 1667.47 z" fill="rgb(226,220,213)" transform="translate(0,0)"></path>
<path d="M 492.783 1826.94 C 512.872 1831.84 539.218 1840.59 559.462 1846.71 L 681.881 1883.73 L 683.269 1883.91 C 684.673 1884.06 686.591 1884.6 687.546 1885.55 C 684.18 1886.35 667.597 1885.98 663.505 1885.83 C 652.285 1886.44 638.857 1886.37 627.616 1886.14 C 558.355 1884.71 487.288 1888.33 418.199 1886 C 415.416 1886.1 392.886 1886.82 392.153 1885.52 C 392.756 1885.13 393.36 1884.73 393.963 1884.34 C 422.579 1865.92 462.641 1844.1 492.783 1826.94 z" fill="rgb(183,179,177)" transform="translate(0,0)"></path>
<path d="M 393.963 1884.34 C 403.453 1884.83 409.004 1883.58 418.199 1886 C 415.416 1886.1 392.886 1886.82 392.153 1885.52 C 392.756 1885.13 393.36 1884.73 393.963 1884.34 z" fill="rgb(194,189,190)" transform="translate(0,0)"></path>
<path d="M 681.881 1883.73 L 683.269 1883.91 C 684.673 1884.06 686.591 1884.6 687.546 1885.55 C 684.18 1886.35 667.597 1885.98 663.505 1885.83 C 671.022 1884.84 676.897 1886.66 681.881 1883.73 z" fill="rgb(146,143,142)" transform="translate(0,0)"></path>
<path d="M 1435.87 1617.93 L 1538.84 1617.77 C 1569.4 1617.73 1603.12 1614.29 1632.62 1622.61 C 1633.23 1634.68 1632.89 1649.65 1632.94 1661.94 L 1520.05 1661.65 C 1488.25 1661.62 1466.64 1664.34 1436.06 1654.45 L 1435.87 1617.93 z" fill="rgb(226,220,213)" transform="translate(0,0)"></path>
<path d="M 541.101 1514.49 L 657.232 1514.39 C 657.624 1528.74 657.319 1543.97 657.253 1558.38 L 578.75 1558.22 C 540.12 1558 501.49 1558.07 462.861 1558.43 L 462.834 1514.86 L 541.101 1514.49 z" fill="rgb(226,220,213)" transform="translate(0,0)"></path>
<path d="M 437.16 1618.18 C 456.648 1617.35 479.97 1617.85 499.746 1617.84 L 613.314 1617.84 L 613.332 1656.88 C 606.338 1658.39 599.351 1659.94 592.372 1661.51 C 572.535 1662.11 549.622 1661.5 529.537 1661.44 C 491.847 1661.24 454.156 1661.43 416.47 1662.02 L 416.747 1623.38 L 437.16 1618.18 z" fill="rgb(226,220,213)" transform="translate(0,0)"></path>
<path d="M 1394 1514.49 L 1588.19 1514.87 C 1587.96 1528.12 1588.67 1545.51 1587.75 1558.03 L 1393.65 1557.94 C 1393.17 1551.35 1392.16 1519.15 1394 1514.49 z" fill="rgb(226,220,213)" transform="translate(0,0)"></path>
<path d="M 133.922 799.255 C 144.193 798.942 156.051 799.216 166.445 799.241 C 170.181 816.387 172.911 838.511 175.307 856.122 C 179.249 887.182 183.775 918.166 188.884 949.056 L 168.5 949.036 L 112.565 948.937 C 119.389 899.001 126.508 849.107 133.922 799.255 z" fill="rgb(248,170,42)" transform="translate(0,0)"></path>
<path d="M 1882.31 799.104 L 1914.45 799.074 C 1921.26 847.977 1931.63 901.128 1937.43 948.985 L 1915.5 948.986 L 1860.51 949.168 C 1866.69 899.923 1875.52 848.728 1882.31 799.104 z" fill="rgb(248,170,42)" transform="translate(0,0)"></path>
<path d="M 934.044 1818.56 L 1040.28 1796.5 C 1062.69 1791.88 1086.39 1786.26 1109.04 1783.75 C 1120.56 1782.48 1136.51 1782.94 1148.57 1782.92 L 1209.74 1782.87 C 1207.8 1795.76 1205.44 1808.05 1202.97 1820.86 L 1170.54 1820.78 C 1155.65 1821.58 1134.68 1820.89 1119.41 1820.91 L 1016.47 1821.02 L 957.972 1821.02 C 950.655 1821.02 933.913 1821.47 927.213 1820.44 C 929.084 1818.88 931.208 1819.04 934.044 1818.56 z" fill="rgb(183,179,177)" transform="translate(0,0)"></path>
<path d="M 1170.54 1820.78 C 1155.65 1821.58 1134.68 1820.89 1119.41 1820.91 L 1016.47 1821.02 L 957.972 1821.02 C 950.655 1821.02 933.913 1821.47 927.213 1820.44 C 929.084 1818.88 931.208 1819.04 934.044 1818.56 C 938.413 1821.59 980.928 1820.05 989.566 1820.07 L 1124.25 1819.84 C 1131.38 1819.85 1164.7 1819.48 1170.54 1820.78 z" fill="rgb(146,143,142)" transform="translate(0,0)"></path>
<path d="M 770.094 1755.79 C 772.141 1755.59 774.492 1755.54 776.224 1756.83 C 799.847 1774.5 821.144 1796.34 844.301 1814.45 L 847.377 1828.98 L 776.75 1828.77 L 699.686 1828.74 C 700.691 1823.66 701.866 1819.03 703.14 1814.03 C 720.661 1798.03 751.879 1769.39 770.094 1755.79 z" fill="rgb(248,170,42)" transform="translate(0,0)"></path>
<path d="M 1561.95 909.769 C 1570.7 909.434 1580.38 909.766 1589.2 909.887 C 1595.64 947.937 1606.79 998.06 1615.71 1035.94 L 1597.25 1035.91 C 1578.96 1035.93 1560.67 1036.14 1542.38 1036.53 C 1548.58 994.315 1556.49 952.214 1561.95 909.769 z" fill="rgb(248,170,42)" transform="translate(0,0)"></path>
<path d="M 462.25 909.475 C 470.733 909.199 479.745 909.421 488.269 909.486 C 495.966 950.167 499.277 993.946 506.796 1036.01 L 478.5 1036.18 L 434.351 1036.54 C 439.03 1019.1 442.681 998.443 446.389 980.448 C 451.353 956.719 456.641 933.059 462.25 909.475 z" fill="rgb(248,170,42)" transform="translate(0,0)"></path>
<path d="M 1278.86 1754.58 C 1286.04 1757.98 1338.95 1806.03 1347.75 1814.06 L 1351.11 1828.73 L 1278.67 1828.52 C 1254.88 1828.41 1231.09 1828.49 1207.31 1828.77 C 1208.22 1824.16 1208.84 1818.97 1209.51 1814.28 C 1215.73 1810.05 1221.89 1803.48 1227.74 1798.58 C 1243.8 1785.1 1261.77 1766.29 1278.86 1754.58 z" fill="rgb(248,170,42)" transform="translate(0,0)"></path>
<path d="M 730.026 1620.14 L 815.171 1620.11 C 805.118 1649.61 794.623 1690.37 785.73 1721.17 C 783.675 1729 780.736 1741.79 777.614 1748.84 C 775.204 1750.23 771.005 1749.44 767.968 1749.2 C 754.684 1708.56 742.086 1661.59 730.026 1620.14 z" fill="rgb(248,170,42)" transform="translate(0,0)"></path>
<path d="M 1236.27 1620.98 L 1319.96 1621.03 L 1291.35 1720.25 C 1288.51 1730.14 1285.6 1740.01 1282.62 1749.86 C 1279.65 1749.84 1277.37 1750.34 1274.46 1750.84 C 1260.89 1707.47 1249.2 1664.43 1236.27 1620.98 z" fill="rgb(248,170,42)" transform="translate(0,0)"></path>
<path d="M 1345.29 1783.06 L 1429.82 1783.13 C 1442.42 1783.19 1464.8 1783.97 1476.76 1782.82 C 1498.66 1794.02 1521.74 1807.37 1543.13 1819.61 C 1521.25 1820.57 1496.18 1820.03 1474.09 1820.01 L 1354.88 1819.76 C 1351.23 1807.69 1348.32 1795.3 1345.29 1783.06 z" fill="rgb(183,179,177)" transform="translate(0,0)"></path>
<path d="M 821.504 1619.98 C 823.284 1619.95 827.435 1619.71 828.346 1620.6 C 830.43 1622.65 830.29 1641.38 830.365 1644.26 C 830.927 1669.23 831.617 1694.2 832.435 1719.16 C 832.789 1732.83 832.645 1750.14 834.017 1763.51 C 835.294 1775.95 839.109 1792.76 841.808 1805.21 L 819.703 1785.85 C 807.149 1775.25 794.689 1764.54 782.326 1753.72 C 796.444 1710.62 807.754 1663.86 821.504 1619.98 z" fill="rgb(248,170,42)" transform="translate(0,0)"></path>
<path d="M 1221 1620.89 C 1225.15 1620.76 1226.59 1620.41 1230.37 1621.8 C 1232.79 1627.06 1233.94 1632.26 1235.5 1637.81 C 1246.44 1676.74 1257 1715.81 1269.63 1754.22 C 1259.24 1762.35 1249.29 1771.46 1239.41 1780.23 C 1230.71 1788.2 1221.13 1796.36 1212.23 1804.21 C 1214.01 1791.35 1217.88 1775.07 1218.12 1762.37 C 1219 1715.38 1220.61 1667.83 1221 1620.89 z" fill="rgb(248,170,42)" transform="translate(0,0)"></path>
<path d="M 197.087 1830.85 C 203.941 1834.24 232.2 1842.46 241.551 1845.49 L 344.22 1879.09 L 343.996 1882.02 C 325.837 1881.6 302.701 1879.4 284.304 1878.09 L 176.529 1870.27 C 158.516 1868.93 129.084 1865.83 112.093 1866.2 C 108.999 1866.02 102.45 1866.88 107.563 1863.34 C 115.438 1861.78 133.037 1854.82 141.222 1851.79 C 159.904 1844.97 178.526 1837.99 197.087 1830.85 z" fill="rgb(183,179,177)" transform="translate(0,0)"></path>
<path d="M 112.093 1866.2 C 108.999 1866.02 102.45 1866.88 107.563 1863.34 C 109.078 1864.29 110.588 1865.24 112.093 1866.2 z" fill="rgb(146,143,142)" transform="translate(0,0)"></path>
<path d="M 715.226 1620.01 C 719.064 1619.92 719.792 1619.83 723.48 1620.63 C 726.314 1625.66 735.732 1659.89 737.73 1666.82 L 763.137 1753.85 C 752.468 1762.16 742.502 1771.04 732.321 1779.92 C 722.973 1788.07 714.777 1796.14 705.006 1804.28 C 707.177 1796.45 713.307 1774.94 714.195 1767.47 C 715.867 1753.4 715.187 1730.76 715.176 1716.1 L 715.226 1620.01 z" fill="rgb(248,170,42)" transform="translate(0,0)"></path>
<path d="M 1343.31 1384.19 C 1334.41 1416.36 1336.04 1433.22 1336.01 1466.4 L 1335.84 1560.63 C 1336.04 1564.32 1336.39 1600.59 1335.66 1602.99 L 1335.42 1603.22 C 1333.79 1603.05 1333.61 1599.27 1333.34 1597.93 C 1325 1562 1313.88 1525.75 1305.02 1489.82 C 1300.88 1473.01 1294.98 1454.76 1292.27 1437.83 C 1308.75 1419.45 1325.77 1401.56 1343.31 1384.19 z" fill="rgb(248,170,42)" transform="translate(0,0)"></path>
<path d="M 1333.34 1597.93 C 1335.93 1597.12 1335.24 1566.26 1335.84 1560.63 C 1336.04 1564.32 1336.39 1600.59 1335.66 1602.99 L 1335.42 1603.22 C 1333.79 1603.05 1333.61 1599.27 1333.34 1597.93 z" fill="rgb(137,96,42)" transform="translate(0,0)"></path>
<path d="M 1326.01 1621.08 C 1330.3 1621.1 1331.73 1620.39 1334.9 1622.2 C 1335.92 1631.45 1335.26 1646.11 1335.18 1656.02 L 1334.92 1726.11 C 1334.9 1735.96 1334.89 1745.79 1334.95 1755.64 C 1335.05 1771.62 1340.13 1787.59 1344.02 1803.1 L 1322.67 1783.93 C 1311.3 1773.33 1298.98 1764.2 1287.64 1753.38 C 1300.82 1709.39 1313.61 1665.29 1326.01 1621.08 z" fill="rgb(248,170,42)" transform="translate(0,0)"></path>
<path d="M 706.266 1384.98 C 723.663 1402.51 739.949 1419.64 757.705 1437.1 C 752.118 1463.2 744.257 1489.87 737.03 1515.71 C 730.524 1538.98 724.822 1567.63 717.625 1590.24 C 717.626 1590.24 716.386 1596.39 715.552 1594.38 C 714.475 1591.8 714.987 1586.27 714.99 1583.27 L 714.412 1475.11 C 714.398 1456.07 714.86 1434.86 713.731 1416.03 C 713.292 1408.7 708.381 1392.59 706.266 1384.98 z" fill="rgb(248,170,42)" transform="translate(0,0)"></path>
<path d="M 714.99 1583.27 C 715.854 1586.4 716.039 1587.51 717.625 1590.24 C 717.626 1590.24 716.386 1596.39 715.552 1594.38 C 714.475 1591.8 714.987 1586.27 714.99 1583.27 z" fill="rgb(203,139,44)" transform="translate(0,0)"></path>
<path d="M 783.572 1436.42 C 799.958 1419.59 813.048 1401.62 830.913 1385.54 C 822.421 1415.91 826.667 1437.34 826.564 1468.35 C 826.455 1501.36 828.081 1534.64 828.128 1567.62 C 829.376 1576.03 828.918 1585.47 829.28 1594.17 L 827.23 1594.58 C 826.878 1592.92 826.585 1591.48 826.293 1589.79 C 823.866 1583.16 821.697 1574.29 819.865 1567.39 C 808.244 1523.63 794.683 1480.3 783.572 1436.42 z" fill="rgb(248,170,42)" transform="translate(0,0)"></path>
<path d="M 828.128 1567.62 C 829.376 1576.03 828.918 1585.47 829.28 1594.17 L 827.23 1594.58 C 826.878 1592.92 826.585 1591.48 826.293 1589.79 C 828.625 1585.46 827.487 1573.63 828.128 1567.62 z" fill="rgb(203,139,44)" transform="translate(0,0)"></path>
<path d="M 702.318 1373.33 C 744.544 1372.3 790.723 1373.11 833.246 1373.05 C 822.841 1383.8 812.649 1394.76 802.677 1405.91 L 778.326 1433.93 L 762.826 1434.31 C 742.347 1414.21 722.763 1392.97 702.318 1373.33 z" fill="rgb(248,170,42)" transform="translate(0,0)"></path>
<path d="M 1214.9 1373.17 L 1344.94 1373.07 L 1314.5 1405.09 C 1305.1 1414.91 1295.65 1424.67 1286.15 1434.39 L 1271.77 1434.19 C 1253.6 1415.02 1232.99 1391.19 1214.9 1373.17 z" fill="rgb(248,170,42)" transform="translate(0,0)"></path>
<path d="M 1219.05 1386.2 C 1235.19 1404.25 1250.51 1420.11 1266.96 1437.62 C 1252.83 1490.53 1236.62 1539.9 1223.51 1593.97 C 1223.18 1595.48 1223.06 1596.83 1222.55 1598.26 C 1222.37 1598.76 1221.45 1599.61 1221.4 1598.85 C 1221.02 1592.94 1221.04 1585.66 1221.85 1579.76 L 1223.24 1482.13 C 1223.82 1442.99 1228.58 1423.82 1219.05 1386.2 z" fill="rgb(248,170,42)" transform="translate(0,0)"></path>
<path d="M 1221.85 1579.76 C 1222.22 1585.32 1221.24 1589.79 1223.51 1593.97 C 1223.18 1595.48 1223.06 1596.83 1222.55 1598.26 C 1222.37 1598.76 1221.45 1599.61 1221.4 1598.85 C 1221.02 1592.94 1221.04 1585.66 1221.85 1579.76 z" fill="rgb(137,96,42)" transform="translate(0,0)"></path>
<path d="M 832.452 693.719 C 845.387 709.496 857.189 730.608 870.266 747.397 C 870.52 751.96 870.514 755.271 870.483 759.826 C 858.156 759.695 845.827 759.691 833.5 759.813 C 820.335 759.939 807.17 759.911 794.006 759.729 C 793.84 755.377 793.741 751.865 793.925 747.475 C 805.136 730.85 820.403 710.308 832.452 693.719 z" fill="rgb(248,170,42)" transform="translate(0,0)"></path>
<path d="M 1219.14 693.886 C 1229.32 708.681 1246.05 732.713 1257 746.258 L 1256.93 759.159 L 1218.5 759.27 C 1206.03 759.26 1193.56 759.405 1181.09 759.705 C 1181.05 755.632 1181.08 751.558 1181.17 747.486 C 1193.03 729.067 1205.7 711.182 1219.14 693.886 z" fill="rgb(248,170,42)" transform="translate(0,0)"></path>
<path d="M 1232.08 1834.38 C 1260.98 1834.73 1303.34 1835.89 1331.56 1834.5 C 1323.61 1841.17 1310.55 1849.62 1301.6 1856.01 C 1288.34 1866.47 1272.85 1874.98 1259.31 1885.56 C 1252.27 1871.3 1240.04 1848.06 1232.08 1834.38 z" fill="rgb(226,220,213)" transform="translate(0,0)"></path>
<path d="M 95.939 1024.46 L 97.8947 1024.41 C 103.667 1025.16 126.935 1024.83 134.166 1024.98 C 126.84 1035.85 118.815 1046.15 111.336 1056.91 L 96.1593 1056.78 C 96.0214 1046.07 96.2306 1035.13 95.939 1024.46 z" fill="rgb(226,220,213)" transform="translate(0,0)"></path>
<path d="M 1914.44 1024.7 C 1925.55 1024.56 1938.94 1024.4 1949.97 1025.07 L 1952.2 1026.47 C 1951.94 1036.48 1951.99 1046.38 1951.9 1056.38 L 1937.19 1055.79 C 1929.98 1044.99 1921.93 1035.22 1914.44 1024.7 z" fill="rgb(226,220,213)" transform="translate(0,0)"></path>
<path d="M 1957.09 1083.42 C 1966.25 1083.1 1972.72 1083.66 1981.82 1084.18 C 1982.08 1093.89 1982.28 1105.75 1981.77 1115.37 C 1979.06 1113.3 1959.55 1087.29 1957.09 1083.42 z" fill="rgb(226,220,213)" transform="translate(0,0)"></path>
<path d="M 66.9872 1083.61 C 74.8465 1083.51 82.7066 1083.51 90.5661 1083.59 C 86.4291 1089.18 82.2029 1094.33 78.0293 1100.03 C 74.3717 1105.07 70.8634 1110.11 67.1353 1115.14 C 67.0039 1104.63 66.9545 1094.12 66.9872 1083.61 z" fill="rgb(226,220,213)" transform="translate(0,0)"></path>
<path d="M 1618 1128.13 C 1624.25 1128.32 1630.5 1128.44 1636.75 1128.49 C 1636.58 1135.24 1636.24 1141.74 1635.95 1148.48 C 1632.9 1148.71 1628.46 1141.38 1626.55 1138.85 L 1623.78 1135.13 C 1621.57 1132.14 1620.54 1130.89 1618 1128.13 z" fill="rgb(226,220,213)" transform="translate(0,0)"></path>
<path d="M 428.753 1128.48 C 430.535 1129.3 429.593 1130.43 428.504 1131.86 C 423.929 1137.97 419.126 1143.9 414.106 1149.65 C 412.128 1148.11 412.984 1132.36 412.983 1129 C 418.238 1128.78 423.495 1128.6 428.753 1128.48 z" fill="rgb(226,220,213)" transform="translate(0,0)"></path>
<path d="M 1596.44 1097.06 C 1604.29 1097.1 1612.14 1097.27 1619.98 1097.54 L 1615.53 1106.69 C 1611.58 1111.68 1611.01 1106.07 1604.89 1107.81 C 1603.53 1108.19 1597.51 1098.62 1596.44 1097.06 z" fill="rgb(226,220,213)" transform="translate(0,0)"></path>
<path d="M 843.446 1783.31 C 849.317 1783.12 855.192 1783.04 861.066 1783.08 C 858.398 1787.3 855.663 1791.47 852.862 1795.6 C 850.889 1798.57 849.535 1800.02 847.371 1802.75 C 845.843 1796.32 844.534 1789.84 843.446 1783.31 z" fill="rgb(226,220,213)" transform="translate(0,0)"></path>
<path d="M 832.479 665.533 C 834.512 667.365 840.751 677.895 839.757 679.697 C 838.745 680.324 835.875 680.193 834.771 680.226 C 821.655 678.463 824.018 677.932 832.479 665.533 z" fill="rgb(248,170,42)" transform="translate(0,0)"></path>
<path d="M 1218.85 664.927 C 1219.71 665.959 1226.34 677.526 1226.52 678.499 C 1225.71 679.266 1219.69 679.237 1218.2 679.331 C 1205.03 681.41 1214.43 671.593 1218.85 664.927 z" fill="rgb(248,170,42)" transform="translate(0,0)"></path>
<path d="M 1884.79 1006.49 C 1891.24 1005.55 1911.43 1004.64 1917.35 1007.51 C 1910.58 1008.45 1890.94 1009.25 1884.79 1006.49 z" fill="rgb(23,22,22)" transform="translate(0,0)"></path>
<path d="M 1196.71 223.841 C 1198.86 226.089 1196.2 229.601 1195.14 232.346 C 1192.4 229.791 1195.03 226.828 1196.71 223.841 z" fill="rgb(23,22,22)" transform="translate(0,0)"></path>
<path d="M 344.22 1879.09 L 350.525 1881.12 C 352.516 1881.76 352.283 1882.28 354.519 1882.51 C 350.163 1882.84 348.399 1882.36 343.996 1882.02 L 344.22 1879.09 z" fill="rgb(146,143,142)" transform="translate(0,0)"></path>
<path d="M 1183.11 811.114 L 1186.33 807.883 C 1186.3 809.166 1186.75 815.08 1185.61 815.606 C 1184.47 814.897 1183.61 812.324 1183.11 811.114 z" fill="rgb(250,243,224)" transform="translate(0,0)"></path>
<path d="M 829.28 1594.17 C 830.825 1599.13 829.157 1603.62 827.23 1594.58 L 829.28 1594.17 z" fill="rgb(93,71,34)" transform="translate(0,0)"></path>
<path d="M 584.187 1775.75 L 583.952 1777.37 C 579.19 1778.45 576.676 1776.03 584.187 1775.75 z" fill="rgb(146,143,142)" transform="translate(0,0)"></path>
<metadata><recraft-signature>{"signed_by": "recraft", "signature_b64": "onJ9uPUSJ16F/2wdgC0IH03jetyuI+42rGksfFy1hebwT9OudpNz+2slVJNw/a/tFLICFLj3AUQGFeUTownGBQ==", "signing_algo": "Ed25519", "generation_timestamp": 1776360737, "identifier": "0f22ff14-5d47-43ab-bd4a-2774e97beb30"}</recraft-signature></metadata></svg>