<svg xmlns="http://www.w3.org/2000/svg" height="1024" preserveAspectRatio="none" style="display: block;" version="1.1" viewBox="0 0 2048 2048" width="1024">
<path d="M 0 0 L 338.136 0 L 350.048 0 L 552.295 0 L 565.868 0 L 1003.96 0 L 1482.53 0 L 1496.68 0 L 1699.9 0 L 1711.09 0 L 2048 0 L 2048 1883.36 L 2048 1893.01 L 2048 2041.09 L 2048 2048 L 2039.98 2048 L 1807.43 2048 L 1793.58 2048 L 1397.34 2048 L 1385.79 2048 L 1181.6 2048 L 1171.32 2048 L 878.46 2048 L 868.537 2048 L 662.879 2048 L 653.179 2048 L 254.864 2048 L 241.312 2048 L 8.32123 2048 L 0 2048 L 0 2041.27 L 0 1893.07 L 0 1883.44 L 0 0 z" fill="rgb(27,24,25)" transform="translate(0,0)"></path>
<path d="M 0 0 L 338.136 0 C 411.015 128.966 410.006 318.229 409.826 463.127 L 409.704 711.189 L 409.299 1561.17 C 387.302 1580.97 363.053 1598.71 340.228 1617.59 C 334.543 1622.29 327.962 1626.9 322.567 1631.85 L 322.782 1314.04 L 322.66 1216.76 C 322.146 1158.28 322.559 1100.26 278.322 1055.4 C 237.685 1014.18 182.942 1020.35 144.659 1060.98 C 117.939 1089.33 102.453 1124.35 95.0434 1162.57 C 88.517 1196.76 89.7043 1231.01 89.7801 1265.57 L 89.6598 1355.18 L 89.5793 1651.79 C 90.1921 1707.87 90.0378 1763.94 89.1164 1820.01 C 59.8073 1841.71 30.0966 1862.85 0 1883.44 L 0 0 z" fill="rgb(234,230,226)" transform="translate(0,0)"></path>
<path d="M 1711.09 0 L 2048 0 L 2048 1883.36 C 2018.9 1861.36 1989.23 1840.13 1959.01 1819.69 L 1959.29 1374.36 L 1959.17 1260.5 C 1959.13 1227.49 1960.17 1197.13 1954.59 1163.95 C 1945 1106.87 1901.37 1028.65 1835.54 1027.71 C 1774.06 1026.83 1737.76 1088.2 1728.83 1142.31 C 1724.39 1169.17 1725.77 1188.5 1725.81 1215.76 L 1725.85 1304.6 L 1726.06 1631.06 C 1699.64 1611.56 1663.97 1582.26 1638.97 1560.97 L 1639.13 707.928 L 1639.05 461.563 C 1638.97 316.596 1638.25 129.326 1711.09 0 z" fill="rgb(234,230,226)" transform="translate(0,0)"></path>
<path d="M 1003.96 0 L 1482.53 0 C 1539.97 63.233 1577.74 122.335 1602.13 205.135 C 1633.56 311.858 1629.02 418.344 1629.04 528.055 L 1629 795.321 L 1629.02 1303.07 C 1629.03 1387.8 1630.09 1474.47 1629.06 1559 L 1439.44 1559.01 C 1407.54 1559.01 1374.36 1558.52 1342.63 1559.09 C 1325.03 1535.43 1305.74 1507.98 1287.72 1485 L 1246.88 1484.98 C 1246.95 1457.84 1247.38 1429.94 1247.08 1402.87 L 1253.99 1395.42 C 1267.56 1395.38 1389.59 1396.95 1394.32 1393.39 C 1395.77 1383.12 1395.22 1365.99 1395.21 1355.09 L 1395.15 1290.18 L 1395.07 1069.69 L 1395.21 635.132 L 1395.23 511.762 C 1395.23 470.713 1396.1 427.973 1389.54 387.369 C 1379 322.095 1356.93 262.835 1316.8 209.873 C 1259.4 134.124 1170.97 80.3086 1076.72 67.2373 C 1052.6 64.0105 1028.24 63.0037 1003.94 64.2297 L 1003.96 0 z" fill="rgb(234,230,226)" transform="translate(0,0)"></path>
<path d="M 1525.31 782.747 C 1528.49 787.081 1532.38 796.451 1534.62 801.673 C 1545.73 827.616 1559.05 853.264 1564.94 880.932 C 1569.65 870.73 1574.53 853.327 1578.86 841.751 C 1592.87 882.983 1590.83 907.401 1575.44 947.03 C 1578.86 947.04 1594.99 945.986 1594.74 950.718 C 1593.49 973.966 1587.35 997.265 1584.7 1020.5 C 1584.57 1021.62 1583.43 1024.63 1582.4 1025.38 C 1577.48 1028.33 1556.88 1027.16 1551.15 1027.09 C 1550.8 1039.51 1548.35 1057.15 1546.87 1069.72 L 1535.51 1159.08 L 1515.16 1158.99 C 1511.91 1156.13 1505.29 1080.96 1503.79 1070.28 C 1491.16 1069.76 1476.43 1070.1 1463.63 1070.1 C 1461.47 1051.98 1458.66 1038.23 1458.37 1019.53 C 1463.52 1019.16 1469.72 1019.15 1474.97 1019.02 C 1472.17 1009.16 1458.99 958.583 1459.48 950.996 C 1464.03 946.925 1475.39 947.348 1481.93 947.027 C 1469.68 906.246 1467.17 884.078 1484.35 842.725 C 1485.73 854.925 1488.21 870.723 1492.73 881.924 C 1497.3 861.71 1509.42 840.452 1516.57 820.867 C 1521.2 808.167 1522.76 795.975 1525.31 782.747 z" fill="rgb(27,24,25)" transform="translate(0,0)"></path>
<path d="M 1496.72 955.958 C 1525.78 955.678 1556.78 955.201 1585.71 956.092 C 1585.24 959.383 1584.91 961.763 1584.29 965.01 L 1581.75 978.99 C 1580.19 987.36 1577.74 999.892 1576.86 1008.24 C 1576.52 1010.46 1576.67 1015.55 1575.14 1017.21 C 1573.83 1018.63 1512.56 1017.94 1505.39 1017.94 C 1503.07 997.283 1498.13 976.773 1496.72 955.958 z" fill="rgb(234,230,226)" transform="translate(0,0)"></path>
<path d="M 1577.56 877.087 C 1580.72 904.164 1574.75 921.343 1566.24 946.337 C 1544.17 946.146 1515.57 947.713 1494.23 946.573 C 1483.03 929.54 1481.66 909.941 1482.66 890.261 L 1485.88 888.99 C 1496.79 914.054 1499.49 894.243 1502.72 880.737 C 1514.97 898.867 1517.9 908.231 1527.18 927.18 C 1536.32 914.294 1545.69 896.01 1555.51 881.349 L 1555.84 883.241 L 1556.98 890.51 C 1557.4 893.023 1559.31 897.6 1562.5 896.772 C 1570.15 894.788 1574.47 883.492 1577.56 877.087 z" fill="rgb(237,110,41)" transform="translate(0,0)"></path>
<path d="M 1528.64 813.677 C 1533.39 818.214 1549.28 860.466 1552.31 868.685 C 1545.06 879.203 1536.89 892.15 1529.81 902.942 C 1529.4 903.164 1528.9 903.516 1528.46 903.519 C 1523.42 896.612 1511.8 876.293 1507.61 868.268 C 1512.18 851.927 1522.31 834.387 1528.64 813.677 z" fill="rgb(237,110,41)" transform="translate(0,0)"></path>
<path d="M 1476.15 956.482 C 1479.5 956.399 1483.46 956.219 1486.75 956.374 C 1489 970.202 1490.54 984.065 1492.83 998.012 L 1493.83 1004.01 C 1494.16 1005.91 1495.93 1016 1495.57 1017.52 C 1494.62 1018.54 1488.47 1018.38 1486.95 1018.46 C 1484.06 1016.94 1483.66 1014.05 1482.85 1011.02 L 1482.39 1009.4 C 1481.38 1005.64 1480.25 1001.73 1479.3 997.984 L 1478.82 996.015 L 1477.8 992.017 C 1477.66 991.481 1477.51 990.945 1477.37 990.41 L 1475.33 982.43 C 1474.62 979.618 1469.16 958.465 1469.38 957.367 C 1470.34 956.5 1474.7 956.563 1476.15 956.482 z" fill="rgb(234,230,226)" transform="translate(0,0)"></path>
<path d="M 1482.66 890.261 C 1482.77 889.364 1482.86 888.466 1482.95 887.567 C 1483.48 882.005 1484.77 886.262 1485.88 888.99 L 1482.66 890.261 z" fill="rgb(213,110,57)" transform="translate(0,0)"></path>
<path d="M 565.868 0 L 1003.96 0 L 1003.94 64.2297 C 913.853 69.6667 828.851 107.8 764.891 171.47 C 717.247 218.516 683.657 277.908 667.89 342.983 C 652.37 405.316 654.666 458.092 654.645 521.708 L 654.675 663.967 L 654.518 1101.13 L 654.592 1284.23 C 654.595 1297.54 653.591 1391.45 656.323 1394.2 C 667.152 1397.05 700.085 1396.03 712.506 1396.01 L 793.816 1396.09 C 797.834 1400.09 799.154 1401.74 802.47 1406.36 L 802.776 1484.84 C 789.914 1484.93 777.05 1484.72 764.197 1484.21 C 747.133 1504.5 723.287 1537.25 707.451 1559.03 L 419.605 1558.93 L 419.989 751.756 L 420.135 513.255 C 420.148 309.421 417.917 158.453 565.868 0 z" fill="rgb(234,230,226)" transform="translate(0,0)"></path>
<path d="M 527.18 781.636 C 528.295 785.162 529.396 792.8 530.021 796.758 C 534.968 828.06 552.232 854.341 560.231 885.032 C 563.194 871.301 565.384 857.01 567.421 843.106 C 584.072 882.658 583.708 908.143 569.368 946.968 C 577.578 946.95 587.448 945.511 593.301 950.843 C 594.673 957.252 579.852 1009.28 576.916 1019.02 C 582.487 1019.01 588.285 1019.21 593.876 1019.33 C 592.821 1035.19 589.852 1054.09 587.677 1069.99 C 574.411 1069.8 561.144 1069.69 547.876 1069.64 C 544.125 1098.54 541.457 1127.69 537.625 1156.85 L 536.736 1158.52 C 532.705 1159.44 521.353 1159.04 516.604 1159 C 511.001 1115.09 505.974 1071.1 501.524 1027.06 C 493.85 1027.11 475.523 1027.98 469.259 1025.28 C 466.165 1018.94 457.179 955.641 458.253 948.734 C 462.6 944.653 470.122 945.463 476.221 945.34 C 462.577 907.354 460.329 878.488 473.978 839.672 C 478.637 855.219 481.978 866.642 488.096 881.545 C 494.672 854.104 500.634 837.904 512.971 812.252 C 517.835 802.137 521.636 791.794 527.18 781.636 z" fill="rgb(27,24,25)" transform="translate(0,0)"></path>
<path d="M 468.234 955.519 C 495.807 954.597 528.372 955.395 556.163 955.848 C 553.606 972.901 550.033 992.222 548.202 1009.09 C 548.073 1009.83 547.004 1017.61 546.377 1017.63 C 522.875 1018.32 499.014 1017.9 475.418 1017.9 C 474.656 1007.58 473.194 998.13 472.061 987.998 C 471.003 978.531 467.873 964.628 468.234 955.519 z" fill="rgb(234,230,226)" transform="translate(0,0)"></path>
<path d="M 474.435 884.119 C 474.513 883.246 474.498 878.665 475.479 878.482 C 476.382 878.804 476.742 879.887 477.097 880.69 L 477.684 881.942 C 479.364 886.094 482.608 894.537 486.673 896.433 C 488.169 897.138 489.9 897.144 491.401 896.45 C 495.826 894.357 496.954 886.914 498.267 882.546 C 504.384 893.486 518.047 918.018 524.658 926.915 C 533.593 912.652 537.005 898.589 548.774 880.728 C 549.632 883.63 550.452 886.543 551.233 889.466 C 555.81 906.041 562.403 902.348 567.793 888.17 C 568.467 888.647 569.665 889.243 570.376 889.623 C 568.822 918.353 570.439 917.915 558.935 946.275 L 486.029 946.089 C 482.216 933.776 478.824 921.098 476.182 908.491 C 474.434 900.152 475.166 892.457 474.435 884.119 z" fill="rgb(237,110,41)" transform="translate(0,0)"></path>
<path d="M 522.419 813.561 C 524.623 815.531 542.081 861.121 544.29 867.436 L 544.739 868.7 C 538.409 877.175 528.648 894.764 523.247 904.381 C 519.083 901.261 503.764 874.552 500.692 868.458 C 507.93 847.331 513.179 834.226 522.419 813.561 z" fill="rgb(237,110,41)" transform="translate(0,0)"></path>
<path d="M 565.459 955.968 C 572.108 956.029 577.092 956.086 583.704 957.014 C 579.534 974.223 574.431 991.34 570.08 1008.51 L 568.529 1014.74 L 568.219 1015.83 C 566.845 1020.8 560.83 1018.85 556.202 1018.81 C 558.381 1001.52 561.424 984.269 563.862 966.995 L 565.459 955.968 z" fill="rgb(234,230,226)" transform="translate(0,0)"></path>
<path d="M 567.793 888.17 C 567.954 887.309 567.96 885.728 569.015 885.435 C 570.283 886.048 570.205 888.576 570.376 889.623 C 569.665 889.243 568.467 888.647 567.793 888.17 z" fill="rgb(213,110,57)" transform="translate(0,0)"></path>
<path d="M 1674.65 1892.03 L 1864.39 1892.15 C 1920.79 1944.87 1984.09 1994.87 2039.98 2048 L 1807.43 2048 C 1762.95 1996.61 1719.18 1942.95 1674.65 1892.03 z" fill="rgb(234,230,226)" transform="translate(0,0)"></path>
<path d="M 185.04 1892.76 C 248.236 1892.16 311.435 1891.9 374.634 1891.97 C 338.297 1935.62 299.179 1977.76 263.271 2021.87 C 256.185 2030.57 248.109 2039.15 241.312 2048 L 8.32123 2048 C 64.5908 1994.97 127.449 1944.51 185.04 1892.76 z" fill="rgb(239,209,163)" transform="translate(0,0)"></path>
<path d="M 730.947 1885.94 L 904.89 1885.75 L 881.281 1989.4 C 877.319 2006.93 871.381 2030.56 868.537 2048 L 662.879 2048 C 685.939 1994.14 708.629 1940.11 730.947 1885.94 z" fill="rgb(234,230,226)" transform="translate(0,0)"></path>
<path d="M 1145.16 1885.71 L 1315.1 1885.54 C 1330.89 1922.26 1346.87 1958.88 1363.05 1995.42 C 1368.46 2007.82 1381.89 2036.39 1385.79 2048 L 1181.6 2048 C 1169.12 1996.31 1154.62 1937.67 1145.16 1885.71 z" fill="rgb(239,209,163)" transform="translate(0,0)"></path>
<path d="M 1496.68 0 L 1699.9 0 C 1659.49 72.2722 1646.27 155.288 1636.06 236.646 C 1634.96 245.452 1631.79 277.747 1632.08 285.809 L 1629.96 288.269 C 1623.63 218.507 1590.99 130.264 1552.62 72.1579 C 1536.77 48.1512 1515.15 22.3109 1496.68 0 z" fill="rgb(234,230,226)" transform="translate(0,0)"></path>
<path d="M 350.048 0 L 552.295 0 C 489.197 66.7339 445.985 149.76 427.527 239.728 C 424.793 252.448 419.149 276.603 419.097 288.62 L 417.015 286.335 C 416.793 273.437 413.384 244.168 411.699 230.153 C 401.825 148.038 388.774 73.4921 350.048 0 z" fill="rgb(234,230,226)" transform="translate(0,0)"></path>
<path d="M 1377.17 2002.95 L 1756.92 2003.93 C 1768.45 2017.78 1782.7 2033.99 1793.58 2048 L 1397.34 2048 C 1390.32 2032.96 1383.42 2018.35 1377.17 2002.95 z" fill="rgb(234,230,226)" transform="translate(0,0)"></path>
<path d="M 291.774 2003.78 L 671.103 2003.11 C 665.572 2015.98 657.297 2034.65 653.179 2048 L 254.864 2048 C 266.88 2033.02 279.186 2018.28 291.774 2003.78 z" fill="rgb(234,230,226)" transform="translate(0,0)"></path>
<path d="M -1.42109e-14 1893.07 C 56.8516 1892.64 113.705 1892.55 170.558 1892.79 C 115.449 1938.42 53.3283 1992.98 0 2041.27 L 0 1893.07 z" fill="rgb(234,230,226)" transform="translate(0,0)"></path>
<path d="M 1879.09 1892.8 L 2048 1893.01 L 2048 2041.09 C 2022.87 2017.37 1995.41 1995.55 1969.83 1972.26 C 1940.1 1945.21 1909.05 1919.6 1879.09 1892.8 z" fill="rgb(234,230,226)" transform="translate(0,0)"></path>
<path d="M 884.647 2016.97 L 1163.61 2016.97 C 1166.15 2027.28 1168.64 2037.73 1171.32 2048 L 878.46 2048 C 880.488 2038.25 883.201 2026.69 884.647 2016.97 z" fill="rgb(181,172,171)" transform="translate(0,0)"></path>
<path d="M 1632.08 285.809 C 1632.07 286.919 1632.38 294.033 1630.86 294.322 C 1629.73 293.865 1629.97 289.188 1629.96 288.269 L 1632.08 285.809 z" fill="rgb(146,137,132)" transform="translate(0,0)"></path>
<path d="M 417.015 286.335 L 419.097 288.62 C 419.045 289.405 418.961 292.764 418.514 293.251 C 416.384 295.568 417.015 286.34 417.015 286.335 z" fill="rgb(146,137,132)" transform="translate(0,0)"></path>
<path d="M 1000.17 74.418 C 1005.49 73.74 1018.58 73.5337 1024.12 73.5106 C 1117.5 73.2475 1207.16 110.072 1273.4 175.891 C 1323.19 224.409 1357.77 286.372 1372.92 354.216 C 1388.73 423.473 1385.22 480.498 1385.15 551.141 L 1385.09 728.779 L 1385.3 1379.77 C 1374.59 1368.92 1363.59 1358.35 1352.31 1348.09 C 1344.27 1340.62 1331.73 1329.57 1325.27 1321.29 L 1325.18 717.418 L 1325.07 552.381 C 1325.02 511.726 1324.92 473.699 1321.81 433.031 C 1310.5 285.454 1202.95 159.795 1051.25 145.134 C 1041.91 144.258 1032.53 143.855 1023.15 143.929 C 942.587 144.6 865.723 177.819 810.033 236.033 C 761.589 285.823 733.451 352.558 726.46 421.205 C 723.588 449.396 726.133 475.301 726.258 503.39 L 725.729 639.525 C 722.193 867.262 721.188 1095.03 722.717 1322.79 C 709.561 1334.49 674.509 1366.5 664.198 1378.13 C 663.193 1304.91 664.021 1229.92 664.013 1156.55 L 664.043 735.272 L 663.986 545.178 C 663.901 414.469 660.778 304.954 751.996 199.319 C 814.789 126.301 904.113 81.3461 1000.17 74.418 z" fill="rgb(234,230,226)" transform="translate(0,0)"></path>
<path d="M 933.453 1479.66 L 1111.35 1480.98 C 1111.31 1495.78 1112.52 1507.08 1119.54 1520.38 C 1135.63 1550.86 1150.32 1582.76 1167.22 1612.79 C 1178.74 1613.42 1254.36 1613.65 1261.69 1611.6 C 1265.26 1604.98 1262.38 1571.1 1260.23 1562.36 C 1260.02 1561.52 1247.9 1544.28 1246.01 1541.24 L 1246.84 1494.96 L 1282.18 1494.97 C 1330.37 1558.21 1377.68 1622.45 1426.32 1685.21 L 1115.5 1685.18 L 622.688 1685.51 C 643.203 1660.75 663.193 1632.81 682.661 1607.03 L 768.497 1494.99 L 802.405 1494.96 C 802.366 1506.88 801.323 1531.56 804.58 1541.72 C 800.897 1548.44 795.777 1554.91 791.16 1561.1 C 790.566 1569.75 785.821 1606.44 790.196 1611.33 C 800.452 1614.69 868.964 1613.13 883.735 1612.83 C 887.03 1607.43 890.032 1601.35 892.583 1595.43 C 905.808 1564.73 923.222 1535.05 933.479 1503.26 C 935.611 1496.65 934.152 1486.53 933.453 1479.66 z" fill="rgb(234,230,226)" transform="translate(0,0)"></path>
<path d="M 1021 874.263 C 1027.45 873.535 1033.97 874.316 1040.06 876.543 C 1065.14 885.803 1069.17 910.489 1078.15 931.612 C 1088.53 956.024 1115.11 954.077 1134.36 943.472 L 1132.24 1290.84 L 1033.65 1290.66 L 918.942 1290.78 C 918.921 1175.59 916.229 1056.89 917.814 942.215 C 927.076 946.698 938.399 950.347 948.721 947.863 C 998.021 935.996 963.267 885.064 1021 874.263 z" fill="rgb(250,173,63)" transform="translate(0,0)"></path>
<path d="M 1017.28 935.547 C 1027.89 941.441 1038.26 962.335 1043.12 972.994 C 1053.22 995.19 1054.67 1014.57 1052.78 1038.35 C 1066.05 1026.32 1073.28 1017.08 1078.39 999.71 C 1092.63 1024.83 1100.71 1051.65 1089.44 1079.8 C 1086.16 1087.98 1072.42 1109.04 1062.6 1103.76 C 1062.78 1096.17 1073.72 1090.17 1078.55 1080.22 C 1088.97 1058.77 1086.16 1042.4 1079.8 1021.07 C 1074.43 1029.52 1053.97 1056.07 1042.8 1049.47 C 1039.45 1042.76 1044.36 1032.64 1044.89 1025.31 C 1045.21 1020.95 1045.07 1016.45 1044.99 1012.09 C 1042.18 991.681 1037.53 980.173 1027.81 962.087 C 1025.5 971.125 1023.82 977.998 1018.48 987.016 C 1008.94 1003.15 989.691 1022.8 996.453 1043.31 C 997.238 1045.69 997.833 1045.35 997.257 1048.02 C 986.589 1055.87 982.013 1040.12 979.931 1032.72 C 975.437 1049.57 975.416 1065.6 981.531 1082.24 C 983.668 1088.05 989.23 1096.64 988.807 1101.96 L 987.288 1103.11 C 974.035 1101.1 968.404 1074.38 967.279 1062.99 C 965.282 1042.76 970.424 1024.31 983.333 1008.55 C 984.387 1014.55 985.563 1020.52 986.861 1026.48 C 998.223 980.978 1023.17 994.545 1017.28 935.547 z" fill="rgb(27,24,25)" transform="translate(0,0)"></path>
<path d="M 990.608 155.377 C 994.782 154.888 995.07 154.138 998.193 155.656 C 1000.62 163.021 998.611 237.803 998.534 250.506 C 998.27 293.466 998.286 336.427 998.583 379.386 L 743.977 503.011 C 740.591 504.484 740.334 504.518 736.912 505.221 C 734.942 501.68 735.259 474.634 734.937 468.26 C 731.308 396.547 753.422 322.197 797.58 265.391 C 844.643 204.406 914.153 164.79 990.608 155.377 z" fill="rgb(237,110,41)" transform="translate(0,0)"></path>
<path d="M 1250.37 269.814 C 1255.21 271.941 1265.98 290.919 1269.06 295.937 C 1308.9 360.828 1316.18 437.366 1315.07 511.869 C 1249.09 512.631 1181.6 511.893 1115.5 511.986 L 1049.11 512.059 C 1048.57 463.968 1049.29 414.413 1049.4 366.207 C 1070.85 356.939 1095.8 344.181 1117.12 333.964 L 1250.37 269.814 z" fill="rgb(251,160,104)" transform="translate(0,0)"></path>
<path d="M 734.752 655.875 C 783.169 633.142 833.841 611.87 882.876 590.388 C 892.626 586.117 929.041 567.963 936.514 566.893 C 949.28 565.065 983.988 566.083 998.608 566.075 L 998.298 724.051 C 998.199 754.616 997.571 788.574 998.378 818.953 C 978.603 826.9 968.697 832.384 954.445 848.647 C 944.347 846.045 934.386 846.238 923.965 845.515 L 924.018 827.472 C 946.456 816.443 956.858 798.069 945.743 774.817 C 938.943 760.594 902.743 674.701 892.307 674.941 C 885.375 681.161 863.383 727.587 858.247 738.732 C 841.33 775.446 820.788 796.501 861.185 825.532 L 861.118 836.375 C 821.17 831.744 773.26 819.691 732.974 816.646 C 733.091 763.051 733.683 709.459 734.752 655.875 z" fill="rgb(174,205,241)" transform="translate(0,0)"></path>
<path d="M 1527.34 1764.11 L 1551.66 1764.01 C 1556.17 1768.86 1560.62 1774.29 1564.87 1779.4 C 1603.6 1826.01 1643.45 1871.58 1683.17 1917.34 C 1705.04 1942.54 1725.55 1969.36 1748.18 1993.92 L 1535.5 1993.14 L 1372.58 1993.28 C 1357.55 1957.26 1341.56 1921.77 1326.34 1885.81 C 1357.53 1885.03 1530.39 1888 1538.38 1882.97 C 1543.05 1871.52 1539.37 1800.44 1539.07 1784.3 C 1538.97 1778.9 1530.9 1768.68 1527.34 1764.11 z" fill="rgb(181,172,171)" transform="translate(0,0)"></path>
<path d="M 499.954 1764.17 L 521.894 1764.15 C 516.282 1770.48 511.456 1776.34 507.181 1783.65 C 506.956 1795.41 506.694 1879.99 509.232 1883.31 C 519.689 1886.85 581.438 1885.54 595.507 1885.57 L 720.418 1885.77 C 718.173 1891.9 715.376 1898.26 712.793 1904.27 C 700.078 1933.82 688.339 1963.99 674.991 1993.24 L 535.221 1993.42 L 300.075 1993.7 C 308.481 1982.98 321.343 1969.74 330.558 1959 C 354.916 1930.15 379.502 1901.49 404.314 1873.03 C 431.292 1841.77 471.413 1791.62 499.954 1764.17 z" fill="rgb(181,172,171)" transform="translate(0,0)"></path>
<path d="M 174.128 1049.52 C 202.595 1075.5 213.941 1090.99 229.461 1126.62 C 242.46 1164.2 239.996 1190.12 239.95 1229.84 C 239.936 1246.18 240.579 1267.57 239.81 1283.48 C 240.084 1317.68 240.128 1351.88 239.943 1386.08 C 222.422 1389.2 199.392 1395.69 181.466 1400 C 156.437 1406.02 123.52 1411.84 99.4933 1419.12 C 100.22 1371.3 99.5447 1322.74 99.8782 1274.78 C 99.9124 1259.05 99.8288 1243.33 99.6275 1227.61 L 99.7055 1213.54 C 98.0537 1156.31 124.003 1081.61 174.128 1049.52 z" fill="rgb(174,205,241)" transform="translate(0,0)"></path>
<path d="M 174.128 1049.52 C 202.595 1075.5 213.941 1090.99 229.461 1126.62 C 242.46 1164.2 239.996 1190.12 239.95 1229.84 C 228.025 1228.37 201.138 1229.02 188.18 1228.9 L 99.6275 1227.61 L 99.7055 1213.54 C 98.0537 1156.31 124.003 1081.61 174.128 1049.52 z" fill="rgb(174,205,241)" transform="translate(0,0)"></path>
<path d="M 229.461 1126.62 C 242.46 1164.2 239.996 1190.12 239.95 1229.84 C 228.025 1228.37 201.138 1229.02 188.18 1228.9 L 99.6275 1227.61 L 99.7055 1213.54 C 110.865 1204.88 124.64 1196.44 136.56 1188.35 L 229.461 1126.62 z" fill="rgb(122,173,221)" transform="translate(0,0)"></path>
<path d="M 99.8782 1274.78 C 109.812 1280.41 119.234 1288.9 128.962 1294.3 C 165.792 1314.77 201.483 1339.85 239.011 1358.85 C 239.007 1342.93 238.02 1297.04 239.81 1283.48 C 240.084 1317.68 240.128 1351.88 239.943 1386.08 C 222.422 1389.2 199.392 1395.69 181.466 1400 C 156.437 1406.02 123.52 1411.84 99.4933 1419.12 C 100.22 1371.3 99.5447 1322.74 99.8782 1274.78 z" fill="rgb(122,173,221)" transform="translate(0,0)"></path>
<path d="M 1566.48 1764.52 L 1949 1765.1 L 1949.09 1824.02 C 1957.81 1831.96 1972.71 1841.51 1982.74 1848.43 C 1999.28 1859.86 2015.76 1871.39 2032.16 1883.02 C 2021.84 1883.78 2003.07 1883.14 1992.26 1883.1 L 1917.68 1882.79 C 1833.49 1882.16 1749.29 1882.03 1665.1 1882.39 C 1653.18 1868.15 1569.63 1773.22 1566.48 1764.52 z" fill="rgb(239,209,163)" transform="translate(0,0)"></path>
<path d="M 99.8616 1764.98 C 145.111 1764.46 191.474 1765.02 236.801 1765.05 L 485.271 1764.83 C 454.547 1798.21 422.072 1837.31 391.931 1871.86 L 382.884 1882.02 L 18.6264 1883.17 C 44.2976 1863.11 75.5693 1844.26 99.9103 1824.66 L 99.8616 1764.98 z" fill="rgb(234,230,226)" transform="translate(0,0)"></path>
<path d="M 1826.52 1038.3 C 1841.06 1036.48 1853.58 1039.69 1866.84 1045.14 C 1861.91 1049.25 1856.66 1053.6 1852.1 1058.11 C 1828.98 1080.87 1812.91 1109.83 1805.83 1141.49 C 1801.39 1162.2 1802.9 1189.19 1802.95 1210.85 L 1803.04 1295.68 L 1802.51 1637.33 L 1776.9 1637.29 L 1735.28 1637.2 L 1736.05 1334.84 L 1735.84 1223.18 C 1735.85 1200.48 1734.62 1174.87 1737.8 1152.66 C 1745.13 1101.36 1770.15 1046.55 1826.52 1038.3 z" fill="rgb(234,230,226)" transform="translate(0,0)"></path>
<path d="M 1018.15 825.378 C 1063.05 820.504 1104.79 853.732 1109.83 898.179 C 1113.35 901.949 1120.06 905.836 1124.72 909.659 C 1132.54 905.049 1135.32 902.876 1140.88 895.987 C 1138.94 877.539 1139.76 847.299 1139.79 827.992 L 1177.48 827.968 L 1175.34 1217.76 C 1164.23 1217.79 1153.12 1217.75 1142.01 1217.64 C 1142.06 1186.13 1146.18 942.239 1142.2 932.578 C 1132.77 929.604 1117.67 947.218 1099.47 940.07 C 1081.97 933.2 1083.23 913.548 1075.49 898.292 C 1066.91 881.374 1055.28 872.055 1037.8 866.014 C 1009.95 860.512 982.824 876.927 972.834 903.477 C 970.479 909.736 970.858 916.714 967.686 923.244 C 959.959 939.189 943.488 942.816 927.986 935.918 C 922.299 933.387 916.452 926.423 910.946 928.554 C 908.614 931.481 907.975 931.648 907.884 935.886 C 907.66 946.207 907.79 956.762 907.825 967.079 L 908.069 1025.68 L 909.33 1217.71 C 896.581 1217.65 883.833 1217.5 871.085 1217.28 L 870.989 827.912 L 914.603 828.107 C 914.843 846.04 915.23 877.522 913.82 894.733 C 918.44 900.85 919.938 902.668 926.407 906.829 C 928.531 905.613 935.349 901.855 936.514 900.294 C 947.551 885.505 947.528 872.169 960.456 856.615 C 976.732 837.031 993.324 828.386 1018.15 825.378 z" fill="rgb(250,173,63)" transform="translate(0,0)"></path>
<path d="M 792.274 1372.03 C 903.6 1370.4 1015.86 1373.23 1127.28 1372.06 C 1170.48 1371.61 1215.69 1371.03 1258.78 1372.26 L 1259.74 1373.32 C 1257.93 1380.56 1244.07 1392.09 1238.18 1396.79 C 1237.58 1426.99 1238.31 1457.67 1237.81 1487.89 C 1237.53 1504.74 1238.11 1525.47 1235.28 1541.91 C 1239.32 1549.39 1245.41 1556.66 1249.31 1564.05 C 1254.61 1574.09 1253.5 1591.63 1253.84 1603.19 L 1173.22 1603.13 C 1172.83 1582.79 1172.88 1558.1 1173.66 1537.88 C 1188.76 1514.68 1193.13 1504.79 1199.76 1478.42 L 1194.56 1470.49 C 1180.08 1447.33 1175.71 1432.27 1171.15 1405.16 C 1161.04 1403.75 1141.48 1404.27 1130.42 1404.26 L 1058.31 1404.25 L 944.526 1404.32 C 924.501 1404.36 899.037 1403.81 879.573 1405.09 C 876.644 1439.67 869.329 1449.88 850.183 1478.2 C 853.582 1497.44 865.457 1521.89 877.003 1537.62 L 877.007 1603.58 L 797.713 1603.6 C 798.871 1591.25 797.948 1574.12 801.34 1562.96 C 802.747 1558.33 815.264 1547 815.871 1539.98 C 816.159 1536.64 814.15 1535.14 812.016 1532.21 L 811.901 1403.16 C 802.508 1392.08 798.304 1385.11 792.274 1372.03 z" fill="rgb(250,173,63)" transform="translate(0,0)"></path>
<path d="M 205.445 1038.18 C 207.912 1037.96 210.387 1037.84 212.864 1037.83 C 236.053 1037.57 254.456 1045.64 270.882 1062.11 C 314.499 1105.82 312.762 1170.18 312.819 1227.37 L 312.853 1314.03 L 312.708 1637.24 L 292.5 1637.27 L 249.294 1637.38 C 250.049 1602.71 249.429 1566.48 249.325 1531.74 L 249.227 1370.44 L 249.241 1238.9 C 249.207 1216.25 249.671 1193.04 248.851 1170.47 C 247.045 1120.75 219.339 1077.28 183.419 1044.89 C 190.623 1042.02 197.835 1039.66 205.445 1038.18 z" fill="rgb(234,230,226)" transform="translate(0,0)"></path>
<path d="M 1876.42 1050.21 C 1911.82 1075.38 1933.47 1114.12 1942.57 1156.08 C 1947.23 1176.65 1949.4 1197.69 1949.03 1218.77 C 1949.07 1275.34 1948.42 1333.36 1949.23 1389.8 C 1943.33 1388.49 1936.92 1386.03 1931.14 1384.13 C 1891.55 1371.13 1852.55 1356.23 1812.99 1343.19 L 1813.03 1299.21 L 1812.92 1211.24 C 1812.91 1189.07 1811.87 1167.08 1815.28 1145.23 C 1824.69 1109.28 1844.55 1071.01 1876.42 1050.21 z" fill="rgb(174,205,241)" transform="translate(0,0)"></path>
<path d="M 1813.03 1299.21 C 1834.65 1286.42 1856.49 1273.92 1878.05 1261.07 C 1901.48 1247.1 1924.75 1231.21 1949.03 1218.77 C 1949.07 1275.34 1948.42 1333.36 1949.23 1389.8 C 1943.33 1388.49 1936.92 1386.03 1931.14 1384.13 C 1891.55 1371.13 1852.55 1356.23 1812.99 1343.19 L 1813.03 1299.21 z" fill="rgb(122,173,221)" transform="translate(0,0)"></path>
<path d="M 1876.42 1050.21 C 1911.82 1075.38 1933.47 1114.12 1942.57 1156.08 C 1931.23 1155.94 1916.21 1154.41 1904.71 1153.54 C 1874.86 1151.28 1845.04 1148.51 1815.28 1145.23 C 1824.69 1109.28 1844.55 1071.01 1876.42 1050.21 z" fill="rgb(122,173,221)" transform="translate(0,0)"></path>
<path d="M 517.063 1797.54 C 540.119 1812.6 563.025 1824.63 587.352 1837.55 C 604.975 1846.91 623.256 1857.52 641.104 1866.22 C 672.143 1853.86 710.45 1832.14 742.642 1817.87 C 770.902 1831.59 807.04 1850.8 834.858 1865.65 C 846.342 1858.46 861.992 1851.13 874.264 1845.08 C 892.204 1836.05 910.286 1827.31 928.503 1818.86 C 933.139 1820.77 938.493 1823.35 942.966 1825.65 C 968.555 1838.82 994.983 1851.48 1020.03 1865.6 C 1054.3 1852.13 1088.09 1836.53 1123.11 1823.18 C 1152.26 1834.46 1190.52 1852.39 1219.4 1865.31 C 1251.48 1849.9 1283.11 1834.4 1316 1820.56 C 1343.84 1835.47 1380.15 1855.28 1408.53 1868.59 L 1417.5 1863.87 C 1450.69 1845.85 1496.25 1820.63 1529.78 1804.96 L 1530.01 1875.94 L 517.131 1876.2 L 517.063 1797.54 z" fill="rgb(234,230,226)" transform="translate(0,0)"></path>
<path d="M 1049.15 796.947 L 1049.78 642.841 L 1049.8 595.874 C 1049.79 587.504 1049.4 574.753 1050.38 566.894 C 1052.85 565.468 1057.35 565.91 1060.46 565.927 C 1144.26 566.258 1231.67 564.759 1315.08 566.191 C 1315.17 580.764 1314.98 596.335 1315.39 610.816 C 1270.57 640.783 1222.84 677.976 1178.72 710.146 C 1174.91 702.63 1163.95 675.818 1156.22 674.642 C 1152.45 676.713 1148.86 685.994 1146.74 690.406 C 1143.97 697.482 1123.17 740.861 1119.51 746.249 L 1117.8 745.804 C 1100.07 756.503 1067.86 783.659 1049.15 796.947 z" fill="rgb(174,205,241)" transform="translate(0,0)"></path>
<path d="M 1049.15 796.947 L 1049.78 642.841 L 1049.8 595.874 C 1049.79 587.504 1049.4 574.753 1050.38 566.894 C 1052.85 565.468 1057.35 565.91 1060.46 565.927 C 1063.35 572.165 1082.89 598.375 1088.35 606.286 L 1126.16 661.608 C 1130.92 668.587 1141.36 684.84 1146.74 690.406 C 1143.97 697.482 1123.17 740.861 1119.51 746.249 L 1117.8 745.804 C 1100.07 756.503 1067.86 783.659 1049.15 796.947 z" fill="rgb(122,173,221)" transform="translate(0,0)"></path>
<path d="M 530.797 1795.13 C 565.005 1794.45 601.83 1795.63 636.338 1795.64 L 880.871 1795.51 L 1524.74 1795.3 C 1513.08 1803.04 1494.59 1812.34 1481.81 1819.03 C 1457.1 1831.72 1432.49 1844.59 1407.96 1857.64 L 1369.39 1837.65 C 1351.37 1828.8 1333.54 1819.55 1315.94 1809.89 C 1307.81 1812.81 1292.91 1820.27 1284.49 1824.13 L 1218.96 1854.46 L 1122.48 1811.99 C 1091.99 1826.5 1053.21 1841.1 1021.38 1854.26 C 1005.09 1847.43 988.357 1837.96 972.531 1829.9 C 958.157 1822.57 943.317 1815.63 929.253 1807.86 C 898.265 1820.28 864.408 1840.75 833.623 1854.15 C 821.848 1846.99 801.111 1837.36 788.259 1830.67 C 775.258 1823.9 754.431 1812.55 741.443 1807.33 C 708.092 1823.09 675.195 1839.74 641.51 1855.48 C 604.358 1835.82 567.45 1815.7 530.797 1795.13 z" fill="rgb(234,230,226)" transform="translate(0,0)"></path>
<path d="M 619.964 1695.05 L 1429.87 1694.98 C 1429.92 1723.07 1430.22 1753.21 1429.12 1781.16 C 1397.09 1760.22 1350.93 1731.31 1317.52 1713.2 L 1307.75 1716.67 L 1214.07 1755.68 C 1183.98 1742.45 1152.53 1730.55 1122.58 1716.71 C 1088.68 1729.32 1054.39 1745.06 1020.02 1757.86 C 988.963 1742.67 957.133 1726.59 926.041 1711.83 C 916.632 1715.2 900.295 1723.99 890.986 1728.84 L 835.084 1758.14 C 829.816 1755.7 824.41 1753.16 819.051 1750.96 C 789.324 1738.75 760.177 1723.75 730.451 1711.73 C 696.101 1730.12 653.578 1757.66 619.958 1778.18 L 619.964 1695.05 z" fill="rgb(234,230,226)" transform="translate(0,0)"></path>
<path d="M 1812.99 1343.19 C 1852.55 1356.23 1891.55 1371.13 1931.14 1384.13 C 1936.92 1386.03 1943.33 1388.49 1949.23 1389.8 C 1949.16 1459.07 1950.53 1533.6 1948.96 1602.27 C 1949.06 1605.72 1949.49 1608.15 1948.05 1611.25 C 1941.01 1613.49 1829.23 1612.03 1813.1 1612.04 L 1812.94 1477.93 L 1812.99 1343.19 z" fill="rgb(174,205,241)" transform="translate(0,0)"></path>
<path d="M 1812.94 1477.93 C 1824.27 1487.17 1836.52 1499.6 1847.56 1509.78 L 1912.66 1569.71 C 1921.7 1578.15 1939.2 1596.56 1948.96 1602.27 C 1949.06 1605.72 1949.49 1608.15 1948.05 1611.25 C 1941.01 1613.49 1829.23 1612.03 1813.1 1612.04 L 1812.94 1477.93 z" fill="rgb(122,173,221)" transform="translate(0,0)"></path>
<path d="M 1812.59 1621.79 C 1841.41 1621.55 1870.87 1621.97 1899.74 1622.06 C 1913.28 1633.02 1934.54 1647.49 1948.99 1658.16 L 1949.19 1755.66 L 1755.5 1755.1 L 1730.57 1755.03 C 1694.29 1718.92 1654.54 1682.24 1617.45 1646.67 L 1738.91 1647.03 C 1749.32 1647.05 1807.71 1648.53 1811.7 1644.9 C 1813.03 1638.67 1812.62 1628.49 1812.59 1621.79 z" fill="rgb(234,230,226)" transform="translate(0,0)"></path>
<path d="M 151.542 1622.03 L 239.453 1621.85 C 239.382 1628.87 238.708 1638.48 240.815 1644.88 C 245.784 1648.57 300.739 1647.07 312.527 1647.03 C 352.245 1647.08 391.962 1646.77 431.674 1646.11 L 350.014 1724.34 C 339.259 1734.66 328.299 1744.66 317.578 1755.09 L 99.6847 1755.31 L 99.6549 1658.93 C 115.76 1646.55 134.465 1634.95 151.542 1622.03 z" fill="rgb(234,230,226)" transform="translate(0,0)"></path>
<path d="M 732.974 816.646 C 773.26 819.691 821.17 831.744 861.118 836.375 L 861.321 911.425 L 861.132 1045.07 L 861.204 1059.97 C 817.747 1059.39 774.287 1059.12 730.826 1059.15 C 730.516 1019.63 730.865 980.114 731.873 940.61 L 732.215 917.542 C 731.418 885.809 732.74 848.735 732.974 816.646 z" fill="rgb(174,205,241)" transform="translate(0,0)"></path>
<path d="M 732.974 816.646 C 773.26 819.691 821.17 831.744 861.118 836.375 L 861.321 911.425 C 823.945 904.672 770.657 896.579 733.111 892.095 C 733.08 899.218 733.406 910.909 732.215 917.542 C 731.418 885.809 732.74 848.735 732.974 816.646 z" fill="rgb(122,173,221)" transform="translate(0,0)"></path>
<path d="M 731.873 940.61 C 761.592 964.135 791.003 989.956 820.656 1013.64 C 831.317 1022.16 850.005 1038.3 861.132 1045.07 L 861.204 1059.97 C 817.747 1059.39 774.287 1059.12 730.826 1059.15 C 730.516 1019.63 730.865 980.114 731.873 940.61 z" fill="rgb(122,173,221)" transform="translate(0,0)"></path>
<path d="M 730.711 1721.99 C 762.923 1737.61 805.831 1753.53 835.338 1769.31 C 842.792 1765.92 852.796 1759.73 860.478 1755.81 C 882.066 1744.8 903.766 1732.6 925.724 1722.41 C 953.39 1735.65 992.434 1756.6 1020.13 1768.08 C 1029.69 1765.54 1046.86 1757.97 1056.74 1753.94 C 1078.78 1745.03 1100.76 1735.93 1122.66 1726.67 C 1153.63 1741.21 1182.73 1752.98 1214.02 1766.25 L 1316.9 1723.67 C 1340.38 1735.55 1378.86 1760.53 1402.56 1775.02 C 1408.91 1778.87 1414.29 1782.48 1420.41 1786.71 C 1386.63 1785.48 1348.94 1786.04 1314.91 1786.1 L 1155.62 1786.1 L 625.877 1786.17 C 629.773 1783.45 634.098 1781.01 638.146 1778.48 C 668.778 1759.37 700.302 1741.43 730.711 1721.99 z" fill="rgb(234,230,226)" transform="translate(0,0)"></path>
<path d="M 1315.39 610.816 C 1316.43 645.64 1315.9 682.629 1315.81 717.634 L 1315.39 922.476 C 1309.45 921.663 1290.62 914.844 1283.4 912.937 C 1253.96 905.171 1218.51 891.176 1189.41 884.548 C 1187.72 886.052 1187.79 887.66 1187.05 890.291 C 1187.5 869.218 1187.76 848.141 1187.83 827.063 C 1189.99 826.067 1192.12 825.02 1194.22 823.923 C 1203.35 819.203 1210.1 810.883 1212.83 800.973 C 1214.63 794.632 1214.83 787.939 1213.4 781.503 C 1210.33 767.046 1187.2 726.184 1178.72 710.146 C 1222.84 677.976 1270.57 640.783 1315.39 610.816 z" fill="rgb(122,173,221)" transform="translate(0,0)"></path>
<path d="M 914.483 1885.82 C 986.944 1884.85 1061.73 1885.9 1134.5 1885.65 C 1143.96 1925.9 1151.93 1966.37 1161.86 2006.94 L 1135.5 2006.91 L 887.235 2007 C 896.64 1966.68 905.723 1926.28 914.483 1885.82 z" fill="rgb(234,230,226)" transform="translate(0,0)"></path>
<path d="M 99.4933 1419.12 C 123.52 1411.84 156.437 1406.02 181.466 1400 C 199.392 1395.69 222.422 1389.2 239.943 1386.08 C 239.939 1424.74 240.483 1465.21 239.898 1503.74 C 240.433 1539.28 239.959 1576.08 239.986 1611.73 C 193.416 1612.41 146.405 1611.7 99.6286 1612.3 L 99.5832 1442.83 L 99.4933 1419.12 z" fill="rgb(122,173,221)" transform="translate(0,0)"></path>
<path d="M 99.4933 1419.12 C 123.52 1411.84 156.437 1406.02 181.466 1400 C 199.392 1395.69 222.422 1389.2 239.943 1386.08 C 239.939 1424.74 240.483 1465.21 239.898 1503.74 C 236.707 1503.33 205.782 1489.01 200.712 1486.79 L 99.5832 1442.83 L 99.4933 1419.12 z" fill="rgb(174,205,241)" transform="translate(0,0)"></path>
<path d="M 1049.15 154.857 C 1129.6 161.691 1193.98 200.591 1245.35 261.107 C 1228.08 271.029 1199.47 283.58 1180.61 292.5 C 1137.7 312.971 1091.75 334.388 1049.56 355.843 L 1049.15 154.857 z" fill="rgb(237,110,41)" transform="translate(0,0)"></path>
<path d="M 1187.05 890.291 C 1187.79 887.66 1187.72 886.052 1189.41 884.548 C 1218.51 891.176 1253.96 905.171 1283.4 912.937 C 1290.62 914.844 1309.45 921.663 1315.39 922.476 C 1315.63 968.311 1315.58 1014.15 1315.24 1059.98 L 1186.32 1059.98 C 1185.67 1004.23 1187.26 946.464 1187.05 890.291 z" fill="rgb(174,205,241)" transform="translate(0,0)"></path>
<path d="M 1441.21 1645.04 C 1494.34 1644.6 1548.28 1645.88 1601.57 1646 C 1619.74 1661.28 1638.89 1680.71 1655.99 1697.32 C 1676.13 1716.71 1696.39 1735.98 1716.77 1755.11 C 1665.53 1755.77 1613.96 1754.49 1562.69 1754.9 C 1548.86 1755.01 1533.75 1755.15 1520 1754.13 C 1514.51 1745 1504.45 1732.29 1498.12 1723.26 C 1479.68 1696.94 1459.46 1671.46 1441.21 1645.04 z" fill="rgb(234,230,226)" transform="translate(0,0)"></path>
<path d="M 560.438 1645.51 L 608.462 1645.06 C 584.222 1680.57 553.386 1718.43 527.6 1754.92 L 377.5 1755.22 C 362.456 1755.12 347.411 1755.26 332.371 1755.64 C 343.512 1743.55 360.148 1728.63 372.444 1716.9 L 446.422 1646.37 L 560.438 1645.51 z" fill="rgb(239,209,163)" transform="translate(0,0)"></path>
<path d="M 731.231 1114.25 C 773.794 1113.46 819.067 1114.15 861.765 1114.3 L 862.016 1182.33 C 862.047 1191.7 862.59 1210.55 861.483 1218.91 L 860.32 1219.56 C 846.227 1227.29 771.121 1259.38 766.369 1266.83 C 765.899 1270.86 765.817 1270.66 767.28 1274.4 C 768.977 1275.49 768.765 1275.42 770.642 1276.19 C 761.653 1295.33 758.212 1298.19 759.241 1319.83 C 750.378 1319.84 741.348 1319.75 732.504 1319.87 C 732.155 1295.36 731.981 1270.84 731.983 1246.32 L 731.231 1114.25 z" fill="rgb(122,173,221)" transform="translate(0,0)"></path>
<path d="M 861.156 1145.81 C 861.008 1163.97 859.739 1202.3 861.483 1218.91 L 860.32 1219.56 C 846.227 1227.29 771.121 1259.38 766.369 1266.83 C 765.899 1270.86 765.817 1270.66 767.28 1274.4 C 768.977 1275.49 768.765 1275.42 770.642 1276.19 C 761.653 1295.33 758.212 1298.19 759.241 1319.83 C 750.378 1319.84 741.348 1319.75 732.504 1319.87 C 732.155 1295.36 731.981 1270.84 731.983 1246.32 C 745.793 1236.7 762.549 1222.88 776.372 1212.25 C 805.008 1190.59 833.273 1168.43 861.156 1145.81 z" fill="rgb(174,205,241)" transform="translate(0,0)"></path>
<path d="M 1185.23 1114.46 C 1226.91 1113.61 1273.71 1114.02 1315.46 1114.77 C 1315.88 1157.65 1315.98 1200.54 1315.77 1243.43 C 1316.47 1268.16 1315.19 1295.1 1315.48 1320.22 L 1293.48 1320.15 C 1294.47 1308.99 1293.99 1306.31 1291.75 1295.87 C 1288.32 1287.87 1284.83 1283.04 1279.55 1276.31 L 1286.64 1267.92 C 1273.97 1254.07 1224.5 1237.84 1206.85 1226.92 C 1202.72 1224.37 1190.02 1219 1185.02 1217.17 L 1185.23 1114.46 z" fill="rgb(174,205,241)" transform="translate(0,0)"></path>
<path d="M 1291.75 1295.87 C 1298.69 1283.7 1302.38 1265.87 1312.49 1254.43 C 1316.02 1250.43 1314.47 1248.92 1315.77 1243.43 C 1316.47 1268.16 1315.19 1295.1 1315.48 1320.22 L 1293.48 1320.15 C 1294.47 1308.99 1293.99 1306.31 1291.75 1295.87 z" fill="rgb(122,173,221)" transform="translate(0,0)"></path>
<path d="M 915.625 1300 L 1134.87 1299.99 C 1141.35 1305.4 1153.09 1317.77 1159.3 1324.13 C 1170.89 1336 1185.67 1350.02 1195.84 1362.76 L 1136.5 1362.79 L 854.954 1362.74 C 875.464 1341.9 894.632 1320.62 915.625 1300 z" fill="rgb(250,173,63)" transform="translate(0,0)"></path>
<path d="M 997.359 391.067 L 997.816 391.373 C 999.979 397.154 998.387 498.61 998.348 511.867 L 752.787 511.83 L 750.992 511.271 C 752.735 508.616 975.416 402.083 997.359 391.067 z" fill="rgb(251,160,104)" transform="translate(0,0)"></path>
<path d="M 1350.79 1569.21 C 1406.62 1567.91 1466.68 1569.04 1522.83 1569.08 C 1536.01 1584.08 1547.39 1594.56 1562.17 1607.83 C 1569.1 1614.07 1585.9 1629.07 1590.56 1635.84 C 1527.3 1635.59 1463.52 1634.57 1400.34 1634.99 C 1385.4 1613.4 1365.84 1591.26 1350.79 1569.21 z" fill="rgb(234,230,226)" transform="translate(0,0)"></path>
<path d="M 528.12 1568.98 L 699.618 1569.02 C 683.24 1588.94 665.633 1613.84 649.49 1634.71 L 627.5 1634.83 L 457.462 1636.06 C 480.166 1613.49 505.117 1591.81 528.12 1568.98 z" fill="rgb(234,230,226)" transform="translate(0,0)"></path>
<path d="M 922.684 1414.17 C 990.611 1414.51 1058.54 1414.46 1126.46 1414.03 C 1129.04 1424.2 1128.23 1442.78 1128.18 1453.82 C 1125.73 1456.73 1123.21 1460.07 1120.83 1463.08 L 1116.08 1471.03 C 1054.83 1471.35 993.253 1470.28 931.965 1470.02 C 928.966 1463.14 926.862 1459.64 922.797 1453.41 C 922.909 1440.42 922.731 1427.18 922.684 1414.17 z" fill="rgb(181,172,171)" transform="translate(0,0)"></path>
<path d="M 893.228 689.777 C 899.693 697.558 929.298 762.213 936.106 775.732 C 937.892 780.543 940.153 786.657 940.059 791.747 C 939.561 818.524 916.921 819.231 897.25 818.969 C 828.499 819.735 844.648 785.627 867.291 741.823 C 876.023 724.93 884.736 706.845 893.228 689.777 z" fill="rgb(250,173,63)" transform="translate(0,0)"></path>
<path d="M 1157.7 690.566 C 1159.15 691.818 1171.46 715.635 1172.69 719.142 C 1181.92 745.421 1224.89 790.305 1192.6 813.713 C 1183.99 819.954 1172.17 819.276 1162.1 819.061 C 1151.57 819.234 1136.91 820.338 1127.62 815.954 C 1121.41 813.022 1116.69 807.649 1114.59 801.112 C 1112.98 796.238 1112.97 789.189 1114.6 784.413 C 1125.19 753.528 1142.84 719.687 1157.7 690.566 z" fill="rgb(250,173,63)" transform="translate(0,0)"></path>
<path d="M 417.598 1568.32 C 450.051 1568.7 482.506 1568.9 514.961 1568.91 C 500.865 1581.79 486.872 1594.78 472.983 1607.87 C 463.264 1616.94 451.824 1626.96 442.942 1636.56 L 430.917 1636.4 L 332.159 1637.01 C 346.02 1625.24 361.293 1613.5 375.519 1602.05 C 389.216 1591.02 403.601 1578.8 417.598 1568.32 z" fill="rgb(181,172,171)" transform="translate(0,0)"></path>
<path d="M 1535.53 1568.94 C 1567.3 1568.46 1600.36 1568.97 1632.24 1569.01 C 1660.71 1590.81 1688.06 1614.43 1716.57 1636.3 L 1605.72 1636.11 C 1585.01 1614.8 1553.76 1589.44 1535.53 1568.94 z" fill="rgb(181,172,171)" transform="translate(0,0)"></path>
<path d="M 735.981 566.074 L 902.757 565.708 L 904.95 569.21 L 735.204 644.618 C 735.226 618.435 735.485 592.253 735.981 566.074 z" fill="rgb(251,160,104)" transform="translate(0,0)"></path>
<path d="M 1228.28 1266.51 C 1253.27 1261.64 1277.47 1277.99 1282.28 1303 C 1287.08 1328 1270.68 1352.16 1245.66 1356.91 C 1220.73 1361.64 1196.67 1345.3 1191.88 1320.38 C 1187.09 1295.46 1203.37 1271.36 1228.28 1266.51 z" fill="rgb(250,173,63)" transform="translate(0,0)"></path>
<path d="M 805.915 1266.55 C 830.818 1261.44 855.125 1277.58 860.066 1302.52 C 865.006 1327.45 848.69 1351.64 823.717 1356.41 C 798.996 1361.12 775.102 1345 770.211 1320.32 C 765.32 1295.63 781.264 1271.62 805.915 1266.55 z" fill="rgb(250,173,63)" transform="translate(0,0)"></path>
<path d="M 621.67 1644.23 L 642.247 1644.28 L 610.698 1685.85 C 608.602 1710.08 610.172 1760 610.265 1786.15 L 535.75 1785.98 C 528.738 1786 524.403 1785.87 517.446 1785.16 C 524.941 1773.38 542.351 1751.31 551.075 1739.43 C 574.22 1707.41 597.753 1675.68 621.67 1644.23 z" fill="rgb(234,230,226)" transform="translate(0,0)"></path>
<path d="M 1409.02 1644.26 C 1414.68 1643.87 1423 1644.13 1428.87 1644.15 L 1503.03 1747.06 C 1507.87 1753.82 1528.95 1780.38 1529.75 1786.29 C 1501.05 1787.14 1468.15 1786.27 1439.02 1786.22 C 1438.23 1754.08 1438.95 1719.02 1438.98 1686.65 C 1432.22 1676.22 1412.16 1652.63 1409.02 1644.26 z" fill="rgb(234,230,226)" transform="translate(0,0)"></path>
<path d="M 1049.15 796.947 C 1067.86 783.659 1100.07 756.503 1117.8 745.804 L 1119.51 746.249 C 1105.9 776.334 1088.36 809.906 1130.27 827.548 C 1131.35 834.252 1131.36 884.795 1130.36 891.957 C 1124.9 899.803 1120.27 899.235 1118.12 888.988 C 1115.92 878.481 1114.29 874.464 1109.27 865.279 C 1108.63 864.41 1108.78 864.624 1108.3 863.736 C 1091.71 837.729 1078.32 826.458 1049.08 817.291 L 1049.15 796.947 z" fill="rgb(174,205,241)" transform="translate(0,0)"></path>
<path d="M 1130.27 827.548 C 1131.35 834.252 1131.36 884.795 1130.36 891.957 C 1124.9 899.803 1120.27 899.235 1118.12 888.988 C 1115.92 878.481 1114.29 874.464 1109.27 865.279 C 1108.63 864.41 1108.78 864.624 1108.3 863.736 C 1117.24 856.154 1120.04 849.369 1129.79 843.569 C 1129.78 837.933 1129.54 833.147 1130.27 827.548 z" fill="rgb(174,205,241)" transform="translate(0,0)"></path>
<path d="M 1130.27 827.548 C 1131.35 834.252 1131.36 884.795 1130.36 891.957 C 1129.49 883.864 1129.79 872.663 1129.73 864.285 C 1121.86 864.24 1116.95 863.927 1109.27 865.279 C 1108.63 864.41 1108.78 864.624 1108.3 863.736 C 1117.24 856.154 1120.04 849.369 1129.79 843.569 C 1129.78 837.933 1129.54 833.147 1130.27 827.548 z" fill="rgb(122,173,221)" transform="translate(0,0)"></path>
<path d="M 729.384 1329.11 C 738.897 1330.04 751.989 1329.69 761.797 1329.7 C 768.523 1345.06 775.75 1350.62 789.571 1358.71 C 780.507 1368.27 784.388 1374.57 788.138 1385.94 L 734.5 1385.93 L 669.431 1385.98 C 688.612 1366.22 709.729 1348.74 729.384 1329.11 z" fill="rgb(234,230,226)" transform="translate(0,0)"></path>
<path d="M 1291.03 1329.06 L 1318.46 1329.15 C 1337.81 1348.42 1359.31 1366.48 1378.03 1385.63 C 1367.73 1386.14 1355.23 1385.86 1344.75 1385.87 L 1263.12 1385.8 C 1268.41 1377.38 1270.51 1373.03 1266.76 1363.3 C 1266.17 1362.68 1266.2 1360.69 1266.93 1359.98 C 1277.59 1349.66 1285.08 1342.9 1291.03 1329.06 z" fill="rgb(234,230,226)" transform="translate(0,0)"></path>
<path d="M 1142.13 1234.65 C 1156.42 1243.13 1181.63 1262.6 1197.3 1273.04 C 1182.51 1290.27 1177.78 1304.03 1182.62 1326.35 C 1184.26 1331.04 1186.25 1335.98 1188.03 1340.64 C 1172.93 1326 1156.4 1308.27 1141.41 1293.06 C 1141.52 1273.88 1141.32 1253.73 1142.13 1234.65 z" fill="rgb(250,173,63)" transform="translate(0,0)"></path>
<path d="M 908.755 1235.01 C 910.762 1237.35 909.61 1286.27 909.518 1292.86 C 893.431 1308.53 879.62 1323.16 863.968 1338.81 C 865.921 1334.54 867.602 1330.93 869.178 1326.48 C 875.764 1304.87 868.661 1289.53 854.47 1273.5 C 869.389 1262.46 893.358 1244.43 908.755 1235.01 z" fill="rgb(250,173,63)" transform="translate(0,0)"></path>
<path d="M 1148.9 1226.92 C 1153.62 1226.94 1183.86 1226.52 1185.74 1227.4 C 1203.89 1235.89 1224.93 1245.9 1242.93 1254.68 L 1242.28 1257.52 C 1228.34 1255.71 1217.03 1260.59 1204.78 1266.47 C 1191.87 1258.19 1158.57 1237.08 1148.9 1226.92 z" fill="rgb(250,173,63)" transform="translate(0,0)"></path>
<path d="M 809.428 1254.4 C 810.607 1253.88 811.801 1253.39 812.99 1252.88 C 823.06 1248.62 863.694 1226.97 869.452 1226.25 C 879.761 1224.96 891.871 1226.57 902.399 1226.41 L 892.941 1233.83 C 876.691 1246.46 865.053 1255.3 847.007 1266.05 C 834.963 1260.37 828.912 1257.72 815.221 1256.95 C 812.853 1256.05 811.699 1255.61 809.428 1254.4 z" fill="rgb(250,173,63)" transform="translate(0,0)"></path>
<path d="M 923.965 845.515 C 934.386 846.238 944.347 846.045 954.445 848.647 C 943.652 864.535 937.279 874.62 932.025 893.496 C 930.948 896.567 924.207 893.015 924.101 891.95 C 922.743 878.228 923.657 859.08 923.965 845.515 z" fill="rgb(122,173,221)" transform="translate(0,0)"></path>
<path d="M 100.046 1622.26 L 135.937 1622.23 C 130.582 1625.92 125.171 1629.53 119.707 1633.05 C 113.939 1637.29 106.065 1642.38 100.063 1646.24 C 100.017 1638.25 100.011 1630.26 100.046 1622.26 z" fill="rgb(181,172,171)" transform="translate(0,0)"></path>
<path d="M 1915.25 1622.16 C 1925.51 1621.64 1938.62 1621.87 1949.02 1621.98 C 1949.03 1629.76 1949.14 1637.63 1948.84 1645.39 C 1939.43 1640.37 1925.24 1628.46 1915.25 1622.16 z" fill="rgb(181,172,171)" transform="translate(0,0)"></path>
<path d="M 815.221 1256.95 C 813.219 1257.05 806.726 1258.06 805.222 1256.97 C 804.441 1256.41 807.336 1255.13 809.428 1254.4 C 811.699 1255.61 812.853 1256.05 815.221 1256.95 z" fill="rgb(251,160,104)" transform="translate(0,0)"></path>
<path d="M 902.757 565.708 C 904.103 565.774 908.115 565.712 909.083 566.441 C 909.428 567.385 905.323 569.03 904.95 569.21 L 902.757 565.708 z" fill="rgb(232,162,131)" transform="translate(0,0)"></path>
<path d="M 1242.93 1254.68 C 1248.54 1256.39 1246.37 1257.02 1242.28 1257.52 L 1242.93 1254.68 z" fill="rgb(251,160,104)" transform="translate(0,0)"></path>
<metadata><recraft-signature>{"signed_by": "recraft", "signature_b64": "A4QXTOOGYEwLQUTa3U/HYSpHb4eGC27eHSMcIEUUsThl3QGfbgV5m+GI61496FgtDOHeDgeZqrL6nhprgTr5Aw==", "signing_algo": "Ed25519", "generation_timestamp": 1776360718, "identifier": "15993dfe-a652-4d0c-b81f-49c3ebb4c7ac"}</recraft-signature></metadata></svg>