<svg xmlns="http://www.w3.org/2000/svg" height="1024" preserveAspectRatio="none" style="display: block;" version="1.1" viewBox="0 0 2048 2048" width="1024">
<path d="M 0 0 L 87.998 0 L 97.1276 0 L 137.491 0 L 160.232 0 L 413.233 0 L 440.829 0 L 746.293 0 L 754.079 0 L 831.312 0 L 857.525 0 L 1184.87 0 L 1220.55 0 L 1297.11 0 L 1303.72 0 L 1603.68 0 L 1635.64 0 L 1895.37 0 L 1913.52 0 L 1947.44 0 L 1956.11 0 L 2048 0 L 2048 69.1059 L 2048 83.8024 L 2048 356.161 L 2048 368.632 L 2048 1079.71 L 2048 1082.47 L 2048 1534.11 L 2048 1541.84 L 2048 2038.64 L 2048 2048 L 2033.05 2048 L 1572.07 2048 L 1564.99 2048 L 1025.4 2048 L 1020.07 2048 L 489.669 2048 L 473.573 2048 L 3.60985 2048 L 0 2048 L 0 2035.47 L 0 1539.91 L 0 1529.46 L 0 1073.85 L 0 1063.96 L 0 677.63 L 0 665.059 L 0 350.759 L 0 336.887 L 0 79.9693 L 0 63.829 L 0 0 z" fill="rgb(0,0,0)" transform="translate(0,0)"></path>
<path d="M 2048 1082.47 L 2048 1534.11 C 2042.52 1530.32 2003.08 1517.79 1994.14 1514.67 C 1952.66 1500.12 1911.25 1485.35 1869.93 1470.35 L 1728.05 1417.03 C 1713.31 1411.41 1700.78 1404.84 1684.53 1398.87 C 1659.86 1389.07 1629.65 1384.06 1606.74 1370.44 C 1587.63 1359.08 1590.8 1321.58 1590.82 1303.87 L 1590.96 1235.16 C 1591.04 1197.98 1586.33 1157.34 1594.05 1120.64 C 1595.73 1112.63 1604.61 1102.83 1613.02 1101.7 C 1631.14 1099.25 1650.31 1099.93 1668.61 1099.18 C 1687.04 1098.57 1705.42 1097.51 1723.87 1096.91 L 1945.21 1087.69 C 1975.57 1086.2 2019.43 1086.13 2048 1082.47 z" fill="rgb(214,170,127)" transform="translate(0,0)"></path>
<path d="M 0 1539.91 L 1.43948 1539.58 C 44.0216 1529.64 83.7377 1505.95 125.126 1491.32 C 141.35 1485.58 166.649 1482.64 179.656 1476.06 C 217.802 1456.77 256.544 1441.96 296.883 1427.97 C 306.217 1424.73 315.588 1417.69 325.562 1415.46 C 339.296 1413.52 348.249 1417.52 350.236 1432.02 C 351.995 1444.86 349.472 1455.02 348.249 1467.49 C 344.486 1505.85 350.284 1542.73 351.379 1580.81 C 351.076 1603.37 347.076 1626.5 347.143 1649.01 C 347.204 1669.53 352.572 1692.82 350.261 1712.9 C 347.641 1735.66 337.865 1750.79 321.11 1765.58 C 308.791 1776.45 298.541 1790.44 283.781 1799.25 C 273.983 1806.1 262.953 1812 253.641 1819.43 C 235.979 1833.53 217.357 1859.29 199.126 1871.79 C 167.772 1893.27 143.491 1910.77 116.05 1937.73 C 92.8577 1960.53 64.5674 1981.54 41.0595 2004.49 C 30.6128 2014.01 7.80818 2027.17 0 2035.47 L 0 1539.91 z" fill="rgb(229,218,207)" transform="translate(0,0)"></path>
<path d="M 2048 368.632 L 2048 1079.71 L 2047.16 1077.77 C 2036.04 1070.44 1860.38 1095.13 1839.13 1080.52 C 1820.08 1067.42 1828.35 985.948 1828.16 961.681 L 1827.01 734.784 C 1826.79 686.655 1826.9 638.524 1827.34 590.396 C 1827.55 573.529 1826.65 550.851 1828.71 534.4 C 1830.58 518.757 1848.65 492.508 1863.05 485.745 C 1883.92 475.935 1896.85 462.241 1915.85 450.121 C 1924.5 444.608 1939.29 440.787 1948.04 434.797 C 1961.87 425.328 1976.18 416.639 1990.01 407.224 C 2001.45 398.639 2012.51 389.35 2024.19 381.09 C 2031.11 376.194 2041.35 373.947 2048 368.632 z" fill="rgb(35,40,53)" transform="translate(0,0)"></path>
<path d="M 1572.07 2048 C 1573.12 2046.83 1574.35 2046.03 1573.92 2044.92 C 1564.22 2019.19 1537.67 1994.13 1522.58 1970.36 C 1511.2 1952.44 1502.99 1938.61 1493.1 1922.97 L 1420.22 1809.63 L 1382.08 1751.12 C 1375.64 1741.31 1367.86 1731.37 1362.69 1720.85 C 1360.68 1716.75 1356.74 1709.39 1359.72 1705.08 C 1361.81 1702.04 1365.82 1700.93 1369.3 1700.59 C 1382.92 1699.24 1398.22 1702.53 1412 1702.93 C 1426.81 1703.37 1441.63 1700.62 1456.45 1700.86 C 1473.5 1701.13 1490.37 1704.57 1507.4 1705.02 C 1525.85 1705.51 1544.38 1702.49 1562.82 1701.75 C 1578.15 1701.12 1631.73 1701.9 1643.14 1710.59 C 1643.62 1710.96 1644.11 1711.31 1644.59 1711.68 C 1653.57 1718.62 1660.58 1728.06 1669.07 1735.66 C 1678.36 1743.97 1689.86 1749.47 1699.03 1757.86 C 1715.7 1773.1 1730.34 1790.73 1747.85 1805.03 C 1762.33 1816.85 1779.47 1824.27 1794.08 1835.8 C 1814.18 1851.67 1829.98 1871.45 1849.71 1887.77 C 1865.18 1900.56 1882.66 1910.48 1897.91 1923.58 C 1915.14 1938.39 1929.81 1956.17 1947.55 1970.4 C 1968.84 1987.49 1992.65 2000.85 2012.02 2020.49 C 2020.29 2028.87 2025.37 2039.48 2033.05 2048 L 1572.07 2048 z" fill="rgb(229,218,207)" transform="translate(0,0)"></path>
<path d="M 0 677.63 C 22.3053 685.436 44.8574 694.972 66.9894 703.5 L 235.426 769.279 C 256.086 777.364 278.765 782.932 299.605 790.558 C 314.09 795.859 333.844 799.037 340.436 814.764 C 347.211 830.929 345.313 851.934 345.337 869.318 L 344.994 943.067 C 344.836 980.659 345.616 1018.65 344.854 1056.26 C 344.685 1064.58 342.962 1072.42 338.383 1079.51 C 333.443 1082.45 330.008 1084.78 324.022 1084.93 C 295.835 1085.68 265.325 1078.6 237.571 1078.29 C 203.636 1077.9 171.218 1075.76 137.426 1073.93 C 91.4214 1071.44 45.8039 1069.25 0 1063.96 L 0 677.63 z" fill="rgb(250,97,35)" transform="translate(0,0)"></path>
<path d="M 489.669 2048 C 503.419 2015.78 505.98 2013.63 526.883 1986.43 C 541.202 1967.79 554.916 1933.94 569.703 1914 C 587.45 1889.75 602.717 1865.14 619.012 1839.84 C 622.014 1835.18 628.712 1827.71 633.722 1825.43 C 652.128 1818.87 675.191 1822.56 694.358 1821.88 C 717.445 1821.07 740.448 1819.52 763.529 1820.03 C 780.16 1820.03 805.323 1827.18 821.059 1825.09 C 875.171 1817.93 924.339 1821.63 978.192 1826.96 C 984.331 1827.56 1017.82 1819.79 1018.32 1827.88 C 1022.82 1900.67 1017.97 1975.11 1020.07 2048 L 489.669 2048 z" fill="rgb(214,170,127)" transform="translate(0,0)"></path>
<path d="M 0 1073.85 C 18.2659 1076.11 46.62 1076.51 65.8398 1077.33 C 95.0412 1078.71 124.234 1080.27 153.417 1082 C 175.291 1083.15 220.05 1083.34 237.408 1091.79 C 246.093 1127.1 240.25 1156.73 240.94 1191.67 C 241.664 1228.3 244.846 1258.6 241.708 1296.26 C 239.253 1336.56 252.473 1392 236.979 1429.52 C 230.913 1444.22 181.075 1470.5 164.42 1472.72 C 127.327 1477.66 99.7346 1491.84 66.6554 1507.91 C 50.1827 1515.92 18.6317 1524.54 0 1529.46 L 0 1073.85 z" fill="rgb(214,170,127)" transform="translate(0,0)"></path>
<path d="M 0 79.9693 C 56.9177 120.424 104.937 170.208 159.679 213.399 C 162.281 215.452 167.871 221.911 169.982 224.585 C 193.769 254.713 225.672 275.016 255.664 298.14 C 264.423 304.894 272.254 314.792 280.718 322.05 C 299.408 336.375 316.949 351.257 334.862 366.53 C 345.886 376.51 353.731 388.694 365.113 398.448 C 382.679 413.503 404.834 425.245 420.646 442.203 C 445.821 469.204 431.008 510.805 430.426 543.269 C 430.249 553.153 432.318 563.164 432.911 573.02 C 433.33 585.468 433.843 604.264 430.421 616.105 C 427.79 618.631 427.973 618.676 424.245 619.632 C 419.698 618.912 408.144 609.508 403.211 607.36 C 371.254 593.443 348.731 576.389 321.197 555.03 C 292.26 532.583 256.289 517.804 226.218 497.036 C 214.59 488.881 203.19 480.405 192.032 471.618 C 183.636 464.879 175.258 457.389 166.318 451.464 C 151.519 441.655 134.77 435.063 119.343 426.324 C 110.753 421.458 104.961 412.754 96.9709 407.473 C 83.9384 398.86 69.3843 392.203 56.5782 383.165 C 37.8277 370.674 18.3841 348.215 0 336.887 L 0 79.9693 z" fill="rgb(214,170,127)" transform="translate(0,0)"></path>
<path d="M 3.60985 2048 C 14.7564 2044.52 21.4468 2027.57 30.1868 2020.93 C 57.0324 2000.53 81.1769 1978.22 106.101 1955.65 C 120.997 1943.75 137.403 1933.65 152.09 1921.5 C 173.456 1903.82 194.241 1878.64 216.823 1862.9 C 243.796 1845.79 262 1827.1 294.013 1820.18 C 323.08 1813.9 350.659 1824.03 377.092 1822.17 C 419.186 1818.33 452.319 1816.53 494.583 1822.45 C 526.941 1826.99 572.608 1810.42 605.777 1822.19 C 628.993 1830.44 589.462 1864.94 584.536 1876.03 C 581.695 1882.43 576.139 1890.35 573.535 1897.15 C 563.249 1921.07 545.018 1939.08 531.403 1960.54 C 516.317 1984.32 505.874 2010.87 486.324 2032.04 C 482.127 2036.65 477.08 2042.82 473.573 2048 L 3.60985 2048 z" fill="rgb(35,40,53)" transform="translate(0,0)"></path>
<path d="M 857.525 0 L 1184.87 0 C 1190.98 3.4029 1229.71 12.801 1236.02 13.4126 C 1277.43 17.4263 1283.68 23.8669 1271.78 64.4763 C 1263.87 91.4784 1251.65 107.874 1240.88 132.829 C 1235.47 145.374 1226.89 195.649 1207.15 194.243 C 1183.29 192.545 1155.33 180.454 1131.48 175.468 C 1117 172.387 1102.8 171.685 1088.12 170.29 C 1029.26 161.787 970.159 163.624 912.394 178.064 C 891.907 183.185 868.672 183.155 849.401 193.941 C 843.782 197.086 838.225 195.994 832.598 193.628 C 824.06 181.396 823.612 169.602 817.983 156.115 L 782.895 74.242 C 764.416 30.4295 758.953 23.0445 810.484 14.0559 C 822.437 11.971 845.638 4.17613 857.525 0 z" fill="rgb(250,97,35)" transform="translate(0,0)"></path>
<path d="M 2048 356.161 C 2037.03 361.65 2025.31 375.187 2014.22 381.288 C 1972.09 404.452 1934.18 425.385 1896.93 456.33 C 1877.35 472.599 1845.67 485.318 1824.19 499.354 C 1797.45 516.827 1770.87 535.882 1742.8 551.296 C 1736.88 554.589 1723.73 558.224 1720.16 549.764 C 1710.04 525.799 1716.93 496.463 1717.12 471.14 C 1717.36 439.88 1709.26 408.41 1714.17 377.468 C 1718.82 348.904 1750.86 337.117 1770.08 320.09 C 1785.91 306.644 1798.26 289.748 1814.35 276.505 C 1820.83 271.616 1827.68 264.34 1834.31 259.898 C 1870.17 235.862 1899.43 208.007 1930.08 178.002 C 1939.05 168.011 1961.6 158.044 1969.74 148.759 C 1995.32 119.556 2015.12 104.233 2048 83.8024 L 2048 356.161 z" fill="rgb(229,218,207)" transform="translate(0,0)"></path>
<path d="M 1025.4 2048 C 1042.63 2024.93 1003.58 1921.62 1044.67 1899.72 C 1065.2 1897.76 1092.32 1899.26 1112.5 1899 C 1128.83 1898.79 1145.06 1902.11 1158.98 1900.87 C 1203.56 1896.87 1243.7 1897.48 1288.02 1902.01 C 1306.41 1903.88 1333.19 1897.37 1352.34 1897.88 C 1378.03 1896.37 1404.01 1900.25 1429.57 1900.91 C 1438.97 1901.15 1462.16 1895.37 1469.35 1899.99 C 1476.15 1904.36 1490.9 1937.32 1495.17 1945.4 C 1506.37 1966.58 1522.3 1978.63 1533.97 1998.87 C 1543.56 2015.53 1555.07 2031.51 1564.99 2048 L 1025.4 2048 z" fill="rgb(229,218,207)" transform="translate(0,0)"></path>
<path d="M 2048 2038.64 C 2019.55 2015.88 1990.32 1993.9 1962.61 1970.15 C 1923.05 1936.24 1913.11 1939.26 1908.94 1884.99 C 1907.66 1870.18 1907.52 1855.28 1908.53 1840.44 C 1909.94 1822.41 1912.87 1805.19 1912.43 1787.05 C 1911.87 1757.86 1906.67 1727.13 1907.1 1698.07 C 1907.78 1651.92 1914.95 1606.83 1907.52 1560.75 C 1906.53 1546.17 1906.21 1530.38 1906.84 1515.86 C 1908.07 1487.75 1929.68 1498.56 1945.1 1504.45 C 1965.18 1512.14 1980.29 1523.16 1999.53 1531 C 2013.98 1536.9 2032.8 1539.95 2048 1541.84 L 2048 2038.64 z" fill="rgb(229,218,207)" transform="translate(0,0)"></path>
<path d="M 97.1276 0 L 137.491 0 C 174.674 36.7272 208.45 75.3418 242.612 114.8 C 252.909 127.168 281.777 145.409 282.452 162.908 C 283.896 200.329 277.838 242.595 278.903 280.964 C 279.05 286.243 275.289 294.57 268.921 292.741 C 229.667 281.308 200.113 237.148 169.45 210.453 C 150.734 194.159 105.072 163.547 97.2055 141.115 C 87.4697 113.352 93.0947 67.6355 93.4198 37.783 C 93.5307 27.6052 96.9802 13.222 97.119 1.4868 L 97.1276 0 z" fill="rgb(214,170,127)" transform="translate(0,0)"></path>
<path d="M 1913.52 0 L 1947.44 0 C 1947.2 24.5666 1947.33 25.9193 1951.1 50.2937 C 1954.18 74.7685 1956.96 113.101 1952.38 136.555 C 1947.11 163.578 1899.73 194.458 1880.24 210.829 C 1863.71 224.718 1790.91 295.686 1774.35 298.081 C 1756.7 291.944 1770.11 237.787 1768.24 222.252 C 1766.83 210.519 1763.99 197.678 1763.37 186.157 C 1760.8 138.848 1804.85 117.118 1832.25 86.2067 C 1858.95 56.983 1886.09 28.2895 1913.52 0 z" fill="rgb(214,170,127)" transform="translate(0,0)"></path>
<path d="M 0 350.759 C 8.80669 357.284 18.0825 363.511 26.9639 370.261 C 51.0362 388.557 90.4932 400.637 95.82 434.085 C 99.2361 455.536 104.925 476.241 106.275 497.688 C 106.891 524.919 98.9621 552.4 99.0476 579.674 C 100.423 615.648 111.237 639.076 103.874 675.906 C 97.326 708.654 84.3293 706.36 56.7999 692.267 C 37.8765 682.58 20.2104 671.986 0 665.059 L 0 350.759 z" fill="rgb(229,218,207)" transform="translate(0,0)"></path>
<path d="M 440.829 0 L 746.293 0 C 762.188 38.7875 725.207 33.2754 699.823 45.2458 C 657.072 65.4066 613.86 86.8881 576.262 115.993 C 564.954 124.747 550.304 142.908 538.228 125.911 C 528.827 112.68 520.017 100.038 509.979 87.4043 C 497.88 72.2046 483.909 58.9808 472.171 43.5008 C 461.873 30.3499 452.243 13.5076 441.763 1.09403 L 440.829 0 z" fill="rgb(229,218,207)" transform="translate(0,0)"></path>
<path d="M 1303.72 0 L 1603.68 0 C 1602.21 5.9422 1600.08 11.6996 1597.32 17.1622 C 1586.77 37.9968 1563.44 54.6082 1548.77 73.0965 C 1527.32 100.152 1529.36 120.907 1493.72 132.88 C 1468.05 123.948 1443.35 91.18 1418.09 77.6624 C 1389.17 62.1902 1358.11 51.2439 1328.74 36.437 C 1321.65 32.8653 1312.03 31.454 1304.98 27.4097 C 1293.63 20.9008 1301.81 8.46896 1303.51 0.97398 L 1303.72 0 z" fill="rgb(229,218,207)" transform="translate(0,0)"></path>
<path d="M 1635.64 0 L 1895.37 0 C 1894.16 2.37462 1892.93 4.74009 1891.68 7.0962 C 1871.91 44.2933 1825.79 77.5821 1796.63 108.463 C 1788.62 115.549 1776.45 136.227 1766.31 138.917 C 1753.57 142.299 1736.43 105.867 1731.4 97.5413 C 1713.93 68.599 1695.84 48.9057 1669.57 27.9453 C 1657.02 17.9357 1650.07 9.24522 1635.64 0 z" fill="rgb(214,170,127)" transform="translate(0,0)"></path>
<path d="M 160.232 0 L 413.233 0 C 387.231 18.1081 357.962 38.3709 338.425 63.4822 C 326.501 78.9301 318.374 96.0331 308.42 112.872 C 302.619 122.428 297.545 138.604 286.921 143.49 C 280.234 146.565 268.288 130.401 264.559 125.863 C 255.203 114.479 246.302 102.602 236.616 91.516 C 229.422 83.2826 219.84 76.3974 211.984 68.758 C 193.684 50.4999 166.971 25.2503 160.232 0 z" fill="rgb(229,218,207)" transform="translate(0,0)"></path>
<path d="M 1956.11 0 L 2048 0 L 2048 69.1059 C 2019.24 83.928 2001.15 119.32 1971.04 127.579 C 1952.13 126.616 1965.1 81.579 1962.87 74.351 C 1953.81 44.9787 1955.3 28.8363 1956.11 0 z" fill="rgb(229,218,207)" transform="translate(0,0)"></path>
<path d="M 0 0 L 87.998 0 C 88.1005 27.0736 86.5734 50.4885 82.9415 77.28 C 81.9776 84.3905 93.1383 132.361 73.2653 126.159 C 44.5562 117.2 22.2934 80.0196 0 63.829 L 0 0 z" fill="rgb(229,218,207)" transform="translate(0,0)"></path>
<path d="M 1220.55 0 L 1297.11 0 L 1296.6 1.06719 C 1295.28 3.76282 1291.83 13.4868 1290.12 14.2561 C 1278.98 19.8506 1268.65 11.1608 1258.5 10.048 C 1244.14 8.47457 1233.98 5.63707 1220.55 0 z" fill="rgb(250,97,35)" transform="translate(0,0)"></path>
<path d="M 754.079 0 L 831.312 0 C 828.709 0.686386 826.126 1.44 823.516 2.09869 L 817.439 3.69403 C 814.681 4.40113 811.743 5.18769 808.982 5.8138 L 804.483 6.81227 L 799.983 7.77111 C 779.324 12.2213 765.3 24.1469 754.079 0 z" fill="rgb(250,97,35)" transform="translate(0,0)"></path>
<path d="M 1016.72 598.407 C 1020.33 597.754 1024.61 597.839 1028.28 597.985 C 1071.06 599.693 1119.91 625.397 1148.43 657.079 C 1163.33 673.635 1174.54 694.078 1178.08 716.302 C 1181.53 737.976 1176.53 760.163 1176.97 781.915 C 1177.31 798.406 1178.68 814.865 1178.94 831.369 C 1179.88 891.371 1179.94 951.723 1179.25 1011.73 C 1179.09 1025.33 1178.17 1038.91 1178 1052.5 L 1177.4 1273.32 C 1177.35 1288.53 1179.06 1303.7 1179.09 1318.9 C 1179.13 1337.09 1177.18 1355.63 1176.16 1373.79 C 1157.67 1373.38 1139.25 1375.97 1120.77 1375.75 C 1105.97 1375.58 1091.2 1373.73 1076.41 1373.12 C 1061.38 1372.49 1046.79 1373.38 1031.86 1374.87 C 1015.15 1375.67 999.048 1373.41 982.522 1373.57 C 969.994 1373.69 957.411 1375.67 944.849 1376.08 C 935.02 1376.41 881.221 1375.34 874.512 1369.78 C 871.84 1367.56 871.525 1365.03 871.149 1361.73 C 867.817 1332.53 869.715 1304.12 868.898 1274.97 C 867.778 1215.49 867.449 1156 867.913 1096.51 C 868.04 1083.05 868.921 1069.62 869.024 1056.16 C 869.146 1040.25 868.335 1024.34 868.466 1008.43 C 868.576 995.047 869.435 981.667 869.502 968.283 C 869.569 955.051 868.546 941.754 868.158 928.522 C 867.561 908.115 867.435 887.516 867.336 867.096 C 867.229 845.321 867.245 823.258 868.089 801.505 C 868.483 791.322 869.624 781.14 869.862 770.959 C 870.178 757.46 867.597 744.18 869.076 730.639 C 871.08 712.284 882.382 675.744 894.146 661.693 C 900.841 653.696 909.471 647.195 917.585 640.711 C 948.404 616.082 977.168 602.2 1016.72 598.407 z" fill="rgb(229,218,207)" transform="translate(0,0)"></path>
<path d="M 1453.75 760.768 C 1450.31 756.251 1446.04 751.969 1445.19 746.741 C 1446.74 738.427 1461.84 734.185 1469 729.601 L 1659.09 610.468 L 1751.09 553.131 C 1767.36 542.98 1783.52 532.621 1800.05 522.959 C 1807.16 518.801 1816.33 519.513 1818.76 528.183 C 1824.43 548.461 1816.48 572.466 1817.29 593.473 C 1818.29 611.082 1822.45 629.478 1822.05 647.081 C 1821.62 666.038 1817.56 684.534 1817.9 703.501 C 1818.25 723.148 1821.46 743.891 1820.84 763.329 C 1820.09 786.684 1814.63 811.546 1814.69 834.901 C 1814.74 856.206 1820.24 878.775 1821.24 900.136 C 1822.4 925.077 1816.28 950.002 1816.07 974.858 C 1815.91 993.509 1820.19 1013.99 1820.03 1032.53 C 1819.94 1044.04 1818.45 1061.79 1813.39 1072.24 C 1811.08 1077 1807.8 1081.34 1804.25 1085.26 C 1790.6 1090.08 1744.72 1090.56 1728.36 1091.23 L 1580.73 1096.19 C 1558.88 1096.82 1531.75 1102 1510.38 1097.31 C 1502.36 1090.42 1507.19 999.986 1505.48 981.821 C 1495.02 981.111 1479.54 980.688 1469 981.336 C 1467.87 999.207 1468.13 1018.17 1468.08 1036.16 C 1438.29 1028.82 1428.49 1009.01 1435.61 979.879 C 1437.31 977.532 1438.37 977.512 1441.13 976.467 C 1442.69 972.625 1442.58 959.524 1442.71 954.696 C 1461.41 953.794 1461.52 954.417 1461.15 935.202 L 1471.38 933.509 C 1471.47 924.771 1471.98 912.105 1471.23 903.686 C 1464.21 903.191 1451.55 902.56 1444.67 903.712 L 1443.93 900.365 C 1464.16 891.506 1479.91 874.792 1487.55 854.072 C 1493.4 838.676 1496.73 798.285 1484.22 787.275 C 1478.49 785.957 1469.8 795.161 1464.44 798.819 C 1466.69 779.172 1472.22 762.486 1459.54 745.639 C 1456.75 751.711 1455.65 754.352 1453.75 760.768 z" fill="rgb(229,218,207)" transform="translate(0,0)"></path>
<path d="M 1520.17 1347.88 C 1531.62 1347.8 1587.88 1372.71 1603.43 1378.29 C 1616.78 1383.08 1630.72 1386.34 1643.9 1391.57 C 1655.11 1396.02 1665.69 1402.32 1677.02 1406.36 C 1690.91 1411.31 1705.43 1414.25 1719.17 1419.78 C 1729.47 1423.92 1738.15 1431.47 1748.58 1435.44 C 1765.4 1441.83 1783.7 1443.42 1800.69 1449.27 C 1810.54 1452.67 1820.55 1456.88 1829.63 1462.01 C 1836.59 1465.95 1843.31 1470.73 1850.59 1474.04 C 1863.02 1479.69 1876.77 1482.17 1889.32 1487.75 C 1890.29 1488.97 1891.23 1490.21 1892.14 1491.49 C 1899.97 1502.68 1901.23 1524.02 1902.06 1537.24 C 1902.67 1547.01 1901.53 1557.07 1901.06 1566.84 C 1900.1 1586.95 1898.87 1607.16 1898.89 1627.29 C 1898.91 1651.8 1902.69 1676.05 1902.51 1700.55 C 1902.27 1735.33 1898.13 1769.99 1898.2 1804.75 C 1898.25 1830.41 1904.72 1857.16 1899.43 1882.66 C 1898.26 1888.33 1895.42 1891.58 1890.63 1894.62 C 1889.1 1894.71 1887.56 1894.83 1886.02 1894.65 C 1867.28 1892.41 1814.5 1846.11 1799.48 1832.51 C 1791.92 1825.67 1785.12 1817.84 1777.31 1811.31 C 1766.88 1802.59 1755.72 1794.67 1745.14 1786.11 C 1733.8 1776.94 1723.04 1767.11 1711.8 1757.83 C 1693.32 1742.55 1674.39 1727.74 1656.35 1711.93 C 1648.66 1705.19 1643.4 1696.06 1635.5 1689.56 C 1629.07 1684.28 1620.5 1682.05 1613.79 1677.22 C 1605.52 1671.28 1598.91 1662.24 1591.17 1655.5 C 1578.05 1644.08 1564.48 1632.64 1551.07 1621.55 C 1541.47 1613.62 1528.21 1605.92 1521.01 1595.7 C 1514.66 1586.69 1508.17 1566.17 1506.84 1555.21 C 1504.55 1536.27 1509.13 1516.4 1509.16 1497.29 C 1509.19 1482.74 1507.09 1468.27 1506.34 1453.75 C 1505.26 1432.99 1505.17 1384.78 1509.1 1365.49 C 1510.78 1357.22 1513.06 1352.5 1520.17 1347.88 z" fill="rgb(35,40,53)" transform="translate(0,0)"></path>
<path d="M 277.608 1088.33 C 288.113 1085.49 332.995 1091.75 347.06 1092.67 C 360.415 1093.54 373.778 1093.72 387.144 1094.32 L 488.497 1099.41 C 499.931 1100.05 517.239 1099.32 527.79 1102.38 C 533.162 1103.94 537.861 1109.24 541.531 1113.25 C 542.368 1123.84 541.349 1134.73 541.622 1145.38 C 553.981 1146.57 566.65 1146.3 579.022 1145.45 C 578.939 1136.17 577.975 1125.56 579.925 1116.44 C 580.559 1113.48 581.587 1110.02 584.49 1108.52 C 588.254 1106.57 593.326 1108.18 596.893 1109.86 C 602.116 1112.32 608.704 1117.21 610.632 1122.91 C 616.184 1139.31 609.894 1180.51 609.645 1199.35 C 609.282 1226.78 620.201 1272.41 607.89 1296.91 C 604.775 1303.11 600.671 1308.05 595.016 1312.07 C 582.173 1321.2 549.258 1332.58 533.348 1337.6 L 363.576 1397.55 L 307.913 1416.93 C 297.479 1420.49 286.856 1424.7 276.124 1427.19 C 271.096 1428.36 262.49 1429.78 258.09 1426.29 C 254.612 1423.53 253.167 1418.47 252.369 1414.32 C 247.237 1387.59 253.893 1360.19 253.308 1333.34 C 252.858 1312.65 248.952 1292.22 248.704 1271.44 C 248.363 1242.89 251.75 1214.57 251.031 1185.9 C 250.582 1167.98 246.275 1150.62 247.178 1132.54 C 247.706 1121.96 248.825 1106.18 255.295 1097.4 C 260.576 1090.24 269.496 1089.48 277.608 1088.33 z" fill="rgb(214,170,127)" transform="translate(0,0)"></path>
<path d="M 728.017 1274.11 C 731.591 1273.56 734.257 1273.46 737.679 1274.7 C 739.343 1276.15 740.411 1277.34 740.798 1279.6 C 741.865 1285.8 740.698 1293.02 741.067 1299.4 C 741.647 1309.42 743.461 1319.37 743.949 1329.4 C 744.671 1344.22 744.587 1398.25 736.927 1408.1 C 728.793 1418.57 716.954 1427.53 706.842 1436.11 C 691.972 1448.56 677.228 1461.16 662.611 1473.9 L 494.455 1620.15 L 417.781 1686.01 C 405.572 1696.36 393.485 1707.84 380.633 1717.34 C 377.377 1719.74 374.272 1720.06 370.315 1720.46 C 363.92 1718.26 361.166 1715.9 357.263 1710.37 C 354.29 1685.82 358.023 1660.91 357.602 1636.21 C 356.913 1595.85 357.732 1555.53 357.142 1515.21 C 356.81 1492.55 353.968 1470.38 355.26 1447.62 C 355.898 1436.38 356.809 1425.56 362.527 1415.54 C 365.183 1410.88 369.515 1404.59 374.411 1402.04 C 390.789 1393.51 413.937 1391.83 431.729 1384.64 C 443.777 1379.78 454.722 1372.62 467.003 1368.08 C 497.346 1356.88 528.962 1348.83 559.143 1337.26 C 574.427 1331.4 588.544 1323.01 604.031 1317.48 C 618.345 1312.37 633.511 1309.98 647.8 1304.97 C 659.391 1300.91 670.17 1294.28 681.459 1289.41 C 696.391 1282.97 712.449 1278.72 728.017 1274.11 z" fill="rgb(214,170,127)" transform="translate(0,0)"></path>
<path d="M 124.271 440.932 C 129.123 440.8 132.794 441.858 137.178 443.847 C 160.587 454.465 176.096 475.512 196.279 488.872 C 216.349 502.157 239.101 511.082 259.21 524.114 C 269.037 530.482 279.193 537.072 288.384 544.327 C 298.899 552.626 308.91 562.261 320.423 569.13 C 337.006 579.023 353.936 589.319 370.769 598.73 C 379.66 603.701 389.016 607.858 397.854 612.919 C 409.442 619.554 421.418 628.42 432.05 636.563 C 440.49 642.935 446.983 651.537 450.797 661.401 C 461.689 690.216 453.58 733.061 453.506 763.541 C 453.46 782.456 462.047 806.857 453.365 824.64 C 451.214 829.046 448.802 830.435 444.28 832.007 C 439.782 832.084 435.108 831.665 430.665 830.955 C 402.605 826.47 374.944 811.453 349.048 800.409 C 338.294 795.823 326.942 792.513 316.28 787.761 C 308.122 784.126 301.146 778.228 292.718 775.001 C 272.397 767.222 249.943 765.329 229.069 759.365 C 208.417 753.464 188.19 743.481 168.445 735.098 C 157.303 730.367 145.46 726.471 134.935 720.452 C 129.394 717.282 123.531 713.327 119.891 708.004 C 115.608 701.741 113.216 693.602 112.343 686.119 C 110.416 669.583 112.362 652.495 111.751 635.849 C 111.279 623.011 108.702 610.028 109.297 597.188 C 109.95 583.099 112.793 569.208 112.901 555.05 C 113.113 527.402 108.624 476.959 114.946 451.338 C 116.301 445.843 119.638 443.732 124.271 440.932 z" fill="rgb(35,40,53)" transform="translate(0,0)"></path>
<path d="M 1068.44 1699.39 C 1091.29 1697.35 1116.07 1703.22 1139.1 1704.33 C 1162.7 1705.45 1186.18 1700.25 1209.83 1699.98 C 1242.13 1699.6 1265.77 1706.52 1299.61 1701.94 C 1313.63 1700.04 1325.9 1698.27 1339.96 1701.1 C 1347.82 1708.99 1352.97 1720.01 1358.95 1729.38 C 1367.15 1742.25 1376.78 1754.21 1384.64 1767.3 C 1392.55 1780.47 1398.9 1794.63 1407.12 1807.59 C 1417.94 1824.66 1446.52 1854.47 1450.02 1872.51 C 1450.9 1877.04 1450.81 1882.89 1447.63 1886.6 C 1440.82 1894.55 1418.11 1890.94 1408.25 1891.65 C 1374.61 1893.95 1344.53 1888.54 1311.97 1889.05 C 1283.76 1889.49 1255.61 1892.84 1227.36 1892.93 C 1206.18 1893 1185.2 1889.86 1163.95 1890.32 C 1133.04 1890.99 1101.4 1894.36 1070.59 1892.73 C 1060.01 1892.17 1045.64 1890.86 1036.62 1884.87 C 1030.34 1880.7 1026.6 1873.55 1025.55 1866.22 C 1023.46 1851.66 1028.06 1836.78 1028.26 1822.19 C 1028.68 1792.2 1015.32 1738.5 1035.02 1713.94 C 1043.77 1703.01 1055.25 1700.59 1068.44 1699.39 z" fill="rgb(250,97,35)" transform="translate(0,0)"></path>
<path d="M 967.674 1633.4 C 975.281 1632.09 984.353 1632.51 992.109 1632.64 C 999.556 1632.76 1011.46 1633.12 1016.69 1639.06 C 1019.1 1641.81 1019.25 1647.56 1019.51 1651.15 C 1020.99 1671.33 1019.87 1692.28 1019.9 1712.56 C 1019.95 1740.59 1020.97 1769.31 1018.99 1797.25 C 1018.65 1802.08 1017.23 1807.47 1013.26 1810.63 C 1010.43 1812.88 1003.8 1813.1 1000.14 1813.34 C 986.542 1814.24 972.568 1812.74 958.878 1813.02 C 936.103 1813.51 913.472 1815.58 890.656 1815.04 C 874.333 1814.66 858.138 1812.14 841.794 1812.01 C 812.046 1811.76 782.219 1814.26 752.443 1814.36 C 735.163 1814.41 717.973 1812.96 700.754 1811.67 C 688.186 1810.56 657.913 1815.6 648.675 1809.96 C 646.576 1808.68 645.013 1806.85 644.676 1804.34 C 643.656 1796.71 657.551 1779.05 662.324 1772.91 C 670.299 1762.65 679.999 1752.26 686.508 1741.04 C 697.508 1722.08 707.457 1702.42 718.464 1683.39 C 723.544 1674.6 728.32 1665.42 734.677 1657.48 C 742.588 1647.6 752.924 1640.42 765.466 1637.81 C 784.165 1633.92 803.576 1640 822.434 1639.98 C 841.807 1639.97 861.295 1635.84 880.776 1635.17 C 896.137 1634.64 911.404 1636.47 926.75 1636.55 C 940.493 1636.63 954.047 1634.96 967.674 1633.4 z" fill="rgb(35,40,53)" transform="translate(0,0)"></path>
<path d="M 541.142 981.798 C 540.407 1012.22 541.59 1042.92 541.152 1073.36 C 541.689 1077.34 539.102 1092.2 534.868 1093.93 C 522.556 1098.97 494.951 1088.57 481.803 1088.24 C 451.273 1087.45 422.222 1091.72 392.156 1088.53 C 371.906 1086.39 351.569 1067.29 351.593 1046.37 C 349.817 1025.22 357.609 1004.21 357.236 983.205 C 356.626 943.047 347.025 900.603 352.978 860.586 C 355.11 846.261 355.158 814.573 375.91 819.702 C 389.628 823.092 402.928 828.368 416.247 833.217 C 435.856 840.356 455.763 846.874 475.088 854.734 C 504.218 866.766 530.722 882.67 561.503 890.367 C 574.016 893.496 587.236 897.797 599.758 901.397 C 617.39 905.291 576.407 903.598 576.602 903.607 C 573.923 907.209 574.591 927.82 575.925 933.054 C 576.753 936.303 584.775 932.641 587.367 938.088 C 590.303 944.258 587.273 949.671 591.324 953.91 C 595.755 955.62 599.188 954.879 603.994 954.521 C 604.354 960.246 603.326 973.427 605.755 977.55 C 611.401 978.968 611.566 978.82 612.889 984.531 C 619.393 1012.62 605.035 1029.19 579.637 1036.12 C 578.831 1020.54 579.692 997.767 579.754 981.627 C 568.572 980.906 552.217 981.043 541.142 981.798 z" fill="rgb(229,218,207)" transform="translate(0,0)"></path>
<path d="M 599.758 901.397 C 617.39 905.291 576.407 903.598 576.602 903.607 C 581.45 902.767 598.745 904.127 599.758 901.397 z" fill="rgb(110,104,107)" transform="translate(0,0)"></path>
<path d="M 972.269 173.307 C 986.174 172.316 1007.06 174.559 1022.09 174.426 C 1032.4 174.334 1054.74 172.242 1063.04 173.292 C 1075.21 174.83 1095.5 179.633 1108.17 182.309 C 1140.21 189.076 1175.66 188.862 1204.53 203.583 C 1213.76 220.003 1208.24 222.344 1201.9 238.103 C 1194.84 255.678 1186.18 272.817 1178.82 290.184 C 1169.98 311.041 1174.43 346.191 1139.18 334.868 C 1117.07 327.754 1093.62 324.545 1070.96 319.457 C 1060.25 316.665 1048.69 313.27 1037.74 312.258 C 1022.41 310.015 1007.7 315.482 993.131 316.876 C 958.972 320.146 931.138 328.871 898.52 338.344 C 892.717 336.953 886.017 335.227 883.477 328.951 C 878.489 316.632 873.676 304.354 868.508 292.09 C 860.848 274.121 853.4 256.062 846.167 237.917 C 843.092 230.317 840.169 225.612 837.598 217.673 C 849.597 181.9 895.225 192.164 924.934 185.303 C 939.695 181.894 958.033 175.206 972.269 173.307 z" fill="rgb(250,97,35)" transform="translate(0,0)"></path>
<path d="M 671.736 1496.42 C 686.764 1495.19 702.294 1499.25 717.504 1499.21 C 734.771 1499.18 752.462 1499.23 769.691 1498.52 C 778.696 1498.15 787.7 1496.37 796.737 1497 C 802.07 1497.38 808.053 1498.92 812.193 1502.5 C 814.267 1504.29 815.369 1506.15 815.442 1508.9 C 815.551 1513.08 814.003 1517.48 812.03 1521.11 C 807.45 1529.52 800.185 1536.36 795.02 1544.42 C 783.357 1562.62 773.512 1581.95 761.612 1600.1 C 754.517 1610.92 745.432 1620.17 738.291 1630.88 C 727.787 1646.63 720.389 1664.31 707.619 1678.55 C 702.183 1684.62 695.666 1689.97 687.743 1692.3 C 673.727 1696.42 657.441 1694.02 642.994 1693.57 C 623.634 1692.97 603.998 1691.86 584.653 1692.98 L 494.351 1692.08 C 481.227 1692.02 446.976 1696.02 436.476 1690.48 C 434.998 1689.7 433.452 1688.41 433.175 1686.74 C 432.725 1684.02 433.666 1682.09 435.258 1679.92 C 442.681 1669.85 458.555 1664.77 468.164 1656.78 C 485.223 1642.6 498.288 1623.95 515.008 1609.17 C 529.602 1596.26 546.723 1588.06 561.601 1576.01 C 572.609 1567.1 581.752 1555.95 591.486 1545.72 C 604.059 1532.5 619.874 1518.32 635.134 1508.3 C 646.986 1500.52 657.662 1497.66 671.736 1496.42 z" fill="rgb(229,218,207)" transform="translate(0,0)"></path>
<path d="M 741.405 36.0219 C 777.052 31.6363 784.961 113.987 795.799 131.22 C 821.809 172.578 843.186 209.629 777.443 226.697 C 765.372 229.83 743.299 237.037 731.72 243.609 C 707.948 257.102 686.85 280.432 659.708 287.773 C 653.072 284.892 652.561 284.727 646.84 279.986 C 637.755 269.447 631.877 256.007 623.639 244.742 C 616.932 235.571 609.165 227.207 602.285 218.171 C 594.746 208.27 588.17 197.64 580.785 187.618 C 573.467 177.687 565.338 168.035 559.453 157.164 C 558.109 154.682 558.933 150.661 559.777 148.046 C 567.516 124.087 639.556 79.164 663.612 68.0945 C 674.483 63.092 687.217 61.2517 698.517 57.082 C 713.221 51.6561 727.446 43.187 741.405 36.0219 z" fill="rgb(35,40,53)" transform="translate(0,0)"></path>
<path d="M 1302.38 34.986 C 1321.17 35.4637 1354.44 57.584 1371.1 65.4023 C 1381.72 68.893 1393.63 69.1853 1403.46 74.9755 C 1415.05 81.8009 1423.9 92.9023 1434.57 100.898 C 1447.35 110.463 1462.98 117.328 1474.42 128.579 C 1480.48 134.538 1482.75 144.439 1482 152.665 C 1479.3 186.547 1451.87 204.954 1435.01 229.765 C 1420.35 251.325 1424.01 258.353 1402.31 277.719 C 1379.42 298.182 1362.87 276.068 1343.32 263.096 C 1340.12 260.979 1334.73 256.516 1331.28 255.01 C 1307.66 244.703 1284.43 234.357 1261.53 222.465 C 1253.24 218.182 1243.15 216.275 1235.31 210.746 C 1230.1 207.07 1228.05 197.87 1229.27 191.781 C 1233.75 174.194 1241.65 156.909 1248.53 140.086 C 1259.08 114.852 1269.22 89.45 1278.95 63.8903 C 1284.86 48.6918 1286.93 41.7856 1302.38 34.986 z" fill="rgb(35,40,53)" transform="translate(0,0)"></path>
<path d="M 605.281 746.098 C 604.939 745.903 604.595 745.712 604.256 745.513 C 598.504 742.135 594.116 737.494 588.819 733.524 C 577.699 725.189 566.109 716.852 554.363 709.44 C 543.349 702.49 531.06 697.08 519.563 690.937 C 499.211 680.062 480.494 667.852 462.862 652.952 C 454.301 645.718 444.394 637.519 441.476 626.182 C 437.787 611.849 436.936 486.182 443.132 475.344 C 444.251 473.387 447.564 471.873 449.779 471.558 C 453.658 471.006 456.337 473.894 459.064 476.321 C 466.305 482.766 472.965 489.83 480.34 496.143 C 487.375 502.166 495.262 507.099 502.437 512.936 C 513.596 522.015 524.643 532.416 535.25 542.172 C 542.995 549.296 548.769 558.334 556.105 565.849 C 567.172 577.188 580.836 587.441 592.988 597.682 C 605.636 608.34 618.576 619.072 631.815 628.982 C 641.878 636.514 652.732 643.412 662.394 651.422 C 678.644 664.893 692.725 680.859 708.131 695.203 C 716.633 703.118 727.619 708.82 734.982 717.882 C 741.045 725.345 743.061 735.181 743.416 744.563 C 743.975 759.358 740.858 774.216 740.798 789.036 C 740.735 804.474 751.516 852.013 740.049 863.191 C 738.157 865.035 735.694 865.427 733.169 865.18 C 724.799 864.36 715.685 853.6 710.193 847.868 C 716.393 823.353 707.534 808.587 695.097 788.359 C 685.106 772.109 689.089 764.338 693.247 746.982 L 692.268 745.526 C 683.718 744.818 670.939 758.909 666.929 765.953 L 665.917 765.655 C 670.374 745.383 664.507 713.114 652.237 696.265 C 645.499 687.013 629.671 665.806 619.386 661.518 L 617.688 662.103 C 616.836 666.073 619.815 674.026 621.166 677.897 C 630.86 705.676 633.547 728.482 605.281 746.098 z" fill="rgb(229,218,207)" transform="translate(0,0)"></path>
<path d="M 419.03 8.30618 C 422.108 8.28452 428.99 8.5868 431.556 9.67238 C 437.604 12.2309 452.429 28.3066 456.618 33.5886 C 470.462 51.0433 482.689 68.6323 496.762 86.1015 C 508.945 101.585 525.945 115.858 535.253 133.388 C 541.526 147.092 528.966 162.556 519.904 170.385 C 488.644 197.393 473.013 226.434 455.844 262.88 C 452.181 270.655 443.178 287.276 435.272 290.745 C 431.124 292.565 425.153 288.246 421.78 285.971 C 393.277 263.408 369.413 234.882 344.354 208.014 C 333.589 195.443 306.688 177.316 300.375 163.012 C 294.582 149.887 319.16 105.085 326.617 93.5312 C 336.614 78.0413 358.28 56.5514 370.327 42.2391 C 375.523 36.0663 412.599 9.72469 419.03 8.30618 z" fill="rgb(214,170,127)" transform="translate(0,0)"></path>
<path d="M 1622.78 7.24532 C 1634.14 7.24094 1643.47 17.8405 1652.47 23.3074 C 1675.32 37.1916 1687.6 55.6179 1703.83 76.2171 C 1717.89 92.3839 1729.76 106.857 1741.41 124.696 C 1764.93 160.678 1728.12 181.62 1706.42 205.547 C 1700.32 212.268 1688.63 228.924 1682.56 234.045 C 1664.37 249.365 1649.39 266.967 1632.55 283.115 C 1608.56 298.087 1604.67 265.97 1593.52 250.728 C 1570.04 218.635 1547.42 184.245 1516.43 158.8 C 1509.25 152.907 1510.09 148.877 1509.96 140.609 C 1516.33 129.565 1528.99 113.576 1536.37 102.206 C 1546.75 86.233 1563.47 69.9913 1575.58 54.5426 C 1586.25 40.9297 1596.66 24.8557 1608.57 12.5319 C 1611.86 9.12793 1618.22 8.06255 1622.78 7.24532 z" fill="rgb(214,170,127)" transform="translate(0,0)"></path>
<path d="M 1533.81 1105.46 C 1546.86 1105.06 1559.79 1104.46 1572.71 1106.76 C 1574.88 1108.58 1577.12 1110.42 1579.04 1112.51 C 1584.11 1118.04 1585.02 1124.54 1585.41 1131.74 C 1586.88 1158.55 1579.8 1185.18 1579.57 1212.04 C 1579.44 1225.62 1584.06 1238.79 1584.75 1252.34 C 1585.67 1270.5 1579.86 1288.08 1579.3 1306.08 C 1578.93 1317.98 1583.09 1329.91 1581.93 1341.8 C 1581.55 1345.61 1579.96 1351.7 1576.38 1353.83 C 1571.12 1356.96 1562.5 1355.25 1557.01 1353.76 C 1543.97 1350.22 1533.17 1341.45 1520.61 1336.7 C 1502.12 1329.7 1482.27 1325.93 1463.56 1319.02 C 1448.44 1313.27 1426.66 1307.59 1414.8 1296.27 C 1411.19 1292.82 1410.05 1290.98 1409.32 1286.08 C 1405.82 1262.51 1410.07 1237.49 1410.17 1213.68 C 1410.25 1192.48 1408.2 1171.28 1407.94 1150.09 C 1407.81 1139.45 1406 1123.45 1414.3 1115.43 C 1421.64 1108.34 1445.7 1108.35 1455.92 1108.67 C 1459.89 1108.8 1465.32 1109.28 1467.94 1112.73 C 1472.05 1118.16 1467.3 1129.57 1467.12 1135.96 C 1467.03 1139.02 1467.81 1141.82 1470.17 1143.95 C 1472.88 1146.4 1478.58 1146.14 1482.09 1146.16 C 1488.26 1146.2 1501.61 1147.73 1505.9 1143.49 C 1507.16 1137.66 1504.68 1131.11 1504.35 1125.14 C 1504.07 1120.07 1504.87 1114.9 1508.61 1111.17 C 1515.09 1104.71 1525.44 1105.66 1533.81 1105.46 z" fill="rgb(214,170,127)" transform="translate(0,0)"></path>
<path d="M 1317.81 1271.08 C 1328.42 1273.6 1337.89 1281.25 1348.41 1284.82 C 1361.79 1289.36 1375.99 1291.33 1389.43 1295.79 C 1406.14 1301.33 1420.77 1310 1436.92 1316.48 C 1445.01 1319.72 1453.7 1321.5 1461.89 1324.54 C 1472.58 1328.51 1482.84 1333.84 1493.08 1338.84 C 1498.11 1358.28 1500.28 1381.01 1501.1 1401.05 C 1502.29 1430.19 1497.71 1458.36 1497.54 1487.28 C 1497.45 1502.53 1503.56 1550.05 1497.42 1560.79 C 1494.8 1563.06 1492.74 1563.56 1489.38 1564.28 C 1478.17 1557.69 1468.14 1547.76 1458.27 1539.29 C 1439.06 1522.82 1419.42 1506.63 1400.72 1489.6 C 1392.16 1481.82 1384.8 1472.74 1376.08 1465.15 C 1357.43 1448.91 1336.28 1435.77 1319.22 1417.58 C 1312.43 1410.35 1305.57 1399.7 1302.73 1390.14 C 1301.41 1385.7 1301.02 1380.9 1301.09 1376.29 C 1301.31 1359.93 1304.31 1343.45 1305 1327.05 C 1305.55 1314.07 1303.91 1300.82 1304.93 1287.96 C 1305.23 1284.2 1306.02 1280.09 1307.92 1276.78 C 1310.18 1272.84 1313.74 1272.19 1317.81 1271.08 z" fill="rgb(229,218,207)" transform="translate(0,0)"></path>
<path d="M 435.538 1698.37 C 446.634 1697.83 457.496 1700.76 468.566 1700.73 L 576.677 1700.79 C 593.365 1700.74 610.084 1698.88 626.797 1698.57 C 642.358 1698.28 657.578 1699.69 673.031 1701.25 C 678.583 1701.81 686.785 1701.77 691.773 1704.3 C 693.643 1705.24 693.805 1705.38 694.503 1707.41 C 688.257 1723.61 674.193 1738.15 664.99 1752.91 C 655.939 1767.43 648.737 1783.03 639.605 1797.44 C 637.375 1800.95 634.735 1804.88 631.542 1807.57 C 619.525 1817.68 562.326 1813.24 545.247 1812.32 C 515.82 1810.23 486.235 1813.64 456.733 1813.77 C 441.019 1813.84 425.361 1810.93 409.704 1811.15 C 390.498 1811.42 297.039 1816.88 286.266 1810.98 C 284.658 1810.1 284.958 1809.89 284.451 1808.28 C 285.234 1806.99 285.979 1805.82 286.972 1804.68 C 297.658 1792.39 314.42 1781.48 327.109 1770.78 C 351.31 1750.39 378.538 1722.08 405.786 1706.65 C 415.32 1701.25 424.709 1699.19 435.538 1698.37 z" fill="rgb(214,170,127)" transform="translate(0,0)"></path>
<path d="M 1115.65 1562.44 C 1131.83 1561.47 1148.27 1564.2 1164.48 1564.29 C 1182.85 1564.4 1238.8 1558.78 1252.98 1566.03 C 1255.73 1567.43 1258.04 1570.6 1259.82 1573.01 C 1267.49 1583.36 1273.93 1595.47 1280.88 1606.36 L 1306.25 1646.02 C 1313.2 1656.85 1321.51 1667.79 1325.9 1679.98 C 1327.28 1683.78 1328.74 1687.61 1326.94 1691.49 C 1324.63 1692.9 1322.65 1693 1320.02 1693.07 C 1311.7 1693.3 1303.25 1691.47 1294.89 1691.45 C 1275.49 1691.39 1255.66 1693.56 1236.25 1694.47 C 1212.65 1695.23 1189.81 1692 1166.39 1691.77 C 1148.31 1691.59 1045.35 1698.83 1034.89 1691.15 C 1029.18 1686.96 1026.76 1674.6 1025.84 1667.77 C 1023.5 1650.55 1026.67 1633.1 1026.76 1615.83 C 1026.82 1604.24 1024.95 1591.97 1026.51 1580.49 C 1027.16 1575.7 1028.39 1571.39 1031.36 1567.54 C 1044.33 1561.5 1097.82 1563.48 1115.65 1562.44 z" fill="rgb(229,218,207)" transform="translate(0,0)"></path>
<path d="M 1694.66 388.855 C 1696.76 388.97 1696.52 388.882 1698.54 389.279 C 1701.29 389.821 1703.52 391.483 1705 393.846 C 1707.08 397.145 1707.9 401.476 1708.28 405.294 C 1709.96 422.126 1708.65 440.023 1708.9 456.989 C 1709.28 483.404 1713.15 534.437 1707.98 558.118 C 1703.96 576.513 1674.51 595.716 1658.45 604.139 C 1647.34 609.964 1635.59 614.409 1624.97 621.18 C 1610.09 630.665 1596.72 642.513 1581.83 652.089 C 1572.92 657.816 1563.08 661.976 1553.85 667.137 C 1543.65 672.839 1533.95 679.682 1524.22 686.135 L 1520.48 686.914 C 1517.95 685.957 1516.23 685.295 1514.83 682.802 C 1507.01 668.821 1514.46 626.953 1514.58 609.698 C 1514.66 597.445 1512.73 585.238 1513.82 572.985 C 1514.69 563.213 1516.64 552.479 1520.13 543.292 C 1523.54 534.318 1533.96 523.997 1540.79 517.292 C 1547.96 510.254 1556.12 504.154 1563.81 497.69 L 1613.22 455.835 C 1632.71 439.101 1672.14 398.976 1694.66 388.855 z" fill="rgb(214,170,127)" transform="translate(0,0)"></path>
<path d="M 1498.04 161.241 C 1500.24 160.921 1502.5 160.562 1504.73 160.561 C 1509.93 160.558 1513.21 163.295 1516.76 166.786 C 1531.48 181.265 1551.96 204.239 1564.51 220.553 C 1572.81 231.336 1578.7 243.476 1585.99 254.892 C 1592.52 265.108 1600.6 275.035 1605.69 286.05 C 1607.97 290.973 1609.77 296.862 1609.62 302.338 C 1609.17 318.353 1546.22 376.855 1532.93 390.909 C 1523.92 400.44 1516.65 411.538 1506.81 420.275 C 1500.76 425.078 1496.55 428.897 1488.59 426.793 C 1469.61 411.904 1450.08 374.198 1435.73 353.923 C 1426.14 340.372 1413.14 329.425 1405.48 313.981 C 1402 306.964 1398.33 301.373 1401.83 293.024 C 1408.38 277.397 1425.04 265.41 1435.43 250.681 C 1449.47 230.767 1478.07 170.722 1498.04 161.241 z" fill="rgb(214,170,127)" transform="translate(0,0)"></path>
<path d="M 540.278 162.164 C 545.342 161.489 552.505 161.359 556.518 165.644 C 579.46 190.137 593.045 215.237 610.224 244.296 C 618.177 257.748 644.026 282.643 646.639 301.144 C 639.84 327.541 605.266 352.842 590.964 376.645 C 584.818 386.697 565.85 423.233 561.994 427.043 C 558.56 428.276 556.284 427.234 552.667 426.337 C 544.021 419.892 539.911 409.746 532.14 401.502 C 525.018 393.946 514.923 387.8 507.461 380.506 C 486.208 359.534 460.883 339.73 444.237 314.855 C 438.854 302.917 450.415 285.25 454.42 275.695 C 463.255 254.616 476.774 241.362 489.271 223.505 C 505.161 200.798 512.847 174.521 540.278 162.164 z" fill="rgb(214,170,127)" transform="translate(0,0)"></path>
<path d="M 1311.95 1594.25 C 1331.38 1593.06 1350.65 1598.02 1370.03 1598.62 C 1390.96 1599.26 1411.56 1593.87 1432.54 1593.75 C 1457.92 1593.6 1482.34 1599.09 1507.76 1597.05 C 1517.52 1604.17 1527.99 1610.13 1537.6 1617.56 C 1547.44 1625.17 1607.72 1677.03 1611.05 1683.46 C 1612.18 1685.64 1611.73 1686.48 1611.13 1688.68 C 1606.52 1693.7 1600.49 1693.84 1594.11 1694.72 C 1570.41 1698.34 1551.05 1693.62 1527.66 1692.89 C 1506.13 1692.23 1484.81 1696.82 1463.34 1696.67 C 1442.43 1696.51 1421.9 1691.22 1401 1690.97 C 1390.78 1690.85 1358.65 1695.04 1351.95 1693.79 C 1348.8 1693.2 1345.63 1691.33 1342.78 1689.87 C 1338.66 1684.26 1335.5 1677.58 1331.55 1671.74 C 1320.75 1655.72 1303.87 1634.65 1296.43 1617.66 C 1294.58 1613.45 1292.56 1607.31 1294.95 1602.92 C 1298.11 1597.13 1306.11 1595.51 1311.95 1594.25 z" fill="rgb(35,40,53)" transform="translate(0,0)"></path>
<path d="M 1222.55 222.137 C 1241.39 220.214 1254.17 227.923 1271.15 233.718 C 1291.98 240.831 1307.39 254.233 1325.98 264.475 C 1351.4 278.476 1368.37 276.949 1377.16 309.303 C 1371.35 327.093 1348.59 351.44 1338.05 367.955 C 1330.31 380.088 1323.35 393.641 1315.21 405.231 C 1296.26 427.647 1282.52 409.282 1265.04 397.652 C 1240.22 381.137 1214.55 369.049 1188.16 355.639 C 1176.81 349.869 1170.71 339.813 1174.88 327.197 C 1181.2 310.309 1188.63 292.269 1196.16 275.945 C 1202.76 261.651 1209.37 229.605 1222.55 222.137 z" fill="rgb(214,170,127)" transform="translate(0,0)"></path>
<path d="M 809.869 221.124 C 817.326 220.612 833.25 223.663 835.726 231.113 C 846.858 264.609 863.414 295.464 875.236 328.639 C 877.829 335.916 872.486 346.525 865.807 349.522 C 846.743 358.074 829.605 366.411 812.451 378.703 C 794.009 390.367 773.911 399.663 756.174 412.836 C 753.539 414.793 744.67 411.2 741.73 410.073 C 728.062 394.848 717.622 369.132 700.803 352.9 C 691.703 340.764 672.197 319.005 670.627 304.867 C 668.986 290.092 712.613 260.402 723.344 257.396 C 751.147 249.608 784.687 227.577 809.869 221.124 z" fill="rgb(214,170,127)" transform="translate(0,0)"></path>
<path d="M 886.357 1432.34 C 897.414 1432.85 908.357 1435.49 919.432 1435.7 C 941.692 1436.14 996.893 1429.27 1014.5 1436.8 C 1017.03 1440.05 1017.91 1443.61 1018.52 1447.64 C 1020.56 1460.99 1019.06 1476.31 1019.11 1489.93 C 1019.17 1508.46 1020.78 1528.33 1018.87 1546.72 C 1018.51 1550.17 1017.65 1556.76 1014.94 1559.28 C 1005.75 1567.82 953.062 1561.37 938.924 1561.08 C 916.926 1561.99 895.445 1560.86 873.504 1560.85 C 858.704 1560.85 819.707 1563.61 807.393 1559.99 C 804.75 1559.22 803.697 1558.41 802.834 1555.71 C 801.848 1552.63 802.348 1548.1 803.548 1545.14 C 808.029 1534.09 826.048 1509.51 833.303 1497.44 C 843.604 1480.3 851.67 1461.65 862.862 1445.07 C 868.189 1437.17 877.397 1434.01 886.357 1432.34 z" fill="rgb(229,218,207)" transform="translate(0,0)"></path>
<path d="M 1306.98 832.498 C 1316.14 815.126 1326.06 810.892 1343.2 804.047 C 1334.43 822.492 1333.63 839.996 1342.41 858.479 C 1351.74 878.076 1368.49 893.153 1388.96 900.378 L 1390.61 900.752 C 1401.25 902.56 1383.8 903.024 1383.1 903.015 C 1376.95 902.763 1367.18 901.545 1362.24 904.352 C 1358.01 909.468 1358.49 931.928 1361.03 932.522 C 1375.54 935.926 1364.72 943.989 1371.04 952.414 C 1374.49 953.737 1380.3 953.125 1384.23 952.996 C 1384.27 958.273 1383.67 975.203 1386.27 978.428 C 1392.03 979.255 1393.23 978.814 1393.15 985.397 C 1392.56 1036.82 1419.1 1066.47 1468.36 1075.71 C 1464.27 1111.58 1441.54 1099.91 1414.19 1102.78 C 1386.58 1105.67 1359.63 1106.42 1331.71 1107.65 C 1312.92 1108.48 1304.04 1103.66 1302.46 1083.33 C 1301.6 1061.24 1303.8 1038.17 1304.11 1015.81 L 1306.98 832.498 z" fill="rgb(229,218,207)" transform="translate(0,0)"></path>
<path d="M 1388.96 900.378 L 1390.61 900.752 C 1401.25 902.56 1383.8 903.024 1383.1 903.015 C 1385.55 902.433 1388.23 902.717 1388.96 900.378 z" fill="rgb(110,104,107)" transform="translate(0,0)"></path>
<path d="M 1017.35 320.375 C 1037.16 320.799 1058.2 322.891 1077.64 327.28 C 1085.12 328.502 1103.39 336.64 1109.71 337.083 C 1138.42 338.65 1165.86 342.446 1150.1 379.543 C 1143.75 394.493 1141.51 407.987 1136.94 423.271 C 1133.64 431.886 1127.27 435.996 1118.4 433.571 C 1088.72 425.457 1058.54 418.484 1028.42 412.213 C 1012.66 410.291 964.422 425.781 947.245 429.773 C 942.101 430.969 925.582 436.223 921.167 432.105 C 907.546 419.401 907.127 391.354 898.002 374.535 C 892.443 363.068 886.585 348.563 904.186 344.392 C 933.842 337.364 960.423 326.615 991.08 325.498 C 997.683 325.257 1009.3 321.291 1017.35 320.375 z" fill="rgb(250,97,35)" transform="translate(0,0)"></path>
<path d="M 654.258 317.01 C 677.869 319.303 702.371 366.896 715.74 384.946 C 721.601 392.86 742.137 416.294 741.067 425.187 C 738.487 446.629 714.192 466.074 702.824 483.426 C 690.984 502.22 685.936 521.36 671.938 538.101 C 669.874 540.569 661.882 539.12 659.113 538.723 C 638.97 532.797 628.868 504.411 615.221 490.205 C 604.17 478.702 589.627 470.878 580.113 457.89 C 575.407 451.465 570.112 436.271 571.6 427.917 C 578.541 401.559 597.889 383.401 613.48 362.428 C 626.927 344.338 634.011 329.311 654.258 317.01 z" fill="rgb(214,170,127)" transform="translate(0,0)"></path>
<path d="M 1387.08 316.04 C 1408.04 316.047 1426.3 356.24 1437.94 372.487 C 1448.72 387.527 1474.31 416.788 1478.99 433.715 C 1477.16 443.279 1469.97 454.428 1463.79 461.833 C 1457.49 469.38 1446.32 474.753 1439.21 482.073 C 1424.51 497.23 1410.45 516.934 1395.5 531.427 C 1371.98 549.216 1363.62 517.82 1355.27 500.331 C 1345.07 477.059 1321.28 463.334 1311.27 440.073 C 1308.4 433.414 1308.87 428.16 1311.76 421.761 C 1321.61 399.995 1338.97 383.288 1352.68 364.377 C 1363.61 349.3 1368.1 323.778 1387.08 316.04 z" fill="rgb(214,170,127)" transform="translate(0,0)"></path>
<path d="M 1261.34 1479.55 C 1279.9 1478.67 1297.6 1481.8 1316.01 1482.41 C 1325.92 1482.74 1335.81 1481.11 1345.7 1480.91 C 1353.83 1480.75 1362.46 1482.27 1370.52 1483.39 C 1375.38 1484.06 1381.44 1484.47 1385.96 1486.46 C 1399.99 1492.62 1408.85 1510.65 1420.64 1520.62 C 1438.6 1535.81 1459.82 1547.15 1477.93 1562.46 C 1481.9 1565.81 1488.64 1571.4 1488.54 1577.03 C 1488.48 1580.21 1487.64 1583 1485.31 1585.26 C 1477.14 1593.23 1456.59 1589.78 1446 1589.2 C 1421.64 1589.04 1397.32 1587.08 1373.02 1587.01 C 1333.82 1586.89 1311.44 1594.25 1271.99 1581.18 C 1261.5 1564.12 1220.67 1505.22 1217.63 1490.11 C 1217.02 1487.09 1217.19 1485.2 1218.87 1482.63 C 1228.26 1477.75 1250.07 1479.69 1261.34 1479.55 z" fill="rgb(229,218,207)" transform="translate(0,0)"></path>
<path d="M 1381.51 766.733 C 1377.95 761.134 1365.36 743.039 1357.85 748.376 C 1355.98 758.045 1366.78 776.118 1352.73 785.823 C 1344.32 791.693 1317.18 819.115 1308.4 803.097 C 1299.63 787.09 1303.9 726.151 1315.83 713.088 C 1334.96 692.14 1362.28 670.573 1382.84 649.974 C 1391.85 640.943 1411.1 630.877 1420.67 621.37 C 1435.03 608.875 1483.21 555.991 1500.82 559.104 C 1507.48 563.276 1508.73 568.658 1508.09 576.54 C 1507.02 592.783 1503.64 616.267 1504.39 632.072 C 1506.28 672.097 1512.54 704.349 1467.02 720.411 C 1462.51 721.637 1439.23 736.73 1436.56 736.618 C 1416.85 735.792 1422.74 692.335 1426.91 680.992 C 1429.92 672.806 1435.71 664.758 1430.7 661.344 C 1424.32 662.423 1413.83 674.415 1409.5 679.521 C 1384.38 709.154 1381.11 725.496 1383.81 762.8 L 1381.51 766.733 z" fill="rgb(229,218,207)" transform="translate(0,0)"></path>
<path d="M 628.58 1112.26 C 640.511 1111.37 652.783 1113.4 664.65 1114.65 C 681.299 1116.39 697.392 1117.81 714.177 1117.4 C 718.511 1117.29 723.821 1116.52 728.008 1117.35 C 735.119 1118.77 739.255 1122.9 743.536 1128.43 C 743.951 1143.62 742.381 1158.84 742.287 1174.04 C 742.124 1200.17 744.81 1234.6 739.914 1259.67 C 730.18 1267.97 715.828 1270.23 703.746 1273.54 C 686.038 1279.36 642.474 1304.18 627.279 1302.05 C 624.764 1301.7 623.236 1300.82 621.824 1298.67 C 614.319 1287.23 619.704 1212.29 619.566 1196.61 C 619.352 1172.41 612.319 1143.8 619.434 1120.33 C 620.704 1116.14 624.938 1113.99 628.58 1112.26 z" fill="rgb(229,218,207)" transform="translate(0,0)"></path>
<path d="M 296.521 177.772 C 297.911 177.995 302.158 178.785 302.966 179.61 C 321.323 198.356 337.71 220.274 357.874 237.669 C 369.461 247.665 382.368 256.331 393.043 267.639 C 401.163 275.719 408.487 286.299 415.987 294.731 C 432.212 312.968 435.762 322.233 434.39 346.67 C 432.997 371.48 434.527 398.2 433.11 423.249 C 432.839 428.048 430.827 432.121 425.569 432.726 C 409.356 423.956 395.028 407.555 380.936 395.621 C 370.137 386.475 358.626 378.723 347.91 369.511 C 334.48 357.966 322.255 344.861 309.698 332.342 C 302.965 325.628 293.507 316.8 288.295 309.333 C 283.469 273.785 285.272 242.112 288.619 206.713 C 289.64 195.914 288.06 185.736 296.521 177.772 z" fill="rgb(229,218,207)" transform="translate(0,0)"></path>
<path d="M 1748.42 175.711 C 1762.94 179.059 1757.87 206.068 1759.2 218.224 C 1761.37 238.09 1758.96 258.3 1757.74 278.034 C 1756.67 295.423 1761.07 314.227 1746.37 328.029 C 1706.66 361.338 1669.11 405.746 1623.92 431.093 C 1622.03 430.334 1619.06 428.645 1618.45 426.792 C 1613.62 411.956 1618.12 390.589 1619.07 376.221 C 1620.33 357.024 1610.25 339.994 1616.47 320.851 C 1619.58 311.289 1625.03 302.238 1631.22 294.639 C 1638.14 286.139 1648.02 280.181 1655.61 272.472 C 1662.26 265.532 1668.12 257.728 1674.8 250.827 C 1692.78 232.256 1711.55 214.677 1728.02 194.696 C 1733.98 187.469 1740.02 180.09 1748.42 175.711 z" fill="rgb(229,218,207)" transform="translate(0,0)"></path>
<path d="M 464.925 667.509 C 468.272 667.777 470.439 668.314 473.469 669.811 C 494.995 680.447 515.248 695.597 535.481 708.508 C 553.279 719.865 573.154 730.31 589.176 743.991 C 578.025 763.395 580.342 777.981 585.54 798.54 C 578.548 795.029 572.471 789.457 566.009 785.027 C 564.224 787.565 562.748 790.184 561.476 793.021 C 551.198 815.94 556.018 840.872 564.864 863.262 C 569.815 873.434 576.18 880.503 584.863 887.587 C 566.562 883.553 548.249 877.528 530.601 871.243 C 518.391 866.894 468.89 847.824 464.663 837.408 C 457.283 819.219 462.736 790.302 462.075 770.691 C 461.644 757.883 459.494 745.202 459.725 732.342 C 459.94 720.331 462.164 708.441 462.746 696.455 C 463.113 688.875 462.015 680.419 463.267 673.022 C 463.586 671.137 464.248 669.29 464.925 667.509 z" fill="rgb(229,218,207)" transform="translate(0,0)"></path>
<path d="M 663.587 953.365 L 679.408 952.697 C 698.412 962.765 719.168 971.093 737.394 982.389 C 740.131 987.292 742.457 992.341 742.895 998.003 C 743.629 1007.48 740.611 1017.14 740.602 1026.65 C 740.585 1044.16 743.7 1061.22 742.928 1078.95 C 742.503 1088.71 742.319 1103.15 734.699 1110.19 C 722.712 1114.38 679.384 1108.45 664.243 1107.33 C 649.598 1106.37 594.201 1106.06 585.21 1096.88 C 579.797 1091.35 580.099 1082.59 579.843 1075.41 C 587.779 1074.12 595.556 1072.89 603.135 1070.14 C 630.754 1060.11 651.676 1032.23 654.576 1003.01 C 655.275 995.97 652.945 984.919 655.888 978.696 C 658.173 978.387 660.175 978.032 662.383 977.326 C 665.188 971.004 661.687 961.778 663.212 954.901 C 663.327 954.387 663.462 953.877 663.587 953.365 z" fill="rgb(229,218,207)" transform="translate(0,0)"></path>
<path d="M 1223.11 929.182 C 1236.51 928.219 1250.68 931.826 1264.22 931.954 C 1271.64 932.024 1282.95 928.425 1289.61 930.14 C 1292.75 930.947 1295.02 933.169 1296.62 935.898 C 1300.1 941.846 1300.04 950.27 1300.11 956.998 C 1300.35 979.177 1295.72 1000.84 1294.97 1022.9 C 1294.4 1039.6 1297.58 1056.27 1297.2 1073 C 1297.07 1078.61 1296.8 1084.69 1295.32 1090.11 C 1293.74 1095.88 1290.38 1099.43 1285.34 1102.4 C 1281.54 1103.49 1277.68 1104.47 1273.72 1104.62 C 1265.76 1104.93 1257.71 1103.65 1249.73 1103.58 C 1240.05 1103.5 1229.38 1105.85 1219.94 1103.4 C 1216.09 1102.41 1213.92 1099.55 1212.18 1096.15 C 1209.4 1090.73 1208.42 1084.08 1208.04 1078.05 C 1207.4 1067.68 1208.87 1056.84 1208.96 1046.4 C 1209.12 1026.73 1206.05 953.809 1211.29 939.881 C 1213.39 934.299 1217.98 931.627 1223.11 929.182 z" fill="rgb(229,218,207)" transform="translate(0,0)"></path>
<path d="M 1370.62 1111.44 C 1373.99 1111.34 1377.46 1111.15 1380.82 1111.54 C 1387.78 1112.35 1393.8 1115.33 1397.92 1121.12 C 1401.38 1125.99 1402.22 1132.49 1402.6 1138.32 C 1404.04 1160.32 1400.27 1182.26 1400.31 1204.2 C 1400.34 1224.25 1405.8 1244.38 1402.52 1264.46 C 1401.56 1270.33 1399.2 1278.62 1393.87 1282.06 C 1383.49 1288.77 1360.26 1280.4 1349.04 1277.44 C 1342.81 1275.74 1336.74 1273.33 1331.35 1269.76 C 1319.33 1261.81 1311.83 1250.87 1308.97 1236.86 C 1305.59 1220.34 1305.26 1127.62 1312.8 1118.67 C 1318.76 1111.6 1359.93 1111.96 1370.62 1111.44 z" fill="rgb(229,218,207)" transform="translate(0,0)"></path>
<path d="M 799.805 1566.12 C 816.216 1567.37 833.066 1568.9 849.515 1568.42 C 867.16 1567.9 884.822 1565.78 902.485 1566.27 C 915.772 1566.63 928.84 1570.54 942.145 1570.99 C 960.852 1571.62 995.94 1561.22 1011.36 1574.33 C 1017.83 1579.83 1019.56 1588.13 1019.92 1596.23 C 1020.27 1604.31 1020.54 1618.16 1014.48 1624.2 C 1007.3 1631.37 988.194 1628.26 978.467 1628.03 C 967.022 1627.48 955.342 1626.59 943.897 1627.25 C 927.871 1628.17 912.089 1630.73 895.994 1631.01 C 870.731 1631.43 845.444 1628.73 820.22 1629.33 C 804.695 1629.7 777.242 1635.09 763.376 1631.11 C 762.527 1629.86 762.295 1629.65 761.679 1628.1 C 759.245 1622.01 763.902 1609.92 766.346 1604.03 C 772.388 1589.48 785.084 1572.08 799.805 1566.12 z" fill="rgb(35,40,53)" transform="translate(0,0)"></path>
<path d="M 1599.07 332.921 C 1604 332.809 1604.13 332.418 1607.66 334.782 C 1615.05 347.293 1610.67 422.313 1609.6 440.082 C 1609.09 448.54 1575.2 479.278 1566.59 486.4 C 1557.28 494.095 1536.02 506.544 1526.84 516.135 C 1515.14 526.532 1504.88 541.681 1493.79 547.987 C 1492.55 548.418 1490.33 548.916 1488.98 549.268 C 1480.65 546.617 1481.38 533.454 1482.55 525.85 C 1486.81 498.145 1474.31 463.705 1492.79 439.792 C 1498.99 431.762 1509.48 424.368 1516.36 417.365 C 1533.01 400.421 1549.53 384.179 1566.81 367.946 C 1577.96 357.465 1587.28 342.535 1599.07 332.921 z" fill="rgb(229,218,207)" transform="translate(0,0)"></path>
<path d="M 442.846 327.234 C 451.209 331.915 453.022 340.958 459.485 346.993 C 487.12 372.605 516.422 395.632 540.394 424.995 C 553.678 441.266 564.434 447.426 565.313 470.765 C 565.9 486.369 566.636 501.741 565.192 517.437 C 564.198 528.245 568.213 538.623 560.127 547.596 C 557.617 547.914 551.675 547.86 549.629 546.457 C 528.82 531.804 512.325 511.696 493.01 494.671 C 485.913 488.416 445.421 455.915 444.471 449.563 C 440.901 425.688 445.23 400.232 439.582 375.219 C 438.408 370.022 440.724 332.106 442.846 327.234 z" fill="rgb(229,218,207)" transform="translate(0,0)"></path>
<path d="M 1017.01 420.349 C 1018.77 420.147 1020.46 420.017 1022.23 420.007 C 1035.55 419.933 1045.49 421.143 1057.92 426.05 C 1062.57 427.886 1067.58 430.344 1072.47 431.282 C 1083.66 433.431 1105.36 432.02 1113.61 440.225 C 1114.86 443.822 1114.39 447.368 1113.6 451.025 C 1110.71 464.294 1102.11 475.246 1096.26 487.247 C 1093.07 493.802 1090.82 500.94 1087.13 507.232 C 1085.17 510.573 1081.87 515.539 1078.38 517.448 C 1067.03 523.665 1043.88 513.212 1032.23 510.2 C 1009.6 503.972 981.695 522.159 969.443 515.942 C 958.113 510.193 939.096 473.202 935.332 460.283 C 933.742 454.83 932.558 447.587 935.706 442.46 C 944.735 427.755 999.823 423.401 1017.01 420.349 z" fill="rgb(35,40,53)" transform="translate(0,0)"></path>
<path d="M 790.57 551.928 C 792.329 551.895 794.358 551.749 796.027 552.445 C 802.741 555.241 809.026 563.089 815.434 566.98 C 829.739 575.664 853.417 580.381 860.104 598.001 C 867.498 617.482 841.495 640.613 838.944 659.718 C 836.91 674.946 844.124 695.04 837.768 708.967 C 835.146 714.711 830.212 716.951 824.64 719.168 C 813.991 720.814 781.679 716.915 769.257 715.423 C 763.987 714.79 760.321 714.086 757.031 709.622 C 745.079 693.399 751.041 648.208 754.113 628.504 C 758.104 602.904 768.726 567.873 790.57 551.928 z" fill="rgb(35,40,53)" transform="translate(0,0)"></path>
<path d="M 1420.8 676.965 C 1415.46 705.829 1411.51 725.737 1434.99 747.358 C 1440.24 752.187 1449.49 767.098 1455.06 769.878 L 1457.85 768.867 C 1458.42 767.521 1459.6 763.74 1461.31 763.763 C 1462.46 764.921 1461.68 773.611 1461.5 775.508 C 1460.4 784.536 1454.45 797.284 1461.66 803.503 C 1471.93 805.245 1474.1 793.224 1482.42 796.857 C 1483.29 798.18 1484.39 799.834 1484.75 801.424 C 1493.82 842.041 1476.04 886.726 1432.49 897.409 C 1450.37 870.541 1447.7 855.565 1431.37 829.044 C 1426.81 821.634 1424.55 812.247 1419.09 804.632 C 1414.05 807.25 1407.88 821.228 1404.53 826.685 C 1388.31 853.13 1373.66 864.151 1392.77 894.923 C 1358.81 882.85 1328.31 844.234 1348.47 808.816 C 1360.99 786.81 1366.9 785.359 1366.89 757.698 C 1369.97 761.088 1372.94 764.567 1375.22 768.58 C 1378.85 774.935 1378.76 787.25 1384.72 791.181 C 1389.19 791.889 1387.11 792.134 1391.22 790.62 C 1402.92 777.08 1364.55 730.794 1420.8 676.965 z" fill="rgb(250,97,35)" transform="translate(0,0)"></path>
<path d="M 1457.85 768.867 C 1458.42 767.521 1459.6 763.74 1461.31 763.763 C 1462.46 764.921 1461.68 773.611 1461.5 775.508 C 1460.51 771.354 1461.79 769.744 1457.85 768.867 z" fill="rgb(238,95,37)" transform="translate(0,0)"></path>
<path d="M 628.752 677.743 C 651.622 694.36 663.579 728.158 660.408 755.592 C 659.21 765.955 654.706 780.21 657.721 790.239 C 658.413 792.542 658.771 792.752 660.745 793.87 C 662.419 793.41 664.096 792.735 665.198 791.305 C 667.393 788.453 668.403 783.256 669.63 779.849 C 673.02 770.438 676.847 763.39 683.31 755.727 C 680.35 780.562 690.47 789.242 700.756 810.108 C 706.737 822.239 708.986 835.357 704.264 848.37 C 696.327 870.25 678.743 884.77 658.293 894.337 C 660.633 889.654 662.992 885.006 664.18 879.869 C 669.676 856.087 650.803 837.899 639.109 819.489 C 637.107 815.402 634.19 807.801 629.563 806.348 C 628.178 805.913 628.427 806.208 626.967 807.021 C 625.367 812.996 623.614 819.08 620.693 824.56 C 615.4 834.49 607.167 843.37 604.323 854.442 C 600.318 870.027 608.552 884.44 616.043 897.41 C 613.006 896.352 609.958 895.287 606.989 894.047 C 588.88 886.481 575.388 873.516 567.85 855.362 C 559.704 835.562 559.645 813.359 567.685 793.517 C 571.421 796.318 575.166 799.284 579.167 801.695 C 582.426 803.658 584.633 804.343 588.344 803.361 C 596.825 795.174 585.227 779.769 587.559 769.441 C 589.9 769.486 592.163 769.409 594.498 769.23 C 596.566 767.574 626.217 734.04 627.825 731.554 C 638.455 715.112 632.607 695.374 628.752 677.743 z" fill="rgb(250,97,35)" transform="translate(0,0)"></path>
<path d="M 1108.53 1488.41 C 1108.95 1488.34 1109.37 1488.26 1109.79 1488.21 C 1126.43 1486.44 1142.56 1490.42 1159.07 1490.91 C 1170.93 1491.26 1183.64 1488.04 1195.31 1490.1 C 1201.04 1491.16 1206.38 1493.75 1210.77 1497.58 C 1218.87 1504.57 1237.71 1533.67 1237.99 1544.03 C 1238.07 1546.76 1237.37 1549.21 1235.43 1551.23 C 1223.16 1563.96 1173.62 1553.33 1155.76 1554.25 C 1144.55 1555.57 1133 1557.29 1121.7 1557.12 C 1111.69 1556.98 1101.7 1555.31 1091.69 1555.35 C 1073.13 1555.41 1054.57 1557.05 1035.91 1557.02 C 1029.95 1551.96 1026.37 1547.63 1025.24 1539.67 C 1023.65 1528.46 1023.96 1505.48 1031.32 1496.14 C 1034.43 1492.2 1038.88 1490.17 1043.78 1489.5 C 1053.32 1488.21 1063.86 1491.22 1073.54 1491.3 C 1085.09 1491.39 1097.03 1489.56 1108.53 1488.41 z" fill="rgb(35,40,53)" transform="translate(0,0)"></path>
<path d="M 870.553 353.874 C 877.777 353.56 881.559 356.726 886.591 361.412 C 894.457 389.695 926.171 436.228 890.635 454.303 C 866.917 466.367 845.838 480.782 824.445 496.454 C 816.857 502.013 809.31 499.404 802.987 493.698 C 800.934 491.364 794.86 483.666 793.08 480.561 C 785.892 468.025 759.73 443.379 758.909 429.479 C 759.868 414.888 782.185 407.558 790.412 400.947 C 809.883 385.302 826.281 377.684 848.704 368.086 C 854.543 365.587 864.959 357.646 870.553 353.874 z" fill="rgb(229,218,207)" transform="translate(0,0)"></path>
<path d="M 1172.18 355.973 C 1175.89 355.854 1178.72 356.119 1182.2 358.024 C 1212.75 374.758 1241.84 394.618 1272.24 411.648 C 1277.01 414.315 1287.24 422.428 1287.29 426.742 C 1287.48 444.815 1256.55 482.154 1246.65 493.973 C 1245.53 495.1 1244.4 496.237 1243.14 497.211 C 1238.93 500.479 1233.87 502.17 1228.54 501.487 C 1216.12 499.894 1186.77 469.924 1173.53 461.597 C 1162.58 454.707 1148.12 452.224 1139.83 441.698 C 1137.56 427.85 1148.86 407.574 1153.21 393.852 C 1158.81 376.211 1155.47 365.15 1172.18 355.973 z" fill="rgb(229,218,207)" transform="translate(0,0)"></path>
<path d="M 742.975 444.063 C 747.331 443.687 751.049 443.547 755.132 445.341 C 769.046 451.457 800.189 499.311 805.755 514.582 C 797.476 533.12 777.968 547.752 767.801 566.269 C 762.245 576.387 758.465 587.399 755.255 598.457 C 753.648 603.992 753.023 611.974 750.121 616.705 C 747.589 620.834 744.83 621.545 740.438 622.709 C 735.722 620.9 732.732 618.368 729.138 614.958 C 716.716 603.174 677.577 563.661 678.173 547.609 C 678.703 533.346 706.629 496.796 715.011 483.371 C 721.171 473.505 726.202 462.741 733.194 453.427 C 736.004 449.685 739.201 446.816 742.975 444.063 z" fill="rgb(214,170,127)" transform="translate(0,0)"></path>
<path d="M 1293.07 444.954 C 1300.13 445.269 1305.52 445.85 1310.68 451.043 C 1321.13 461.562 1358.47 516.968 1364.61 530.466 C 1367.58 536.983 1369.99 545.159 1369.46 552.343 C 1369.17 556.274 1366.44 559.513 1364.17 562.555 C 1358.29 570.436 1350.83 577.029 1344.38 584.427 C 1334.7 595.52 1327.08 608.439 1315.55 617.8 C 1312.01 619.555 1308.57 621.631 1304.49 620.595 C 1296.56 618.584 1295.38 608.278 1293.43 601.563 C 1284.39 570.432 1262.66 549.122 1245.82 522.281 C 1243.22 518.136 1242.17 515.103 1243.4 510.256 C 1246.8 496.837 1262.42 489.426 1270.26 478.668 C 1278.47 467.417 1280.49 452.603 1293.07 444.954 z" fill="rgb(214,170,127)" transform="translate(0,0)"></path>
<path d="M 1255.97 1110.41 C 1257.67 1110.18 1257.09 1110.21 1258.71 1110.15 C 1269.47 1109.77 1293.49 1107.99 1300.78 1117.88 C 1303.21 1121.17 1302.98 1132.11 1303.03 1136.36 C 1303.17 1150.39 1301.16 1164.41 1300.8 1178.44 C 1300.44 1192.71 1301.72 1206.94 1301.46 1221.19 C 1301.26 1232.41 1299.02 1241 1290.71 1248.95 C 1278.38 1248.88 1266.46 1248.85 1254.23 1250.7 C 1242.97 1251.99 1229.36 1254.33 1219.45 1247.28 C 1212.8 1242.55 1209.92 1234.7 1208.88 1226.89 C 1207.3 1214.95 1209.01 1201.96 1209.01 1189.87 C 1209.02 1171.16 1206.59 1152.27 1209.2 1133.62 C 1209.91 1128.58 1211.33 1123.21 1214.64 1119.21 C 1221.96 1110.37 1245.2 1111.23 1255.97 1110.41 z" fill="rgb(35,40,53)" transform="translate(0,0)"></path>
<path d="M 1230.91 1256.42 C 1232.6 1256.23 1234.33 1256.15 1236.04 1256.07 C 1245.83 1255.61 1286.81 1255.77 1293.46 1263.43 C 1304.95 1276.65 1295.43 1327.38 1295.11 1345.03 C 1294.84 1359.29 1296.76 1374.01 1295.91 1388.11 C 1295.56 1393.85 1294.41 1400.61 1289.48 1404.27 C 1286.69 1406.34 1283.96 1405.88 1280.76 1405.52 C 1280.08 1405.46 1279.4 1405.41 1278.72 1405.33 C 1260.7 1403.29 1233.95 1410.75 1219.52 1398.07 C 1213.02 1392.36 1211.82 1385.28 1211.35 1377.04 C 1210.36 1359.81 1211.73 1342.62 1211.74 1325.38 C 1211.76 1306.75 1209.92 1287.6 1211.87 1269.06 C 1212.3 1264.94 1212.57 1261.6 1215.39 1258.44 C 1220.22 1256.34 1225.71 1256.63 1230.91 1256.42 z" fill="rgb(229,218,207)" transform="translate(0,0)"></path>
<path d="M 818.547 1258.15 C 823.456 1257.55 829.617 1257.62 833.526 1261.16 C 845.189 1271.75 834.801 1323.61 834.933 1339.67 C 835.009 1348.81 837.667 1357.99 838.74 1367.07 C 839.804 1376.06 838.569 1384.54 832.634 1391.64 C 816.814 1410.54 793.65 1404.47 771.95 1406.17 C 768.554 1406.04 764.697 1404.97 761.7 1403.36 C 756.273 1400.43 752.744 1394.83 751.131 1389.01 C 744.811 1366.2 751.502 1331.79 750.999 1308.09 C 750.79 1298.24 747.662 1288.45 748.163 1278.6 C 748.339 1275.13 748.848 1270.98 750.81 1268.02 C 752.267 1265.82 754.066 1264.13 756.594 1263.27 C 767.228 1259.63 787.618 1262.43 799.483 1261.69 C 806.001 1261.29 812.231 1259.73 818.547 1258.15 z" fill="rgb(229,218,207)" transform="translate(0,0)"></path>
<path d="M 911.786 453.078 C 915.12 452.842 918.56 452.44 921.644 454.03 C 930.571 458.635 948.044 496.352 950.175 506.116 C 951.698 513.096 951.162 517.998 947.234 523.996 C 936.331 540.644 916.392 547.993 901.869 560.65 C 892.855 568.506 882.446 587.112 870.722 589.068 C 859.739 590.9 855.696 581.806 847.892 576.301 C 847.605 576.099 847.314 575.904 847.026 575.705 C 828.726 564.569 808.595 557.106 792.535 542.269 C 807.251 521.706 832.095 495.645 854.214 483.292 C 862.86 478.463 872.573 475.637 881.148 470.725 C 891.802 464.622 899.7 456.816 911.786 453.078 z" fill="rgb(229,218,207)" transform="translate(0,0)"></path>
<path d="M 759.882 722.118 C 767.551 722.363 775.25 723.862 782.927 724.352 C 791.219 724.882 799.539 724.444 807.821 724.896 C 817.539 725.425 823.921 728.502 830.306 736.018 C 847.454 756.205 836.706 785.011 836.845 808.368 C 836.911 819.448 839.839 830.77 838.942 841.772 C 838.139 851.619 834.332 858.984 826.737 865.241 C 823.296 866.394 819.643 867.619 815.978 867.644 C 807.772 867.701 799.458 865.789 791.219 865.492 C 782.235 865.167 773.169 866.859 764.196 865.956 C 762.168 865.752 759.563 865.681 758.265 864.021 C 746.882 849.473 750.485 795.522 749.984 776.001 C 749.661 763.421 746.778 747.966 749.348 735.656 C 750.733 729.021 754.324 725.61 759.882 722.118 z" fill="rgb(229,218,207)" transform="translate(0,0)"></path>
<path d="M 1125.65 451.021 C 1129.1 450.761 1132.87 450.453 1136.32 450.786 C 1142.05 451.342 1153.05 460.39 1158.3 463.616 C 1168.9 470.13 1180.95 474.375 1191.28 481.174 C 1196.98 484.928 1201.04 491.786 1206.16 496.37 C 1211.51 501.154 1218.7 502.774 1224.01 507.5 C 1234.94 517.235 1244.49 530.697 1254.06 541.863 C 1238.05 556.306 1222.91 559.17 1205.25 569.788 C 1201.84 572.527 1199.36 576.24 1196.28 579.327 C 1193.35 582.273 1189.94 584.056 1185.7 583.996 C 1169.17 583.763 1147.59 556.281 1134.54 545.889 C 1130.45 542.634 1126.02 539.571 1121.21 537.514 C 1112.88 533.955 1101.3 532.575 1095.17 525.409 C 1093.16 523.054 1092.53 520.899 1092.93 517.827 C 1093.7 511.869 1113.59 466.274 1117.09 460.483 C 1119.47 456.561 1122.07 453.852 1125.65 451.021 z" fill="rgb(229,218,207)" transform="translate(0,0)"></path>
<path d="M 1266.21 790.404 C 1266.47 790.37 1266.72 790.324 1266.98 790.301 C 1275.7 789.516 1289.37 788.636 1296.33 794.987 C 1298.7 797.152 1299.16 798.84 1299.62 801.899 C 1301.5 814.437 1299.55 827.478 1299.59 840.108 C 1299.62 852.299 1301.1 864.449 1300.94 876.643 C 1300.7 893.801 1300.29 908.552 1287.28 921.182 C 1274.29 921.096 1261.21 923.131 1248.25 923.961 C 1240.32 924.262 1231.18 925.427 1223.52 923.115 C 1216.15 920.888 1212.76 916.033 1209.47 909.428 C 1210.42 897.895 1212.6 886.029 1212.64 874.478 C 1212.7 857.615 1205.08 809.523 1216.19 797.394 C 1223.27 789.667 1254.78 791.678 1266.21 790.404 z" fill="rgb(35,40,53)" transform="translate(0,0)"></path>
<path d="M 802.618 1125.4 C 810.433 1124.56 827.84 1123.37 833.995 1128.96 C 836.17 1130.94 838.331 1134.12 838.819 1137.03 C 840.965 1149.82 837.609 1165.08 837.22 1178.19 C 836.896 1189.08 838.266 1200.07 839.183 1210.91 C 840.232 1223.31 840.702 1235.82 831.781 1245.82 C 820.406 1258.57 798.225 1253.33 782.996 1254.14 C 775.937 1254.99 761.447 1257.29 755.197 1253.71 C 751.291 1251.48 749.072 1245.09 748.222 1240.97 C 745.56 1228.06 750.749 1215.61 751.073 1202.76 C 751.492 1186.06 742.164 1142.89 751.824 1130.4 C 753.762 1127.89 755.757 1127.1 758.777 1126.52 C 768.897 1124.59 789.364 1126.74 802.618 1125.4 z" fill="rgb(35,40,53)" transform="translate(0,0)"></path>
<path d="M 754.849 992.958 C 766.747 992.37 778.251 997.061 790.144 997.458 C 799.169 997.759 808.047 994.145 817.024 994.949 C 823.712 995.547 830.543 998.927 834.646 1004.31 C 836.999 1007.4 838.596 1011.38 838.893 1015.26 C 840.107 1031.12 837.246 1047.71 836.336 1063.55 C 835.816 1072.6 836.373 1081.72 836.682 1090.77 C 836.808 1094.46 837.36 1098.83 836.602 1102.43 C 835.422 1108.05 831.092 1112.86 826.589 1116.11 C 823.667 1117.24 820.56 1118.09 817.442 1118.46 C 803.046 1120.15 765.503 1123.94 754.552 1114.17 C 739.082 1100.38 750.47 1067.44 750.843 1049.65 C 751.093 1037.68 748.294 1025.6 748.057 1013.61 C 747.88 1004.67 748.596 999.516 754.849 992.958 z" fill="rgb(229,218,207)" transform="translate(0,0)"></path>
<path d="M 758.964 872.167 C 765.801 871.804 772.749 872.681 779.587 872.874 C 787.024 873.084 794.494 872.618 801.935 872.632 C 811.508 872.65 828.619 872.691 835.497 880.262 C 843.449 889.012 836.317 906.171 834.896 916.354 C 834.034 922.539 834.12 929.169 834.426 935.397 C 834.994 946.964 839.384 959.676 838.52 971.007 C 837.98 978.087 834.418 981.612 829.244 986.058 C 829.006 986.187 828.772 986.323 828.53 986.444 C 824.119 988.631 819.914 989.644 815.01 990.025 C 807.76 990.589 769.7 988.14 764.258 986.182 C 759.425 984.444 754.435 981.157 752.237 976.393 C 749.734 970.971 748.581 964.557 747.968 958.636 C 747.045 949.726 746.004 887.017 748.358 880.992 C 750.157 876.386 754.784 874.118 758.964 872.167 z" fill="rgb(35,40,53)" transform="translate(0,0)"></path>
<path d="M 1227.88 667.162 C 1238.09 665.947 1248.72 667.392 1258.98 667.643 C 1273.42 667.995 1287.71 666.811 1301.92 670.019 C 1302.32 685.844 1299.99 747.975 1295.7 760.806 C 1292.28 771.029 1286.77 776.834 1277.37 781.741 C 1275.36 782.488 1273.29 783.046 1271.18 783.407 C 1266.41 784.251 1228.14 785.005 1222.47 784.697 C 1219.36 784.527 1216.19 784.354 1213.62 782.446 C 1206.86 767.26 1211.62 746.688 1211.39 730.45 C 1211.18 715.425 1206.23 695.506 1212.03 681.08 C 1214.79 674.224 1221.59 670.197 1227.88 667.162 z" fill="rgb(229,218,207)" transform="translate(0,0)"></path>
<path d="M 575.014 467.759 C 576.472 467.915 576.996 467.934 578.435 468.238 C 581.606 468.909 584.012 471.196 586.302 473.338 C 597.186 483.52 606.237 496.186 616.426 507.132 C 631.714 523.554 650.402 539.084 663.103 557.566 C 677.043 577.852 676.249 596.076 675.983 619.482 C 675.902 626.565 676.862 634.443 675.34 641.345 C 674.551 644.927 673.447 645.989 670.438 647.997 C 657.196 642.853 644.677 628.173 633.459 619.459 C 625.021 612.903 615.992 607.133 607.83 600.209 C 598.354 592.17 577.761 573.808 573.1 563.083 C 571.213 558.741 571.331 552.832 571.654 548.193 C 572.344 538.299 574.883 528.612 575.203 518.653 C 575.552 507.787 571.865 496.447 571.03 485.549 C 570.513 478.815 570.423 473.075 575.014 467.759 z" fill="rgb(229,218,207)" transform="translate(0,0)"></path>
<path d="M 1144.74 1417.35 C 1148.01 1417.25 1150.81 1417.46 1153.99 1418.36 C 1169.18 1422.66 1172.05 1435.13 1179.68 1446.72 C 1183.55 1452.61 1188.41 1458.25 1191.59 1464.54 C 1193.51 1468.33 1194.97 1472.69 1193.66 1476.87 C 1190.98 1479.51 1188.65 1480.55 1184.95 1481.29 C 1177.57 1482.76 1169.05 1481.62 1161.5 1481.69 C 1149.24 1481.8 1137.01 1483.29 1124.74 1483.05 C 1108.16 1482.72 1091.3 1480.12 1074.74 1481.62 L 1073.24 1481.76 C 1063.75 1482.56 1053.38 1484.02 1043.95 1482.2 C 1036.08 1480.68 1031.94 1477.67 1027.46 1471.19 C 1025.64 1460.49 1021.87 1432.32 1028.81 1423.46 C 1036.39 1413.77 1106.28 1420.41 1120.31 1420.47 C 1128.32 1420.49 1136.82 1418.6 1144.74 1417.35 z" fill="rgb(250,97,35)" transform="translate(0,0)"></path>
<path d="M 1469.69 468.888 C 1472.08 469.871 1474.29 470.757 1475.74 473.093 C 1479.4 479.002 1475.4 488.464 1474.27 494.731 C 1470.58 515.266 1480.57 538.341 1473.46 558.286 C 1471.63 563.411 1468.57 568.091 1465.03 572.189 C 1453.51 585.503 1400.05 631.624 1384.07 639.53 C 1381.32 638.371 1378.46 636.9 1376.78 634.32 C 1375.57 632.478 1374.99 630.321 1374.91 628.142 C 1374.69 622.572 1375.87 617.01 1375.86 611.445 C 1375.84 604.306 1373.94 597.194 1374.11 590.047 C 1374.2 586.604 1374.91 583.009 1375.68 579.649 C 1380.5 558.59 1397.32 536.41 1412.7 521.831 C 1422.47 512.574 1433.46 504.597 1443.17 495.283 C 1451.74 487.057 1459.72 475.171 1469.69 468.888 z" fill="rgb(229,218,207)" transform="translate(0,0)"></path>
<path d="M 1250.67 1412.43 C 1265.98 1411.97 1283.38 1410.27 1298.27 1414.22 C 1304.61 1415.9 1310.25 1418.59 1315.6 1422.39 C 1320.82 1426.1 1359.19 1461.88 1361.29 1465.81 C 1362.8 1468.63 1362.67 1470.49 1361.8 1473.47 C 1355.11 1476.77 1329.89 1472.61 1321.12 1472.61 C 1310.52 1472.61 1299.84 1473.86 1289.29 1474.8 C 1276.39 1475.18 1263.58 1472.7 1250.68 1472.64 C 1239.42 1472.59 1223.96 1477.69 1213.43 1474.59 C 1210.16 1473.62 1207.47 1471.61 1205.09 1469.22 C 1198.98 1463.09 1178.23 1435.99 1175.5 1427.67 C 1174.37 1424.22 1175.58 1419.62 1176.77 1416.35 C 1181.86 1412.89 1190.55 1416.61 1196.54 1416.38 C 1214.57 1415.68 1232.61 1413.31 1250.67 1412.43 z" fill="rgb(250,97,35)" transform="translate(0,0)"></path>
<path d="M 733.59 1432.41 C 751.841 1430.03 769.527 1434.23 787.592 1435.15 C 795.264 1435.54 803.745 1433.62 811.407 1432.74 C 820.205 1431.74 842.697 1429.44 849.46 1435.38 C 851.921 1437.54 853.093 1440.62 853.11 1443.86 C 853.164 1454.28 844.573 1466.29 837.625 1473.64 C 823.239 1488.88 810.053 1491.47 789.751 1492.03 C 769.734 1493.61 750.642 1490.08 730.749 1489.57 C 718.561 1489.26 683.887 1494.23 674.471 1488.55 C 672.265 1487.21 670.25 1485.17 670.152 1482.43 C 669.897 1475.35 687.207 1464.21 692.021 1459.5 C 694.67 1456.92 696.92 1453.92 699.309 1451.1 C 709.756 1438.76 717.26 1433.7 733.59 1432.41 z" fill="rgb(35,40,53)" transform="translate(0,0)"></path>
<path d="M 1247.07 554.159 C 1251.68 553.585 1255.71 552.897 1259.66 555.929 C 1265.92 560.735 1289.7 608.498 1293.19 617.488 C 1296.05 624.856 1298.32 632.775 1299.1 640.66 C 1299.69 646.567 1300.04 654.622 1295.73 659.355 C 1291.76 663.725 1253.36 661.124 1244.25 661.854 C 1237.75 662.178 1230.45 663.261 1224.03 662.334 C 1218.95 661.601 1214.72 660.105 1211.66 655.842 C 1206.83 649.122 1193.31 619.4 1190.95 611.053 C 1189.5 605.935 1188.7 600.16 1189.65 594.872 C 1191.88 582.446 1220.11 571.579 1230.06 565.853 C 1236 562.437 1241.53 558.172 1247.07 554.159 z" fill="rgb(35,40,53)" transform="translate(0,0)"></path>
<path d="M 996.878 518.284 C 1013.3 516.606 1031.48 518.121 1047.75 520.98 C 1062.94 523.647 1071.98 529.641 1080.79 542.065 C 1082.71 555.379 1083.46 571.752 1081.23 585.013 C 1080.43 589.737 1078.91 596.396 1074.41 599.024 C 1069.5 601.893 1055.41 596.754 1049.78 595.289 C 1039.69 592.059 1029.26 589.546 1018.59 589.951 C 1006.74 590.402 979.936 601.784 971.517 596.68 C 968.551 594.882 966.972 591.554 966.13 588.316 C 963.273 577.318 963.243 541.185 969.232 532.096 C 975.187 523.056 986.902 520.183 996.878 518.284 z" fill="rgb(35,40,53)" transform="translate(0,0)"></path>
<path d="M 1099.6 537.046 C 1111.2 540.065 1161.38 575.477 1169.27 585.455 C 1179.99 599.008 1176.17 612.563 1174.56 627.957 C 1173.95 633.723 1174.22 639.553 1173.49 645.31 C 1172.55 652.689 1169.62 657.557 1163.73 661.988 C 1162.73 661.863 1162.4 661.855 1161.35 661.544 C 1153.47 659.217 1148.57 646.757 1143.06 640.86 C 1136.9 634.258 1129.32 628.539 1121.7 623.733 C 1114.29 619.064 1092.8 611.679 1089.4 604.142 C 1086.32 597.332 1086.75 547.039 1089.12 542.611 C 1090.9 539.281 1096.35 538.077 1099.6 537.046 z" fill="rgb(214,170,127)" transform="translate(0,0)"></path>
<path d="M 947.405 539.089 C 949.759 539.501 951.712 539.718 953.648 541.26 C 954.973 542.316 955.727 544.131 955.919 545.803 C 956.32 549.312 955.884 552.92 956.282 556.455 C 957.184 564.486 959.174 572.392 960.004 580.439 C 963.59 615.214 934.501 615.506 912.826 632.198 C 901.702 640.764 893.064 653.481 884.33 664.362 C 880.348 660.934 877.399 656.378 875.58 651.467 C 870.234 637.035 868.534 616.133 875.115 602 C 884.35 582.166 901.043 572.435 917.513 559.617 C 927.361 551.953 935.345 543.327 947.405 539.089 z" fill="rgb(214,170,127)" transform="translate(0,0)"></path>
<path d="M 1000.69 1380.41 C 1007.23 1379.92 1013.47 1380.56 1019.97 1381.22 C 1020.06 1391.41 1022.16 1413.97 1015.26 1422.14 C 1012.08 1425.92 1006.94 1427.39 1002.23 1428.14 C 993.012 1429.6 982.586 1428.35 973.219 1428.11 C 949.695 1427.49 926.792 1425.98 903.247 1427.54 C 898.43 1427.94 891.766 1428.75 887.51 1426.01 C 885.181 1424.51 883.694 1421.61 883.291 1418.97 C 882.2 1411.81 892.417 1398.29 896.912 1392.87 C 913.342 1373.04 942.393 1382.83 964.628 1383.09 C 976.664 1383.23 988.733 1381.65 1000.69 1380.41 z" fill="rgb(214,170,127)" transform="translate(0,0)"></path>
<path d="M 705.609 859.704 C 713.183 864.066 733.142 870.28 736.708 877.58 C 738.374 880.991 739.011 885.173 739.4 888.914 C 740.242 896.999 739.077 905.335 739.523 913.474 C 740.114 924.234 741.94 934.917 741.598 945.729 C 741.451 950.403 740.945 955.152 739.408 959.592 C 737.869 964.04 736.149 966.916 731.784 968.931 C 722.265 969.398 709.697 960.454 701.37 956.03 C 694.771 952.663 687.872 949.917 681.04 947.065 C 680.924 943.655 680.847 940.404 681.241 937.011 C 683.222 934.321 685.834 936.116 688.943 934.086 C 691.225 929.733 690.758 922.811 690.939 917.911 C 691.098 913.616 691.214 908.273 687.631 905.179 C 683.145 901.303 663.502 903.948 657.017 903.807 C 682.574 887.919 687.675 884.744 705.609 859.704 z" fill="rgb(229,218,207)" transform="translate(0,0)"></path>
<path d="M 688.538 585.922 C 695.637 587.432 700.758 591.507 705.961 596.372 C 719.673 609.193 736.306 629.012 742.045 647.219 C 744.731 655.74 745.32 665.159 745.581 674.042 C 745.92 685.542 745.34 696.815 737.019 705.566 C 723.164 703.273 697.89 679.31 689.83 667.705 C 687.647 664.562 686.123 661.384 685.244 657.658 C 682.321 645.275 680.3 604.775 682.87 593.059 C 683.676 589.385 685.524 587.897 688.538 585.922 z" fill="rgb(214,170,127)" transform="translate(0,0)"></path>
<path d="M 1359.62 579.684 C 1360.54 579.695 1362.14 579.669 1363.01 579.884 C 1364.97 580.375 1366.29 581.561 1367.33 583.234 C 1368.1 584.474 1368.38 585.832 1368.48 587.274 C 1369.05 595.414 1367.74 603.826 1367.77 612.007 C 1367.8 621.023 1369.3 630.148 1368.85 639.144 C 1368.62 643.875 1367.91 649.333 1366.52 653.886 C 1364.01 662.058 1327.05 694.494 1318.85 699.226 C 1315.16 699.201 1313.69 699.053 1310.57 696.97 C 1304.96 688.19 1306.99 666.605 1308.2 656.444 C 1311.21 631.333 1324.22 616.367 1340.79 598.589 C 1346.8 592.141 1352.69 585.138 1359.62 579.684 z" fill="rgb(229,218,207)" transform="translate(0,0)"></path>
<path d="M 548.262 986.435 C 557.113 985.982 566.071 986.173 574.936 986.093 C 575.037 1010.62 574.042 1035.12 573.978 1059.65 C 573.922 1081.24 574.95 1103 574.107 1124.56 C 573.936 1128.95 574.156 1136.56 571.828 1140.29 C 563.169 1140.62 554.485 1140.65 545.82 1140.8 C 546.322 1106.77 546.256 1072.74 545.621 1038.72 C 545.479 1023.86 543.774 1001.79 546.034 987.529 L 548.262 986.435 z" fill="rgb(35,40,53)" transform="translate(0,0)"></path>
<path d="M 1472.96 986.729 C 1482.27 986.839 1491.58 987.1 1500.88 987.513 C 1501.59 1038.26 1501.13 1089.02 1499.51 1139.75 C 1490.96 1140.42 1482.09 1139.98 1473.5 1140.01 C 1471.29 1115.18 1472.82 1089.22 1473.2 1064.32 C 1473.35 1038.45 1473.27 1012.59 1472.96 986.729 z" fill="rgb(35,40,53)" transform="translate(0,0)"></path>
<path d="M 1112.79 1380.42 C 1124.18 1380.38 1131.75 1383.21 1141.68 1388.29 C 1143.37 1393.65 1149.75 1403.56 1148.06 1408.69 C 1139.65 1413.34 1077.06 1412.78 1064.75 1412.58 C 1055.18 1411.9 1038.18 1415.12 1030.61 1408.97 C 1027.15 1406.16 1025.27 1401.36 1025.13 1396.97 C 1025.02 1393.61 1026.35 1390.66 1028.65 1388.27 C 1032.32 1384.44 1038.01 1382.51 1043.11 1381.64 C 1054.94 1379.62 1067.89 1381.57 1079.87 1381.7 C 1090.84 1381.83 1101.84 1381.05 1112.79 1380.42 z" fill="rgb(214,170,127)" transform="translate(0,0)"></path>
<path d="M 618.734 978.02 C 628.807 978.144 638.765 978.194 648.83 978.715 C 649.271 987.445 650.159 995.223 649.16 1004 C 648.376 1010.64 646.679 1017.13 644.118 1023.3 C 637.251 1040.24 623.521 1056.19 606.48 1063.24 C 605.412 1063.69 604.328 1064.1 603.256 1064.53 C 595.297 1067.45 587.251 1068.42 578.874 1069.36 L 579.107 1041.61 C 586.911 1039.74 593.683 1037.4 600.548 1033.07 C 610.488 1026.79 616.547 1017.57 618.907 1005.99 C 620.813 996.642 620.374 987.38 618.734 978.02 z" fill="rgb(35,40,53)" transform="translate(0,0)"></path>
<path d="M 1397.98 978.928 C 1408.61 979.175 1419.2 979.564 1429.84 979.622 C 1428.14 994.486 1427.52 1009.85 1437.02 1022.47 C 1437.39 1022.95 1437.78 1023.43 1438.15 1023.91 C 1449.09 1038.13 1466.73 1040.31 1467.73 1041.41 C 1469.58 1043.46 1468.94 1064.93 1468.94 1068.86 C 1464.3 1070.21 1458.57 1068.36 1453.98 1067.31 C 1438.94 1063.84 1425.15 1055.49 1415.84 1043.03 C 1408.55 1033.27 1403.52 1022.48 1401.15 1010.49 C 1400.79 1008.68 1400.34 1006.82 1400.08 1004.99 C 1398.82 996.295 1398.13 987.724 1397.98 978.928 z" fill="rgb(35,40,53)" transform="translate(0,0)"></path>
<path d="M 1416.72 817.598 C 1417.75 818.501 1418.39 819.222 1419.11 820.395 C 1426.55 832.509 1437.07 844.397 1438.49 859.07 C 1439.61 870.648 1434.96 884.714 1427.48 893.489 C 1423.44 898.225 1419.59 898.971 1413.73 899.413 L 1411.76 898.936 L 1409.78 898.431 C 1407.82 897.945 1406.02 897.506 1404.19 896.645 C 1398.26 893.864 1393.41 886.606 1391.49 880.53 C 1385.61 861.882 1396.93 849.229 1406.69 834.866 C 1410.43 829.363 1413.54 823.431 1416.72 817.598 z" fill="rgb(250,97,35)" transform="translate(0,0)"></path>
<path d="M 880.854 1379.97 C 883.549 1380.02 885.66 1379.95 887.65 1382.1 C 889.154 1383.72 889.788 1385.79 889.76 1387.98 C 889.637 1397.66 877.872 1412.83 870.731 1419.15 C 867.978 1421.58 864.332 1424.35 860.666 1425.15 C 856.244 1426.12 850.959 1425.92 846.429 1426.14 C 827.856 1427.07 810.255 1425.48 791.818 1425.22 C 777.695 1425.03 763.676 1426.74 749.526 1426.03 C 747.592 1425.44 745.895 1424.59 744.092 1423.68 C 742.568 1421.31 742.533 1421.41 742.989 1418.64 C 746.856 1413.54 752.392 1411.62 758.162 1409.45 C 766.726 1411.13 775.439 1412.97 784.165 1413.54 C 793.367 1414.14 802.785 1412.68 811.994 1412.33 C 820.143 1412.02 828.486 1412.87 836.571 1411.71 C 839.132 1411.34 841.134 1410.76 843.268 1409.25 C 846.153 1407.2 848.929 1403.58 851.416 1400.98 C 860.63 1391.38 868.455 1385.06 880.854 1379.97 z" fill="rgb(214,170,127)" transform="translate(0,0)"></path>
<path d="M 630.691 817.759 C 633.54 820.664 635.394 824.965 637.707 828.369 C 645.114 839.272 654.142 849.568 657.641 862.59 C 660.108 871.77 658.414 879.752 653.726 887.886 C 649.541 895.149 646.781 896.437 638.864 898.604 C 635.182 898.521 631.623 898.088 627.967 897.717 C 621.016 892.973 616.023 887.597 613.008 879.505 C 602.575 851.51 620.218 840.84 630.691 817.759 z" fill="rgb(250,97,35)" transform="translate(0,0)"></path>
<path d="M 1199.27 948.693 C 1200.25 949.783 1201.39 951.007 1202.08 952.305 C 1204.69 957.262 1201.14 991.787 1201.15 1000.11 C 1201.17 1011.41 1202.86 1022.58 1203.19 1033.85 C 1203.48 1044.3 1202.27 1054.83 1202.07 1065.28 C 1201.88 1075.25 1202.85 1085.45 1202.11 1095.37 C 1201.98 1097.15 1201.42 1098.87 1200.67 1100.49 C 1198.72 1104.72 1195.86 1105.85 1191.72 1107.26 C 1189.44 1105.88 1186.19 1103.68 1185.41 1100.93 C 1183.63 1094.64 1185.36 1083.22 1185.26 1076.49 C 1184.74 1043.46 1183.12 1010.1 1183.9 977.09 C 1183.96 974.165 1184.11 971.292 1185.3 968.573 C 1185.47 968.184 1185.68 967.81 1185.86 967.426 C 1188.97 960.907 1196.16 956.636 1198.68 950.318 C 1198.89 949.782 1199.07 949.234 1199.27 948.693 z" fill="rgb(229,218,207)" transform="translate(0,0)"></path>
<path d="M 1190.97 1246.53 C 1191.29 1246.69 1191.63 1246.81 1191.93 1246.99 C 1197.59 1250.43 1202.72 1256.92 1204.02 1263.45 C 1208.13 1284.03 1203.7 1308.21 1202.86 1329.13 C 1202.36 1341.84 1203.22 1354.04 1204.24 1366.7 C 1204.66 1371.96 1207.07 1387.15 1204.41 1391.26 L 1202.1 1390.45 C 1196.12 1383.2 1187.72 1373.08 1186.02 1363.67 C 1182.11 1341.87 1185.24 1318.17 1184.93 1296.13 C 1184.78 1285.62 1182.47 1274.34 1183.7 1263.94 C 1184.5 1257.2 1187.17 1252.05 1190.97 1246.53 z" fill="rgb(229,218,207)" transform="translate(0,0)"></path>
<path d="M 862.712 629.705 C 867.111 635.211 865.133 646.144 867.79 653.064 C 870.509 660.143 875.408 667.199 879.098 673.868 C 865.714 699.889 864.404 723.037 861.744 751.72 C 857.954 746.071 853.227 740.984 849.667 735.22 C 839.693 719.069 847.134 665.464 851.764 646.91 C 853.708 639.118 855.725 633.968 862.712 629.705 z" fill="rgb(35,40,53)" transform="translate(0,0)"></path>
<path d="M 1200.72 808.606 C 1202.56 810.292 1202.03 809.406 1202.85 811.747 C 1204.39 816.1 1204.63 820.979 1204.71 825.568 C 1204.95 839.64 1202.58 853.691 1202.24 867.759 C 1201.81 885.151 1205.28 904.892 1201.6 921.909 C 1199.45 931.836 1192.58 942.779 1188.28 952.056 L 1186.68 951.659 C 1185.83 950.715 1185.2 949.84 1184.85 948.592 C 1182.08 938.733 1182.41 848.994 1185.46 838.205 C 1188.39 827.855 1195.33 817.858 1200.72 808.606 z" fill="rgb(35,40,53)" transform="translate(0,0)"></path>
<path d="M 1364.05 908.082 C 1398.56 907.059 1433.28 908.096 1467.82 907.956 C 1467.98 915.73 1467.76 923.472 1467.52 931.242 C 1434.25 926.305 1399.33 933.387 1366.13 928.984 C 1362.71 924.533 1364.04 913.8 1364.05 908.082 z" fill="rgb(35,40,53)" transform="translate(0,0)"></path>
<path d="M 579.854 908.157 C 615.262 907.437 650.811 908.613 686.28 907.967 C 686.234 915.522 686.023 923.076 685.645 930.622 L 682.002 929.964 C 669.956 927.754 655.793 929.1 643.533 929.212 C 622.213 929.221 600.894 929.607 579.587 930.37 C 579.191 922.986 579.618 915.544 579.854 908.157 z" fill="rgb(35,40,53)" transform="translate(0,0)"></path>
<path d="M 859.742 1245.49 C 861.592 1246.72 862.168 1247.1 862.73 1249.46 C 864.616 1257.35 860.043 1278.27 859.975 1287.8 C 859.906 1297.63 861.941 1307.55 862.856 1317.33 C 864.278 1332.52 865.525 1359.64 860.15 1373.6 C 857.276 1381.07 852.362 1387.48 847.777 1393.96 L 846.98 1395.02 L 845.842 1394.48 C 843.807 1384.69 845.591 1362.56 845.567 1351.47 C 845.515 1327.5 844.243 1303.21 845.049 1279.28 C 845.542 1264.65 848.997 1255.46 859.742 1245.49 z" fill="rgb(229,218,207)" transform="translate(0,0)"></path>
<path d="M 1191.13 1115 C 1193.98 1115.13 1197.22 1115.22 1199.76 1116.6 C 1202.07 1117.85 1202.43 1121.07 1202.86 1123.41 C 1206.84 1145.05 1200.06 1168.31 1199.82 1190.15 C 1199.68 1203.13 1204.37 1215.82 1202.98 1228.89 C 1202.48 1233.54 1200.47 1236.51 1197.84 1240.29 C 1196.79 1240.95 1195.67 1241.31 1194.52 1241.75 C 1193.12 1241.15 1191.99 1240.61 1191.02 1239.38 C 1186.9 1234.14 1185.21 1226.92 1184.3 1220.44 C 1182.33 1206.4 1182.39 1135.83 1184.87 1122.38 C 1185.62 1118.29 1187.89 1117.14 1191.13 1115 z" fill="rgb(35,40,53)" transform="translate(0,0)"></path>
<path d="M 1186.76 623.818 C 1188.88 623.878 1191.25 623.542 1192.99 624.97 C 1198.63 629.591 1202.16 643.978 1202.96 651.005 C 1206.02 677.741 1200.02 689.772 1187.31 712.562 C 1187.15 712.768 1187 712.981 1186.83 713.18 C 1186.67 713.371 1186.71 713.348 1186.55 713.347 C 1186.11 712.879 1185.95 712.279 1185.81 711.663 C 1185.73 711.313 1185.68 710.957 1185.61 710.606 C 1185.49 710.066 1185.36 709.531 1185.26 708.989 C 1182.87 696.323 1178.26 687.074 1171.32 676.326 C 1171.47 675.857 1171.6 675.386 1171.75 674.919 C 1173.89 668.198 1174.72 662.339 1175.8 655.493 C 1176.1 653.629 1176.46 651.838 1176.8 649.987 C 1176.98 648.996 1177.12 647.994 1177.33 647.009 C 1178.98 639.497 1180.68 632.856 1185 626.356 C 1185.57 625.501 1186.18 624.666 1186.76 623.818 z" fill="rgb(35,40,53)" transform="translate(0,0)"></path>
<path d="M 857.501 1123.55 C 858.795 1124.46 858.807 1124.4 859.817 1125.31 C 863.937 1129.02 863.992 1132.45 864.165 1137.64 C 864.765 1155.66 865.891 1204.52 863.272 1220.06 C 862.217 1226.31 860.136 1234.42 855.409 1238.97 C 854.006 1240.32 853.673 1239.92 851.846 1239.94 C 849.305 1235.82 847.561 1231.56 847.096 1226.7 C 845.786 1213 849.464 1199.37 849.1 1185.68 C 848.72 1171.4 844.27 1157.12 845.312 1142.79 C 846.03 1132.91 850.411 1129.68 857.501 1123.55 z" fill="rgb(35,40,53)" transform="translate(0,0)"></path>
<path d="M 845.726 750.981 C 846.621 743.33 848.311 749.087 849.831 752.717 C 851.175 754.472 862.053 776.347 862.444 778.972 C 866.138 803.824 857.426 828.951 859.414 853.923 C 859.798 858.741 861.457 880.091 858.63 882.929 L 856.527 882.74 C 841.346 870.48 846.844 838.824 846.816 820.693 C 846.785 801.235 842.167 769.645 845.726 750.981 z" fill="rgb(229,218,207)" transform="translate(0,0)"></path>
<path d="M 845.726 750.981 C 846.621 743.33 848.311 749.087 849.831 752.717 C 847.936 753.136 846.337 754.305 845.977 752.197 L 845.726 750.981 z" fill="rgb(217,212,213)" transform="translate(0,0)"></path>
<path d="M 849.201 1006.78 C 849.423 1006.98 849.685 1007.14 849.867 1007.38 C 853.751 1012.39 857.562 1015.7 862.593 1019.66 C 862.505 1031.97 859.006 1043.93 859.122 1056.18 C 859.213 1065.75 861.225 1075.43 862.131 1084.96 C 862.959 1093.68 862.816 1102.45 862.752 1111.2 L 856.454 1115.14 C 854.671 1116.6 852.955 1118.3 850.652 1118.83 C 849.277 1119.15 847.988 1118.35 846.929 1117.52 C 845.476 1116.37 845.019 1114.39 844.691 1112.66 C 842.489 1101.05 845.221 1089.05 845.258 1077.35 C 845.322 1057.28 838.02 1024.26 849.201 1006.78 z" fill="rgb(229,218,207)" transform="translate(0,0)"></path>
<path d="M 848.286 880.731 C 849.185 881.812 848.959 881.373 849.462 882.55 C 853.07 890.985 855.379 896.306 863.027 901.876 C 863.045 922.655 860.983 943.407 861.041 964.099 C 861.084 979.235 865.008 993.092 862.691 1008.37 C 857.748 1004.04 853.276 996.064 850.38 990.185 C 848.255 985.869 847.015 982.015 846.429 977.253 C 844.623 962.546 846.34 946.848 846.202 932 C 846.085 919.481 844.265 906.817 845.137 894.313 C 845.47 889.55 846.775 885.221 848.286 880.731 z" fill="rgb(35,40,53)" transform="translate(0,0)"></path>
<path d="M 1202.29 701.558 L 1203.37 702.6 C 1203.6 703.459 1203.76 777.042 1203.32 780.864 C 1202.38 788.712 1200.11 796.343 1196.62 803.435 C 1194.38 807.871 1192.06 813.659 1187.22 815.266 C 1186.47 814.432 1185.67 813.58 1185.33 812.476 C 1184.97 811.315 1184.06 747.107 1184.17 741.218 C 1184.24 737.62 1184.39 733.711 1185.33 730.231 C 1188.01 720.267 1196.62 710.104 1202.29 701.558 z" fill="rgb(229,218,207)" transform="translate(0,0)"></path>
<path d="M 1375.61 934.377 C 1402.34 934.085 1429.08 934.114 1455.81 934.463 C 1455.96 938.839 1456.36 943.159 1456.59 947.506 C 1456.63 948.269 1456.25 948.533 1455.74 949.079 L 1403.16 949.242 C 1394.96 949.254 1386.1 949.86 1377.98 948.984 C 1377.02 948.88 1375.15 948.379 1374.61 947.527 C 1372.85 944.763 1374.17 940.359 1374.83 937.465 C 1375.07 936.43 1375.3 935.394 1375.61 934.377 z" fill="rgb(35,40,53)" transform="translate(0,0)"></path>
<path d="M 595 935.26 C 613.354 934.558 631.861 934.99 650.233 935.014 C 657.775 935.024 666.706 933.97 674.055 935.114 C 674.787 935.228 675.268 935.519 675.669 936.146 C 677.06 938.324 677.55 944.748 676.854 947.032 C 676.564 947.984 675.576 948.346 674.785 948.794 C 667.295 948.935 595.891 949.945 593.838 948.255 C 592.351 947.031 591.995 945.32 591.919 943.493 C 591.756 939.51 592.35 938.222 595 935.26 z" fill="rgb(35,40,53)" transform="translate(0,0)"></path>
<path d="M 1146.75 1381.24 C 1158.71 1380.58 1176.43 1377.81 1186.62 1384.61 C 1190.59 1387.26 1204.13 1397.89 1204.19 1402.96 C 1204.2 1403.99 1201.93 1405.44 1201.36 1405.91 C 1189.7 1409.57 1176.65 1410.27 1165 1405.92 C 1154.07 1401.84 1151.17 1390.89 1146.75 1381.24 z" fill="rgb(250,97,35)" transform="translate(0,0)"></path>
<path d="M 1389.87 953.626 L 1438.05 954.044 C 1437.75 960.671 1437.31 967.255 1436.85 973.87 C 1435.62 974.213 1434.81 974.354 1433.53 974.327 C 1419 974.022 1404.41 974.001 1389.88 974.025 C 1389.82 967.209 1389.71 960.445 1389.87 953.626 z" fill="rgb(35,40,53)" transform="translate(0,0)"></path>
<path d="M 608.98 954.408 L 658.01 954.042 C 658.046 960.505 658.738 967.632 657.575 973.983 C 641.766 974.058 625.954 973.151 610.159 973.569 C 610.023 967.746 609.775 962.051 609.158 956.259 C 609.093 955.643 609.039 955.025 608.98 954.408 z" fill="rgb(35,40,53)" transform="translate(0,0)"></path>
<path d="M 592.364 747.763 C 593.376 748.954 594.285 750.089 594.926 751.53 C 596.867 755.896 595.257 758.177 593.538 762.448 C 593.211 762.547 592.887 762.728 592.558 762.603 C 592.047 761.925 592.103 760.835 592.189 760.038 C 592.643 755.837 592.659 751.981 592.364 747.763 z" fill="rgb(217,212,213)" transform="translate(0,0)"></path>
<path d="M 1385.47 770.861 C 1386.03 773.206 1387.09 776.438 1387.14 778.693 L 1386.52 779.263 L 1387 779.902 C 1386.76 780.236 1386.89 780.152 1386.64 780.233 C 1385.54 779.586 1384.36 773.457 1383.97 772.017 L 1385.47 770.861 z" fill="rgb(110,104,107)" transform="translate(0,0)"></path>
<path d="M 666.929 765.953 C 665.129 776.631 662.398 773.769 665.917 765.655 L 666.929 765.953 z" fill="rgb(35,40,53)" transform="translate(0,0)"></path>
<path d="M 1381.51 766.733 L 1383.81 762.8 C 1384.29 765.774 1384.75 767.942 1385.47 770.861 L 1383.97 772.017 C 1383.1 769.71 1382.69 768.888 1381.51 766.733 z" fill="rgb(217,212,213)" transform="translate(0,0)"></path>
<path d="M 1444.67 903.712 C 1442.07 903.264 1437.51 902.797 1442.69 900.859 L 1443.93 900.365 L 1444.67 903.712 z" fill="rgb(217,212,213)" transform="translate(0,0)"></path>
<metadata><recraft-signature>{"signed_by": "recraft", "signature_b64": "Pia7uvkhwh4Cu79x9fkYyh4LCKvu5ryKilDSoSHZrJ35oroIHRRuUvrKp+ofkNOqEddOFs0vreBl9jTrMJN4AQ==", "signing_algo": "Ed25519", "generation_timestamp": 1776360757, "identifier": "15befc73-e983-4767-ad4f-4e7a3f0393be"}</recraft-signature></metadata></svg>