<svg xmlns="http://www.w3.org/2000/svg" height="1024" preserveAspectRatio="none" style="display: block;" version="1.1" viewBox="0 0 2048 2048" width="1024">
<path d="M 0 0 L 414.201 0 L 428.43 0 L 762.521 0 L 777.461 0 L 1274 0 L 1288.7 0 L 1619.68 0 L 1637.77 0 L 2048 0 L 2048 53.2368 L 2048 73.0909 L 2048 490.915 L 2048 513.931 L 2048 1463.4 L 2048 1478.4 L 2048 1982.72 L 2048 2005.5 L 2048 2048 L 1547.47 2048 L 1530.81 2048 L 1033.14 2048 L 1016.92 2048 L 521.527 2048 L 500.375 2048 L 0 2048 L 0 2010.11 L 0 1981.36 L 0 1482.64 L 0 1463.84 L 0 513.055 L 0 494.201 L 0 68.8535 L 0 46.7635 L 0 0 z" fill="rgb(28,26,26)" transform="translate(0,0)"></path>
<path d="M 0 513.055 C 16.1076 523.585 29.5672 528.628 46.5703 537.063 C 61.8531 544.644 76.8824 556.801 92.2906 564.615 C 108.973 572.878 125.772 581.211 142.407 589.602 C 149.966 593.415 160.816 596.471 168.937 600.361 C 177.058 604.25 184.282 608.93 192.03 612.737 L 155.516 714.541 C 151.424 725.976 135.424 770.966 129.792 779.214 C 131.73 782.433 160.552 836.868 160.648 837.289 C 157.101 840.922 145.033 837.405 145.028 847.016 C 145.026 852.409 148.871 863.886 150.449 869.364 C 158.276 897.432 164.997 925.795 170.597 954.39 C 174.222 972.958 176.416 992.053 181.548 1010.52 C 165.212 1010.66 148.287 1011.07 132.009 1010.97 C 132.283 999.496 133.678 986.203 134.587 975.158 C 135.626 962.526 93.0754 967.646 86.9613 971.347 C 81.3343 982.102 87.2181 1111.94 85.6721 1132.43 C 85.2521 1137.99 87.1363 1147.26 88.7557 1152.82 C 100.717 1149 123.659 1142.58 134.631 1138.33 C 134.456 1125.16 134.273 1112.2 134.473 1099.02 C 134.665 1086.45 136.852 1071.48 135.226 1059.23 L 135.18 1058.86 C 151.375 1052.51 166.989 1045.77 182.998 1039.38 C 192.074 1049.91 186.974 1093.84 204.695 1104.88 C 209.592 1105.23 209.943 1103.08 215.099 1100.54 C 218.685 1094.81 219.377 1086.36 221.764 1079.98 C 228.653 1061.54 232.18 1043.85 236.575 1024.89 L 250.8 964.541 C 259.883 926.588 269.862 887.582 281.347 850.327 C 282.883 845.344 281.84 839.944 277.09 837.202 C 273.792 836.808 271.643 836.674 268.322 836.58 C 275.575 824.572 283.383 812.193 288.404 799.12 C 292.16 789.342 296.237 782.625 301.373 773.711 C 289.067 758.556 278.529 713.948 271.044 694.13 C 265.202 678.663 259.188 662.225 253.109 646.854 C 263.162 652.992 322.434 679.906 323.957 686.381 C 326.524 697.293 324.914 711.464 324.744 722.806 C 324.538 736.587 325.172 750.438 324.664 764.196 C 324.029 781.411 322.259 798.491 322.154 815.749 L 320.051 971.247 C 319.981 984.513 321.763 999.467 321.37 1012.32 C 319.493 1073.64 321.613 1137.91 319.132 1198.79 C 318.316 1218.81 320.47 1317.91 314.934 1329.3 C 303.262 1337.29 276.314 1348.15 262.886 1353.84 L 180.417 1388.49 C 130.792 1409.63 81.6702 1432.55 31.1857 1451.24 C 20.7844 1455.09 10.4414 1460.44 0 1463.84 L 0 513.055 z" fill="rgb(242,238,232)" transform="translate(0,0)"></path>
<path d="M 2048 513.931 L 2048 1463.4 C 1999.61 1444.09 1952.42 1419.49 1903.57 1400.95 C 1897.67 1398.71 1884.96 1391.18 1879.96 1390.08 C 1864.57 1386.68 1854.48 1380.89 1840.44 1374.72 C 1804.26 1358.5 1767.8 1342.93 1731.07 1328.02 C 1730.82 1294.28 1733.4 1260.29 1732.61 1226.5 C 1731.89 1195.45 1729.41 1164.05 1729.61 1133.01 C 1729.75 1110.08 1731.06 1086.99 1731.46 1064.03 C 1732.01 1033.24 1731.25 1002.38 1731.68 971.618 C 1732.2 934.762 1733.09 897.866 1732.81 860.993 C 1732.72 849.561 1731.57 838.135 1731.33 826.7 C 1730.86 804.81 1731.12 782.916 1730.37 761.028 C 1729.71 741.555 1726.23 699.038 1730.43 681.451 C 1731.02 678.974 1731.52 677.2 1733.8 675.84 C 1737.8 673.463 1743.4 672.375 1747.75 670.352 C 1766.6 661.586 1784.75 653.41 1802.7 642.794 C 1785.16 687.369 1768.94 736.027 1755.77 782.044 C 1755.61 782.636 1786.17 833.543 1789.66 838.329 C 1782.55 841.735 1779.96 843.757 1774.53 849.042 C 1775.43 858.38 1779.21 867.027 1780.83 876.048 C 1787.89 914.196 1800.77 949.993 1807.81 988.206 C 1813.89 1021.2 1821.41 1054.56 1828.24 1087.46 C 1829.24 1092.28 1831.99 1096.48 1834.6 1100.6 C 1836.84 1101.2 1839.08 1101.78 1841.33 1102.33 C 1857.57 1106.28 1858.51 1083.76 1860.67 1072.04 C 1862.63 1061.38 1864.12 1050.54 1866.05 1039.81 C 1880.9 1046.03 1903.38 1051.61 1916.37 1058.15 C 1915.49 1071.96 1916.57 1084.71 1916.78 1098.5 C 1916.98 1112.31 1916.54 1126.38 1916.11 1140.19 C 1933.33 1143.49 1946.95 1149.09 1963.85 1153.09 C 1968.49 1132.83 1966.89 1096.27 1967.22 1073.94 C 1967.63 1053.37 1967.7 1032.8 1967.41 1012.22 C 1967.35 997.232 1969.21 980.625 1962.61 967.119 C 1908.35 965.684 1921.04 960.668 1916.77 1008.85 C 1908.55 1008.21 1878.91 1009 1874.31 1006.6 C 1873.73 996.989 1880.52 967.633 1881.82 956.396 C 1886.23 918.174 1900.01 882.69 1906.81 845.03 C 1905.03 843.642 1893.67 841.48 1890.25 840.646 C 1899.67 825.891 1914.52 799.148 1919.59 781.596 C 1921.63 774.519 1911.88 753.36 1909.3 744.995 C 1903.95 724.278 1893.07 704.244 1886.56 684.342 C 1878.36 659.236 1869.06 635.454 1859.91 610.748 C 1877.7 600.541 1892.81 595.706 1911.03 587.182 C 1943.65 571.93 1974.58 554.278 2005.62 536.099 C 2019.32 528.08 2034.09 521.739 2048 513.931 z" fill="rgb(242,238,232)" transform="translate(0,0)"></path>
<path d="M 0 68.8535 C 22.0336 82.3028 47.3419 106.457 66.2067 124.067 C 84.5352 141.12 103.066 157.953 121.794 174.565 L 211.33 252.665 C 221.737 261.805 234.269 274.508 244.463 282.623 C 272.165 304.675 295.898 323.042 322.133 347.134 C 319.032 357.054 323.364 366.005 322.823 376.342 C 320.319 424.201 320.56 472.291 321.937 520.18 C 324.219 568.675 320.815 616.23 322.595 664.646 C 294.922 651.402 271.169 639.427 244.622 623.68 C 237.564 607.794 219.395 557.573 216.85 542.089 C 209.919 560.143 205.677 581.919 198.574 598.895 C 177.096 586.994 155.828 576.757 134.03 565.605 C 104.67 550.586 75.426 532.998 45.7568 518.748 C 33.6645 512.94 10.9213 498.219 0 494.201 L 0 68.8535 z" fill="rgb(238,108,75)" transform="translate(0,0)"></path>
<path d="M 1732.79 345.01 C 1744.91 331.985 1754.14 326.139 1767.94 315.096 C 1780.56 304.819 1793.03 294.354 1805.33 283.703 L 1988.89 121.021 C 2000.94 110.434 2013.16 102.287 2025.84 92.6054 C 2033.15 87.0315 2041.16 79.4192 2048 73.0909 L 2048 490.915 C 2041.24 495.05 2034.69 501.011 2027.84 505.357 C 1972.9 540.218 1912.72 565.785 1855.06 595.292 C 1846.1 579.991 1846.25 561.514 1839.65 547.858 L 1838.33 547.758 C 1833.25 553.113 1815.18 610.405 1809.15 623.963 C 1785.28 632.878 1755.68 650.458 1731.03 662.345 C 1730.5 609.452 1733.36 557.711 1733.03 504.989 C 1732.78 466.409 1730.15 429.739 1731.83 391.19 C 1732.36 375.802 1732.69 360.407 1732.79 345.01 z" fill="rgb(238,108,75)" transform="translate(0,0)"></path>
<path d="M 224.106 1803.74 C 240.067 1805.05 258.44 1806.65 274.38 1806.57 C 286.268 1806.51 301.384 1803.53 313.614 1803.95 C 351.197 1805.25 394.244 1807.24 431.661 1806.72 L 542.491 1804.52 C 553.801 1804.26 567.221 1802.42 578.325 1802.74 C 596.794 1803.27 613.77 1805.55 632.517 1805.71 C 597.049 1869.07 562.197 1932.77 527.965 1996.8 C 521.178 2009.63 503.971 2037.21 500.375 2048 L 0 2048 L 0 2010.11 C 59.1402 1954.75 119.332 1899.45 180.835 1846.73 C 195.876 1833.84 207.44 1817.26 224.106 1803.74 z" fill="rgb(14,65,123)" transform="translate(0,0)"></path>
<path d="M 1419.72 1805.44 C 1429.8 1806.11 1435.38 1802.77 1447.42 1803.53 C 1492.55 1806.35 1539.11 1808.44 1584.33 1807.82 C 1613.6 1807.42 1645.38 1805.63 1674.75 1804.91 C 1686.89 1804.61 1699.15 1806.3 1711.26 1806.57 C 1719.9 1806.76 1730.08 1805.06 1738.64 1805.39 C 1769.98 1806.59 1801.52 1807.96 1832.85 1809.07 C 1846.25 1823.39 1857.83 1835.45 1872.58 1848.5 C 1880.05 1855.59 1889.05 1861.59 1896.53 1868.61 C 1911.46 1882.61 1925.72 1897.47 1940.59 1911.54 C 1948.78 1919.3 1958.15 1925.77 1966.51 1933.3 L 2014.27 1976.52 C 2025.87 1987.16 2034.65 1996.89 2048 2005.5 L 2048 2048 L 1547.47 2048 C 1540.1 2034.3 1534.41 2019.25 1527.15 2006.14 C 1515.06 1984.32 1503.49 1963.97 1492.53 1941.5 C 1481.11 1918.11 1465.37 1895.11 1453.06 1872.04 C 1441.36 1850.13 1430.22 1827.94 1419.72 1805.44 z" fill="rgb(238,108,75)" transform="translate(0,0)"></path>
<path d="M 0 0 L 414.201 0 C 417.66 12.3283 441.964 41.6306 449.856 53.601 C 474.631 91.1777 499.52 127.884 529.043 161.959 C 536.76 170.866 543.914 183.009 551.252 192.61 C 531.58 204.402 512.567 214.885 493.711 228.042 C 472.183 243.064 449.088 253.139 427.937 269.351 C 397.563 292.633 358.947 309.736 328.912 332.803 C 306.085 314.444 288.1 297.553 267.42 277.173 C 240.839 250.98 209.1 228.542 182.477 202.172 C 166.82 187.387 147.499 176.073 131.22 162.042 C 88.6948 121.964 46.8753 81.9922 0 46.7635 L 0 0 z" fill="rgb(238,108,75)" transform="translate(0,0)"></path>
<path d="M 1637.77 0 L 2048 0 L 2048 53.2368 C 2013.44 75.983 1973.6 114.352 1941.66 141.166 C 1923.65 155.39 1905.96 174.136 1887.51 187.553 C 1845.5 218.095 1808.83 253.208 1770.57 288.131 C 1762.43 295.561 1755.13 304.649 1746.92 312.113 C 1739.38 318.973 1731.4 325.383 1723.45 331.803 C 1716.08 324.373 1695.68 314.707 1685.23 307.894 C 1669.17 297.445 1653.16 286.903 1637.22 276.27 C 1621.77 265.756 1596.59 246.441 1579.9 239.017 C 1551.55 226.402 1530.4 207.97 1504.18 193.765 C 1515.73 173.565 1526.06 162.266 1538.39 144.126 C 1570.51 96.9042 1610.48 49.8039 1637.77 0 z" fill="rgb(14,65,123)" transform="translate(0,0)"></path>
<path d="M 777.461 0 L 1274 0 C 1270.09 19.1855 1264.05 30.5411 1259.13 47.5518 C 1252.83 69.3067 1246.62 91.2598 1239.99 112.964 C 1236.89 123.095 1231.28 134.765 1228.42 144.627 C 1222.22 166.022 1214.66 186.16 1207.7 207.209 C 1203.97 218.479 1202.16 227.722 1197.66 239.306 C 1184.98 237.205 1173.22 238.945 1160.69 238.25 C 1118.32 236.975 1075.55 237.585 1033.12 238.27 C 974.204 239.22 914.113 235.724 855.448 238.008 C 850.875 222.404 844.038 210.647 839.431 196.769 L 796.128 67.5024 C 793.083 58.1877 800.933 59.6515 792.835 46.0743 C 786.671 35.7394 780.776 11.6233 777.461 0 z" fill="rgb(242,238,232)" transform="translate(0,0)"></path>
<path d="M 0 1482.64 C 24.6944 1474.41 43.9525 1464.65 67.4158 1454.75 C 104.357 1439.16 140.512 1423.69 176.364 1405.59 C 188.836 1399.3 204.09 1395.17 217.113 1389.28 C 218.904 1437.43 213.732 1487.93 216.904 1536.54 C 217.397 1544.09 217.45 1552.37 217.361 1559.94 L 215.029 1735.29 C 214.775 1753.43 212.985 1772.36 213.183 1790.09 C 200.853 1805.95 179.272 1819.96 164.382 1833.68 C 140.096 1856.19 116.033 1878.11 90.1527 1898.83 C 84.819 1903.11 73.4543 1913.2 68.9314 1918.34 C 47.4171 1942.78 25.0362 1960.81 0 1981.36 L 0 1482.64 z" fill="rgb(238,108,75)" transform="translate(0,0)"></path>
<path d="M 1836.79 1391.15 L 1971.66 1448.21 C 1997.06 1458.88 2021.18 1471.36 2048 1478.4 L 2048 1982.72 C 2031.15 1964.84 2013.45 1953.02 1996.2 1936.44 C 1975.35 1916.39 1954.79 1894.66 1932.64 1875.91 L 1886.18 1835.81 C 1870.15 1822.12 1849.95 1808.02 1837.45 1790.49 C 1835.12 1760.49 1837.56 1729.36 1836.76 1699.59 C 1834.02 1597.22 1839.15 1493.25 1836.79 1391.15 z" fill="rgb(238,108,75)" transform="translate(0,0)"></path>
<path d="M 1035.03 1899.9 L 1199.09 1899.62 C 1257.37 1899.12 1316.55 1897.29 1374.63 1899.38 C 1397.56 1900.2 1430.22 1896.6 1451.34 1899.35 C 1457.21 1909.96 1462.02 1923.43 1467.57 1933.24 C 1478.11 1951.85 1488.66 1972.91 1498.94 1991.26 C 1511.34 2013.37 1522.42 2020.48 1530.81 2048 L 1033.14 2048 C 1027.38 1997.96 1038.71 1948.59 1035.03 1899.9 z" fill="rgb(246,167,62)" transform="translate(0,0)"></path>
<path d="M 601.812 1897.16 C 631.768 1899.91 659.759 1898.51 689.615 1898.48 L 826.37 1898.46 C 851.781 1898.43 877.553 1900.25 903.004 1900.12 C 918.252 1900.04 933.415 1898.19 948.649 1898.18 C 972.907 1899.51 991.133 1901.1 1015.75 1900.61 C 1014.4 1934.72 1014.22 1968.87 1015.2 2003 C 1015.66 2018.91 1017.51 2031.62 1016.92 2048 L 521.527 2048 C 527.048 2034.57 538.467 2009.9 545.522 1997.36 C 563.127 1966.04 588.402 1930.27 601.812 1897.16 z" fill="rgb(14,65,123)" transform="translate(0,0)"></path>
<path d="M 1288.7 0 L 1619.68 0 C 1613.69 10.0686 1607.01 16.6992 1600.57 25.8401 C 1580.55 54.2632 1560.04 82.2653 1540.92 111.322 C 1535.32 119.834 1530.86 129.283 1525.05 137.692 C 1513.65 153.73 1500.79 168.574 1489.55 184.756 C 1483.42 181.579 1475.35 177.511 1469.74 173.619 C 1420.7 139.572 1367.91 112.361 1318.88 78.2091 C 1304.16 67.9621 1287.49 59.3478 1273.53 48.127 C 1279.77 31.7766 1282.61 15.7761 1288.7 0 z" fill="rgb(242,238,232)" transform="translate(0,0)"></path>
<path d="M 428.43 0 L 762.521 0 C 765.301 14.3479 775.634 36.8279 776.481 44.2357 C 764.748 65.1956 681.249 109.418 656.649 124.839 C 627.602 143.048 594.113 166.109 564.71 183.634 C 550.756 161.759 530.774 138.572 515.294 117.632 C 507.519 107.099 501.615 95.4079 494.425 84.491 C 473.964 53.4261 453.662 27.3012 428.43 0 z" fill="rgb(242,238,232)" transform="translate(0,0)"></path>
<path d="M 853.758 252.729 C 881.773 249.793 916.646 253.474 945.577 253.35 L 1202.57 253.568 C 1211.92 263.828 1277 299.263 1291.57 306.953 C 1301.71 312.306 1312.41 321.197 1322.74 327.19 C 1333.8 336.174 1352.9 342.542 1363.67 350.622 C 1375.4 359.424 1388.75 371.056 1401.19 379.217 C 1407.5 383.36 1423.29 400.51 1428.34 406.442 C 1449.9 431.735 1469.02 467.484 1475.8 500.117 C 1481.37 515.481 1476.12 534.348 1478.44 549.053 C 1482.6 575.376 1479.94 599.496 1480.42 625.528 C 1480.89 651.1 1480.67 674.712 1479.76 700.237 C 1478.98 721.931 1483.25 745.079 1482.44 767.339 C 1483.26 793.775 1484.49 820.047 1485.21 846.456 C 1485.5 856.997 1483.45 868.399 1483.25 879.014 C 1483.41 901.933 1481.92 924.004 1480.46 946.845 C 1479.5 961.959 1483.74 979.226 1482.42 994.417 L 1481.24 995.65 C 1476.92 995.205 1475.38 994.249 1472.23 995.88 C 1469.5 1004.09 1469.79 1013.53 1467.82 1021.7 C 1458.68 1019.75 1442.18 1017.31 1434.47 1014.56 C 1435.92 996.246 1440.67 978.183 1441.01 960.181 C 1441.44 959.817 1445.91 956.077 1445.92 956.076 C 1449.6 944.585 1454.45 934.615 1460.19 924.036 C 1452.6 915.153 1440.58 870.008 1434.19 857.518 C 1429.02 847.403 1421.67 811.759 1415.13 803.436 L 1414.02 803.776 C 1408.89 817.576 1408.2 824.828 1401.18 839.094 C 1392.36 857.003 1385.77 876.972 1375.58 894.591 C 1370.67 904.378 1366.71 914.437 1360.08 923.281 C 1367.54 930.121 1370.43 944.426 1379.32 952.362 C 1383.45 957.741 1387.29 968.07 1388.97 974.249 C 1397.26 1004.77 1399.67 1036.27 1404.13 1067.44 C 1405.55 1077.38 1403.19 1094.49 1415.28 1096.49 C 1428.68 1093.51 1429.54 1052.11 1431.28 1039.39 C 1443.5 1044.99 1454.03 1051.7 1465.93 1057.61 C 1465.71 1067.11 1465.99 1099.97 1470.61 1109.67 C 1471.29 1111.11 1476.95 1112.98 1479 1113.73 C 1480.03 1117.2 1479.06 1135.06 1479.04 1139.99 L 1478.59 1210.93 C 1478.56 1218.39 1479.25 1226.32 1480.13 1233.73 C 1483.88 1264.9 1480.3 1297.66 1479.74 1328.98 L 1477.85 1399.51 C 1477.55 1409.91 1477.84 1419.51 1476.92 1429.94 C 1476.14 1438.9 1474.09 1446.58 1472.83 1455.15 C 1441.78 1454.38 1409.86 1453.12 1378.86 1454.34 C 1359.33 1455.12 1340.65 1453.48 1321.21 1453.03 C 1320.27 1434.8 1320.69 1414.34 1321.63 1396.06 C 1322.21 1384.8 1324.36 1374.47 1324.27 1362.68 L 1325.02 966.441 C 1325.14 933.387 1326.33 900.532 1325.27 867.819 C 1324.41 841.16 1326 811.585 1319.59 786.422 C 1304.62 727.773 1279.25 669.716 1231.39 630.771 C 1223.05 620.5 1204.09 611.573 1195.9 603.197 C 1176.92 583.783 1166.5 583.342 1144.69 572.993 C 1102.23 552.833 1060.82 542.592 1013.19 544.238 C 978.408 545.439 937.954 562.685 904.922 573.39 C 867.392 592.071 824.155 618.729 796.948 650.974 C 739.011 719.639 720.368 813.998 723.434 901.676 C 725.225 952.862 726.212 1005.7 726.358 1056.25 C 726.56 1126.34 725.842 1196.32 724.251 1266 C 723.372 1317.35 723.711 1368.7 725.266 1420.03 C 725.641 1431.49 724.67 1442.31 725.458 1453.92 C 684.272 1453.46 643.148 1454.7 601.933 1453.78 C 592.782 1453.57 582.911 1454.85 573.629 1455.29 C 571.354 1419.93 570.147 1384.51 570.009 1349.07 C 569.956 1334.3 571.31 1318.88 570.849 1304.26 C 570.078 1279.81 565.656 1258.57 569.154 1234.1 C 573.334 1204.86 569.461 1172.4 570.86 1142.67 C 571.1 1135.41 567.11 1116.1 570.76 1111.1 C 574.161 1109.67 578.628 1108.51 579.633 1105.3 C 584.118 1090.98 581.658 1075.07 585.427 1060.49 C 592.578 1055.86 614.19 1042.28 619.638 1037.64 C 620.899 1048.71 625.341 1092.06 632.304 1098.47 C 647.084 1095.78 645.067 1074.31 647.356 1063.06 L 670.05 956.568 C 676.984 949.972 684.18 933.158 690.242 924.226 C 684.342 912.671 677.353 900.874 671.976 889.218 C 662.131 867.876 652.303 846.317 641.407 825.466 C 636.307 815.706 640.624 809.686 638.28 804.429 L 636.589 804.528 C 622.315 829.774 618.903 873.032 601.032 898.825 C 580.196 928.898 601.638 933.824 602.671 955.505 C 605.614 957.276 607.545 958.367 610.634 959.854 C 612.23 978.006 616.048 995.467 617.61 1015.75 C 608.427 1017.26 594.144 1018.86 584.676 1019.33 C 583.857 1012.66 583.499 998.492 580.135 992.694 C 579.156 991.007 572.621 992.671 570.599 993.129 C 567.26 990.472 571.253 949.399 570.991 941.988 C 569.788 907.955 567.959 873.73 568.995 839.689 C 569.292 829.931 567.589 819.385 567.991 809.526 C 568.326 797.385 569.094 785.922 569.141 773.616 C 567.908 739.671 570.131 708.77 569.953 675.047 L 570.017 614.997 C 569.829 592.224 568.601 572.402 571.919 549.472 C 573.464 538.795 570.776 524.471 572.63 513.344 C 573.83 506.14 575.974 499.683 578.33 492.778 C 590.204 455.647 611.812 418.881 639.189 391.184 C 649.457 380.796 659.65 372.735 672.013 365.279 C 674.442 363.814 679.592 354.892 681.228 354.062 C 694.04 347.566 707.309 341.84 719.801 334.636 C 747.124 317.467 775.295 302.218 802.561 285.329 C 817.994 275.769 838.296 264.385 852.152 253.951 L 853.758 252.729 z" fill="rgb(246,167,62)" transform="translate(0,0)"></path>
<path d="M 853.758 252.729 C 881.773 249.793 916.646 253.474 945.577 253.35 L 1202.57 253.568 C 1211.92 263.828 1277 299.263 1291.57 306.953 C 1301.71 312.306 1312.41 321.197 1322.74 327.19 C 1333.8 336.174 1352.9 342.542 1363.67 350.622 C 1375.4 359.424 1388.75 371.056 1401.19 379.217 C 1407.5 383.36 1423.29 400.51 1428.34 406.442 C 1449.9 431.735 1469.02 467.484 1475.8 500.117 C 1481.37 515.481 1476.12 534.348 1478.44 549.053 C 1482.6 575.376 1479.94 599.496 1480.42 625.528 C 1480.89 651.1 1480.67 674.712 1479.76 700.237 C 1478.98 721.931 1483.25 745.079 1482.44 767.339 C 1482.06 767.058 1481.65 766.8 1481.29 766.496 C 1479.05 764.633 1457.73 700.629 1452.96 689.317 C 1431.6 639.282 1404.62 591.838 1372.54 547.898 C 1365.49 538.179 1356.87 525.735 1348.58 517.252 C 1316.47 484.404 1278.41 457.356 1237.9 435.894 C 1223.22 428.121 1199.55 413.906 1184.72 409.032 C 1163.89 403.121 1141.99 397.839 1120.5 394.486 C 1106.61 393.272 1086.74 384.893 1073.93 384.277 C 1041.91 382.738 1002.82 381.805 971 387.772 C 945.982 392.464 912.516 397.462 889.01 405.038 C 846.6 419.302 807.062 440.621 770.28 465.941 C 763.001 470.952 753.777 475.336 747.146 480.775 C 710.636 510.718 681.483 544.664 656.948 584.994 C 644.865 604.855 630.192 624.704 619.322 645.591 C 604.839 675.238 590.531 711.058 579.985 742.346 C 577.723 749.056 570.619 767.746 569.141 773.616 C 567.908 739.671 570.131 708.77 569.953 675.047 L 570.017 614.997 C 569.829 592.224 568.601 572.402 571.919 549.472 C 573.464 538.795 570.776 524.471 572.63 513.344 C 573.83 506.14 575.974 499.683 578.33 492.778 C 590.204 455.647 611.812 418.881 639.189 391.184 C 649.457 380.796 659.65 372.735 672.013 365.279 C 674.442 363.814 679.592 354.892 681.228 354.062 C 694.04 347.566 707.309 341.84 719.801 334.636 C 747.124 317.467 775.295 302.218 802.561 285.329 C 817.994 275.769 838.296 264.385 852.152 253.951 L 853.758 252.729 z" fill="rgb(223,161,68)" transform="translate(0,0)"></path>
<path d="M 880.971 1272.28 C 881.161 1180.71 880.529 1089.14 879.076 997.583 C 878.787 960.308 880.953 924.521 878.996 886.132 C 875.218 812.022 949.402 741.941 1021.55 740.617 C 1057.04 739.966 1103.91 760.181 1128.71 784.968 C 1175.68 833.746 1171.71 882.544 1170.73 942.748 C 1169.29 1030.81 1172.38 1119.66 1171.24 1207.09 C 1171.05 1225.07 1170.98 1243.13 1170.9 1261.1 C 1170.86 1271.48 1169.1 1286.23 1169.59 1295.99 C 1171.03 1325.09 1171.08 1352.53 1170.48 1381.68 C 1166.88 1383.5 1148.53 1382.98 1142.79 1383.07 C 1072.59 1384.1 1002.47 1383.04 932.334 1384.97 C 917.364 1385.38 897.564 1383.19 883.162 1382.12 C 883.474 1369.13 882.229 1358.1 882.015 1345.41 C 881.607 1321.25 880.828 1296.43 880.971 1272.28 z" fill="rgb(242,238,232)" transform="translate(0,0)"></path>
<path d="M 880.971 1272.28 L 1087.56 1225.41 C 1115.17 1219.12 1143.78 1206.74 1171.24 1207.09 C 1171.05 1225.07 1170.98 1243.13 1170.9 1261.1 C 1170.86 1271.48 1169.1 1286.23 1169.59 1295.99 C 1171.03 1325.09 1171.08 1352.53 1170.48 1381.68 C 1166.88 1383.5 1148.53 1382.98 1142.79 1383.07 C 1072.59 1384.1 1002.47 1383.04 932.334 1384.97 C 917.364 1385.38 897.564 1383.19 883.162 1382.12 C 883.474 1369.13 882.229 1358.1 882.015 1345.41 C 881.607 1321.25 880.828 1296.43 880.971 1272.28 z" fill="rgb(153,198,195)" transform="translate(0,0)"></path>
<path d="M 1319.34 1758.45 C 1341.36 1759.4 1351.58 1761.02 1374.37 1759.85 C 1379.5 1767.52 1387.1 1784.16 1392.18 1793.28 C 1408.91 1822.81 1425.48 1852.44 1441.87 1882.17 C 1402.02 1879.83 1360.21 1883.77 1320.5 1883.61 L 1055.2 1883.06 L 839.026 1883.78 C 825.977 1883.69 809.01 1881.5 796.604 1882.24 C 776.043 1883.46 751.957 1881.29 732.118 1882.86 C 715.197 1881.82 690.864 1883.2 673.359 1883.22 C 652.238 1883.23 629.99 1882.57 609.051 1883.23 C 630.072 1851.87 643.828 1817.81 663.619 1785.53 C 668.519 1777.54 674.959 1765.03 681.414 1758.77 C 713.753 1762.98 748.209 1759.85 780.395 1761.24 C 812.108 1762.6 840.082 1761.83 871.504 1761.58 L 1016.04 1759.83 L 1213.21 1759.22 C 1250.44 1759.1 1281.33 1760.43 1319.34 1758.45 z" fill="rgb(242,238,232)" transform="translate(0,0)"></path>
<path d="M 1595.94 747.477 C 1618 735.729 1641.47 725.759 1663.69 713.477 C 1679.94 704.491 1698.87 698.02 1715.82 688.386 C 1716.18 699.141 1715.29 709.16 1715.56 720.114 C 1718.46 825.292 1718.89 930.523 1716.86 1035.72 C 1716.69 1051.12 1714.63 1066.49 1714.8 1082.01 C 1715.05 1104.27 1715.92 1126.16 1715.82 1148.43 C 1715.57 1204.17 1720.34 1265.79 1716.45 1320.96 L 1656.52 1296.08 C 1647.12 1292.27 1636.46 1289.07 1627.29 1285.02 C 1582.94 1265.44 1539.82 1247.46 1494.2 1230.91 C 1493.74 1213.84 1493.12 1196.91 1492.37 1179.86 C 1492.37 1170.08 1493.47 1160.28 1493.54 1150.5 C 1494.02 1080.52 1493.8 1010.57 1493.68 940.592 C 1493.66 927.411 1496.26 913.487 1496.7 900.245 C 1497.39 879.818 1498.23 859.436 1498.01 838.989 C 1498.01 825.193 1499.65 816.269 1498.21 801.909 C 1513.61 797.262 1521.55 791.996 1535.24 783.963 C 1529.93 798.218 1523.43 811.875 1518.5 826.226 C 1515.07 836.213 1509.71 846.447 1515.22 856.847 C 1522.37 870.321 1530.04 884.885 1538.94 897.225 C 1534.24 897.14 1530.18 896.599 1525.9 898.313 C 1523.78 900.893 1523.91 901.462 1523.1 904.675 C 1529.92 931.987 1540.22 956.731 1546.24 984.027 C 1552.47 1012.26 1556 1040.55 1565.41 1068.04 C 1567.88 1075.25 1569.16 1083.8 1573.27 1090.23 C 1576.25 1091.48 1578.84 1090.69 1583.52 1091.72 C 1592.8 1087.31 1594.05 1050.74 1596.07 1040.72 C 1609.77 1049.58 1615.78 1051.27 1630.95 1056.63 C 1630.75 1074.38 1627.95 1086.88 1630.44 1104.58 C 1639.91 1112.11 1648.23 1116.73 1658.93 1122.42 C 1662.23 1104.5 1666.65 1038.75 1661.4 1022.21 C 1661.09 1016.45 1660.97 1011.32 1660.88 1005.55 C 1660.42 1001.79 1660.95 1000.99 1659.02 998.321 C 1629.7 988.402 1634.27 996.393 1634.49 1019.31 C 1623.45 1018.83 1608.12 1018.5 1597.54 1016.5 C 1605.45 981.545 1611.43 945.406 1620.75 910.578 C 1621.63 907.281 1622.01 902.623 1620.75 899.426 C 1616.95 896.233 1616.68 897.573 1611.15 896.045 C 1611.12 895.003 1631.69 851.499 1633.93 845.122 C 1624.17 814.183 1604.71 776.361 1595.94 747.477 z" fill="rgb(242,238,232)" transform="translate(0,0)"></path>
<path d="M 339.251 690.657 C 362.233 699.965 381.758 710.528 403.588 721.808 C 422.316 731.486 438.493 739.074 456.967 749.68 C 444.504 783.353 431.462 813.265 418.097 846.187 C 421.697 855.583 441.891 890.644 442.344 897.558 C 438.999 899.144 435.98 898.542 432.192 898.352 C 434.251 908.934 438.386 921.943 439.824 931.97 C 444.033 961.33 448.3 988.415 453.891 1017.57 C 440.007 1017.75 429.104 1019.14 415.424 1021.67 C 415.501 1016.09 415.785 1006.53 416.672 1001.29 L 409.777 991.235 C 403.7 996.903 387.534 999.038 387.72 1002.55 C 388.489 1017.04 384.139 1112.5 388.193 1121.56 L 389.836 1122.08 C 396.371 1120.23 412.076 1110.95 419.239 1107.17 C 418.776 1091.66 419.154 1074.7 419.213 1059.07 C 430.881 1054.72 445.98 1044.8 456.53 1037.83 C 458.698 1052.21 459.884 1066.76 462.056 1081.14 C 462.758 1085.79 463.203 1090.59 467.34 1093.07 C 471.648 1093.61 474.515 1092.03 478.657 1090.49 C 494.394 1068.59 498.59 975.584 513.936 945.499 C 515.661 942.117 529.833 903.532 529.497 902.245 C 524.293 899.774 518.824 899.562 513.029 898.843 C 527.589 879.589 531.871 868.78 542.051 847.237 C 538.651 831.708 524.325 804.909 518.687 785.224 L 525.482 789.185 C 535.407 795.074 543.509 799.827 553.907 804.95 C 555.116 835.138 554.374 865.602 555.234 895.894 C 555.087 909.04 557.468 923.191 556.972 936.254 C 554.2 1009.28 553.783 1082.44 557.202 1155.48 C 558.302 1178.96 555.407 1202.86 557.421 1225.92 C 533.16 1241.1 497.372 1251.41 470.839 1262.49 C 451.276 1270.36 430.025 1283.71 410.355 1290.78 C 386.22 1299.45 358.882 1312.41 334.677 1318.99 C 336.043 1300.57 334.904 1268.74 334.982 1249.27 L 335.965 1111.27 L 336.543 865.455 C 336.549 841.353 336.817 817.253 337.348 793.157 C 337.835 777.258 339.566 761.005 339.606 745.149 C 339.652 727.035 339.33 708.788 339.251 690.657 z" fill="rgb(242,238,232)" transform="translate(0,0)"></path>
<path d="M 1020.02 667.416 C 1044.16 664.214 1095.28 675.431 1117.31 686.007 C 1127.16 690.779 1136.19 697.076 1144.08 704.666 C 1160.35 720.579 1170.73 738.952 1182.72 757.768 C 1192.68 773.406 1199.7 776.001 1204.19 796.625 C 1215.17 847.11 1213.86 901.025 1214.04 952.467 L 1213.04 1155.18 L 1214.1 1344.01 C 1214.55 1374.11 1215.86 1405.08 1216.01 1434.98 C 1205.96 1417.81 1186.28 1394.58 1180.28 1376.68 C 1177.57 1361.78 1180.36 1342.77 1181.16 1327.86 C 1184.19 1301.22 1179.26 1270.71 1181.25 1244.6 C 1184.93 1196.37 1180.46 1149.17 1181.2 1101.46 L 1182.48 991.791 C 1182.67 981.295 1183.79 970.773 1183.91 960.172 C 1184.21 933.107 1182.83 906.05 1179.81 879.154 C 1178.72 868.829 1178.32 860.193 1176.11 849.778 C 1170.6 823.896 1156.29 804.044 1140.94 783.178 C 1136.22 773.478 1123.66 770.935 1118.11 765.882 C 1099.24 748.723 1085.28 741.361 1060.3 734.925 C 1049.02 732.021 1040.38 730.42 1028.12 729.057 C 1026.59 728.985 1025.05 728.934 1023.52 728.903 C 991.909 728.314 936.55 753.56 914.152 776.155 C 890.91 799.085 876.185 829.009 870.463 861.057 C 867.347 882.952 863.384 910.204 865.15 932.402 C 868.428 973.619 866.192 1013.67 865.395 1054.91 C 865.164 1066.83 867.998 1079.92 868.08 1091.96 C 868.169 1104.99 867.304 1118.08 867.369 1131.14 L 867.705 1265.68 C 867.708 1275.95 868.926 1286.33 868.877 1296.55 C 868.738 1325.22 869.555 1354.09 868.989 1382.75 C 858.338 1396.01 844.991 1419.08 835.648 1434.25 C 834.83 1424.83 833.329 1412.48 833.793 1403.27 C 836.368 1352.23 832.186 1301.15 834.209 1250.05 C 834.698 1237.69 835.743 1225.23 835.723 1212.9 L 834.98 977.494 C 834.996 962.488 833.258 946.692 833.643 931.808 C 834.243 908.554 834.971 884.685 835.338 861.468 C 835.621 843.543 842.22 821.227 845.429 803.591 C 849.686 780.201 863.321 763.671 877.541 745.588 C 882.853 738.641 887.196 730.956 893.267 723.568 C 915.425 696.598 952.281 680.652 985.295 671.835 C 994.333 669.421 1010.32 668.217 1020.02 667.416 z" fill="rgb(0,0,0)" transform="translate(0,0)"></path>
<path d="M 1715.56 360.799 C 1720.69 370.657 1714.92 432.081 1714.15 446.563 C 1712.75 473.18 1716.7 503.705 1716.23 529.994 C 1715.53 568.126 1713.73 607.545 1714.36 645.65 C 1714.52 654.927 1712.93 665.578 1713.84 673.613 L 1590.57 733.946 C 1585.4 718.668 1582.1 696.225 1572.6 684.24 C 1569 691.345 1566.78 695.993 1563.96 703.449 C 1557.39 720.838 1554.97 744.403 1542.06 758.139 C 1539.27 761.111 1532.63 765.332 1529.07 767.663 C 1518.34 773.953 1507.42 779.908 1496.32 785.52 C 1492.47 765.91 1495.15 719.547 1495.36 697.215 L 1496.39 541.709 C 1506.2 530.529 1520.72 520.383 1532.61 511.192 C 1545.95 501.333 1558.71 488.198 1572.14 478.724 C 1622.22 443.4 1671.62 403.717 1715.56 360.799 z" fill="rgb(14,65,123)" transform="translate(0,0)"></path>
<path d="M 338.58 364.281 C 368.358 386.741 396.734 414.733 425.503 439.139 C 467.611 474.862 514.437 508.317 555.013 545.255 C 555.109 549.933 554.973 558.191 555.848 562.48 C 559.724 581.461 555.112 598.347 554.755 617.173 L 553.089 784.49 C 543.251 778.395 529.415 771.427 518.988 765.879 L 510.596 760.808 C 507.876 752.385 482.142 682.636 480.165 680.844 C 477.601 682.077 465.281 725.096 462.483 733.008 C 456.2 729.962 449.098 726.136 442.755 723.521 C 407.42 708.956 376.069 688.838 339.742 676.77 C 335.358 639.586 340.556 590.483 340.632 552.498 C 339.203 534.679 342.306 512.968 340.568 495.654 C 336.189 452.041 340.833 407.706 338.58 364.281 z" fill="rgb(242,238,232)" transform="translate(0,0)"></path>
<path d="M 506.892 1638.58 C 516.731 1637.35 527.615 1638.22 537.681 1638.42 L 600.231 1640.2 C 633.394 1641.09 666.942 1638.39 700.055 1640.3 C 710.731 1640.91 719.207 1640.12 729.724 1638.52 C 723.721 1648.38 716.22 1659.35 710.713 1669.29 C 702.025 1684.96 694.279 1702.2 685.541 1717.84 C 672.493 1741.19 658.097 1763.05 645.889 1786.93 C 581.23 1789.34 518.657 1787.65 454.032 1786.57 C 428.777 1783 391.786 1786.2 366.445 1787.28 C 345.376 1788.18 325.588 1785.84 304.665 1786.34 C 281.163 1786.9 258.062 1789.56 234.494 1789.69 C 250.387 1775.67 266.699 1761.19 281.237 1745.77 C 286.402 1740.29 291.517 1734.65 297.091 1729.59 L 365.222 1666.78 C 377.914 1655.3 384.515 1653.56 395.64 1639.21 L 466.007 1639.37 C 480.664 1639.33 492.163 1640.23 506.892 1638.58 z" fill="rgb(246,167,62)" transform="translate(0,0)"></path>
<path d="M 1666.29 1318.11 C 1683.66 1325.89 1701.12 1331.64 1718.45 1339.42 C 1751.6 1354.32 1785.94 1367.75 1819 1382.76 C 1818.93 1394.54 1820.6 1407.93 1820.66 1420.46 L 1820.63 1736.36 C 1820.59 1742.05 1820.8 1767.92 1818.53 1771.32 C 1812.08 1763.9 1805.34 1758.71 1798.7 1751.93 C 1762.81 1715.26 1722.82 1681.97 1684.78 1647.44 C 1677.73 1641.04 1672.65 1637.9 1664.25 1633.57 C 1660.6 1611.34 1664.22 1584.14 1663.5 1561.54 C 1662.16 1519.33 1659.47 1477.94 1663.12 1435.76 C 1664.11 1424.32 1662.75 1411.41 1663.67 1399.8 C 1665.82 1372.57 1663.71 1345.28 1666.29 1318.11 z" fill="rgb(242,238,232)" transform="translate(0,0)"></path>
<path d="M 1328.83 1638.04 C 1388.52 1646.08 1449.15 1638.84 1509.31 1642.4 C 1519.09 1642.8 1529.32 1641.06 1539.01 1641.12 C 1570.99 1641.31 1602.92 1640.91 1634.87 1639.63 C 1636.88 1639.55 1654.2 1640.93 1654.97 1641.53 C 1673.4 1655.77 1689.47 1673.28 1706.38 1689.29 C 1721.2 1703.07 1737.12 1715.91 1751.95 1729.7 C 1761.88 1739.54 1771.39 1749.72 1781.44 1759.45 C 1790.74 1768.45 1809.8 1779.35 1814.78 1791.14 C 1805.25 1790.23 1795.02 1788.74 1785.65 1788.25 C 1775.61 1787.72 1764.59 1788.38 1754.43 1788.36 L 1693 1788.33 L 1614.49 1788.87 C 1605.66 1788.88 1595.49 1787.94 1587.06 1788.21 C 1570.08 1788.12 1551.05 1791.36 1534.24 1790.64 C 1510.78 1789.63 1487.61 1788.5 1464.1 1788.16 C 1443.72 1787.87 1424.51 1785.93 1403.99 1786.66 C 1395.88 1765.31 1325.41 1652.23 1328.83 1638.04 z" fill="rgb(246,167,62)" transform="translate(0,0)"></path>
<path d="M 383.407 1317.91 L 384.784 1317.71 C 389.834 1322.89 385.809 1390.55 385.905 1403.19 L 387.83 1626.88 C 374.299 1640.24 356.999 1652.31 343.683 1665.67 C 307.909 1701.56 269.781 1734.25 233.609 1769.86 L 232.662 1770.46 C 229.036 1765.54 234.167 1578.1 234.363 1557.7 L 234.999 1382.39 C 257.353 1373.79 278.566 1362.17 300.536 1353.13 C 328.353 1341.67 355.357 1328.63 383.407 1317.91 z" fill="rgb(242,238,232)" transform="translate(0,0)"></path>
<path d="M 558.741 204.938 C 562.696 209.141 571.77 225.423 576.533 231.437 C 583.032 239.726 590.79 247.25 597.372 255.439 C 621.771 285.798 638.717 321.486 662.548 351.984 C 658.907 354.257 655.387 356.72 652.005 359.363 C 643.145 366.364 635.813 374.41 627.926 381.776 C 595.352 412.199 575.629 446.045 564.528 489.029 C 560.845 503.287 557.316 513.031 555.432 528.669 C 536.914 511.587 515.878 492.443 496.625 476.201 C 476.167 461.472 458.742 443.343 439.255 427.646 C 414.802 408.5 391.585 388.81 368.775 367.729 C 358.222 357.976 348.921 352.306 338.501 341.075 C 360.301 329.747 387.312 315.826 407.552 302.074 C 430.528 286.464 445.175 273.51 470.853 260.384 C 500.31 245.327 530.72 223.262 558.741 204.938 z" fill="rgb(242,238,232)" transform="translate(0,0)"></path>
<path d="M 1494.44 205.98 C 1517.48 217.723 1541.29 238.556 1564.6 250.237 C 1614.83 275.411 1663.31 317.641 1714.94 339.628 C 1700.67 355.932 1679.17 370.583 1662.66 384.097 L 1558.23 470.435 C 1535.09 490.816 1522.85 506.247 1495.79 524.905 C 1490.02 492.278 1487.79 473.979 1470.65 444.027 C 1456.72 419.697 1454.6 412.187 1433.93 391.389 C 1416.56 373.913 1411.82 367.747 1390.08 353.461 C 1403.61 333.202 1418.41 313.898 1431.04 292.934 C 1435.56 285.438 1443.39 278.009 1448.2 270.421 C 1462.61 247.717 1477.49 226.825 1494.44 205.98 z" fill="rgb(242,238,232)" transform="translate(0,0)"></path>
<path d="M 1248.23 1535.19 C 1253.03 1534.74 1255.23 1535.49 1257.21 1540.3 C 1269.4 1569.99 1288.18 1597.39 1301.69 1625.97 L 962.712 1626.04 C 912.177 1626.1 857.049 1630.1 807.046 1627.72 C 787.589 1628.04 770.102 1629.14 750.398 1628.83 C 753.343 1622.43 758.963 1613.6 762.418 1607.02 C 774.77 1583.48 787.466 1561.69 799.463 1537.85 C 812.006 1538.13 824.848 1538.5 837.376 1538.44 C 847.627 1538.38 858.128 1537.3 868.456 1537.29 L 1097.9 1536.92 C 1128.2 1536.81 1155.63 1540.61 1186.78 1537.72 C 1207.75 1535.77 1225.84 1540.71 1248.23 1535.19 z" fill="rgb(242,238,232)" transform="translate(0,0)"></path>
<path d="M 555.113 1243.86 L 555.687 1244.17 C 555.708 1244.2 557.557 1439.73 557.887 1456.94 C 549.557 1464.31 541.765 1476.36 534.099 1483.86 C 521.069 1495.32 509.173 1509.98 496.539 1521.43 C 464.936 1550.08 434.65 1579.36 404.344 1609.32 L 403.002 1609.67 C 402.143 1607.72 403.424 1488.35 403.628 1478.49 C 404.77 1423.36 398.364 1364.18 404.234 1309.8 C 423.155 1302.83 443.655 1291.02 462.491 1282.88 L 527.934 1254.86 C 537.714 1250.72 545.496 1248.76 555.113 1243.86 z" fill="rgb(242,238,232)" transform="translate(0,0)"></path>
<path d="M 1496.3 1248.53 C 1516.65 1255.97 1538.72 1265.21 1559.41 1272.86 C 1586.24 1282.79 1628.76 1298.58 1653.3 1312.73 C 1651.81 1332.72 1653.17 1343.44 1652.8 1361.77 L 1649.9 1469.5 C 1649.09 1516.03 1646.41 1558.18 1647.34 1605.59 L 1646.97 1606 C 1643.5 1605.89 1623.86 1583.48 1619.79 1579.44 C 1604.81 1564.6 1589.18 1550.17 1573.52 1536.06 C 1567.31 1530.24 1558.6 1525.25 1552.69 1519.36 C 1533.38 1500.12 1514.44 1480.75 1492.27 1464.64 C 1491.69 1458.6 1490.89 1451.36 1491.14 1445.35 C 1493.15 1397.11 1495.44 1348.73 1496.43 1300.45 C 1496.79 1283.26 1497.52 1265.66 1496.3 1248.53 z" fill="rgb(14,65,123)" transform="translate(0,0)"></path>
<path d="M 782.395 64.8532 C 784.896 67.4515 787.689 79.5659 788.925 83.8944 C 801.524 128.025 813.312 171.797 831.643 214.046 C 835.733 223.474 837.348 233.741 841.412 243.21 L 754.117 295.539 C 740.969 303.5 728.131 311.905 715.034 320.065 C 701.082 328.758 686.446 335.367 672.701 343.067 C 667.749 335.006 662.111 326.657 656.929 318.688 C 628.84 278.906 601.197 236.697 573.724 196.344 C 605.861 177.917 634.126 155.418 665.33 136.308 C 702.79 113.367 746.325 89.5778 782.395 64.8532 z" fill="rgb(246,167,62)" transform="translate(0,0)"></path>
<path d="M 1268.91 67.2275 C 1315.09 92.5213 1356.48 122.8 1402.4 148.319 C 1428.14 162.625 1455.58 179.14 1479.51 196.27 C 1473.28 204.873 1467.76 215.067 1461.52 223.628 C 1438.8 254.804 1416.15 285.978 1394.31 317.787 L 1378.19 343.233 C 1350.46 326.164 1322.46 310.077 1295.63 291.449 C 1288.86 286.743 1277.25 283.433 1270.15 278.973 C 1250.88 266.871 1225.76 255.573 1208.93 240.505 C 1235.94 182.984 1250.22 127.619 1268.91 67.2275 z" fill="rgb(246,167,62)" transform="translate(0,0)"></path>
<path d="M 760.655 1638.44 C 785.364 1637.18 812.565 1641.12 837.909 1641.6 C 868.095 1642.16 898.576 1640.42 928.479 1640.15 C 956.782 1639.9 986.904 1643.15 1015.62 1640.85 C 1019.75 1666.5 1018.93 1695.71 1016.79 1721.49 C 1016.12 1729.53 1016.32 1736.31 1016.73 1744.35 C 1011.89 1744.98 1007.04 1745.06 1002.16 1745.03 C 984.132 1744.92 966.13 1746.23 948.1 1746.18 C 926.467 1748.37 899.739 1746.62 877.998 1745.87 C 865.337 1745.47 851.293 1747.55 838.763 1746.92 C 788.804 1744.4 738.906 1747.26 689.049 1742.86 C 710.24 1706.23 728.113 1677.74 745.25 1639.01 C 750.329 1638.94 755.565 1638.65 760.655 1638.44 z" fill="rgb(246,167,62)" transform="translate(0,0)"></path>
<path d="M 1078.55 1640.46 C 1083.28 1639.81 1093.19 1640.44 1098.17 1640.72 C 1153.61 1643.82 1208.87 1639.33 1264.27 1641.15 C 1279.5 1641.64 1296.85 1640.92 1311.73 1643.25 C 1318.54 1653.2 1327.09 1676.32 1333.33 1688.67 C 1342.83 1707.5 1352.92 1724.35 1362.9 1742.75 C 1346.79 1742.46 1332.95 1744.67 1316.82 1745.11 C 1302.97 1744.81 1288.32 1742.65 1274.5 1742.95 C 1223.37 1744.07 1171.88 1741.25 1120.86 1744.12 C 1091.85 1745.76 1063.1 1744.45 1034.06 1744.07 C 1033.24 1705.7 1033.15 1679.23 1036.54 1640.91 C 1049.34 1641.18 1065.95 1641.51 1078.55 1640.46 z" fill="rgb(238,108,75)" transform="translate(0,0)"></path>
<path d="M 1481.06 1536.44 C 1507.48 1537.66 1525.09 1539.15 1551.54 1537.06 C 1555.73 1540.05 1570.89 1555.51 1575.48 1559.87 L 1616.73 1599.77 C 1626.7 1609.45 1635.04 1616.83 1644.23 1627.38 C 1625.49 1622.37 1598.39 1625.81 1578.81 1625.57 C 1534.01 1625.02 1481.83 1628.55 1437.84 1624.9 L 1317.45 1624.99 L 1269.62 1536.62 C 1331.9 1541.92 1418 1541.18 1481.06 1536.44 z" fill="rgb(242,238,232)" transform="translate(0,0)"></path>
<path d="M 504.147 1534.98 C 537.084 1539.97 586.69 1537.25 620.994 1537.82 C 632.813 1537.05 644.762 1537.09 656.562 1536.56 C 698.334 1534.7 743.564 1542.38 784.827 1538.84 C 772.604 1554.95 748.002 1604.95 738.277 1624.17 C 719.631 1622.75 709.775 1624.36 691.25 1624.66 L 410.61 1624.97 C 430.514 1607.24 450.77 1585.22 470.706 1566.77 C 483.563 1554.87 488.563 1546.81 504.147 1534.98 z" fill="rgb(14,65,123)" transform="translate(0,0)"></path>
<path d="M 747.71 894.366 C 747.737 894.359 763.695 894.791 765.145 894.81 C 784.432 895.001 803.719 895.088 823.007 895.073 C 822.719 907.429 823.21 920.016 822.831 932.405 C 822.409 946.252 821.127 960.24 821.069 974.075 L 821.559 1125.73 C 821.587 1135.88 822.804 1193.46 820.439 1199.92 C 816.885 1201.74 815.743 1200.92 811.079 1200.74 C 785.936 1200.42 764.704 1202.09 738.748 1200.44 C 741.019 1189.06 738.7 1180.03 739.101 1169.02 C 741.385 1106.24 738.436 1043.69 738.165 980.966 C 738.046 953.245 735.654 924.516 737.609 896.784 C 740.148 894.999 744.44 894.812 747.71 894.366 z" fill="rgb(242,238,232)" transform="translate(0,0)"></path>
<path d="M 1233.62 893.269 C 1243.01 892.682 1253.9 893.629 1263.47 893.373 C 1280.45 892.919 1296.74 892.661 1313.73 893.297 C 1311.38 912.701 1312.02 930.529 1311.83 950.028 L 1310.96 1023.37 C 1310.69 1052.62 1307.98 1082.76 1307.24 1112.01 C 1306.72 1120.94 1309.17 1132.02 1308.61 1140.7 C 1307.39 1159.55 1308.78 1181.68 1306.91 1200.17 C 1290.93 1199.55 1240.49 1203.81 1228.53 1199.01 C 1225.79 1184.98 1227.03 1158.64 1227.67 1144.22 C 1228.42 1127.49 1229.93 1100.11 1229.52 1085.62 C 1228.98 1066.38 1225.89 903.346 1229.57 894.396 L 1233.62 893.269 z" fill="rgb(242,238,232)" transform="translate(0,0)"></path>
<path d="M 1011.54 561.393 C 1031.76 560.805 1069.87 563.772 1089.03 568.95 C 1106.3 573.615 1141.51 586.414 1156.78 594.569 C 1154.12 598.58 1152.06 602.91 1149.84 607.171 C 1138.2 629.501 1126.67 651.978 1113.88 673.669 C 1096.7 665.287 1062.49 652.056 1043.39 654.612 C 1035.51 656.191 1011.89 654.103 1002.37 654.9 C 984.326 656.409 956.744 665.595 939.681 671.836 C 937.983 667.424 935.869 663.458 933.341 659.461 C 920.048 638.443 908.881 616.15 895.371 595.267 C 929.277 579.473 974.384 565.13 1011.54 561.393 z" fill="rgb(242,238,232)" transform="translate(0,0)"></path>
<path d="M 811.974 1213.43 C 815.044 1213.1 817.382 1212.42 819.987 1213.85 C 823.01 1219.1 821.053 1290.45 821.152 1302.27 L 821.709 1389.5 C 821.99 1414.79 823.223 1428.42 821.358 1454.97 C 811.522 1455.35 802.705 1454.44 792.821 1454.1 C 782.831 1453.75 770.512 1455.76 760.755 1453.97 C 757.444 1453.36 757.24 1453.19 753.508 1452.91 C 748.543 1452.93 743.901 1453.42 738.966 1453.86 C 739.273 1443.77 737.278 1431.55 737.805 1422.45 C 737.852 1391.88 741.433 1357.6 740.098 1327.19 C 738.407 1288.7 738.463 1252.29 739.125 1213.74 C 758.299 1216.91 792.194 1214.63 811.974 1213.43 z" fill="rgb(238,108,75)" transform="translate(0,0)"></path>
<path d="M 1249.05 1213.42 C 1266.6 1211.34 1287.81 1214.76 1307.03 1212.84 C 1306.59 1227.77 1307.45 1241.04 1307.64 1255.82 C 1307.9 1276.31 1306.21 1298.89 1307.07 1319.23 C 1308.17 1345.49 1309.81 1371.79 1309.53 1398.16 C 1309.34 1415.81 1307.04 1433.64 1306.7 1451.57 C 1298.33 1452.57 1294.1 1453 1285.75 1452.81 C 1267.13 1451.76 1244.84 1455.48 1227.99 1454.11 C 1228.01 1444.91 1228.8 1435.75 1228.48 1426.51 C 1227.56 1400.65 1225.6 1374.88 1226.75 1348.99 C 1227.08 1341.7 1227.02 1334.03 1227.02 1326.71 L 1226.97 1215.77 C 1233.68 1214.66 1242.14 1214.08 1249.05 1213.42 z" fill="rgb(238,108,75)" transform="translate(0,0)"></path>
<path d="M 1837.19 595.577 C 1843.41 608.401 1845.76 620.467 1850.96 633.028 C 1859.09 652.676 1865.67 671.562 1872.76 691.556 C 1882.79 719.865 1896.19 747.325 1907.54 775.149 C 1901.69 789.929 1879.85 827.485 1870.85 840.386 C 1859.49 840.133 1848.12 840.013 1836.75 840.025 C 1825.3 839.799 1816.54 838.932 1805.23 837.727 C 1801.64 831.006 1795.2 822.936 1791.29 815.635 C 1783.47 801.004 1777.59 788.966 1767.62 775.462 C 1784.7 746.74 1799.04 704.726 1809.08 672.62 C 1818 644.091 1823.56 622.49 1837.19 595.577 z" fill="rgb(238,108,75)" transform="translate(0,0)"></path>
<path d="M 214.272 599.757 C 230.429 617.614 245.803 681.362 256.528 705.941 C 266.547 728.903 273.563 753.201 285.128 775.728 C 275.214 790.119 255.115 830.047 246.786 837.923 C 238.64 837.098 228.112 838.077 219.752 838.577 C 207.951 837.915 193.884 838.776 181.776 839.089 C 171.818 826.136 155.359 794.816 146.624 779.332 C 154.315 766.209 154.911 753.856 160.751 741.442 C 182.298 695.636 197.854 647.62 214.272 599.757 z" fill="rgb(238,108,75)" transform="translate(0,0)"></path>
<path d="M 668.708 1468.42 C 702.209 1469.75 737.356 1468.89 770.902 1468.47 C 787.565 1468.27 804.102 1471.19 821.03 1469.92 C 811.533 1486.52 802.211 1503.22 793.066 1520.01 C 761.385 1521.91 728.472 1522.06 696.731 1521.85 C 689.484 1521.8 682.006 1521.88 674.84 1520.84 C 667.14 1520.61 658.969 1521.02 651.237 1521.42 C 616.096 1523.24 580.771 1520.78 545.677 1521.67 C 535.151 1521.94 527.572 1522.33 517.041 1521.03 C 531.86 1504.22 553.01 1486.43 569.231 1469.82 C 603.1 1467.45 633.823 1471.34 668.708 1468.42 z" fill="rgb(242,238,232)" transform="translate(0,0)"></path>
<path d="M 1387.09 1468.52 C 1410.51 1466.89 1440.55 1471.26 1464.74 1470.4 C 1467.95 1470.28 1477.9 1472.5 1481.96 1473.03 C 1488.91 1481.25 1495.68 1488.75 1503.51 1496.14 C 1512.99 1505.09 1523.46 1513.25 1531.99 1523.05 C 1496.68 1521.06 1462.75 1521.87 1427.56 1524.02 C 1411.27 1525.01 1394.69 1521.48 1377.98 1522.91 C 1366.15 1523.13 1352.04 1524.73 1340.51 1524.29 C 1313.93 1523.29 1287.37 1522.12 1260.74 1522.28 C 1250.28 1503.06 1243.79 1488 1231.66 1469.25 C 1283.88 1468.28 1334.13 1470.47 1387.09 1468.52 z" fill="rgb(242,238,232)" transform="translate(0,0)"></path>
<path d="M 883.065 601.897 C 884.775 602.757 889.427 609.617 890.99 611.661 C 906.276 631.646 918.906 652.317 928.906 675.439 C 899.255 694.107 876.102 712.409 858.266 743.474 C 847.122 762.884 844.158 760.522 825.863 749.081 C 810.806 741.157 784.408 728.937 769.075 722.554 C 787.618 674.468 840.673 629.337 883.065 601.897 z" fill="rgb(14,65,123)" transform="translate(0,0)"></path>
<path d="M 1164.96 601.362 C 1174.33 608.654 1185.53 613.209 1194.54 619.982 C 1230.18 646.802 1264.03 681.745 1281.21 723.466 C 1267.18 731.965 1246.85 740.212 1231.36 747.951 C 1221.71 753.212 1213.43 756.658 1203.15 760.354 C 1181.77 727.147 1161.07 693.339 1124.24 676.588 C 1127.72 669.073 1134.93 659.442 1139.27 651.913 C 1149 635.078 1158.02 619.56 1164.96 601.362 z" fill="rgb(14,65,123)" transform="translate(0,0)"></path>
<path d="M 766.763 731.897 C 787.767 745.7 819.785 763.66 844.18 769.321 C 841.914 775.607 838.381 782.182 835.781 788.527 C 823.876 817.573 821.708 849.888 822.547 881.182 L 809.772 881.021 C 788.319 883.737 760.262 883.463 738.58 882.482 C 734.195 882.283 737.699 862.522 737.784 859.529 C 739.099 813.5 744.615 773.123 766.763 731.897 z" fill="rgb(242,238,232)" transform="translate(0,0)"></path>
<path d="M 159.74 850.267 C 171.641 848.787 183.206 850.398 195.003 850.611 C 220.174 851.064 241.152 853.15 266.471 851.594 C 254.436 876.755 247.618 913.907 240.479 941.449 C 233.454 968.55 226.548 996.976 220.372 1024.25 C 216.788 1040.46 214.783 1058.72 208.609 1074.06 C 207.643 1061.18 202.263 1031.03 196.118 1018.29 C 188.57 1001.27 189.883 976.891 185.061 958.949 C 176.176 925.885 173.353 881.166 159.74 850.267 z" fill="rgb(0,0,0)" transform="translate(0,0)"></path>
<path d="M 1786.59 850.776 C 1792.29 851.827 1796.55 854.063 1802.15 854.916 C 1803.34 856.109 1806.08 852.233 1806.62 852.219 C 1826.16 851.725 1845.77 850.798 1865.29 852.235 C 1874.14 852.887 1882.25 853.611 1891.04 852.018 C 1878.68 883.945 1873.21 922.182 1867.48 955.697 L 1853.62 1033.25 C 1850.97 1049.03 1847.63 1064.69 1843.61 1080.18 C 1840.82 1070.3 1839.46 1059.87 1836.85 1050 C 1822.35 994.991 1815.9 937.692 1795.7 884.324 C 1794.23 880.417 1795.45 874.397 1794.08 870.57 C 1791.62 863.688 1788.28 858.013 1786.59 850.776 z" fill="rgb(0,0,0)" transform="translate(0,0)"></path>
<path d="M 1285.82 735.785 C 1288.79 737.691 1291.78 744.927 1293.15 748.29 C 1310.19 790.311 1310.58 835.408 1312.28 880.008 C 1301.98 880.881 1290.5 880.868 1280.07 881.132 C 1267.19 881.459 1250.34 883.018 1237.77 881.672 C 1225.74 880.444 1229.49 877.578 1229.15 865.734 C 1228.19 832.806 1220.75 801.114 1208.03 770.762 C 1225.34 767.554 1269.4 744.974 1285.82 735.785 z" fill="rgb(238,108,75)" transform="translate(0,0)"></path>
<path d="M 866.483 1468.58 C 891.202 1466.47 917.073 1472.17 942.09 1470.07 C 950.939 1469.32 961.196 1470.51 970.291 1470.27 C 985.793 1469.86 1000.97 1467.88 1016.26 1471.07 C 1020.95 1481.82 1017.83 1512.2 1017.26 1525.17 C 1001.74 1523.02 980.194 1524.65 964.05 1525.12 C 948.6 1523.04 927.917 1523.34 912.208 1523.13 C 899.019 1522.96 885.193 1525.26 871.616 1524.76 C 851.224 1524.01 829.326 1519.52 809.109 1521.78 C 819.526 1498.85 825.277 1495.71 833.637 1469.64 C 843.812 1469.97 856.186 1469.15 866.483 1468.58 z" fill="rgb(246,167,62)" transform="translate(0,0)"></path>
<path d="M 1092.89 1470.43 C 1109.33 1469.1 1131.93 1471.71 1148.47 1472.57 C 1171.66 1473.75 1194.89 1473.21 1218 1470.95 C 1225.55 1486.01 1236.3 1508.32 1245.43 1521.85 C 1225.04 1522.59 1208.91 1522.06 1188.47 1521.03 C 1138.01 1520.3 1087.14 1524.17 1037.19 1522.91 C 1033.67 1506.83 1034.24 1487.31 1034.04 1470.68 C 1051.05 1470.92 1076.35 1471.94 1092.89 1470.43 z" fill="rgb(14,65,123)" transform="translate(0,0)"></path>
<path d="M 481.796 722.777 C 484.419 725.571 524.263 838.05 526.848 847.235 C 518.868 862.376 511.192 880.032 503.985 895.726 C 494.531 894.582 486.258 894.784 476.75 894.927 L 457.451 895.221 C 447.509 876.775 442.734 863.196 430.4 844.92 C 435.954 834.927 445.269 818.185 449.016 807.573 C 459.174 778.811 471.622 751.487 481.796 722.777 z" fill="rgb(238,108,75)" transform="translate(0,0)"></path>
<path d="M 1570.19 722.655 C 1572.66 738.144 1595.03 791.236 1602 808.564 C 1605.2 816.521 1615.82 831.433 1621.05 845.262 C 1616.77 855.825 1598.41 889.186 1591.17 897.09 C 1585.01 896.919 1578.52 896.989 1572.33 896.965 C 1565.23 897.451 1558.12 897.877 1551.01 898.243 C 1539.75 878.441 1532.45 867.998 1522.38 846.491 C 1529.72 833.487 1532.73 823.968 1538.47 810.473 C 1545.26 794.528 1552.48 779.444 1558.22 762.972 C 1562.15 751.661 1564.93 732.529 1570.19 722.655 z" fill="rgb(238,108,75)" transform="translate(0,0)"></path>
<path d="M 933.149 1398.44 C 959.414 1396.93 990.227 1400.91 1017.45 1399.83 C 1017.81 1409.99 1019.52 1447.47 1016.64 1455.2 C 1008.86 1456.86 1001.47 1455.04 994.046 1455.76 C 971.867 1457.89 950.647 1455.96 928.5 1456 C 906.776 1455.93 858.899 1459.32 839.306 1455.56 C 850.767 1439.96 863.882 1417.37 873.297 1400.18 C 895.451 1399.55 909.669 1399.96 933.149 1398.44 z" fill="rgb(242,238,232)" transform="translate(0,0)"></path>
<path d="M 1038.46 1399.43 C 1055.49 1400.74 1072.72 1399.31 1089.65 1399.14 L 1177.78 1399.03 C 1184.3 1410.75 1210.53 1445.86 1210 1456.46 L 1207.25 1456.98 C 1186.32 1455.9 1172.48 1457.75 1152.29 1457.83 C 1134.2 1457.9 1110.1 1453.95 1091.34 1455.08 C 1069.55 1456.4 1057.33 1457.28 1035.5 1455.96 C 1034.18 1436.43 1035.98 1418.68 1038.46 1399.43 z" fill="rgb(246,167,62)" transform="translate(0,0)"></path>
<path d="M 1559.56 908.405 C 1575.94 907.87 1592.82 908.176 1609.25 908.284 C 1606.86 919.162 1601.34 931.392 1599.88 942.203 C 1594.43 982.391 1586.49 1023.83 1581.6 1063.94 C 1580.98 1066.32 1581.31 1065.58 1580.04 1067.56 C 1578.21 1064.94 1568.05 1013.25 1564.76 1004.33 C 1553.38 973.505 1551.21 939.776 1534.54 910.534 C 1542.68 909.63 1551.36 909.073 1559.56 908.405 z" fill="rgb(0,0,0)" transform="translate(0,0)"></path>
<path d="M 442.889 904.959 C 447.852 905.443 452.786 905.568 457.768 905.49 C 477.074 905.185 495.904 906.42 515.124 908.124 C 504.397 929.427 499.029 955.49 492.762 978.421 C 487.817 996.515 482.822 1014.33 478.099 1032.5 L 470.684 1071.2 C 470.447 1064.84 469.76 1058.59 468.654 1052.33 C 463.49 1023.13 460.633 993.807 457.043 964.427 C 454.641 944.77 448.489 923.881 442.889 904.959 z" fill="rgb(0,0,0)" transform="translate(0,0)"></path>
<path d="M 1927.72 974.287 C 1936.03 977.242 1948.34 976.186 1957.46 975.957 C 1954.54 996.438 1954.41 1013.19 1954.52 1033.82 C 1954.57 1044.64 1952.2 1058.98 1951.45 1070.22 C 1949.79 1093.11 1948.97 1116.06 1948.99 1139.01 C 1943.83 1137.71 1936.34 1135.03 1931.12 1133.32 C 1930 1123.46 1929.02 1113.57 1928.2 1103.67 C 1927.66 1088.95 1929.19 1072.31 1928.63 1058.36 C 1927.99 1042.12 1868.88 1036.48 1867.16 1021.72 C 1872.64 1018.25 1895.79 1022.85 1904.16 1022.33 C 1911.7 1021.86 1919.31 1021.33 1926.94 1020.59 C 1930.06 1001.19 1927.58 992.3 1927.72 974.287 z" fill="rgb(0,0,0)" transform="translate(0,0)"></path>
<path d="M 114.389 977.126 C 117.2 976.863 122.063 977.078 125.022 977.114 C 125.002 991.419 124.014 1007.93 123.662 1022.49 C 142.675 1022.36 162.836 1022.07 181.708 1020.61 C 161.284 1037.57 136.626 1041.26 123.978 1052.57 C 123.083 1066.85 123.745 1081.77 123.546 1096.21 C 122.946 1108.32 123.16 1120.95 123.167 1133.1 L 104.193 1139.01 C 98.8409 1091.3 98.0692 1028.07 97.0837 979.856 C 99.6856 980.086 102.29 980.286 104.897 980.456 C 110.5 980.791 110.58 980.508 114.389 977.126 z" fill="rgb(0,0,0)" transform="translate(0,0)"></path>
<path d="M 636.119 835.69 C 648.511 853.904 663.497 911.787 678.591 925.334 C 671.078 933.416 668.278 938.891 664.243 948.892 C 656.335 948.494 651.191 948.071 643.392 946.883 C 633.057 948.265 623.941 948.265 613.505 950.437 C 609.558 941.96 605.734 933.427 602.034 924.839 C 620.725 891.427 629.193 873.091 636.119 835.69 z" fill="rgb(238,108,75)" transform="translate(0,0)"></path>
<path d="M 1413.46 838.534 C 1417.06 841.963 1435.6 908.888 1447.63 924.656 C 1441.34 933.293 1438.67 937.637 1436.1 948.126 C 1425.82 947.803 1417.79 948.607 1407.61 949.805 C 1402.94 950.041 1396.77 950.945 1392.01 951.499 C 1387.57 942.995 1380.34 933.631 1374.71 925.531 C 1380.17 914.904 1389.42 901.172 1393.68 890.523 C 1400.65 873.116 1405.18 855.757 1413.46 838.534 z" fill="rgb(238,108,75)" transform="translate(0,0)"></path>
<path d="M 653.266 960.402 C 656.199 959.9 656.585 959.472 659.236 960.541 C 659.322 964.434 651.495 978.943 650.281 984.874 C 646.153 1005.04 643.762 1025.51 638.566 1045.39 C 637.047 1051.21 637.293 1055.81 635.124 1062.67 L 633.734 1063.24 L 632.359 1060.47 C 629.205 1047.8 629.614 1036.83 628.277 1024.15 C 626.038 1002.92 623.942 981.729 619.813 960.785 C 633.039 961.202 639.961 961.996 653.266 960.402 z" fill="rgb(0,0,0)" transform="translate(0,0)"></path>
<path d="M 1413.5 961.584 C 1418.59 961.061 1425.53 960.969 1430.8 960.762 C 1428.19 980.31 1425.36 999.546 1421.86 1018.99 C 1420.14 1028.54 1419.61 1057.49 1416.92 1064.53 L 1415.7 1064.93 L 1414.89 1062.78 C 1409.99 1030.79 1405.22 992.022 1394.22 962.037 C 1400.8 962.08 1406.92 961.855 1413.5 961.584 z" fill="rgb(0,0,0)" transform="translate(0,0)"></path>
<path d="M 1645.37 1006.34 C 1650.82 1005.93 1655.41 1005.59 1660.88 1005.55 C 1660.97 1011.32 1661.09 1016.45 1661.4 1022.21 C 1658.86 1026.52 1654.13 1020.71 1654.17 1026.4 C 1654.37 1053.29 1654.16 1080.08 1651.47 1106.85 C 1645.68 1103.16 1644.77 1103.06 1639.89 1098.38 C 1640.8 1086.93 1641.99 1067.24 1641.44 1056.38 C 1640.93 1046.29 1617.2 1043.03 1610.5 1039.01 C 1608.77 1037.97 1603.97 1034.46 1603.64 1032 C 1603.57 1031.51 1603.87 1030.62 1604.12 1030.58 C 1612.49 1029.44 1639.29 1029.07 1646.18 1028.59 C 1646.11 1021.06 1645.64 1013.83 1645.37 1006.34 z" fill="rgb(0,0,0)" transform="translate(0,0)"></path>
<path d="M 398.108 1006.34 C 400.095 1006.25 404.735 1005.29 406.401 1006.5 C 407.047 1006.96 408.888 1032.82 409.263 1036.45 C 424.119 1030.99 429.652 1029.86 445.3 1028.4 C 433.944 1039.08 423.347 1043.9 410.075 1051.6 C 409.53 1054.48 409.084 1062.21 408.867 1065.35 C 407.083 1079.59 408.271 1088.98 409.04 1103.06 C 405.68 1104.16 402.331 1105.22 399.029 1106.49 C 398.078 1074.2 398.256 1038.79 398.108 1006.34 z" fill="rgb(0,0,0)" transform="translate(0,0)"></path>
<path d="M 569.839 1000.85 C 577.82 1006.3 574.927 1018.3 574.928 1027.69 C 592.837 1030.22 592.716 1028.59 609.831 1027.77 C 598.327 1038.55 592.165 1040.93 578.94 1049.25 C 577.155 1052.73 575.577 1055.47 575.103 1059.49 L 574.26 1066.75 C 573.975 1071.34 574.817 1098.03 570.853 1099.02 C 568.883 1097.68 566.297 1008 569.839 1000.85 z" fill="rgb(0,0,0)" transform="translate(0,0)"></path>
<path d="M 1480.02 1005.6 C 1480.62 1006.08 1481.66 1006.67 1481.82 1007.52 C 1483.07 1014.23 1483.42 1097.03 1482.17 1098.51 C 1481.64 1099.14 1481.54 1099.1 1480.69 1099.13 C 1475.33 1095.14 1484.01 1069.43 1474.83 1056.58 C 1466.35 1046.72 1454.96 1039.7 1444.39 1032.22 L 1433.72 1024.58 C 1442.15 1025.38 1448.04 1026.01 1456.22 1028.49 C 1463.51 1030.7 1472.15 1031.06 1479.77 1032.23 C 1479.43 1024.56 1477.94 1012.58 1480.02 1005.6 z" fill="rgb(0,0,0)" transform="translate(0,0)"></path>
<metadata><recraft-signature>{"signed_by": "recraft", "signature_b64": "7wwLym6EgnaaWwephcXNtk1/IeohgLd2hSXz0GVtt8Aoojh8suCiNfTDi5KUAzp0R9ykF01W3kHpn47qN0htDw==", "signing_algo": "Ed25519", "generation_timestamp": 1776360776, "identifier": "e7c1453c-c227-42cd-8e08-87c8bf6818ae"}</recraft-signature></metadata></svg>